<?xml version="1.0" encoding="UTF-8" standalone="no"?>
<!DOCTYPE svg PUBLIC "-//W3C//DTD SVG 1.1//EN" "http://www.w3.org/Graphics/SVG/1.1/DTD/svg11.dtd">
<svg xmlns="http://www.w3.org/2000/svg" version="1.1" viewBox="0.00 0.00 500.00 286.00">
<path fill="#2c5697" d="
  M 500.00 34.62
  L 500.00 36.51
  Q 499.15 50.80 488.85 61.10
  Q 384.41 165.54 279.96 269.99
  Q 272.18 277.78 267.32 280.65
  Q 250.00 290.86 232.63 280.62
  Q 227.82 277.78 220.30 270.27
  Q 115.78 165.74 11.27 61.22
  Q 0.80 50.75 0.00 36.37
  L 0.00 34.24
  C 1.07 19.08 10.05 7.19 24.37 2.26
  Q 38.60 -2.64 51.81 4.91
  Q 56.69 7.71 65.24 16.26
  Q 157.43 108.43 249.50 200.51
  A 0.71 0.71 0.0 0 0 250.51 200.51
  Q 343.17 107.83 435.63 15.43
  Q 443.38 7.68 448.11 4.98
  C 471.35 -8.29 498.50 8.76 500.00 34.62
  Z"
/>
</svg>
