<?xml version="1.0" encoding="UTF-8" standalone="no"?>
<!DOCTYPE svg PUBLIC "-//W3C//DTD SVG 1.1//EN" "http://www.w3.org/Graphics/SVG/1.1/DTD/svg11.dtd">
<svg xmlns="http://www.w3.org/2000/svg" version="1.1" viewBox="0.00 0.00 360.00 359.00">
<path fill="#939393" d="
  M 46.88 0.00
  L 313.24 0.00
  C 339.05 2.83 357.47 20.70 360.00 46.63
  L 360.00 313.52
  Q 355.31 349.53 320.44 359.00
  L 39.48 359.00
  Q 4.58 349.41 0.00 313.40
  L 0.00 46.51
  C 2.65 20.57 21.02 2.77 46.88 0.00
  Z
  M 150.53 199.32
  Q 172.75 199.74 194.84 205.96
  C 232.96 216.69 259.05 243.44 271.94 280.31
  Q 273.56 284.92 274.78 286.35
  C 278.03 290.11 285.14 289.71 287.67 285.36
  Q 288.87 283.30 288.89 278.94
  C 289.19 195.85 240.08 115.44 150.52 109.32
  Q 149.99 109.28 149.99 108.75
  Q 149.93 89.89 149.98 71.04
  Q 149.99 66.69 149.36 65.05
  C 147.84 61.04 142.67 58.92 138.73 60.57
  Q 136.96 61.31 134.38 64.17
  Q 101.08 101.08 67.89 138.06
  C 61.68 144.98 56.42 148.61 63.05 156.69
  Q 98.76 200.27 134.44 243.88
  Q 136.58 246.50 138.28 247.30
  C 144.20 250.08 150.10 245.42 150.05 239.25
  Q 149.89 219.54 149.99 199.84
  Q 149.99 199.31 150.53 199.32
  Z"
/>
</svg>
