<?xml version="1.0" encoding="UTF-8" standalone="no"?>
<!DOCTYPE svg PUBLIC "-//W3C//DTD SVG 1.1//EN" "http://www.w3.org/Graphics/SVG/1.1/DTD/svg11.dtd">
<svg xmlns="http://www.w3.org/2000/svg" version="1.1" viewBox="0.00 0.00 512.00 512.00">
<path fill="#939393" d="
  M 311.70 0.00
  L 321.92 0.00
  C 380.68 1.39 438.56 25.03 476.56 70.41
  Q 509.64 109.90 512.00 161.31
  L 512.00 169.58
  Q 509.05 223.26 473.33 263.56
  A 0.60 0.59 -44.6 0 0 473.32 264.34
  Q 491.40 285.45 509.21 306.24
  Q 511.13 308.48 512.00 313.38
  L 512.00 316.47
  Q 510.34 325.33 503.32 328.52
  Q 500.15 329.97 493.25 329.99
  Q 472.86 330.05 452.58 329.98
  Q 452.05 329.97 452.03 329.44
  Q 449.53 264.72 409.36 215.12
  C 341.43 131.24 223.14 106.07 123.20 139.26
  Q 122.60 139.46 122.72 138.83
  C 130.74 98.08 156.41 62.40 190.84 38.77
  Q 244.69 1.81 311.70 0.00
  Z"
/>
<path fill="#939393" d="
  M 230.13 512.00
  L 13.26 512.00
  Q 2.09 509.74 0.00 498.62
  L 0.00 495.26
  Q 1.02 490.27 2.53 488.54
  Q 22.63 465.49 42.78 442.53
  A 0.51 0.50 45.1 0 0 42.77 441.86
  Q 3.27 397.43 0.00 337.66
  L 0.00 328.15
  Q 3.09 268.93 43.02 225.48
  C 114.95 147.21 238.68 134.42 329.41 185.84
  C 400.60 226.19 442.83 306.73 411.54 387.52
  C 384.08 458.47 304.75 508.65 230.13 512.00
  Z
  M 149.99 329.99
  A 29.99 29.99 0.0 0 0 120.00 300.00
  A 29.99 29.99 0.0 0 0 90.01 329.99
  A 29.99 29.99 0.0 0 0 120.00 359.98
  A 29.99 29.99 0.0 0 0 149.99 329.99
  Z
  M 240.98 329.99
  A 29.99 29.99 0.0 0 0 210.99 300.00
  A 29.99 29.99 0.0 0 0 181.00 329.99
  A 29.99 29.99 0.0 0 0 210.99 359.98
  A 29.99 29.99 0.0 0 0 240.98 329.99
  Z
  M 331.98 329.99
  A 29.99 29.99 0.0 0 0 301.99 300.00
  A 29.99 29.99 0.0 0 0 272.00 329.99
  A 29.99 29.99 0.0 0 0 301.99 359.98
  A 29.99 29.99 0.0 0 0 331.98 329.99
  Z"
/>
</svg>
