<?xml version="1.0" encoding="UTF-8" standalone="no"?>
<!DOCTYPE svg PUBLIC "-//W3C//DTD SVG 1.1//EN" "http://www.w3.org/Graphics/SVG/1.1/DTD/svg11.dtd">
<svg xmlns="http://www.w3.org/2000/svg" version="1.1" viewBox="0.00 0.00 512.00 512.00">
<path fill="#939393" d="
  M 490.59 256.01
  A 234.61 234.61 0.0 0 1 255.98 490.62
  A 234.61 234.61 0.0 0 1 21.37 256.01
  A 234.61 234.61 0.0 0 1 255.98 21.40
  A 234.61 234.61 0.0 0 1 490.59 256.01
  Z
  M 277.37 246.53
  Q 277.29 191.32 277.39 136.09
  Q 277.40 125.00 275.87 120.57
  C 269.34 101.70 242.68 102.37 235.93 120.94
  Q 234.66 124.42 234.66 130.22
  Q 234.64 193.23 234.65 256.25
  C 234.65 263.31 237.79 267.95 243.07 273.23
  Q 271.94 302.07 300.76 330.97
  Q 306.97 337.21 310.92 339.15
  C 328.84 347.98 348.05 328.69 339.14 310.80
  Q 337.14 306.80 330.30 300.05
  Q 303.82 273.92 277.73 247.42
  Q 277.37 247.05 277.37 246.53
  Z"
/>
</svg>
