<?xml version="1.0" encoding="UTF-8" standalone="no"?>
<!DOCTYPE svg PUBLIC "-//W3C//DTD SVG 1.1//EN" "http://www.w3.org/Graphics/SVG/1.1/DTD/svg11.dtd">
<svg xmlns="http://www.w3.org/2000/svg" version="1.1" viewBox="0.00 0.00 600.00 600.00">
<path fill="#7c7c7c" d="
  M 67.09 0.00
  L 528.27 0.00
  Q 538.77 2.13 546.41 8.62
  Q 553.61 14.71 556.03 23.52
  Q 557.24 27.93 557.24 40.59
  Q 557.22 103.13 557.24 165.68
  Q 557.25 178.11 555.71 183.17
  C 547.18 211.26 506.40 211.42 497.75 182.99
  Q 496.22 177.98 496.23 165.86
  Q 496.24 114.32 496.26 63.26
  A 1.02 1.02 0.0 0 0 495.24 62.24
  L 451.25 62.25
  Q 450.49 62.25 450.49 63.00
  L 450.51 92.24
  A 0.55 0.55 0.0 0 1 449.96 92.79
  Q 305.47 92.81 161.00 92.66
  Q 153.54 92.66 146.53 92.51
  A 1.00 0.99 -89.4 0 1 145.56 91.51
  L 145.58 62.78
  A 0.53 0.53 0.0 0 0 145.05 62.25
  Q 107.57 62.29 70.27 62.29
  C 39.78 62.29 26.69 23.27 52.92 6.15
  Q 59.39 1.92 67.09 0.00
  Z"
/>
<path fill="#7c7c7c" d="
  M 449.60 153.74
  A 0.79 0.79 0.0 0 1 450.39 154.53
  L 450.39 203.90
  A 152.70 151.12 -90.0 0 1 299.27 356.60
  L 296.65 356.60
  A 152.70 151.12 -90.0 0 1 145.53 203.90
  L 145.53 154.53
  A 0.79 0.79 0.0 0 1 146.32 153.74
  L 449.60 153.74
  Z"
/>
<path fill="#7c7c7c" d="
  M 290.39 600.00
  L 17.17 600.00
  C 16.70 578.23 19.78 556.56 24.32 534.73
  C 39.24 462.88 81.17 399.80 139.13 355.41
  A 0.63 0.63 0.0 0 1 140.07 355.61
  C 142.10 359.38 144.37 362.26 147.64 365.53
  Q 218.91 436.80 290.20 508.05
  C 291.54 509.40 291.98 510.12 291.98 512.14
  Q 291.99 555.60 291.92 599.06
  Q 291.92 599.56 291.44 599.70
  L 290.39 600.00
  Z"
/>
<path fill="#7c7c7c" d="
  M 585.77 600.00
  L 310.35 600.00
  L 310.21 511.37
  Q 310.21 509.85 311.29 508.77
  Q 383.21 436.92 455.04 365.04
  Q 459.32 360.76 462.11 355.49
  A 0.65 0.65 0.0 0 1 463.08 355.29
  C 521.31 400.64 560.50 460.03 577.16 531.71
  Q 578.99 539.59 580.85 551.37
  C 583.94 570.95 586.43 583.37 585.77 600.00
  Z"
/>
<path fill="#7c7c7c" d="
  M 382.82 367.79
  Q 385.33 366.72 383.40 368.65
  L 298.46 453.54
  A 0.55 0.54 -44.6 0 1 297.69 453.54
  L 211.54 367.49
  A 0.28 0.28 0.0 0 1 211.85 367.04
  C 266.31 391.28 327.79 391.23 382.82 367.79
  Z"
/>
</svg>
