<?xml version="1.0" encoding="UTF-8" standalone="no"?>
<!DOCTYPE svg PUBLIC "-//W3C//DTD SVG 1.1//EN" "http://www.w3.org/Graphics/SVG/1.1/DTD/svg11.dtd">
<svg xmlns="http://www.w3.org/2000/svg" version="1.1" viewBox="0.00 0.00 600.00 600.00">
<path fill="#7c7c7c" d="
  M 134.36 0.00
  L 345.66 0.00
  Q 345.65 65.68 345.69 131.37
  Q 345.69 140.06 347.02 145.00
  C 350.70 158.73 360.66 169.27 374.21 173.87
  Q 379.71 175.74 384.25 175.74
  Q 456.38 175.76 528.56 175.74
  Q 528.93 175.74 528.93 176.12
  Q 528.93 351.44 528.94 526.88
  Q 528.94 539.91 527.57 546.78
  C 521.49 577.42 496.82 598.62 465.63 600.00
  L 134.49 600.00
  C 102.71 598.84 77.10 575.97 72.06 544.95
  Q 71.05 538.74 71.05 525.00
  Q 71.08 299.63 71.06 74.25
  Q 71.06 60.43 72.12 54.30
  C 77.50 23.34 102.84 1.58 134.36 0.00
  Z
  M 442.90 251.72
  A 17.33 17.33 0.0 0 0 425.57 234.39
  L 167.41 234.39
  A 17.33 17.33 0.0 0 0 150.08 251.72
  L 150.08 252.18
  A 17.33 17.33 0.0 0 0 167.41 269.51
  L 425.57 269.51
  A 17.33 17.33 0.0 0 0 442.90 252.18
  L 442.90 251.72
  Z
  M 442.90 345.51
  A 17.33 17.33 0.0 0 0 425.57 328.18
  L 167.41 328.18
  A 17.33 17.33 0.0 0 0 150.08 345.51
  L 150.08 345.97
  A 17.33 17.33 0.0 0 0 167.41 363.30
  L 425.57 363.30
  A 17.33 17.33 0.0 0 0 442.90 345.97
  L 442.90 345.51
  Z
  M 270.2390 438.7852
  A 17.03 17.03 0.0 0 0 253.1793 421.7850
  L 167.1594 421.9351
  A 17.03 17.03 0.0 0 0 150.1592 438.9948
  L 150.1610 440.0548
  A 17.03 17.03 0.0 0 0 167.2207 457.0550
  L 253.2406 456.9049
  A 17.03 17.03 0.0 0 0 270.2408 439.8452
  L 270.2390 438.7852
  Z"
/>
<path fill="#7c7c7c" d="
  M 381.60 7.58
  C 386.71 10.38 391.79 14.22 396.02 18.22
  Q 452.40 71.60 508.65 125.11
  Q 515.60 131.72 520.26 139.77
  A 0.56 0.56 0.0 0 1 519.78 140.61
  Q 453.62 140.53 388.20 140.56
  C 383.60 140.56 380.76 138.76 380.76 134.00
  Q 380.79 71.50 380.82 8.05
  Q 380.82 7.16 381.60 7.58
  Z"
/>
</svg>
