<?xml version="1.0" encoding="UTF-8" standalone="no"?>
<!DOCTYPE svg PUBLIC "-//W3C//DTD SVG 1.1//EN" "http://www.w3.org/Graphics/SVG/1.1/DTD/svg11.dtd">
<svg xmlns="http://www.w3.org/2000/svg" version="1.1" viewBox="0.00 0.00 600.00 600.00">
<path fill="#7c7c7c" d="
  M 100.12 150.84
  Q 92.94 157.83 85.72 165.21
  C 79.36 171.72 72.00 168.92 67.72 162.00
  Q 35.51 109.97 3.20 58.00
  Q -1.99 49.64 1.30 41.64
  Q 2.87 37.83 9.63 31.01
  Q 21.05 19.49 32.57 8.07
  C 35.97 4.69 39.12 1.81 43.71 0.68
  Q 51.03 -1.13 57.42 2.83
  Q 108.36 34.45 159.29 66.11
  C 165.75 70.13 171.69 74.31 167.82 82.00
  Q 166.68 84.25 162.49 88.43
  Q 156.58 94.33 150.76 100.11
  A 0.64 0.64 0.0 0 0 150.76 101.02
  L 262.29 212.55
  A 0.61 0.60 -45.3 0 1 262.29 213.40
  L 213.27 262.41
  A 0.42 0.42 0.0 0 1 212.67 262.41
  L 101.10 150.85
  Q 100.62 150.36 100.12 150.84
  Z"
/>
<path fill="#7c7c7c" d="
  M 600.00 102.89
  L 600.00 104.01
  C 599.46 139.97 583.25 173.04 553.32 192.80
  Q 515.11 218.05 467.98 207.76
  A 1.86 1.85 -61.2 0 0 466.27 208.26
  L 208.13 466.39
  A 1.82 1.80 -29.8 0 0 207.65 468.11
  C 223.91 535.14 175.82 598.01 106.62 600.00
  L 104.51 600.00
  Q 92.06 599.56 77.02 595.98
  Q 68.80 594.03 68.00 586.81
  C 67.47 581.97 70.31 579.48 73.53 576.28
  Q 89.42 560.47 104.85 545.09
  A 2.95 2.93 67.6 0 0 105.71 543.01
  L 105.66 494.96
  Q 105.66 494.51 105.21 494.51
  L 56.74 494.51
  A 2.44 2.41 22.1 0 0 55.01 495.23
  Q 39.23 511.04 23.13 527.10
  C 19.02 531.20 14.61 533.98 9.34 530.92
  Q 5.43 528.66 4.20 523.73
  Q 0.64 509.50 0.00 497.11
  L 0.00 496.24
  C 0.29 463.80 13.68 433.08 39.01 412.89
  Q 79.08 380.95 132.00 392.22
  A 1.89 1.88 28.4 0 0 133.72 391.71
  L 391.62 133.81
  Q 392.30 133.12 392.11 132.17
  Q 381.21 78.73 413.00 38.87
  C 435.76 10.34 470.73 -2.59 507.25 0.96
  Q 517.58 1.97 525.76 4.77
  C 528.33 5.66 530.56 8.02 531.42 10.67
  Q 533.43 16.81 528.24 22.00
  Q 511.56 38.72 494.89 55.36
  Q 494.51 55.73 494.51 56.27
  L 494.51 105.00
  A 0.49 0.49 0.0 0 0 495.00 105.49
  L 543.47 105.49
  A 1.81 1.81 0.0 0 0 544.75 104.96
  Q 559.50 90.31 574.39 75.31
  Q 580.06 69.58 583.12 68.45
  C 589.40 66.15 594.32 70.71 595.89 76.69
  Q 599.26 89.56 600.00 102.89
  Z"
/>
<path fill="#7c7c7c" d="
  M 600.00 510.61
  L 600.00 513.76
  C 598.02 561.72 561.78 598.58 513.62 600.00
  L 510.47 600.00
  Q 478.14 598.74 454.50 578.38
  Q 452.43 576.60 440.15 564.46
  Q 386.73 511.66 333.40 458.74
  C 321.45 446.88 313.65 437.53 307.95 423.09
  Q 307.69 422.45 308.19 421.96
  L 420.95 309.18
  A 0.86 0.84 32.7 0 1 421.87 308.99
  Q 438.29 315.70 450.77 327.99
  Q 511.67 387.95 572.39 448.11
  Q 598.70 474.18 600.00 510.61
  Z
  M 524.3929 523.7717
  A 17.29 17.29 0.0 0 0 524.2222 499.3205
  L 437.6255 413.9247
  A 17.29 17.29 0.0 0 0 413.1744 414.0954
  L 412.7671 414.5083
  A 17.29 17.29 0.0 0 0 412.9378 438.9595
  L 499.5345 524.3553
  A 17.29 17.29 0.0 0 0 523.9856 524.1846
  L 524.3929 523.7717
  Z"
/>
</svg>
