<?xml version="1.0" encoding="UTF-8" standalone="no"?>
<!DOCTYPE svg PUBLIC "-//W3C//DTD SVG 1.1//EN" "http://www.w3.org/Graphics/SVG/1.1/DTD/svg11.dtd">
<svg xmlns="http://www.w3.org/2000/svg" version="1.1" viewBox="0.00 0.00 50.00 50.00">
<g stroke-width="2.00" fill="none" stroke-linecap="butt">
<path stroke="#9aadcb" vector-effect="non-scaling-stroke" d="
  M 28.75 12.05
  A 3.50 3.50 0.0 0 0 25.25 8.55
  L 24.77 8.55
  A 3.50 3.50 0.0 0 0 21.27 12.05
  L 21.27 26.97
  A 3.50 3.50 0.0 0 0 24.77 30.47
  L 25.25 30.47
  A 3.50 3.50 0.0 0 0 28.75 26.97
  L 28.75 12.05"
/>
<path stroke="#9aadcb" vector-effect="non-scaling-stroke" d="
  M 28.72 37.69
  A 3.66 3.66 0.0 0 0 25.06 34.03
  A 3.66 3.66 0.0 0 0 21.40 37.69
  A 3.66 3.66 0.0 0 0 25.06 41.35
  A 3.66 3.66 0.0 0 0 28.72 37.69"
/>
</g>
<path fill="#355b96" d="
  M 50.00 22.86
  L 50.00 27.26
  Q 46.80 46.85 27.13 50.00
  L 22.74 50.00
  Q 3.29 46.80 0.00 27.38
  L 0.00 22.80
  C 3.88 -7.09 45.04 -7.48 50.00 22.86
  Z
  M 28.75 12.05
  A 3.50 3.50 0.0 0 0 25.25 8.55
  L 24.77 8.55
  A 3.50 3.50 0.0 0 0 21.27 12.05
  L 21.27 26.97
  A 3.50 3.50 0.0 0 0 24.77 30.47
  L 25.25 30.47
  A 3.50 3.50 0.0 0 0 28.75 26.97
  L 28.75 12.05
  Z
  M 28.72 37.69
  A 3.66 3.66 0.0 0 0 25.06 34.03
  A 3.66 3.66 0.0 0 0 21.40 37.69
  A 3.66 3.66 0.0 0 0 25.06 41.35
  A 3.66 3.66 0.0 0 0 28.72 37.69
  Z"
/>
<rect fill="#ffffff" x="21.27" y="8.55" width="7.48" height="21.92" rx="3.50"/>
<circle fill="#ffffff" cx="25.06" cy="37.69" r="3.66"/>
</svg>
