<?xml version="1.0" encoding="UTF-8" standalone="no"?>
<!DOCTYPE svg PUBLIC "-//W3C//DTD SVG 1.1//EN" "http://www.w3.org/Graphics/SVG/1.1/DTD/svg11.dtd">
<svg xmlns="http://www.w3.org/2000/svg" version="1.1" viewBox="0.00 0.00 50.00 50.00">
<path fill="#939393" d="
  M 11.91 0.00
  L 12.52 0.00
  Q 13.70 0.76 14.71 2.10
  A 1.03 1.03 0.0 0 0 15.54 2.52
  L 44.56 2.63
  A 2.47 2.46 18.6 0 1 46.52 6.58
  L 40.40 14.70
  Q 40.13 15.06 40.40 15.42
  L 46.63 23.67
  A 2.40 2.40 0.0 0 1 44.71 27.51
  L 14.76 27.51
  A 0.23 0.23 0.0 0 0 14.53 27.74
  L 14.53 44.45
  Q 14.53 45.18 15.26 45.14
  C 17.33 45.02 19.95 45.28 19.53 47.98
  Q 19.31 49.40 17.61 50.00
  L 6.30 50.00
  C 5.09 49.37 4.04 48.26 4.57 46.80
  C 5.22 45.02 7.30 45.01 8.91 45.20
  Q 9.54 45.27 9.54 44.64
  Q 9.55 23.55 9.53 2.50
  Q 9.53 0.60 11.91 0.00
  Z"
/>
</svg>
