<?xml version="1.0" encoding="UTF-8" standalone="no"?>
<!DOCTYPE svg PUBLIC "-//W3C//DTD SVG 1.1//EN" "http://www.w3.org/Graphics/SVG/1.1/DTD/svg11.dtd">
<svg xmlns="http://www.w3.org/2000/svg" version="1.1" viewBox="0.00 0.00 600.00 600.00">
<circle fill="#7c7c7c" cx="299.99" cy="104.61" r="103.37"/>
<path fill="#7c7c7c" d="
  M 299.40 315.59
  L 158.42 262.64
  A 0.23 0.23 0.0 0 1 158.35 262.25
  Q 187.43 236.32 223.80 222.28
  Q 224.28 222.09 224.71 222.37
  C 271.24 252.14 328.89 251.89 375.37 222.38
  Q 375.83 222.09 376.33 222.29
  Q 412.49 236.28 441.43 262.05
  A 0.46 0.46 0.0 0 1 441.29 262.82
  L 300.77 315.59
  Q 300.09 315.85 299.40 315.59
  Z"
/>
<path fill="#7c7c7c" d="
  M 143.42 443.19
  C 146.67 436.60 147.93 428.39 147.96 420.23
  Q 148.05 398.41 148.00 376.59
  Q 147.97 366.14 146.78 360.50
  Q 144.95 351.85 140.98 345.27
  Q 123.47 316.20 87.85 317.65
  Q 87.29 317.67 87.29 317.12
  Q 87.26 299.12 87.29 281.36
  Q 87.31 273.90 88.37 270.82
  C 90.80 263.81 97.92 258.73 105.35 258.72
  Q 108.74 258.72 115.43 261.23
  Q 197.86 292.09 280.74 323.28
  A 1.56 1.56 0.0 0 1 281.75 324.74
  L 281.75 599.28
  Q 281.75 599.95 281.12 599.72
  Q 190.30 565.58 99.83 531.63
  Q 91.74 528.60 88.77 521.34
  Q 87.30 517.76 87.30 509.73
  Q 87.28 492.94 87.28 476.34
  Q 87.28 475.89 87.73 475.90
  Q 126.67 477.08 143.42 443.19
  Z"
/>
<path fill="#7c7c7c" d="
  M 453.19 432.16
  C 459.05 459.74 483.62 477.72 511.59 475.71
  A 1.05 1.05 0.0 0 1 512.71 476.76
  Q 512.76 494.15 512.69 511.56
  Q 512.66 517.93 511.27 521.26
  Q 508.20 528.67 500.21 531.67
  Q 409.69 565.68 319.07 599.70
  Q 318.25 600.00 318.25 599.13
  L 318.25 324.52
  A 1.20 1.19 -10.2 0 1 319.03 323.40
  Q 404.65 291.29 488.99 259.56
  C 497.18 256.48 507.88 261.43 511.27 269.83
  Q 512.65 273.24 512.69 280.36
  Q 512.78 298.68 512.71 316.99
  Q 512.71 317.54 512.16 317.53
  Q 504.23 317.42 498.25 318.30
  C 476.07 321.57 458.35 338.71 453.32 360.25
  Q 452.02 365.83 452.03 375.87
  Q 452.04 395.06 451.94 414.26
  Q 451.88 425.98 453.19 432.16
  Z"
/>
<path fill="#7c7c7c" d="
  M 111.51 421.27
  A 18.13 18.13 0.0 0 1 93.38 439.40
  L 82.46 439.40
  A 44.13 42.52 0.0 0 1 38.33 396.88
  L 38.33 396.62
  A 44.13 42.52 -0.0 0 1 82.46 354.10
  L 93.38 354.10
  A 18.13 18.13 0.0 0 1 111.51 372.23
  L 111.51 421.27
  Z"
/>
<path fill="#7c7c7c" d="
  M 488.49 372.21
  A 18.12 18.12 0.0 0 1 506.61 354.09
  L 517.60 354.09
  A 44.05 42.53 0.0 0 1 561.65 396.62
  L 561.65 396.88
  A 44.05 42.53 0.0 0 1 517.60 439.41
  L 506.61 439.41
  A 18.12 18.12 0.0 0 1 488.49 421.29
  L 488.49 372.21
  Z"
/>
</svg>
