<?xml version="1.0" encoding="UTF-8" standalone="no"?>
<!DOCTYPE svg PUBLIC "-//W3C//DTD SVG 1.1//EN" "http://www.w3.org/Graphics/SVG/1.1/DTD/svg11.dtd">
<svg xmlns="http://www.w3.org/2000/svg" version="1.1" viewBox="0.00 0.00 360.00 359.00">
<g stroke-width="2.00" fill="none" stroke-linecap="butt">
<path stroke="#c9c9c9" vector-effect="non-scaling-stroke" d="
  M 36.49 88.16
  C 26.86 91.30 21.88 102.24 27.05 111.22
  C 31.75 119.38 38.49 119.04 48.28 119.04
  Q 152.28 119.06 256.29 119.04
  C 263.40 119.04 268.45 117.96 272.25 112.25
  C 278.18 103.35 273.99 91.99 264.11 88.35
  Q 261.30 87.32 255.80 87.31
  Q 150.09 87.22 44.37 87.31
  Q 39.08 87.31 36.49 88.16"
/>
<path stroke="#c9c9c9" vector-effect="non-scaling-stroke" d="
  M 275.38 185.69
  Q 305.69 151.60 336.32 117.80
  Q 340.39 113.31 341.56 110.38
  Q 343.41 105.74 342.40 101.00
  C 340.37 91.49 331.37 86.07 321.78 88.44
  Q 319.23 89.07 316.91 91.18
  Q 311.89 95.74 307.44 100.87
  Q 301.85 107.31 301.79 107.38
  Q 271.83 140.58 242.01 173.91
  Q 239.00 177.27 238.00 180.20
  Q 235.60 187.24 238.13 194.29
  C 240.02 199.57 246.43 204.60 250.63 208.36
  Q 285.99 239.99 321.12 271.88
  C 323.00 273.59 326.05 276.42 328.74 277.36
  C 343.03 282.38 355.68 268.74 349.50 254.89
  Q 348.31 252.22 345.34 249.56
  Q 316.56 223.71 287.89 197.79
  C 284.94 195.12 279.40 190.47 275.41 186.51
  Q 275.01 186.11 275.38 185.69"
/>
<path stroke="#c9c9c9" vector-effect="non-scaling-stroke" d="
  M 195.76 181.06
  A 15.45 15.45 0.0 0 0 180.31 165.61
  L 40.61 165.61
  A 15.45 15.45 0.0 0 0 25.16 181.06
  L 25.16 181.68
  A 15.45 15.45 0.0 0 0 40.61 197.13
  L 180.31 197.13
  A 15.45 15.45 0.0 0 0 195.76 181.68
  L 195.76 181.06"
/>
<path stroke="#c9c9c9" vector-effect="non-scaling-stroke" d="
  M 264.84 243.60
  Q 262.48 242.61 261.25 242.54
  Q 254.67 242.14 240.75 242.16
  Q 146.37 242.26 52.00 242.26
  C 46.33 242.26 39.39 241.65 34.39 244.02
  C 22.26 249.78 21.60 267.62 34.61 272.78
  Q 37.75 274.02 46.54 274.02
  Q 151.23 274.02 255.93 274.02
  Q 262.25 274.01 264.96 273.02
  C 278.63 268.02 277.84 249.04 264.84 243.60"
/>
</g>
<path fill="#939393" d="
  M 17.12 0.00
  L 343.00 0.00
  Q 357.47 2.67 360.00 17.12
  L 360.00 343.00
  Q 358.08 354.53 347.37 359.00
  L 12.71 359.00
  Q 1.85 354.58 0.00 342.87
  L 0.00 17.00
  Q 2.66 2.54 17.12 0.00
  Z
  M 36.49 88.16
  C 26.86 91.30 21.88 102.24 27.05 111.22
  C 31.75 119.38 38.49 119.04 48.28 119.04
  Q 152.28 119.06 256.29 119.04
  C 263.40 119.04 268.45 117.96 272.25 112.25
  C 278.18 103.35 273.99 91.99 264.11 88.35
  Q 261.30 87.32 255.80 87.31
  Q 150.09 87.22 44.37 87.31
  Q 39.08 87.31 36.49 88.16
  Z
  M 275.38 185.69
  Q 305.69 151.60 336.32 117.80
  Q 340.39 113.31 341.56 110.38
  Q 343.41 105.74 342.40 101.00
  C 340.37 91.49 331.37 86.07 321.78 88.44
  Q 319.23 89.07 316.91 91.18
  Q 311.89 95.74 307.44 100.87
  Q 301.85 107.31 301.79 107.38
  Q 271.83 140.58 242.01 173.91
  Q 239.00 177.27 238.00 180.20
  Q 235.60 187.24 238.13 194.29
  C 240.02 199.57 246.43 204.60 250.63 208.36
  Q 285.99 239.99 321.12 271.88
  C 323.00 273.59 326.05 276.42 328.74 277.36
  C 343.03 282.38 355.68 268.74 349.50 254.89
  Q 348.31 252.22 345.34 249.56
  Q 316.56 223.71 287.89 197.79
  C 284.94 195.12 279.40 190.47 275.41 186.51
  Q 275.01 186.11 275.38 185.69
  Z
  M 195.76 181.06
  A 15.45 15.45 0.0 0 0 180.31 165.61
  L 40.61 165.61
  A 15.45 15.45 0.0 0 0 25.16 181.06
  L 25.16 181.68
  A 15.45 15.45 0.0 0 0 40.61 197.13
  L 180.31 197.13
  A 15.45 15.45 0.0 0 0 195.76 181.68
  L 195.76 181.06
  Z
  M 264.84 243.60
  Q 262.48 242.61 261.25 242.54
  Q 254.67 242.14 240.75 242.16
  Q 146.37 242.26 52.00 242.26
  C 46.33 242.26 39.39 241.65 34.39 244.02
  C 22.26 249.78 21.60 267.62 34.61 272.78
  Q 37.75 274.02 46.54 274.02
  Q 151.23 274.02 255.93 274.02
  Q 262.25 274.01 264.96 273.02
  C 278.63 268.02 277.84 249.04 264.84 243.60
  Z"
/>
<path fill="#ffffff" d="
  M 27.05 111.22
  C 21.88 102.24 26.86 91.30 36.49 88.16
  Q 39.08 87.31 44.37 87.31
  Q 150.09 87.22 255.80 87.31
  Q 261.30 87.32 264.11 88.35
  C 273.99 91.99 278.18 103.35 272.25 112.25
  C 268.45 117.96 263.40 119.04 256.29 119.04
  Q 152.28 119.06 48.28 119.04
  C 38.49 119.04 31.75 119.38 27.05 111.22
  Z"
/>
<path fill="#ffffff" d="
  M 275.41 186.51
  C 279.40 190.47 284.94 195.12 287.89 197.79
  Q 316.56 223.71 345.34 249.56
  Q 348.31 252.22 349.50 254.89
  C 355.68 268.74 343.03 282.38 328.74 277.36
  C 326.05 276.42 323.00 273.59 321.12 271.88
  Q 285.99 239.99 250.63 208.36
  C 246.43 204.60 240.02 199.57 238.13 194.29
  Q 235.60 187.24 238.00 180.20
  Q 239.00 177.27 242.01 173.91
  Q 271.83 140.58 301.79 107.38
  Q 301.85 107.31 307.44 100.87
  Q 311.89 95.74 316.91 91.18
  Q 319.23 89.07 321.78 88.44
  C 331.37 86.07 340.37 91.49 342.40 101.00
  Q 343.41 105.74 341.56 110.38
  Q 340.39 113.31 336.32 117.80
  Q 305.69 151.60 275.38 185.69
  Q 275.01 186.11 275.41 186.51
  Z"
/>
<rect fill="#ffffff" x="25.16" y="165.61" width="170.60" height="31.52" rx="15.45"/>
<path fill="#ffffff" d="
  M 264.84 243.60
  C 277.84 249.04 278.63 268.02 264.96 273.02
  Q 262.25 274.01 255.93 274.02
  Q 151.23 274.02 46.54 274.02
  Q 37.75 274.02 34.61 272.78
  C 21.60 267.62 22.26 249.78 34.39 244.02
  C 39.39 241.65 46.33 242.26 52.00 242.26
  Q 146.37 242.26 240.75 242.16
  Q 254.67 242.14 261.25 242.54
  Q 262.48 242.61 264.84 243.60
  Z"
/>
</svg>
