<?xml version="1.0" encoding="UTF-8" standalone="no"?>
<!DOCTYPE svg PUBLIC "-//W3C//DTD SVG 1.1//EN" "http://www.w3.org/Graphics/SVG/1.1/DTD/svg11.dtd">
<svg xmlns="http://www.w3.org/2000/svg" version="1.1" viewBox="0.00 0.00 360.00 359.00">
<g stroke-width="2.00" fill="none" stroke-linecap="butt">
<path stroke="#c9c9c9" vector-effect="non-scaling-stroke" d="
  M 55.15 100.48
  C 54.16 107.27 58.38 114.60 64.91 117.03
  Q 67.62 118.04 73.72 118.04
  Q 180.17 118.06 286.62 118.04
  Q 292.49 118.04 295.22 116.97
  C 304.96 113.14 307.95 100.60 301.41 92.57
  Q 296.33 86.33 287.00 86.33
  Q 144.55 86.19 72.25 86.33
  C 63.54 86.35 56.40 91.91 55.15 100.48"
/>
<path stroke="#c9c9c9" vector-effect="non-scaling-stroke" d="
  M 225.77 180.00
  A 15.39 15.39 0.0 0 0 210.38 164.61
  L 70.54 164.61
  A 15.39 15.39 0.0 0 0 55.15 180.00
  L 55.15 180.62
  A 15.39 15.39 0.0 0 0 70.54 196.01
  L 210.38 196.01
  A 15.39 15.39 0.0 0 0 225.77 180.62
  L 225.77 180.00"
/>
<path stroke="#c9c9c9" vector-effect="non-scaling-stroke" d="
  M 146.6390 257.5402
  A 15.06 15.06 0.0 0 0 131.5527 242.5065
  L 70.2128 242.6136
  A 15.06 15.06 0.0 0 0 55.1791 257.6998
  L 55.1810 258.7798
  A 15.06 15.06 0.0 0 0 70.2673 273.8135
  L 131.6072 273.7064
  A 15.06 15.06 0.0 0 0 146.6409 258.6202
  L 146.6390 257.5402"
/>
</g>
<path fill="#939393" d="
  M 17.12 0.00
  L 343.00 0.00
  Q 357.47 2.67 360.00 17.12
  L 360.00 343.00
  Q 358.08 354.53 347.37 359.00
  L 12.71 359.00
  Q 1.85 354.58 0.00 342.87
  L 0.00 17.00
  Q 2.66 2.54 17.12 0.00
  Z
  M 55.15 100.48
  C 54.16 107.27 58.38 114.60 64.91 117.03
  Q 67.62 118.04 73.72 118.04
  Q 180.17 118.06 286.62 118.04
  Q 292.49 118.04 295.22 116.97
  C 304.96 113.14 307.95 100.60 301.41 92.57
  Q 296.33 86.33 287.00 86.33
  Q 144.55 86.19 72.25 86.33
  C 63.54 86.35 56.40 91.91 55.15 100.48
  Z
  M 225.77 180.00
  A 15.39 15.39 0.0 0 0 210.38 164.61
  L 70.54 164.61
  A 15.39 15.39 0.0 0 0 55.15 180.00
  L 55.15 180.62
  A 15.39 15.39 0.0 0 0 70.54 196.01
  L 210.38 196.01
  A 15.39 15.39 0.0 0 0 225.77 180.62
  L 225.77 180.00
  Z
  M 146.6390 257.5402
  A 15.06 15.06 0.0 0 0 131.5527 242.5065
  L 70.2128 242.6136
  A 15.06 15.06 0.0 0 0 55.1791 257.6998
  L 55.1810 258.7798
  A 15.06 15.06 0.0 0 0 70.2673 273.8135
  L 131.6072 273.7064
  A 15.06 15.06 0.0 0 0 146.6409 258.6202
  L 146.6390 257.5402
  Z"
/>
<path fill="#ffffff" d="
  M 55.15 100.48
  C 56.40 91.91 63.54 86.35 72.25 86.33
  Q 144.55 86.19 287.00 86.33
  Q 296.33 86.33 301.41 92.57
  C 307.95 100.60 304.96 113.14 295.22 116.97
  Q 292.49 118.04 286.62 118.04
  Q 180.17 118.06 73.72 118.04
  Q 67.62 118.04 64.91 117.03
  C 58.38 114.60 54.16 107.27 55.15 100.48
  Z"
/>
<rect fill="#ffffff" x="55.15" y="164.61" width="170.62" height="31.40" rx="15.39"/>
<rect fill="#ffffff" x="-45.73" y="-15.60" transform="translate(100.91,258.16) rotate(-0.1)" width="91.46" height="31.20" rx="15.06"/>
</svg>
