<?xml version="1.0" encoding="UTF-8" standalone="no"?>
<!DOCTYPE svg PUBLIC "-//W3C//DTD SVG 1.1//EN" "http://www.w3.org/Graphics/SVG/1.1/DTD/svg11.dtd">
<svg xmlns="http://www.w3.org/2000/svg" version="1.1" viewBox="0.00 0.00 512.00 452.00">
<path fill="#1f4389" d="
  M 80.48 0.66
  C 141.98 0.56 200.16 25.48 239.87 72.92
  Q 240.16 73.27 239.72 73.37
  Q 237.91 73.81 236.76 73.29
  C 182.70 48.95 123.18 35.54 64.24 31.07
  Q 63.72 31.03 63.71 30.51
  Q 63.58 24.01 63.48 17.77
  Q 63.28 6.34 72.25 2.12
  Q 75.33 0.67 80.48 0.66
  Z"
/>
<path fill="#1f4389" d="
  M 272.17 72.89
  C 310.30 27.26 366.01 2.30 425.11 0.76
  C 434.93 0.50 442.23 0.02 446.70 8.91
  Q 448.20 11.90 448.33 16.84
  Q 448.52 23.81 448.32 30.79
  Q 448.30 31.32 447.77 31.36
  Q 358.46 39.12 275.74 73.39
  Q 274.61 73.86 272.33 73.35
  Q 271.87 73.25 272.17 72.89
  Z"
/>
<path fill="#1f4389" d="
  M 0.00 393.87
  L 0.00 72.26
  Q 1.78 63.87 8.63 60.65
  Q 11.70 59.20 17.59 59.21
  C 78.36 59.33 138.86 68.83 195.83 88.84
  A 0.71 0.71 0.0 0 1 196.30 89.51
  L 196.30 438.72
  Q 196.30 439.07 195.98 438.95
  Q 122.59 411.41 42.99 407.91
  Q 26.96 407.20 17.13 407.07
  C 8.11 406.96 1.92 403.25 0.00 393.87
  Z"
/>
<path fill="#1f4389" d="
  M 512.00 72.38
  L 512.00 393.98
  Q 508.96 406.96 495.73 407.07
  Q 403.11 407.81 316.20 439.84
  Q 315.70 440.02 315.70 439.49
  L 315.70 90.49
  Q 315.70 90.10 316.07 89.97
  Q 402.50 59.89 494.14 59.18
  C 503.57 59.11 510.02 62.62 512.00 72.38
  Z
  M 357.11 225.72
  C 360.23 232.67 368.12 236.09 375.51 233.81
  Q 414.29 221.84 454.60 217.62
  Q 465.00 216.53 468.12 214.91
  Q 475.81 210.94 475.79 200.50
  Q 475.75 174.67 475.75 148.86
  C 475.75 141.47 473.22 135.21 466.13 132.78
  Q 462.23 131.44 452.32 132.47
  Q 410.50 136.83 370.23 148.89
  C 361.38 151.54 355.74 155.42 355.75 165.00
  Q 355.75 190.29 355.76 215.58
  Q 355.77 222.72 357.11 225.72
  Z
  M 468.01 280.18
  C 482.11 272.72 475.40 250.78 459.75 252.06
  Q 415.09 255.70 369.91 269.25
  Q 364.15 270.98 361.92 272.56
  C 350.80 280.46 356.00 299.03 369.51 299.67
  Q 372.43 299.81 379.95 297.58
  Q 418.35 286.23 458.23 282.36
  Q 465.19 281.68 468.01 280.18
  Z
  M 362.30 331.44
  C 351.09 338.99 355.40 357.25 368.64 358.71
  Q 371.99 359.08 379.17 356.94
  Q 418.30 345.32 458.95 341.41
  Q 464.86 340.84 467.34 339.63
  C 476.49 335.18 478.56 323.03 471.46 315.74
  Q 466.41 310.54 457.76 311.39
  Q 411.58 315.96 370.03 328.36
  Q 364.37 330.05 362.30 331.44
  Z"
/>
<rect fill="#1f4389" x="226.33" y="103.50" width="59.34" height="347.94" rx="0.46"/>
<path fill="#1f4389" d="
  M 386.19 175.48
  C 405.83 170.45 425.12 166.13 445.28 163.61
  Q 445.75 163.55 445.75 164.03
  L 445.76 187.79
  Q 445.76 188.42 445.13 188.50
  Q 415.42 192.06 386.44 199.51
  Q 385.76 199.68 385.76 198.98
  L 385.76 176.04
  Q 385.76 175.59 386.19 175.48
  Z"
/>
</svg>
