<?xml version="1.0" encoding="UTF-8" standalone="no"?>
<!DOCTYPE svg PUBLIC "-//W3C//DTD SVG 1.1//EN" "http://www.w3.org/Graphics/SVG/1.1/DTD/svg11.dtd">
<svg xmlns="http://www.w3.org/2000/svg" version="1.1" viewBox="0.00 0.00 600.00 600.00">
<circle fill="#7c7c7c" cx="300.06" cy="201.82" r="100.15"/>
<path fill="#7c7c7c" d="
  M 147.37 186.31
  Q 153.29 189.20 158.89 192.97
  A 1.52 1.51 18.0 0 1 159.56 194.28
  C 158.50 227.53 165.55 257.42 184.70 284.50
  A 1.39 1.38 -50.7 0 1 184.83 285.86
  Q 172.41 313.65 145.87 325.28
  C 101.14 344.88 48.35 318.53 40.88 269.51
  Q 37.73 248.82 44.74 228.50
  C 59.44 185.88 106.89 166.51 147.37 186.31
  Z"
/>
<path fill="#7c7c7c" d="
  M 415.35 284.40
  C 432.46 257.42 441.69 226.37 440.62 194.31
  A 1.82 1.80 -20.6 0 1 441.30 192.84
  C 451.68 184.55 463.52 179.99 477.09 178.91
  Q 516.27 175.79 541.28 204.77
  C 566.97 234.54 566.01 280.75 538.69 309.26
  C 523.49 325.14 502.59 332.87 480.64 331.66
  C 451.37 330.04 427.60 311.29 415.29 285.37
  A 1.00 1.00 0.0 0 1 415.35 284.40
  Z"
/>
<path fill="#7c7c7c" d="
  M 160.09 412.77
  Q 187.52 353.02 248.00 330.43
  C 337.41 297.03 437.06 356.44 450.05 450.99
  Q 451.43 461.07 451.51 474.85
  Q 451.55 481.47 450.27 485.00
  C 447.97 491.34 442.72 497.47 435.82 498.77
  Q 434.66 498.99 426.15 498.99
  Q 294.70 499.00 163.25 498.99
  C 155.07 498.99 146.90 487.46 146.55 480.00
  Q 146.02 468.52 148.56 450.77
  Q 151.25 432.03 160.09 412.77
  Z"
/>
<path fill="#7c7c7c" d="
  M 0.00 463.65
  L 0.00 457.75
  C 0.21 450.94 0.29 443.97 1.55 437.48
  Q 9.23 397.83 39.72 371.72
  C 68.81 346.82 109.83 337.53 146.12 350.71
  Q 146.68 350.91 146.32 351.37
  Q 104.38 405.34 103.99 473.97
  C 103.98 476.28 103.62 481.22 100.50 481.20
  Q 64.32 481.06 28.14 480.97
  C 18.82 480.95 13.78 481.19 7.28 476.27
  Q 0.83 471.39 0.00 463.65
  Z"
/>
<path fill="#7c7c7c" d="
  M 528.07 353.15
  C 569.52 370.56 596.16 409.38 598.42 454.31
  Q 598.86 463.05 596.88 468.04
  Q 593.57 476.42 584.95 479.47
  Q 580.75 480.96 571.31 480.98
  Q 533.70 481.06 494.94 480.93
  A 1.13 1.13 0.0 0 1 493.81 479.76
  Q 496.30 407.47 451.79 351.48
  A 0.50 0.50 0.0 0 1 452.01 350.70
  C 476.47 341.49 504.48 343.25 528.07 353.15
  Z"
/>
</svg>
