<?xml version="1.0" encoding="UTF-8" standalone="no"?>
<!DOCTYPE svg PUBLIC "-//W3C//DTD SVG 1.1//EN" "http://www.w3.org/Graphics/SVG/1.1/DTD/svg11.dtd">
<svg xmlns="http://www.w3.org/2000/svg" version="1.1" viewBox="0.00 0.00 360.00 359.00">
<path fill="#939393" d="
  M 46.88 0.00
  L 313.24 0.00
  C 339.05 2.83 357.47 20.70 360.00 46.63
  L 360.00 313.52
  Q 355.31 349.53 320.43 359.00
  L 39.48 359.00
  Q 4.58 349.41 0.00 313.40
  L 0.00 46.51
  C 2.65 20.57 21.02 2.77 46.88 0.00
  Z
  M 162.13 53.87
  C 143.25 56.30 124.74 64.92 113.77 80.98
  C 106.97 90.94 103.60 106.90 114.62 115.38
  C 122.40 121.37 134.73 122.52 140.94 113.42
  C 144.78 107.77 148.56 101.97 153.96 98.45
  C 169.58 88.25 208.09 91.03 207.27 117.26
  C 206.58 139.09 182.51 148.82 169.69 162.56
  C 157.30 175.84 152.40 191.86 152.46 210.01
  C 152.50 221.36 153.36 231.75 167.24 233.31
  C 175.38 234.24 187.68 233.47 191.38 224.71
  Q 192.51 222.04 192.46 215.19
  C 192.34 200.04 196.17 187.92 208.41 178.38
  C 226.28 164.46 243.56 147.93 249.46 125.56
  Q 256.84 97.61 238.10 76.36
  C 219.91 55.73 188.07 50.53 162.13 53.87
  Z
  M 199.14 284.91
  A 26.92 26.92 0.0 0 0 172.22 257.99
  A 26.92 26.92 0.0 0 0 145.30 284.91
  A 26.92 26.92 0.0 0 0 172.22 311.83
  A 26.92 26.92 0.0 0 0 199.14 284.91
  Z"
/>
</svg>
