<?xml version="1.0" encoding="UTF-8" standalone="no"?>
<!DOCTYPE svg PUBLIC "-//W3C//DTD SVG 1.1//EN" "http://www.w3.org/Graphics/SVG/1.1/DTD/svg11.dtd">
<svg xmlns="http://www.w3.org/2000/svg" version="1.1" viewBox="0.00 0.00 360.00 359.00">
<path fill="#939393" d="
  M 46.88 0.00
  L 313.24 0.00
  C 339.05 2.83 357.47 20.70 360.00 46.63
  L 360.00 313.52
  Q 355.31 349.53 320.43 359.00
  L 39.48 359.00
  Q 4.58 349.41 0.00 313.40
  L 0.00 46.51
  C 2.65 20.57 21.02 2.77 46.88 0.00
  Z
  M 239.76 112.21
  Q 233.56 112.26 220.74 112.14
  C 203.45 111.97 198.76 135.72 214.68 141.52
  Q 217.39 142.51 223.94 142.51
  Q 246.40 142.50 268.87 142.52
  Q 275.70 142.53 278.94 141.20
  C 288.04 137.48 288.22 129.85 288.21 119.98
  Q 288.20 99.55 288.19 79.12
  C 288.19 71.52 287.37 65.25 280.95 61.57
  C 273.18 57.12 263.07 59.70 259.26 67.85
  C 256.98 72.70 257.63 80.35 257.82 86.14
  A 0.39 0.39 0.0 0 1 257.19 86.46
  Q 233.70 67.42 204.61 61.46
  C 138.97 48.01 73.98 91.23 61.28 156.98
  C 45.22 240.17 116.63 314.06 200.18 300.38
  C 256.10 291.23 299.10 243.71 301.88 186.69
  C 302.21 179.95 302.16 173.61 297.20 169.31
  C 289.38 162.52 276.90 164.66 272.76 174.61
  Q 271.80 176.90 271.66 181.52
  C 270.26 229.51 233.64 269.18 185.25 271.53
  C 133.17 274.06 89.30 232.55 89.40 180.14
  C 89.49 135.08 123.50 95.91 168.56 90.24
  Q 208.51 85.22 239.97 111.63
  Q 240.65 112.20 239.76 112.21
  Z"
/>
</svg>
