<?xml version="1.0" encoding="UTF-8" standalone="no"?>
<!DOCTYPE svg PUBLIC "-//W3C//DTD SVG 1.1//EN" "http://www.w3.org/Graphics/SVG/1.1/DTD/svg11.dtd">
<svg xmlns="http://www.w3.org/2000/svg" version="1.1" viewBox="0.00 0.00 600.00 600.00">
<path fill="#7c7c7c" d="
  M 105.12 0.00
  L 494.76 0.00
  Q 505.88 1.77 509.48 10.87
  Q 510.94 14.55 510.93 22.82
  Q 510.86 124.18 510.93 225.55
  Q 510.93 232.75 509.54 236.26
  Q 506.82 243.12 500.00 245.84
  Q 496.41 247.27 488.82 247.27
  Q 299.39 247.27 109.97 247.27
  Q 103.63 247.27 100.23 245.93
  Q 92.74 242.99 90.24 235.64
  Q 89.04 232.10 89.05 222.24
  Q 89.12 120.87 89.08 19.50
  Q 89.07 2.99 105.12 0.00
  Z
  M 274.00 56.45
  A 17.65 17.65 0.0 0 0 247.27 71.58
  L 247.27 176.86
  A 17.65 17.65 0.0 0 0 274.00 191.99
  L 361.75 139.36
  A 17.65 17.65 0.0 0 0 361.75 109.08
  L 274.00 56.45
  Z"
/>
<path fill="#7c7c7c" d="
  M 282.94 102.82
  L 318.15 123.94
  A 0.31 0.31 0.0 0 1 318.15 124.48
  L 282.94 145.60
  A 0.31 0.31 0.0 0 1 282.47 145.33
  L 282.47 103.09
  A 0.31 0.31 0.0 0 1 282.94 102.82
  Z"
/>
<path fill="#7c7c7c" d="
  M 600.00 158.12
  L 600.00 478.25
  Q 598.25 489.43 589.15 493.07
  Q 585.54 494.51 577.65 494.51
  Q 300.28 494.50 22.91 494.52
  Q 14.46 494.52 10.78 493.04
  Q 1.82 489.45 0.00 478.38
  L 0.00 157.74
  Q 3.01 141.89 19.51 141.84
  Q 36.48 141.79 53.43 141.72
  A 0.46 0.46 0.0 0 1 53.89 142.18
  Q 53.71 183.34 53.90 224.45
  Q 53.96 235.90 55.21 241.46
  C 59.73 261.61 76.28 277.28 96.08 281.27
  Q 102.06 282.48 116.00 282.48
  Q 305.38 282.47 494.75 282.47
  Q 506.02 282.47 516.55 277.10
  C 534.92 267.74 546.15 249.69 546.14 228.75
  Q 546.11 185.53 546.12 142.30
  Q 546.12 141.77 546.66 141.77
  Q 561.07 141.73 575.47 141.72
  Q 585.42 141.72 589.32 143.30
  Q 598.24 146.92 600.00 158.12
  Z
  M 528.45 352.62
  A 17.41 17.41 0.0 0 0 511.04 335.21
  L 88.96 335.21
  A 17.41 17.41 0.0 0 0 71.55 352.62
  L 71.55 352.92
  A 17.41 17.41 0.0 0 0 88.96 370.33
  L 511.04 370.33
  A 17.41 17.41 0.0 0 0 528.45 352.92
  L 528.45 352.62
  Z
  M 528.46 422.89
  A 17.41 17.41 0.0 0 0 511.05 405.48
  L 88.95 405.48
  A 17.41 17.41 0.0 0 0 71.54 422.89
  L 71.54 423.21
  A 17.41 17.41 0.0 0 0 88.95 440.62
  L 511.05 440.62
  A 17.41 17.41 0.0 0 0 528.46 423.21
  L 528.46 422.89
  Z"
/>
<path fill="#7c7c7c" d="
  M 441.87 600.00
  L 158.00 600.00
  Q 148.11 598.76 143.70 590.26
  C 139.20 581.56 143.16 570.38 152.12 566.42
  Q 155.46 564.95 162.11 564.86
  Q 176.61 564.67 191.10 564.85
  Q 196.95 564.92 200.29 563.70
  C 215.22 558.29 212.03 542.93 212.16 530.27
  Q 212.16 529.70 212.73 529.70
  L 387.27 529.70
  Q 387.86 529.70 387.86 530.29
  C 387.79 537.59 386.79 547.81 389.32 553.99
  C 392.59 561.92 399.25 564.79 407.71 564.78
  Q 422.43 564.75 437.14 564.85
  Q 444.27 564.89 447.65 566.34
  C 456.93 570.33 460.97 581.63 455.92 590.70
  Q 451.37 598.88 441.87 600.00
  Z"
/>
</svg>
