<?xml version="1.0" encoding="UTF-8" standalone="no"?>
<!DOCTYPE svg PUBLIC "-//W3C//DTD SVG 1.1//EN" "http://www.w3.org/Graphics/SVG/1.1/DTD/svg11.dtd">
<svg xmlns="http://www.w3.org/2000/svg" version="1.1" viewBox="0.00 0.00 600.00 600.00">
<path fill="#939393" d="
  M 0.00 503.62
  L 0.00 96.25
  C 2.99 76.97 19.17 60.35 36.25 53.35
  Q 41.63 51.14 55.50 48.05
  Q 152.51 26.39 249.51 4.72
  C 261.35 2.07 271.37 1.32 282.99 4.52
  C 305.70 10.77 323.88 29.67 327.86 53.30
  A 1.05 1.04 -4.2 0 0 328.88 54.17
  Q 376.76 54.28 424.50 54.07
  C 444.11 53.98 462.14 61.48 475.56 75.56
  Q 494.44 95.38 494.53 124.50
  Q 494.60 149.26 494.64 174.01
  Q 494.65 180.06 493.41 183.86
  C 485.69 207.52 452.36 208.26 444.88 184.13
  Q 443.58 179.95 443.63 172.28
  Q 443.77 149.61 443.66 126.97
  Q 443.63 119.77 442.20 116.20
  C 438.35 106.61 430.52 105.02 420.38 105.02
  Q 375.00 105.03 329.96 105.01
  A 0.97 0.97 0.0 0 0 328.99 105.98
  L 328.99 493.77
  A 0.92 0.92 0.0 0 0 329.91 494.69
  Q 373.31 494.74 416.55 494.70
  Q 428.64 494.69 432.73 493.08
  Q 439.66 490.35 442.32 483.14
  Q 443.76 479.23 443.72 470.17
  Q 443.63 449.83 443.68 429.48
  Q 443.69 421.66 445.10 417.69
  C 453.06 395.24 485.82 395.73 493.17 418.33
  Q 494.68 422.97 494.65 434.30
  Q 494.60 455.66 494.61 477.00
  C 494.63 515.78 462.61 545.76 424.24 545.74
  Q 376.50 545.72 328.46 545.75
  Q 327.85 545.75 327.77 546.35
  C 323.73 577.27 292.17 600.38 261.74 597.48
  C 255.37 596.87 247.42 594.81 241.06 593.39
  Q 148.16 572.61 55.26 551.89
  Q 41.61 548.85 36.03 546.54
  C 19.14 539.54 2.78 523.03 0.00 503.62
  Z"
/>
<path fill="#939393" d="
  M 600.00 295.60
  L 600.00 303.78
  Q 599.15 313.52 591.68 319.20
  Q 542.40 356.64 529.68 365.94
  C 515.69 376.15 496.18 368.65 491.06 352.69
  C 488.68 345.27 489.69 334.50 489.68 326.09
  A 0.78 0.78 0.0 0 0 488.90 325.31
  Q 456.54 325.42 423.95 325.32
  Q 414.88 325.29 410.72 323.82
  C 395.03 318.27 389.17 299.17 398.58 285.42
  Q 406.21 274.27 421.75 274.30
  Q 455.22 274.36 488.62 274.35
  A 1.14 1.13 89.7 0 0 489.75 273.20
  Q 489.67 264.37 489.60 256.00
  C 489.44 238.14 506.01 224.67 523.37 230.64
  Q 527.89 232.19 535.85 238.16
  Q 574.95 267.45 591.18 279.81
  Q 599.10 285.85 600.00 295.60
  Z"
/>
</svg>
