<?xml version="1.0" encoding="UTF-8" standalone="no"?>
<!DOCTYPE svg PUBLIC "-//W3C//DTD SVG 1.1//EN" "http://www.w3.org/Graphics/SVG/1.1/DTD/svg11.dtd">
<svg xmlns="http://www.w3.org/2000/svg" version="1.1" viewBox="0.00 0.00 600.00 600.00">
<path fill="#939393" d="
  M 204.61 0.00
  L 545.26 0.00
  C 575.70 1.90 598.77 24.31 600.00 54.88
  L 600.00 339.28
  Q 597.03 376.28 562.96 390.49
  Q 562.50 390.69 562.50 391.19
  Q 562.46 420.40 562.52 449.76
  C 562.54 462.29 549.93 472.01 538.02 467.72
  Q 534.22 466.36 525.53 459.37
  Q 506.81 444.30 488.13 429.50
  A 1.68 1.66 -70.9 0 1 487.50 428.19
  Q 487.49 311.25 487.51 194.26
  Q 487.51 181.06 486.54 174.30
  C 479.84 127.45 440.28 93.82 392.75 93.79
  Q 272.13 93.72 150.70 93.69
  A 0.71 0.70 0.0 0 1 149.99 92.99
  Q 149.97 77.00 150.02 60.84
  C 150.07 49.62 151.20 40.21 155.90 31.23
  Q 171.03 2.35 204.61 0.00
  Z"
/>
<path fill="#939393" d="
  M 57.13 600.00
  L 54.73 600.00
  Q 42.65 597.99 38.86 587.89
  Q 37.46 584.18 37.48 576.44
  Q 37.55 549.39 37.48 522.41
  Q 37.48 521.91 37.03 521.72
  Q 3.04 507.56 0.00 470.66
  L 0.00 185.75
  C 1.37 159.14 20.15 136.82 46.30 132.24
  Q 51.71 131.29 66.25 131.29
  Q 222.25 131.29 378.25 131.31
  Q 397.10 131.31 398.24 131.40
  C 423.24 133.53 444.37 152.36 448.94 177.06
  Q 450.00 182.81 450.00 197.00
  Q 449.97 333.00 449.99 469.00
  C 450.00 495.59 430.55 518.63 404.66 523.81
  Q 398.68 525.01 384.75 525.01
  Q 270.89 525.00 157.40 525.00
  A 2.35 2.34 25.7 0 0 155.94 525.51
  Q 111.79 560.78 67.74 595.98
  Q 63.31 599.53 57.13 600.00
  Z
  M 236.43 246.10
  C 260.05 255.10 266.37 286.20 247.81 303.79
  Q 245.95 305.56 238.50 310.36
  C 218.94 322.95 206.00 343.76 204.96 367.56
  Q 204.68 373.90 205.26 376.25
  C 209.96 395.14 236.11 396.32 241.64 377.72
  Q 242.15 375.99 242.51 369.69
  Q 243.22 357.16 251.40 348.09
  C 255.96 343.04 263.91 339.18 268.85 335.11
  Q 290.98 316.95 295.23 290.00
  C 301.77 248.60 272.19 210.00 230.25 206.45
  C 196.55 203.59 165.59 224.30 154.82 256.52
  Q 152.22 264.28 156.16 271.38
  C 163.22 284.16 179.46 284.38 188.15 273.09
  Q 189.27 271.64 191.30 266.40
  C 198.46 247.91 218.04 239.09 236.43 246.10
  Z
  M 243.73 431.24
  A 18.73 18.73 0.0 0 0 225.00 412.51
  A 18.73 18.73 0.0 0 0 206.27 431.24
  A 18.73 18.73 0.0 0 0 225.00 449.97
  A 18.73 18.73 0.0 0 0 243.73 431.24
  Z"
/>
</svg>
