<?xml version="1.0" encoding="UTF-8" standalone="no"?>
<!DOCTYPE svg PUBLIC "-//W3C//DTD SVG 1.1//EN" "http://www.w3.org/Graphics/SVG/1.1/DTD/svg11.dtd">
<svg xmlns="http://www.w3.org/2000/svg" version="1.1" viewBox="0.00 0.00 600.00 544.00">
<path fill="#939393" d="
  M 115.90 0.00
  L 484.22 0.00
  Q 528.49 0.93 561.40 27.85
  Q 597.37 57.26 600.00 104.29
  L 600.00 439.79
  C 596.99 501.78 543.60 542.59 484.08 544.00
  L 115.78 544.00
  Q 69.93 542.97 36.45 514.31
  Q 2.53 485.27 0.00 439.95
  L 0.00 103.92
  Q 2.65 58.08 37.25 28.98
  Q 70.58 0.95 115.90 0.00
  Z
  M 288.73 148.07
  Q 233.43 147.88 178.01 148.04
  Q 161.02 148.09 158.03 148.39
  C 129.40 151.22 103.10 173.37 103.11 203.75
  Q 103.14 282.00 103.07 360.25
  C 103.04 393.44 132.11 416.89 164.25 416.92
  Q 296.00 417.01 427.74 416.97
  Q 441.46 416.97 447.68 415.84
  C 474.50 410.99 496.87 389.16 496.86 361.00
  Q 496.82 282.63 496.86 204.24
  C 496.87 191.87 492.70 180.37 484.66 170.72
  Q 466.80 149.30 436.96 148.27
  Q 427.40 147.94 418.03 147.97
  A 0.76 0.76 0.0 0 0 417.27 148.73
  L 417.26 172.77
  A 0.80 0.80 0.0 0 0 418.08 173.57
  Q 426.67 173.41 435.49 173.53
  C 449.25 173.72 462.79 181.63 467.18 194.96
  Q 468.74 199.69 468.73 212.20
  Q 468.69 284.30 468.72 356.41
  Q 468.72 364.55 467.89 368.02
  C 464.36 382.71 449.85 391.32 435.25 391.34
  Q 299.75 391.54 164.25 391.34
  C 150.54 391.32 137.18 383.36 132.80 370.13
  Q 131.27 365.52 131.27 354.20
  Q 131.32 279.10 131.37 204.00
  C 131.38 190.13 141.18 179.01 153.87 175.17
  Q 159.09 173.59 172.31 173.55
  Q 230.44 173.39 288.67 173.55
  Q 289.56 173.56 288.90 174.15
  L 254.01 205.78
  A 0.82 0.82 0.0 0 0 254.01 207.00
  L 272.75 223.97
  A 0.75 0.75 0.0 0 0 273.76 223.97
  L 343.00 161.19
  Q 343.40 160.83 343.00 160.47
  L 273.69 97.65
  A 0.71 0.70 44.7 0 0 272.74 97.65
  L 253.66 114.92
  A 0.45 0.45 0.0 0 0 253.66 115.58
  L 288.93 147.55
  A 0.30 0.30 0.0 0 1 288.73 148.07
  Z"
/>
</svg>
