<?xml version="1.0" encoding="UTF-8" standalone="no"?>
<!DOCTYPE svg PUBLIC "-//W3C//DTD SVG 1.1//EN" "http://www.w3.org/Graphics/SVG/1.1/DTD/svg11.dtd">
<svg xmlns="http://www.w3.org/2000/svg" version="1.1" viewBox="0.00 0.00 600.00 459.00">
<path fill="#939393" d="
  M 282.68 435.41
  C 252.59 404.62 214.44 384.97 172.72 374.85
  Q 133.84 365.43 95.76 365.20
  C 90.10 365.17 85.21 364.68 80.49 361.68
  C 72.20 356.40 70.40 349.32 70.40 339.27
  Q 70.35 184.78 70.38 30.29
  Q 70.38 18.82 71.94 14.38
  Q 75.21 5.11 84.81 1.84
  Q 89.12 0.37 96.86 0.59
  C 127.33 1.43 157.22 5.65 186.12 15.65
  C 224.73 29.00 259.24 53.93 280.42 88.82
  Q 283.27 93.51 283.27 100.37
  Q 283.39 267.81 283.39 435.12
  A 0.41 0.41 0.0 0 1 282.68 435.41
  Z"
/>
<path fill="#939393" d="
  M 320.54 87.52
  C 351.80 37.42 406.60 11.43 463.51 3.76
  Q 481.71 1.30 501.49 0.60
  Q 510.22 0.29 514.84 1.77
  Q 525.07 5.05 528.24 14.88
  Q 529.64 19.21 529.63 32.26
  Q 529.62 185.88 529.63 339.50
  C 529.63 345.15 529.45 349.69 526.55 354.45
  C 521.11 363.41 513.77 364.98 503.10 365.17
  C 434.85 366.41 366.02 385.44 317.11 435.62
  A 0.27 0.27 0.0 0 1 316.64 435.43
  Q 316.62 267.32 316.64 99.25
  C 316.64 95.16 318.20 91.27 320.54 87.52
  Z"
/>
<path fill="#939393" d="
  M 0.00 437.62
  L 0.00 95.24
  Q 1.89 79.84 15.33 75.77
  C 21.20 73.99 29.52 74.77 36.33 74.73
  A 0.69 0.69 0.0 0 1 37.03 75.42
  Q 36.99 204.82 37.04 334.37
  Q 37.04 348.50 38.21 354.30
  C 41.84 372.40 54.78 387.78 72.05 394.53
  C 82.69 398.70 94.22 398.40 106.74 398.90
  C 159.22 400.99 213.29 416.67 252.66 452.83
  Q 253.41 453.52 252.42 453.30
  Q 219.51 445.76 190.51 443.86
  C 137.80 440.39 84.21 445.34 32.67 456.59
  Q 23.60 458.58 20.49 458.44
  C 9.22 457.94 0.74 448.90 0.00 437.62
  Z"
/>
<path fill="#939393" d="
  M 600.00 95.61
  L 600.00 437.75
  C 599.26 448.73 591.00 457.66 580.02 458.41
  Q 576.74 458.63 568.08 456.74
  C 516.89 445.56 464.78 440.64 412.50 443.76
  Q 379.36 445.74 347.30 453.43
  A 0.28 0.27 17.0 0 1 347.05 452.96
  C 391.52 412.61 449.38 399.45 507.86 398.37
  C 539.00 397.79 562.98 373.62 562.99 342.25
  Q 563.00 208.76 562.99 75.27
  Q 562.99 74.72 563.53 74.73
  C 570.26 74.76 578.57 74.01 584.39 75.69
  Q 598.28 79.71 600.00 95.61
  Z"
/>
</svg>
