<?xml version="1.0" encoding="UTF-8" standalone="no"?>
<!DOCTYPE svg PUBLIC "-//W3C//DTD SVG 1.1//EN" "http://www.w3.org/Graphics/SVG/1.1/DTD/svg11.dtd">
<svg xmlns="http://www.w3.org/2000/svg" version="1.1" viewBox="0.00 0.00 600.00 600.00">
<path fill="#939393" d="
  M 169.12 0.00
  L 551.51 0.00
  C 574.25 2.36 592.67 21.36 599.01 42.32
  C 599.61 44.28 599.64 46.52 600.00 48.62
  L 600.00 431.00
  C 599.61 432.86 599.67 434.94 599.16 436.65
  C 592.47 459.11 574.27 476.21 550.92 480.01
  Q 545.86 480.84 533.02 480.84
  Q 272.72 480.77 203.50 480.84
  C 190.04 480.85 176.15 481.85 164.85 479.00
  C 142.70 473.41 125.48 455.47 120.57 433.30
  Q 119.22 427.20 119.22 416.10
  Q 119.22 238.17 119.22 60.25
  C 119.22 34.76 132.97 13.62 156.12 3.34
  Q 162.33 0.58 169.12 0.00
  Z
  M 313.49 274.52
  Q 294.31 255.46 275.32 236.19
  Q 270.22 231.01 266.98 229.10
  C 252.91 220.85 234.39 225.16 226.08 239.30
  C 219.09 251.21 220.72 266.25 230.59 276.16
  Q 261.71 307.41 292.88 338.62
  C 302.64 348.38 317.88 350.63 329.34 343.29
  Q 332.00 341.59 342.52 330.98
  Q 415.14 257.75 487.85 184.60
  C 494.30 178.11 497.99 171.25 498.06 161.96
  C 498.24 138.67 473.76 124.31 453.45 135.75
  C 448.99 138.26 445.58 142.12 441.62 146.12
  Q 377.94 210.28 314.33 274.51
  Q 313.91 274.94 313.49 274.52
  Z"
/>
<path fill="#939393" d="
  M 457.88 600.00
  L 48.50 600.00
  C 25.30 597.92 2.05 574.53 0.00 551.38
  L 0.00 141.75
  Q 0.78 136.32 4.15 131.94
  C 14.64 118.28 31.93 115.02 46.03 124.73
  Q 58.84 133.55 58.83 151.50
  Q 58.76 330.75 58.89 510.00
  C 58.90 527.94 72.40 541.31 90.25 541.30
  Q 269.50 541.15 448.75 541.09
  Q 466.67 541.09 475.57 554.48
  C 485.15 568.89 481.23 586.71 467.17 596.40
  Q 462.77 599.44 457.88 600.00
  Z"
/>
</svg>
