<svg xmlns="http://www.w3.org/2000/svg" xml:space="preserve" width="150" height="280" fill-rule="evenodd" clip-rule="evenodd" image-rendering="optimizeQuality" shape-rendering="geometricPrecision" text-rendering="geometricPrecision"><defs><linearGradient id="b" x1="129.19" x2="146.2" y1="7.62" y2="7.62" gradientUnits="userSpaceOnUse"><stop offset="0" stop-color="#900"/><stop offset="1" stop-color="#FF8787"/></linearGradient><clipPath id="a"><path d="M2 0h146c1.1 0 2 .9 2 2v276c0 1.1-.9 2-2 2H2c-1.1 0-2-.9-2-2V2C0 .9.9 0 2 0z"/></clipPath></defs><path fill="#859EC3" d="M2 0h146c1.1 0 2 .9 2 2v276c0 1.1-.9 2-2 2H2c-1.1 0-2-.9-2-2V2C0 .9.9 0 2 0z"/><g clip-path="url(#a)"><path fill="#BEBEBE" d="M-3.47 15.09h155.99v268.75H-3.47z"/></g><path fill="none" stroke="#1A1A1A" stroke-miterlimit="22.926" d="M2 0h146c1.1 0 2 .9 2 2v276c0 1.1-.9 2-2 2H2c-1.1 0-2-.9-2-2V2C0 .9.9 0 2 0z"/><path fill="none" stroke="#1A1A1A" stroke-miterlimit="22.926" d="M12.63 34.8h124.73v151.64H12.63z"/><rect width="113.35" height="16.8" x="17.13" y="44.59" fill="#fff" rx="5.11" ry="1.39"/><rect width="109.36" height="13.4" x="19.12" y="46.2" fill="#fff" stroke="#000" stroke-miterlimit="22.926" rx="5.84" ry="1.31"/><text x="75" y="140" font-family="Arial" font-size="7.03" font-weight="bold" transform="matrix(1.00617 0 0 1 -40.356 -84.26)">Аварийное отделение</text><text x="75" y="140" font-family="Arial" font-size="7.03" font-weight="bold" transform="matrix(1.00617 0 0 1 -72.126 -129.051)">Перекидка</text><rect width="113.35" height="16.8" x="17.13" y="64.01" fill="#E6E6E6" rx="5.11" ry="1.39"/><rect width="109.36" height="13.4" x="19.12" y="65.62" fill="#E6E6E6" stroke="gray" stroke-miterlimit="22.926" rx="5.84" ry="1.31"/><text x="75" y="140" font-family="Arial" font-size="7.03" font-weight="bold" transform="matrix(1.00617 0 0 1 -34.244 -64.84)">Отделение-Нагрев</text><rect width="113.35" height="16.8" x="17.13" y="83.42" fill="#fff" rx="5.11" ry="1.39"/><rect width="109.36" height="13.4" x="19.12" y="85.04" fill="#fff" stroke="#000" stroke-miterlimit="22.926" rx="5.84" ry="1.31"/><text x="39.71" y="140" font-family="Arial" font-size="7.03" font-weight="bold" transform="matrix(1.00617 0 0 1 -1.536 -45.424)">Нагрев-Отделение 2</text><rect width="113.35" height="16.8" x="17.13" y="102.84" fill="#E6E6E6" rx="5.11" ry="1.39"/><rect width="109.36" height="13.4" x="19.12" y="104.45" fill="#E6E6E6" stroke="gray" stroke-miterlimit="22.926" rx="5.84" ry="1.31"/><text x="44.48" y="140" font-family="Arial" font-size="7.03" font-weight="bold" transform="matrix(1.00617 0 0 1 -1.536 -26.01)">Отделение-Дутье</text><rect width="113.35" height="16.8" x="17.13" y="122.25" fill="#E6E6E6" rx="5.11" ry="1.39"/><rect width="109.36" height="13.4" x="19.12" y="123.87" fill="#E6E6E6" stroke="gray" stroke-miterlimit="22.926" rx="5.84" ry="1.31"/><text x="45.15" y="140" font-family="Arial" font-size="7.03" font-weight="bold" transform="matrix(1.00617 0 0 1 -1.536 -6.594)">Дутье-отделение</text><rect width="113.35" height="16.8" x="17.13" y="141.67" fill="#E6E6E6" rx="5.11" ry="1.39"/><rect width="109.36" height="13.4" x="19.12" y="143.28" fill="#E6E6E6" stroke="gray" stroke-miterlimit="22.926" rx="5.84" ry="1.31"/><text x="32.95" y="140" font-family="Arial" font-size="7.03" font-weight="bold" transform="matrix(1.00617 0 0 1 -1.536 12.82)">Отделение-Отделение 2</text><rect width="113.35" height="16.8" x="17.13" y="161.08" fill="#E6E6E6" rx="5.11" ry="1.39"/><rect width="109.36" height="13.4" x="19.12" y="162.7" fill="#E6E6E6" stroke="gray" stroke-miterlimit="22.926" rx="5.84" ry="1.31"/><text x="31" y="140" font-family="Arial" font-size="7.03" font-weight="bold" transform="matrix(1.00617 0 0 1 -1.536 32.236)">Отделение 2 - Отделение</text><path fill="#EEE5EA" stroke="#1A1A1A" stroke-miterlimit="22.926" d="M47.36 26.6h50.48v15.77H47.36z"/><text x="65.61" y="140" font-family="Arial" font-size="5.5" font-weight="bold" transform="matrix(1.00617 0 0 1 -3.045 -107.109)">Выбор</text><text x="60.73" y="146.14" font-family="Arial" font-size="5.5" font-weight="bold" transform="matrix(1.00617 0 0 1 -3.045 -107.109)">перекидок</text><path fill="none" stroke="#1A1A1A" stroke-miterlimit="22.926" d="M12.63 202.5h124.73v69.46H12.63z"/><path fill="#EEE5EA" stroke="#1A1A1A" stroke-miterlimit="22.926" d="M41.66 193.12h61.88v18.15H41.66z"/><text x="50.7" y="140" font-family="Arial" font-size="5.5" font-weight="bold" transform="matrix(1.00617 0 0 1 -3.045 60.593)">Выбор открытого</text><text x="53.22" y="146.14" font-family="Arial" font-size="5.5" font-weight="bold" transform="matrix(1.00617 0 0 1 -3.045 60.593)">клапана в Отд 2</text><rect width="113.35" height="16.8" x="17.13" y="213.44" fill="#E6E6E6" rx="5.11" ry="1.39"/><rect width="109.36" height="13.4" x="19.12" y="215.05" fill="#E6E6E6" stroke="gray" stroke-miterlimit="22.926" rx="5.84" ry="1.31"/><text x="57.93" y="140" font-family="Arial" font-size="7.03" font-weight="bold" transform="matrix(1.00617 0 0 1 -1.536 84.59)">10 клапан</text><rect width="113.35" height="16.8" x="17.13" y="231.48" fill="#6DE90B" rx="5.11" ry="1.39"/><rect width="109.36" height="13.4" x="19.12" y="233.09" fill="#6DE90B" stroke="#fff" stroke-miterlimit="22.926" rx="5.84" ry="1.31"/><text x="58.12" y="140" font-family="Arial" font-size="7.03" font-weight="bold" transform="matrix(1.00617 0 0 1 -1.536 102.633)">11 клапан</text><rect width="113.35" height="16.8" x="17.13" y="249.52" fill="#E6E6E6" rx="5.11" ry="1.39"/><rect width="109.36" height="13.4" x="19.12" y="251.14" fill="#E6E6E6" stroke="gray" stroke-miterlimit="22.926" rx="5.84" ry="1.31"/><text x="57.93" y="140" font-family="Arial" font-size="7.03" font-weight="bold" transform="matrix(1.00617 0 0 1 -1.536 120.675)">12 клапан</text><rect width="17" height="9.04" x="129.19" y="3.1" fill="url(#b)" stroke="#900" stroke-miterlimit="22.926" rx=".33" ry=".32"/><path fill="none" stroke="#fff" stroke-miterlimit="22.926" stroke-width="2" d="m135.29 5.12 4.77 4.54m0-4.54-4.77 4.54"/></svg>