<svg xmlns="http://www.w3.org/2000/svg" xml:space="preserve" width="460" height="460" fill-rule="evenodd" clip-rule="evenodd" image-rendering="optimizeQuality" shape-rendering="geometricPrecision" text-rendering="geometricPrecision"><defs><clipPath id="a"><path d="M6.13 0h447.74c3.37 0 6.13 2.76 6.13 6.13v447.74c0 3.37-2.76 6.13-6.13 6.13H6.13C2.76 460 0 457.24 0 453.87V6.13C0 2.76 2.76 0 6.13 0z"/></clipPath><clipPath id="c"><path d="M121.21 202.66h20.47v13.39h-20.47v-13.39z"/></clipPath><clipPath id="d"><path d="M121.21 242.64h20.47v13.39h-20.47v-13.39z"/></clipPath><clipPath id="e"><path d="M121.21 282.06h20.47v13.39h-20.47v-13.39z"/></clipPath><clipPath id="f"><path d="M121.21 321.3h20.47v13.39h-20.47V321.3z"/></clipPath><linearGradient id="b" x1="436.39" x2="455.57" y1="9.08" y2="9.08" gradientUnits="userSpaceOnUse"><stop offset="0" stop-color="#900"/><stop offset="1" stop-color="#FF8787"/></linearGradient></defs><path fill="#859EC3" d="M6.13 0h447.74c3.37 0 6.13 2.76 6.13 6.13v447.74c0 3.37-2.76 6.13-6.13 6.13H6.13C2.76 460 0 457.24 0 453.87V6.13C0 2.76 2.76 0 6.13 0z"/><g clip-path="url(#a)"><path fill="#BEBEBE" d="M-10.64 17.19h478.37v473.95H-10.64z"/></g><path fill="none" stroke="#1A1A1A" stroke-miterlimit="22.926" stroke-width="2" d="M6.13 0h447.74c3.37 0 6.13 2.76 6.13 6.13v447.74c0 3.37-2.76 6.13-6.13 6.13H6.13C2.76 460 0 457.24 0 453.87V6.13C0 2.76 2.76 0 6.13 0z"/><path fill="#01F322" d="M202.67 79.96h63.79v18.46h-63.79z"/><path fill="#01F322" d="M143.37 39.23h27.75v20.06h-27.75z"/><path fill="#01F322" d="M143.37 59.5h27.75v20.06h-27.75z"/><path fill="#01F322" d="M143.37 79.96h27.75v18.46h-27.75z"/><path fill="#01F322" d="M171.52 39.23h31.14v20.06h-31.14z"/><path fill="#01F322" d="M171.52 59.5h31.14v20.06h-31.14z"/><path fill="#01F322" d="M171.52 79.96h31.14v18.46h-31.14z"/><path fill="#01F322" d="M202.67 39.23h32.34v20.06h-32.34z"/><path fill="#01F322" d="M202.67 59.5h32.34v20.06h-32.34z"/><path fill="#01F322" d="M235 39.23h31.15v20.06H235z"/><path fill="#01F322" d="M235 59.5h31.15v20.06H235z"/><path fill="#01F322" d="M266.65 39.23h36.64v20.06h-36.64z"/><path fill="#01F322" d="M303.39 39.23h31.65v20.06h-31.65z"/><path fill="#01F322" d="M335.13 39.23h33.94v20.06h-33.94z"/><path fill="#01F322" d="M369.07 39.23h27.26v20.06h-27.26z"/><path fill="#01F322" d="M266.85 59.4h67.68v39.33h-67.68z"/><path fill="#01F322" d="M334.93 59.4h61.29v39.13h-61.29z"/><path fill="#01F322" d="M171.19 120.87h31.31v20.45h-31.31z"/><path fill="#01F322" d="M235.47 120.87h31.02v20.45h-31.02z"/><path fill="#01F322" d="M266.09 120.87h37.34v20.45h-37.34z"/><path fill="#01F322" d="M303.62 120.87h31.15v20.45h-31.15z"/><path fill="#01F322" d="M334.57 120.87h34.34v20.45h-34.34z"/><path fill="#01F322" d="M368.91 120.87h27.15v20.45h-27.15z"/><g stroke-miterlimit="22.926"><rect width="19.19" height="10.21" x="436.39" y="3.98" fill="url(#b)" stroke="#900" rx=".37" ry=".36"/><g fill="none" stroke="#fff" stroke-width="2"><path d="m443.26 6.25 5.39 5.13"/><path d="m448.65 6.25-5.39 5.13"/></g></g><path fill="none" stroke="#999" stroke-miterlimit="22.926" stroke-width="2.36" d="M122.12 176.65v-12.48h19.51"/><path fill="none" stroke="#999" stroke-miterlimit="22.926" stroke-width="2.36" d="M122.12 196.31v-12.48h19.51"/><path fill="none" stroke="#999" stroke-miterlimit="22.926" stroke-width="2.36" d="M122.12 236.44v-12.48h19.51"/><path fill="none" stroke="#999" stroke-miterlimit="22.926" stroke-width="2.36" d="M122.12 275.57v-12.48h19.51"/><path fill="none" stroke="#999" stroke-miterlimit="22.926" stroke-width="2.36" d="M122.12 315.16v-12.48h19.51"/><path fill="none" stroke="#999" stroke-miterlimit="22.926" stroke-width="2.36" d="M122.12 355.09v-12.48h19.51"/><path fill="none" stroke="#999" stroke-miterlimit="22.926" stroke-width="2.36" d="M122.12 374.55v-12.48h19.51"/><path fill="none" stroke="#999" stroke-miterlimit="22.926" stroke-width="2.36" d="M122.22 394.17v-12.48h19.51"/><path fill="none" stroke="#999" stroke-miterlimit="22.926" stroke-width="2.36" d="M122.12 413.59v-12.48h19.51"/><path fill="none" stroke="#999" stroke-miterlimit="22.926" stroke-width="2.36" d="M122.12 432.85v-12.47h19.51"/><text x="230" y="230" font-family="Arial" font-size="10.28" font-weight="bold" transform="matrix(.9988 0 0 1 -40.455 -197.893)">ВН1 Перекидка из Нагрева в Отделение</text><path fill="gray" d="M143.07 98.45h252.94v22.34H143.07z"/><path fill="#FF381B" d="M202.6 120.47h32.5v20.45h-32.5z"/><path fill="#01F322" d="M143.33 120.87h27.87v20.45h-27.87z"/><path fill="none" stroke="#000" stroke-miterlimit="22.926" d="M35.3 39.06v396.45"/><path fill="none" stroke="#000" stroke-miterlimit="22.926" d="M396.06 98.38H35.39"/><path fill="none" stroke="#000" stroke-miterlimit="22.926" d="M396.06 120.69H13.1"/><path fill="none" stroke="#000" stroke-miterlimit="22.926" d="M395.7 140.96H13.1"/><path fill="none" stroke="#000" stroke-miterlimit="22.926" d="M395.7 160.11H13.1"/><path fill="none" stroke="#000" stroke-miterlimit="22.926" d="M395.7 180.38H13.1"/><path fill="none" stroke="#000" stroke-miterlimit="22.926" d="M395.7 199.91H13.1"/><path fill="none" stroke="#000" stroke-miterlimit="22.926" d="M395.7 220.18H13.1"/><path fill="none" stroke="#000" stroke-miterlimit="22.926" d="M395.7 239.33H13.1"/><path fill="none" stroke="#000" stroke-miterlimit="22.926" d="M395.7 259.6H13.1"/><path fill="none" stroke="#000" stroke-miterlimit="22.926" d="M395.7 279.12H13.1"/><path fill="none" stroke="#000" stroke-miterlimit="22.926" d="M395.7 299.39H13.1"/><path fill="none" stroke="#000" stroke-miterlimit="22.926" d="M395.7 318.54H13.1"/><path fill="none" stroke="#000" stroke-miterlimit="22.926" d="M395.7 338.81H13.1"/><path fill="none" stroke="#000" stroke-miterlimit="22.926" d="M395.7 358.34H13.1"/><path fill="none" stroke="#000" stroke-miterlimit="22.926" d="M395.7 378.61H13.1"/><path fill="none" stroke="#000" stroke-miterlimit="22.926" d="M395.7 397.76H13.1"/><path fill="none" stroke="#000" stroke-miterlimit="22.926" d="M395.7 418.03H13.1"/><path fill="none" stroke="#000" stroke-miterlimit="22.926" d="M119.62 38.66V435.8"/><path fill="none" stroke="#000" stroke-miterlimit="22.926" d="M171.26 38.88v396.41"/><path fill="none" stroke="#000" stroke-miterlimit="22.926" d="M202.64 39.03v396.26"/><path fill="none" stroke="#000" stroke-miterlimit="22.926" d="M235.14 98.03v337.26"/><path fill="none" stroke="#000" stroke-miterlimit="22.926" d="M266.53 39.15v396.14"/><path fill="none" stroke="#000" stroke-miterlimit="22.926" d="M303.5 98.43v336.86"/><path fill="none" stroke="#000" stroke-miterlimit="22.926" d="M334.88 39.13v396.16"/><path fill="none" stroke="#999" stroke-miterlimit="22.926" stroke-width="2.36" d="M122.12 156.88V144.4h19.51"/><path fill="none" stroke="#000" stroke-miterlimit="22.926" d="M369.05 98.44v336.85"/><path fill="none" stroke="#000" stroke-miterlimit="22.926" d="M121.21 143.81h20.47v13.39h-20.47z"/><path fill="gray" stroke="#000" stroke-miterlimit="22.926" d="M12.59 440.4h77.3v13.2h-77.3z"/><path fill="none" stroke="#000" stroke-miterlimit="22.926" d="M112.57 440.4h7.79v13.2h-7.79z"/><path fill="#fff" stroke="#000" stroke-miterlimit="22.926" d="M90.28 440.4h22.19v13.2H90.28z"/><path fill="gray" stroke="#000" stroke-miterlimit="22.926" d="M216.74 440.4h77.45v13.2h-77.45z"/><path fill="#fff" stroke="#000" stroke-miterlimit="22.926" d="M124.44 440.4h30.75v13.2h-30.75z"/><path fill="#fff" stroke="#000" stroke-miterlimit="22.926" d="M155.46 440.4h30.75v13.2h-30.75z"/><path fill="#fff" stroke="#000" stroke-miterlimit="22.926" d="M186.29 440.4h30.75v13.2h-30.75z"/><path fill="gray" stroke="#000" stroke-miterlimit="22.926" d="M299.06 440.4h63.63v13.2h-63.63z"/><path fill="gray" stroke="#000" stroke-miterlimit="22.926" d="M367.55 440.4h63.63v13.2h-63.63z"/><text x="230" y="230" font-family="Arial" font-size="8" transform="matrix(.9988 0 0 1 -171.56 -173.345)">Условия </text><text x="230" y="238.93" font-family="Arial" font-size="8" transform="matrix(.9988 0 0 1 -171.56 -173.345)">пересадки</text><text x="230" y="230" font-family="Arial" font-size="8" transform="matrix(.9988 0 0 1 -172.674 -100.359)">Исходное </text><text x="230" y="238.13" font-family="Arial" font-size="8" transform="matrix(.9988 0 0 1 -172.674 -100.359)">состояние</text><text x="199.11" y="230" font-family="Arial" font-size="6.51" transform="matrix(.9988 0 0 1 -154.355 -80.685)">Установить клапаны</text><text x="197.41" y="236.62" font-family="Arial" font-size="6.51" transform="matrix(.9988 0 0 1 -154.355 -80.685)">15 и 23 на угол зажиг.</text><text x="230" y="230" font-family="Arial" font-size="8" transform="matrix(.9988 0 0 1 -210.562 -75.72)">1</text><text x="230" y="249.65" font-family="Arial" font-size="8" transform="matrix(.9988 0 0 1 -210.562 -75.72)">2</text><text x="230" y="269.31" font-family="Arial" font-size="8" transform="matrix(.9988 0 0 1 -210.562 -75.72)">3</text><text x="230" y="288.96" font-family="Arial" font-size="8" transform="matrix(.9988 0 0 1 -210.562 -75.72)">4</text><text x="230" y="308.62" font-family="Arial" font-size="8" transform="matrix(.9988 0 0 1 -210.562 -75.72)">5</text><text x="230" y="328.27" font-family="Arial" font-size="8" transform="matrix(.9988 0 0 1 -210.562 -75.72)">6</text><text x="230" y="347.93" font-family="Arial" font-size="8" transform="matrix(.9988 0 0 1 -210.562 -75.72)">7</text><text x="230" y="367.58" font-family="Arial" font-size="8" transform="matrix(.9988 0 0 1 -210.562 -75.72)">8</text><text x="230" y="387.24" font-family="Arial" font-size="8" transform="matrix(.9988 0 0 1 -210.562 -75.72)">9</text><text x="230" y="406.89" font-family="Arial" font-size="8" transform="matrix(.9988 0 0 1 -210.562 -75.72)">10</text><text x="230" y="426.55" font-family="Arial" font-size="8" transform="matrix(.9988 0 0 1 -210.562 -75.72)">11</text><text x="230" y="446.2" font-family="Arial" font-size="8" transform="matrix(.9988 0 0 1 -210.562 -75.72)">12</text><text x="230" y="465.86" font-family="Arial" font-size="8" transform="matrix(.9988 0 0 1 -210.562 -75.72)">13</text><text x="230" y="485.51" font-family="Arial" font-size="8" transform="matrix(.9988 0 0 1 -210.562 -75.72)">14</text><text x="230" y="505.17" font-family="Arial" font-size="8" transform="matrix(.9988 0 0 1 -210.562 -75.72)">15</text><text x="230" y="230" font-family="Arial" font-size="8.32" transform="matrix(0 -1 .9988 0 -99.471 316.561)">Время</text><text x="230" y="237.34" font-family="Arial" font-size="8.32" transform="matrix(0 -1 .9988 0 -99.471 316.561)">шага</text><path fill="none" stroke="#000" stroke-miterlimit="22.926" d="M143.21 38.66v396.87"/><path fill="none" stroke="#000" stroke-miterlimit="22.926" d="M303.5 38.75v20.84"/><path fill="none" stroke="#000" stroke-miterlimit="22.926" d="M142.87 59.35h253.42"/><path fill="none" stroke="#000" stroke-miterlimit="22.926" d="M142.87 79.81h123.79"/><path fill="none" stroke="#000" stroke-miterlimit="22.926" d="M235.14 38.75v41.06"/><path fill="none" stroke="#000" stroke-miterlimit="22.926" d="M369.05 38.75v20.84"/><text x="202.89" y="230" font-family="Arial" font-size="6.51" transform="matrix(.9988 0 0 1 -153.669 -61.671)">Закрыть отсечной</text><text x="193.53" y="236.62" font-family="Arial" font-size="6.51" transform="matrix(.9988 0 0 1 -153.669 -61.671)">клапан из смеш. газе 22 </text><text x="230" y="230" font-family="Arial" font-size="5.87" transform="matrix(.9988 0 0 1 -77.505 -177.937)">111</text><text x="230" y="230" font-family="Arial" font-size="5.87" transform="matrix(.9988 0 0 1 -77.505 -158.319)">124</text><text x="230" y="230" font-family="Arial" font-size="5.87" transform="matrix(.9988 0 0 1 -47.788 -178.309)">112</text><text x="230" y="230" font-family="Arial" font-size="5.87" transform="matrix(.9988 0 0 1 -47.788 -158.691)">123</text><text x="230" y="230" font-family="Arial" font-size="5.87" transform="matrix(.9988 0 0 1 -15.286 -178.309)">113</text><text x="230" y="230" font-family="Arial" font-size="5.87" transform="matrix(.9988 0 0 1 -15.286 -158.691)">114</text><text x="230" y="230" font-family="Arial" font-size="5.87" transform="matrix(.9988 0 0 1 16.659 -178.309)">121</text><text x="230" y="230" font-family="Arial" font-size="5.87" transform="matrix(.9988 0 0 1 16.659 -158.691)">127</text><text x="230" y="230" font-family="Arial" font-size="5.87" transform="matrix(.9988 0 0 1 49.533 -178.309)">124</text><text x="230" y="230" font-family="Arial" font-size="5.87" transform="matrix(.9988 0 0 1 84.821 -178.309)">117</text><text x="230" y="230" font-family="Arial" font-size="5.87" transform="matrix(.9988 0 0 1 117.88 -178.309)">143</text><text x="230" y="230" font-family="Arial" font-size="5.87" transform="matrix(.9988 0 0 1 148.711 -178.309)">110</text><text x="230" y="230" font-family="Arial" font-size="5.87" transform="matrix(.9988 0 0 1 -79.601 -138.922)">Цикл</text><text x="230" y="230" font-family="Arial" font-size="5.87" transform="matrix(.9988 0 0 1 -52.474 -138.887)">Нагрев</text><text x="214.11" y="230" font-family="Arial" font-size="5.87" transform="matrix(.9988 0 0 1 5.059 -142.234)">Давл. азота</text><text x="219.08" y="235.97" font-family="Arial" font-size="5.87" transform="matrix(.9988 0 0 1 5.059 -142.234)">в норме</text><text x="204.28" y="230" font-family="Arial" font-size="5.87" transform="matrix(.9988 0 0 1 70.386 -154.314)">Регулятор расхода</text><text x="202.44" y="235.97" font-family="Arial" font-size="5.87" transform="matrix(.9988 0 0 1 70.386 -154.314)">смеш.газа в режиме</text><text x="216.36" y="241.94" font-family="Arial" font-size="5.87" transform="matrix(.9988 0 0 1 70.386 -154.314)">АВТОМАТ</text><text x="195.77" y="230" font-family="Arial" font-size="6.78" transform="matrix(.9988 0 0 1 25.758 218.787)">Расход азота в норме</text><text x="201.93" y="230" font-family="Arial" font-size="6.78" transform="matrix(.9988 0 0 1 101.245 218.802)">115 на угле зажиг.</text><text x="230" y="230" font-family="Arial" font-size="8" transform="matrix(0 -1 .9988 0 -205.81 317.661)">№ шага</text><text x="230" y="230" font-family="Arial" font-size="8.08" transform="matrix(.9988 0 0 1 -102.909 -77.235)">180</text><path fill="none" stroke="#000" stroke-miterlimit="22.926" d="M121.21 163.24h20.47v13.39h-20.47z"/><text x="221.01" y="230" font-family="Arial" font-size="8.08" transform="matrix(.9988 0 0 1 -91.324 -57.803)">65</text><path fill="none" stroke="#000" stroke-miterlimit="22.926" d="M121.21 183.23h20.47v13.39h-20.47z"/><text x="230" y="230" font-family="Arial" font-size="8.08" transform="matrix(.9988 0 0 1 -102.909 -37.813)">180</text><path fill="#fff" d="M121.21 202.66h20.47v13.39h-20.47z"/><g clip-path="url(#c)"><path fill="none" stroke="#999" stroke-miterlimit="22.926" stroke-width="2" d="M122.17 215.63v-12h19.82"/></g><path fill="none" stroke="#000" stroke-miterlimit="22.926" d="M121.21 202.66h20.47v13.39h-20.47z"/><text x="225.51" y="230" font-family="Arial" font-size="8.08" transform="matrix(.9988 0 0 1 -91.324 -18.381)">5</text><path fill="none" stroke="#000" stroke-miterlimit="22.926" d="M121.21 223.21h20.47v13.39h-20.47z"/><text x="221.01" y="230" font-family="Arial" font-size="8.08" transform="matrix(.9988 0 0 1 -91.276 2.165)">27</text><path fill="#fff" d="M121.21 242.64h20.47v13.39h-20.47z"/><g clip-path="url(#d)"><path fill="none" stroke="#999" stroke-miterlimit="22.926" stroke-width="2.36" d="M122.12 255.91v-12.48h19.51"/></g><path fill="none" stroke="#000" stroke-miterlimit="22.926" d="M121.21 242.64h20.47v13.39h-20.47z"/><text x="221.01" y="230" font-family="Arial" font-size="8.08" transform="matrix(.9988 0 0 1 -91.324 21.597)">15</text><path fill="none" stroke="#000" stroke-miterlimit="22.926" d="M121.21 262.63h20.47v13.39h-20.47z"/><text x="221.01" y="230" font-family="Arial" font-size="8.08" transform="matrix(.9988 0 0 1 -91.26 41.588)">27</text><path fill="#fff" d="M121.21 282.06h20.47v13.39h-20.47z"/><g clip-path="url(#e)"><path fill="none" stroke="#999" stroke-miterlimit="22.926" stroke-width="2.36" d="M122.12 295.34v-12.48h19.51"/></g><path fill="none" stroke="#000" stroke-miterlimit="22.926" d="M121.21 282.06h20.47v13.39h-20.47z"/><text x="225.51" y="230" font-family="Arial" font-size="8.08" transform="matrix(.9988 0 0 1 -91.324 61.02)">5</text><path fill="none" stroke="#000" stroke-miterlimit="22.926" d="M121.21 301.87h20.47v13.39h-20.47z"/><text x="221.01" y="230" font-family="Arial" font-size="8.08" transform="matrix(.9988 0 0 1 -91.26 80.823)">27</text><path fill="#fff" d="M121.21 321.3h20.47v13.39h-20.47z"/><g clip-path="url(#f)"><path fill="none" stroke="#999" stroke-miterlimit="22.926" stroke-width="2.36" d="M122.12 334.62v-12.48h19.51"/></g><path fill="none" stroke="#000" stroke-miterlimit="22.926" d="M121.21 321.3h20.47v13.39h-20.47z"/><text x="221.01" y="230" font-family="Arial" font-size="8.08" transform="matrix(.9988 0 0 1 -91.324 100.255)">20</text><path fill="none" stroke="#000" stroke-miterlimit="22.926" d="M121.21 342.03h20.47v13.39h-20.47z"/><text x="221.01" y="230" font-family="Arial" font-size="8.08" transform="matrix(.9988 0 0 1 -91.26 120.988)">35</text><path fill="none" stroke="#000" stroke-miterlimit="22.926" d="M121.21 361.46h20.47v13.39h-20.47z"/><text x="221.01" y="230" font-family="Arial" font-size="8.08" transform="matrix(.9988 0 0 1 -91.324 140.42)">27</text><path fill="none" stroke="#000" stroke-miterlimit="22.926" d="M121.21 381.08h20.47v13.39h-20.47z"/><text x="221.01" y="230" font-family="Arial" font-size="8.08" transform="matrix(.9988 0 0 1 -91.26 160.037)">27</text><path fill="none" stroke="#000" stroke-miterlimit="22.926" d="M121.21 400.51h20.47v13.39h-20.47z"/><text x="221.01" y="230" font-family="Arial" font-size="8.08" transform="matrix(.9988 0 0 1 -91.324 179.469)">27</text><path fill="none" stroke="#000" stroke-miterlimit="22.926" d="M121.21 420.5h20.47v12.18h-20.47z"/><text x="221.01" y="230" font-family="Arial" font-size="8.08" transform="matrix(.9988 0 0 1 -91.324 199.458)">27</text><text x="225.51" y="230" font-family="Arial" font-size="8.08" transform="matrix(.9988 0 0 1 -129.306 219.819)">0</text><text x="225.96" y="230" font-family="Arial" font-size="8.08" transform="matrix(.9988 0 0 1 -111.291 219.819)">с</text><text x="230" y="230" fill="#fff" font-family="Arial" font-size="5.87" font-weight="bold" transform="matrix(.9988 0 0 1 -77.49 -118.154)">132</text><text x="230" y="230" fill="#fff" font-family="Arial" font-size="5.87" font-weight="bold" transform="matrix(.9988 0 0 1 -48.332 -118.154)">116</text><text x="230" y="230" fill="#fff" font-family="Arial" font-size="5.87" font-weight="bold" transform="matrix(.9988 0 0 1 -15.829 -118.154)">124</text><text x="230" y="230" fill="#fff" font-family="Arial" font-size="5.87" font-weight="bold" transform="matrix(.9988 0 0 1 16.488 -118.154)">113</text><text x="230" y="230" fill="#fff" font-family="Arial" font-size="5.87" font-weight="bold" transform="matrix(.9988 0 0 1 50.477 -118.154)">134</text><text x="230" y="230" fill="#fff" font-family="Arial" font-size="5.87" font-weight="bold" transform="matrix(.9988 0 0 1 84.929 -118.154)">117</text><text x="230" y="230" fill="#fff" font-family="Arial" font-size="5.87" font-weight="bold" transform="matrix(.9988 0 0 1 118.639 -118.154)">111</text><text x="230" y="230" fill="#fff" font-family="Arial" font-size="5.87" font-weight="bold" transform="matrix(.9988 0 0 1 148.82 -118.154)">112</text><text x="230" y="230" font-family="Arial" font-size="5.87" transform="matrix(.9988 0 0 1 -82.598 -101.604)">Открыт</text><text x="230" y="230" font-family="Arial" font-size="5.87" transform="matrix(.9988 0 0 1 -53.16 -101.604)">Открыт</text><text x="230" y="230" font-family="Arial" font-size="5.87" transform="matrix(.9988 0 0 1 11.197 -101.604)">Открыт</text><text x="230" y="230" font-family="Arial" font-size="5.87" transform="matrix(.9988 0 0 1 44.628 -100.767)">Открыт</text><text x="230" y="230" font-family="Arial" font-size="5.87" transform="matrix(.9988 0 0 1 79.173 -100.767)">Открыт</text><text x="230" y="230" font-family="Arial" font-size="5.87" transform="matrix(.9988 0 0 1 113.718 -100.767)">Открыт</text><text x="230" y="230" font-family="Arial" font-size="5.87" transform="matrix(.9988 0 0 1 143.248 -100.767)">Открыт</text><text x="230" y="230" font-family="Arial" font-size="5.87" transform="matrix(.9988 0 0 1 -21.121 -101.789)">Закрыт</text><text x="216.2" y="230" font-family="Arial" font-size="6.43" transform="matrix(.9988 0 0 1 -83.268 219.402)">Пуск</text><text x="215.42" y="230" font-family="Arial" font-size="6.43" transform="matrix(.9988 0 0 1 -51.695 219.402)">Стоп</text><text x="211.3" y="230" font-family="Arial" font-size="6.43" transform="matrix(.9988 0 0 1 -19.564 219.402)">Сброс</text><text x="161.4" y="230" font-family="Arial" font-size="6.91" transform="matrix(.9988 0 0 1 -145.405 219.121)">Время до конца шага</text><text x="201.68" y="230" font-family="Arial" font-size="6.78" transform="matrix(.9988 0 0 1 171.37 218.787)">123 на угле зажиг.</text><text x="206.88" y="230" font-family="Arial" font-size="5.87" transform="matrix(.9988 0 0 1 137.386 -155.113)">Регулятор соотн.</text><text x="214.41" y="235.97" font-family="Arial" font-size="5.87" transform="matrix(.9988 0 0 1 137.386 -155.113)">воздуха-газ</text><text x="201.86" y="241.94" font-family="Arial" font-size="5.87" transform="matrix(.9988 0 0 1 137.386 -155.113)"> в режиме АВТОМАТ</text><text x="206.77" y="230" font-family="Arial" font-size="6.51" transform="matrix(.9988 0 0 1 -154.603 -23.742)">Контроль давл.</text><text x="201.05" y="236.62" font-family="Arial" font-size="6.51" transform="matrix(.9988 0 0 1 -154.603 -23.742)">азота в коллекторе</text><text x="205.75" y="230" font-family="Arial" font-size="6.51" transform="matrix(.9988 0 0 1 -154.623 -3.52)">Открыть клапан </text><text x="200.26" y="236.62" font-family="Arial" font-size="6.51" transform="matrix(.9988 0 0 1 -154.623 -3.52)">продувки азотом 24</text><text x="206" y="230" font-family="Arial" font-size="6.51" transform="matrix(.9988 0 0 1 -154.59 37.07)">Закрыть клапан </text><text x="200.26" y="236.62" font-family="Arial" font-size="6.51" transform="matrix(.9988 0 0 1 -154.59 37.07)">продувки азотом 24</text><text x="200.39" y="230" font-family="Arial" font-size="6.51" transform="matrix(.9988 0 0 1 -154.565 16.775)">Ожидание времени</text><text x="204.79" y="236.62" font-family="Arial" font-size="6.51" transform="matrix(.9988 0 0 1 -154.565 16.775)">продувки азотом</text><text x="193.5" y="230" font-family="Arial" font-size="6.51" transform="matrix(.9988 0 0 1 -154.701 57.293)">Контроль расхода азота</text><text x="209.88" y="236.62" font-family="Arial" font-size="6.51" transform="matrix(.9988 0 0 1 -154.701 57.293)">при продувки</text><text x="193.38" y="230" font-family="Arial" font-size="6.51" transform="matrix(.9988 0 0 1 -154.533 77.588)">Закрыть отделительный</text><text x="207.82" y="236.62" font-family="Arial" font-size="6.51" transform="matrix(.9988 0 0 1 -154.533 77.588)">клапан газа 13</text><text x="200.39" y="230" font-family="Arial" font-size="6.51" transform="matrix(.9988 0 0 1 -154.556 96.591)">Ожидание времени</text><text x="197.24" y="236.62" font-family="Arial" font-size="6.51" transform="matrix(.9988 0 0 1 -154.556 96.591)">вентиляции воздухом</text><text x="202.12" y="230" font-family="Arial" font-size="6.51" transform="matrix(.9988 0 0 1 -154.565 195.359)">Открыть сбросной</text><text x="214.92" y="236.62" font-family="Arial" font-size="6.51" transform="matrix(.9988 0 0 1 -154.565 195.359)">клапан 13</text><text x="202.86" y="230" font-family="Arial" font-size="6.51" transform="matrix(.9988 0 0 1 -153.628 176.329)">Зкарыть дымовой </text><text x="214.92" y="236.62" font-family="Arial" font-size="6.51" transform="matrix(.9988 0 0 1 -153.628 176.329)">клапан 12</text><text x="202.86" y="230" font-family="Arial" font-size="6.51" transform="matrix(.9988 0 0 1 -153.628 157.332)">Зкарыть дымовой </text><text x="215.16" y="236.62" font-family="Arial" font-size="6.51" transform="matrix(.9988 0 0 1 -153.628 157.332)">клапан 11</text><text x="202.89" y="230" font-family="Arial" font-size="6.51" transform="matrix(.9988 0 0 1 -154.59 116.886)">Закрыть отсечной</text><text x="196.16" y="236.62" font-family="Arial" font-size="6.51" transform="matrix(.9988 0 0 1 -154.59 116.886)">клапан на возд.гор. 24</text><text x="202.89" y="230" font-family="Arial" font-size="6.51" transform="matrix(.9988 0 0 1 -154.59 137.109)">Закрыть отсечной</text><text x="196.16" y="236.62" font-family="Arial" font-size="6.51" transform="matrix(.9988 0 0 1 -154.59 137.109)">клапан на возд.гор. 17</text><text x="202.89" y="230" font-family="Arial" font-size="6.51" transform="matrix(.9988 0 0 1 -154.616 -42.674)">Закрыть отсечной</text><text x="193.53" y="236.62" font-family="Arial" font-size="6.51" transform="matrix(.9988 0 0 1 -154.616 -42.674)">клапан из смеш. газе 16</text><path fill="none" stroke="#000" stroke-miterlimit="22.926" d="M12.99 39.11h382.97v396.3H12.99z"/></svg>