<svg xmlns="http://www.w3.org/2000/svg" xml:space="preserve" width="600" height="600" fill-rule="evenodd" clip-rule="evenodd" image-rendering="optimizeQuality" shape-rendering="geometricPrecision" text-rendering="geometricPrecision"><defs><clipPath id="a"><path d="M8 0h584c4.4 0 8 3.6 8 8v584c0 4.4-3.6 8-8 8H8c-4.4 0-8-3.6-8-8V8c0-4.4 3.6-8 8-8z"/></clipPath><clipPath id="c"><path d="M158.11 264.34h26.69v17.46h-26.69v-17.46z"/></clipPath><clipPath id="d"><path d="M158.11 316.49h26.69v17.46h-26.69v-17.46z"/></clipPath><clipPath id="e"><path d="M158.11 367.91h26.69v17.46h-26.69v-17.46z"/></clipPath><clipPath id="f"><path d="M158.11 419.08h26.69v17.47h-26.69v-17.47z"/></clipPath><linearGradient id="b" x1="569.2" x2="594.23" y1="11.85" y2="11.85" gradientUnits="userSpaceOnUse"><stop offset="0" stop-color="#900"/><stop offset="1" stop-color="#FF8787"/></linearGradient></defs><path fill="#859EC3" d="M8 0h584c4.4 0 8 3.6 8 8v584c0 4.4-3.6 8-8 8H8c-4.4 0-8-3.6-8-8V8c0-4.4 3.6-8 8-8z"/><g clip-path="url(#a)"><path fill="#BEBEBE" d="M-13.88 22.43h623.96v618.2H-13.88z"/></g><path fill="none" stroke="#1A1A1A" stroke-miterlimit="22.926" stroke-width="2" d="M8 0h584c4.4 0 8 3.6 8 8v584c0 4.4-3.6 8-8 8H8c-4.4 0-8-3.6-8-8V8c0-4.4 3.6-8 8-8z"/><path fill="#01F322" d="M264.35 104.3h83.2v24.08h-83.2z"/><path fill="#01F322" d="M187 51.17h36.2v26.17H187z"/><path fill="#01F322" d="M187 77.61h36.2v26.17H187z"/><path fill="#01F322" d="M187 104.3h36.2v24.08H187z"/><path fill="#01F322" d="M223.72 51.17h40.62v26.17h-40.62z"/><path fill="#01F322" d="M223.72 77.61h40.62v26.17h-40.62z"/><path fill="#01F322" d="M223.72 104.3h40.62v24.08h-40.62z"/><path fill="#01F322" d="M264.35 51.17h42.18v26.17h-42.18z"/><path fill="#01F322" d="M264.35 77.61h42.18v26.17h-42.18z"/><path fill="#01F322" d="M306.53 51.17h40.63v26.17h-40.63z"/><path fill="#01F322" d="M306.53 77.61h40.63v26.17h-40.63z"/><path fill="#01F322" d="M347.81 51.17h47.79v26.17h-47.79z"/><path fill="#01F322" d="M395.72 51.17H437v26.17h-41.28z"/><path fill="#01F322" d="M437.13 51.17h44.27v26.17h-44.27z"/><path fill="#01F322" d="M481.4 51.17h35.55v26.17H481.4z"/><path fill="#01F322" d="M348.06 77.48h88.28v51.3h-88.28z"/><path fill="#01F322" d="M436.87 77.48h79.94v51.04h-79.94z"/><path fill="#01F322" d="M223.29 157.66h40.84v26.67h-40.84z"/><path fill="#01F322" d="M307.14 157.66h40.46v26.67h-40.46z"/><path fill="#01F322" d="M347.07 157.66h48.7v26.67h-48.7z"/><path fill="#01F322" d="M396.03 157.66h40.63v26.67h-40.63z"/><path fill="#01F322" d="M436.4 157.66h44.79v26.67H436.4z"/><path fill="#01F322" d="M481.19 157.66h35.42v26.67h-35.42z"/><g stroke-miterlimit="22.926"><rect width="25.03" height="13.32" x="569.2" y="5.19" fill="url(#b)" stroke="#900" rx=".49" ry=".48"/><g fill="none" stroke="#fff" stroke-width="2"><path d="m578.17 8.15 7.03 6.7"/><path d="m585.2 8.15-7.03 6.7"/></g></g><path fill="none" stroke="#999" stroke-miterlimit="22.926" stroke-width="2.36" d="M159.28 230.41v-16.28h25.46"/><path fill="none" stroke="#999" stroke-miterlimit="22.926" stroke-width="2.36" d="M159.28 256.06v-16.28h25.46"/><path fill="none" stroke="#999" stroke-miterlimit="22.926" stroke-width="2.36" d="M159.28 308.4v-16.28h25.46"/><path fill="none" stroke="#999" stroke-miterlimit="22.926" stroke-width="2.36" d="M159.28 359.44v-16.27h25.46"/><path fill="none" stroke="#999" stroke-miterlimit="22.926" stroke-width="2.36" d="M159.28 411.07v-16.28h25.46"/><path fill="none" stroke="#999" stroke-miterlimit="22.926" stroke-width="2.36" d="M159.28 463.16v-16.28h25.46"/><path fill="none" stroke="#999" stroke-miterlimit="22.926" stroke-width="2.36" d="M159.28 488.55v-16.28h25.46"/><path fill="none" stroke="#999" stroke-miterlimit="22.926" stroke-width="2.36" d="M159.42 514.13v-16.27h25.45"/><path fill="none" stroke="#999" stroke-miterlimit="22.926" stroke-width="2.36" d="M159.28 539.46v-16.28h25.46"/><path fill="none" stroke="#999" stroke-miterlimit="22.926" stroke-width="2.36" d="M159.28 564.59v-16.28h25.46"/><text x="300" y="300" font-family="Arial" font-size="13.41" font-weight="bold" transform="matrix(.9988 0 0 1 -52.768 -258.12)">ВН1 Перекидка из Нагрева в Отделение</text><path fill="gray" d="M186.62 128.42h329.92v29.14H186.62z"/><path fill="#FF381B" d="M264.26 157.14h42.39v26.67h-42.39z"/><path fill="#01F322" d="M186.96 157.66h36.36v26.67h-36.36z"/><path fill="none" stroke="#000" stroke-miterlimit="22.926" d="M46.05 50.95v517.1"/><path fill="none" stroke="#000" stroke-miterlimit="22.926" d="M516.6 128.32H46.16"/><path fill="none" stroke="#000" stroke-miterlimit="22.926" d="M516.6 157.42H17.09"/><path fill="none" stroke="#000" stroke-miterlimit="22.926" d="M516.13 183.86H17.09"/><path fill="none" stroke="#000" stroke-miterlimit="22.926" d="M516.13 208.84H17.09"/><path fill="none" stroke="#000" stroke-miterlimit="22.926" d="M516.13 235.28H17.09"/><path fill="none" stroke="#000" stroke-miterlimit="22.926" d="M516.13 260.75H17.09"/><path fill="none" stroke="#000" stroke-miterlimit="22.926" d="M516.13 287.18H17.09"/><path fill="none" stroke="#000" stroke-miterlimit="22.926" d="M516.13 312.17H17.09"/><path fill="none" stroke="#000" stroke-miterlimit="22.926" d="M516.13 338.6H17.09"/><path fill="none" stroke="#000" stroke-miterlimit="22.926" d="M516.13 364.07H17.09"/><path fill="none" stroke="#000" stroke-miterlimit="22.926" d="M516.13 390.51H17.09"/><path fill="none" stroke="#000" stroke-miterlimit="22.926" d="M516.13 415.49H17.09"/><path fill="none" stroke="#000" stroke-miterlimit="22.926" d="M516.13 441.93H17.09"/><path fill="none" stroke="#000" stroke-miterlimit="22.926" d="M516.13 467.39H17.09"/><path fill="none" stroke="#000" stroke-miterlimit="22.926" d="M516.13 493.83H17.09"/><path fill="none" stroke="#000" stroke-miterlimit="22.926" d="M516.13 518.81H17.09"/><path fill="none" stroke="#000" stroke-miterlimit="22.926" d="M516.13 545.25H17.09"/><path fill="none" stroke="#000" stroke-miterlimit="22.926" d="M156.03 50.42v518.01"/><path fill="none" stroke="#000" stroke-miterlimit="22.926" d="M223.38 50.71v517.06"/><path fill="none" stroke="#000" stroke-miterlimit="22.926" d="M264.32 50.91v516.86"/><path fill="none" stroke="#000" stroke-miterlimit="22.926" d="M306.71 127.87v439.9"/><path fill="none" stroke="#000" stroke-miterlimit="22.926" d="M347.65 51.07v516.7"/><path fill="none" stroke="#000" stroke-miterlimit="22.926" d="M395.87 128.39v439.38"/><path fill="none" stroke="#000" stroke-miterlimit="22.926" d="M436.8 51.03v516.74"/><path fill="none" stroke="#999" stroke-miterlimit="22.926" stroke-width="2.36" d="M159.28 204.63v-16.28h25.46"/><path fill="none" stroke="#000" stroke-miterlimit="22.926" d="M481.38 128.4v439.37"/><path fill="none" stroke="#000" stroke-miterlimit="22.926" d="M158.11 187.58h26.7v17.46h-26.7z"/><path fill="gray" stroke="#000" stroke-miterlimit="22.926" d="M16.42 574.44h100.83v17.22H16.42z"/><path fill="none" stroke="#000" stroke-miterlimit="22.926" d="M146.82 574.44h10.16v17.22h-10.16z"/><path fill="#fff" stroke="#000" stroke-miterlimit="22.926" d="M117.75 574.44h28.95v17.22h-28.95z"/><path fill="gray" stroke="#000" stroke-miterlimit="22.926" d="M282.71 574.44h101.02v17.22H282.71z"/><path fill="#fff" stroke="#000" stroke-miterlimit="22.926" d="M162.31 574.44h40.11v17.22h-40.11z"/><path fill="#fff" stroke="#000" stroke-miterlimit="22.926" d="M202.78 574.44h40.11v17.22h-40.11z"/><path fill="#fff" stroke="#000" stroke-miterlimit="22.926" d="M242.99 574.44h40.11v17.22h-40.11z"/><path fill="gray" stroke="#000" stroke-miterlimit="22.926" d="M390.07 574.44h83v17.22h-83z"/><path fill="gray" stroke="#000" stroke-miterlimit="22.926" d="M479.42 574.44h83v17.22h-83z"/><text x="300" y="300" font-family="Arial" font-size="10.43" transform="matrix(.9988 0 0 1 -223.773 -226.101)">Условия </text><text x="300" y="311.66" font-family="Arial" font-size="10.43" transform="matrix(.9988 0 0 1 -223.773 -226.101)">пересадки</text><text x="300" y="300" font-family="Arial" font-size="10.43" transform="matrix(.9988 0 0 1 -225.227 -130.903)">Исходное </text><text x="300" y="310.61" font-family="Arial" font-size="10.43" transform="matrix(.9988 0 0 1 -225.227 -130.903)">состояние</text><text x="259.69" y="300" font-family="Arial" font-size="8.5" transform="matrix(.9988 0 0 1 -201.332 -105.241)">Установить клапаны</text><text x="257.48" y="308.64" font-family="Arial" font-size="8.5" transform="matrix(.9988 0 0 1 -201.332 -105.241)">15 и 23 на угол зажиг.</text><text x="300" y="300" font-family="Arial" font-size="10.43" transform="matrix(.9988 0 0 1 -274.646 -98.765)">1</text><text x="300" y="325.64" font-family="Arial" font-size="10.43" transform="matrix(.9988 0 0 1 -274.646 -98.765)">2</text><text x="300" y="351.29" font-family="Arial" font-size="10.43" transform="matrix(.9988 0 0 1 -274.646 -98.765)">3</text><text x="300" y="376.93" font-family="Arial" font-size="10.43" transform="matrix(.9988 0 0 1 -274.646 -98.765)">4</text><text x="300" y="402.58" font-family="Arial" font-size="10.43" transform="matrix(.9988 0 0 1 -274.646 -98.765)">5</text><text x="300" y="428.22" font-family="Arial" font-size="10.43" transform="matrix(.9988 0 0 1 -274.646 -98.765)">6</text><text x="300" y="453.86" font-family="Arial" font-size="10.43" transform="matrix(.9988 0 0 1 -274.646 -98.765)">7</text><text x="300" y="479.51" font-family="Arial" font-size="10.43" transform="matrix(.9988 0 0 1 -274.646 -98.765)">8</text><text x="300" y="505.15" font-family="Arial" font-size="10.43" transform="matrix(.9988 0 0 1 -274.646 -98.765)">9</text><text x="300" y="530.8" font-family="Arial" font-size="10.43" transform="matrix(.9988 0 0 1 -274.646 -98.765)">10</text><text x="300" y="556.44" font-family="Arial" font-size="10.43" transform="matrix(.9988 0 0 1 -274.646 -98.765)">11</text><text x="300" y="582.08" font-family="Arial" font-size="10.43" transform="matrix(.9988 0 0 1 -274.646 -98.765)">12</text><text x="300" y="607.73" font-family="Arial" font-size="10.43" transform="matrix(.9988 0 0 1 -274.646 -98.765)">13</text><text x="300" y="633.37" font-family="Arial" font-size="10.43" transform="matrix(.9988 0 0 1 -274.646 -98.765)">14</text><text x="300" y="659.02" font-family="Arial" font-size="10.43" transform="matrix(.9988 0 0 1 -274.646 -98.765)">15</text><text x="300" y="300" font-family="Arial" font-size="10.85" transform="matrix(0 -1 .9988 0 -129.743 412.905)">Время</text><text x="300" y="309.58" font-family="Arial" font-size="10.85" transform="matrix(0 -1 .9988 0 -129.743 412.905)">шага</text><path fill="none" stroke="#000" stroke-miterlimit="22.926" d="M186.8 50.42v517.66"/><path fill="none" stroke="#000" stroke-miterlimit="22.926" d="M395.86 50.55v27.17"/><path fill="none" stroke="#000" stroke-miterlimit="22.926" d="M186.35 77.42h330.56"/><path fill="none" stroke="#000" stroke-miterlimit="22.926" d="M186.35 104.1h161.47"/><path fill="none" stroke="#000" stroke-miterlimit="22.926" d="M306.71 50.55v53.55"/><path fill="none" stroke="#000" stroke-miterlimit="22.926" d="M481.38 50.55v27.17"/><text x="264.63" y="300" font-family="Arial" font-size="8.5" transform="matrix(.9988 0 0 1 -200.437 -80.44)">Закрыть отсечной</text><text x="252.42" y="308.64" font-family="Arial" font-size="8.5" transform="matrix(.9988 0 0 1 -200.437 -80.44)">клапан из смеш. газе 22 </text><text x="300" y="300" font-family="Arial" font-size="7.66" transform="matrix(.9988 0 0 1 -101.093 -232.091)">111</text><text x="300" y="300" font-family="Arial" font-size="7.66" transform="matrix(.9988 0 0 1 -101.093 -206.503)">124</text><text x="300" y="300" font-family="Arial" font-size="7.66" transform="matrix(.9988 0 0 1 -62.333 -232.576)">112</text><text x="300" y="300" font-family="Arial" font-size="7.66" transform="matrix(.9988 0 0 1 -62.333 -206.988)">123</text><text x="300" y="300" font-family="Arial" font-size="7.66" transform="matrix(.9988 0 0 1 -19.939 -232.576)">113</text><text x="300" y="300" font-family="Arial" font-size="7.66" transform="matrix(.9988 0 0 1 -19.939 -206.988)">114</text><text x="300" y="300" font-family="Arial" font-size="7.66" transform="matrix(.9988 0 0 1 21.729 -232.576)">121</text><text x="300" y="300" font-family="Arial" font-size="7.66" transform="matrix(.9988 0 0 1 21.729 -206.988)">127</text><text x="300" y="300" font-family="Arial" font-size="7.66" transform="matrix(.9988 0 0 1 64.608 -232.576)">124</text><text x="300" y="300" font-family="Arial" font-size="7.66" transform="matrix(.9988 0 0 1 110.636 -232.576)">117</text><text x="300" y="300" font-family="Arial" font-size="7.66" transform="matrix(.9988 0 0 1 153.756 -232.576)">143</text><text x="300" y="300" font-family="Arial" font-size="7.66" transform="matrix(.9988 0 0 1 193.97 -232.576)">110</text><text x="300" y="300" font-family="Arial" font-size="7.66" transform="matrix(.9988 0 0 1 -103.827 -181.202)">Цикл</text><text x="300" y="300" font-family="Arial" font-size="7.66" transform="matrix(.9988 0 0 1 -68.444 -181.157)">Нагрев</text><text x="279.27" y="300" font-family="Arial" font-size="7.66" transform="matrix(.9988 0 0 1 6.598 -185.522)">Давл. азота</text><text x="285.76" y="307.79" font-family="Arial" font-size="7.66" transform="matrix(.9988 0 0 1 6.598 -185.522)">в норме</text><text x="266.44" y="300" font-family="Arial" font-size="7.66" transform="matrix(.9988 0 0 1 91.807 -201.279)">Регулятор расхода</text><text x="264.04" y="307.79" font-family="Arial" font-size="7.66" transform="matrix(.9988 0 0 1 91.807 -201.279)">смеш.газа в режиме</text><text x="282.21" y="315.58" font-family="Arial" font-size="7.66" transform="matrix(.9988 0 0 1 91.807 -201.279)">АВТОМАТ</text><text x="255.34" y="300" font-family="Arial" font-size="8.84" transform="matrix(.9988 0 0 1 33.597 285.374)">Расход азота в норме</text><text x="263.38" y="300" font-family="Arial" font-size="8.84" transform="matrix(.9988 0 0 1 132.059 285.393)">115 на угле зажиг.</text><text x="300" y="300" font-family="Arial" font-size="10.43" transform="matrix(0 -1 .9988 0 -268.446 414.34)">№ шага</text><text x="300" y="300" font-family="Arial" font-size="10.54" transform="matrix(.9988 0 0 1 -134.229 -100.741)">180</text><path fill="none" stroke="#000" stroke-miterlimit="22.926" d="M158.11 212.92h26.7v17.46h-26.7z"/><text x="288.27" y="300" font-family="Arial" font-size="10.54" transform="matrix(.9988 0 0 1 -119.118 -75.395)">65</text><path fill="none" stroke="#000" stroke-miterlimit="22.926" d="M158.11 238.99h26.7v17.46h-26.7z"/><text x="300" y="300" font-family="Arial" font-size="10.54" transform="matrix(.9988 0 0 1 -134.229 -49.322)">180</text><path fill="#fff" d="M158.11 264.34h26.69v17.46h-26.69z"/><g clip-path="url(#c)"><path fill="none" stroke="#999" stroke-miterlimit="22.926" stroke-width="2" d="M159.35 281.25v-15.64h25.86"/></g><path fill="none" stroke="#000" stroke-miterlimit="22.926" d="M158.11 264.34h26.69v17.46h-26.69z"/><text x="294.14" y="300" font-family="Arial" font-size="10.54" transform="matrix(.9988 0 0 1 -119.118 -23.976)">5</text><path fill="none" stroke="#000" stroke-miterlimit="22.926" d="M158.11 291.14h26.7v17.46h-26.7z"/><text x="288.27" y="300" font-family="Arial" font-size="10.54" transform="matrix(.9988 0 0 1 -119.056 2.825)">27</text><path fill="#fff" d="M158.11 316.49h26.69v17.46h-26.69z"/><g clip-path="url(#d)"><path fill="none" stroke="#999" stroke-miterlimit="22.926" stroke-width="2.36" d="M159.28 333.79v-16.28h25.46"/></g><path fill="none" stroke="#000" stroke-miterlimit="22.926" d="M158.11 316.49h26.69v17.46h-26.69z"/><text x="288.27" y="300" font-family="Arial" font-size="10.54" transform="matrix(.9988 0 0 1 -119.118 28.17)">15</text><path fill="none" stroke="#000" stroke-miterlimit="22.926" d="M158.11 342.56h26.7v17.46h-26.7z"/><text x="288.27" y="300" font-family="Arial" font-size="10.54" transform="matrix(.9988 0 0 1 -119.035 54.245)">27</text><path fill="#fff" d="M158.11 367.91h26.69v17.46h-26.69z"/><g clip-path="url(#e)"><path fill="none" stroke="#999" stroke-miterlimit="22.926" stroke-width="2.36" d="M159.28 385.22v-16.27h25.46"/></g><path fill="none" stroke="#000" stroke-miterlimit="22.926" d="M158.11 367.91h26.69v17.46h-26.69z"/><text x="294.14" y="300" font-family="Arial" font-size="10.54" transform="matrix(.9988 0 0 1 -119.118 79.59)">5</text><path fill="none" stroke="#000" stroke-miterlimit="22.926" d="M158.11 393.74h26.7v17.46h-26.7z"/><text x="288.27" y="300" font-family="Arial" font-size="10.54" transform="matrix(.9988 0 0 1 -119.035 105.421)">27</text><path fill="#fff" d="M158.11 419.08h26.69v17.47h-26.69z"/><g clip-path="url(#f)"><path fill="none" stroke="#999" stroke-miterlimit="22.926" stroke-width="2.36" d="M159.28 436.46v-16.28h25.46"/></g><path fill="none" stroke="#000" stroke-miterlimit="22.926" d="M158.11 419.08h26.69v17.47h-26.69z"/><text x="288.27" y="300" font-family="Arial" font-size="10.54" transform="matrix(.9988 0 0 1 -119.118 130.767)">20</text><path fill="none" stroke="#000" stroke-miterlimit="22.926" d="M158.11 446.13h26.7v17.46h-26.7z"/><text x="288.27" y="300" font-family="Arial" font-size="10.54" transform="matrix(.9988 0 0 1 -119.035 157.81)">35</text><path fill="none" stroke="#000" stroke-miterlimit="22.926" d="M158.11 471.47h26.7v17.46h-26.7z"/><text x="288.27" y="300" font-family="Arial" font-size="10.54" transform="matrix(.9988 0 0 1 -119.118 183.156)">27</text><path fill="none" stroke="#000" stroke-miterlimit="22.926" d="M158.11 497.06h26.7v17.46h-26.7z"/><text x="288.27" y="300" font-family="Arial" font-size="10.54" transform="matrix(.9988 0 0 1 -119.035 208.744)">27</text><path fill="none" stroke="#000" stroke-miterlimit="22.926" d="M158.11 522.41h26.7v17.46h-26.7z"/><text x="288.27" y="300" font-family="Arial" font-size="10.54" transform="matrix(.9988 0 0 1 -119.118 234.09)">27</text><path fill="none" stroke="#000" stroke-miterlimit="22.926" d="M158.11 548.48h26.7v15.89h-26.7z"/><text x="288.27" y="300" font-family="Arial" font-size="10.54" transform="matrix(.9988 0 0 1 -119.118 260.162)">27</text><text x="294.14" y="300" font-family="Arial" font-size="10.54" transform="matrix(.9988 0 0 1 -168.659 286.72)">0</text><text x="294.73" y="300" font-family="Arial" font-size="10.54" transform="matrix(.9988 0 0 1 -145.161 286.72)">с</text><text x="300" y="300" fill="#fff" font-family="Arial" font-size="7.66" font-weight="bold" transform="matrix(.9988 0 0 1 -101.075 -154.113)">132</text><text x="300" y="300" fill="#fff" font-family="Arial" font-size="7.66" font-weight="bold" transform="matrix(.9988 0 0 1 -63.041 -154.113)">116</text><text x="300" y="300" fill="#fff" font-family="Arial" font-size="7.66" font-weight="bold" transform="matrix(.9988 0 0 1 -20.646 -154.113)">124</text><text x="300" y="300" fill="#fff" font-family="Arial" font-size="7.66" font-weight="bold" transform="matrix(.9988 0 0 1 21.506 -154.113)">113</text><text x="300" y="300" fill="#fff" font-family="Arial" font-size="7.66" font-weight="bold" transform="matrix(.9988 0 0 1 65.84 -154.113)">134</text><text x="300" y="300" fill="#fff" font-family="Arial" font-size="7.66" font-weight="bold" transform="matrix(.9988 0 0 1 110.777 -154.113)">117</text><text x="300" y="300" fill="#fff" font-family="Arial" font-size="7.66" font-weight="bold" transform="matrix(.9988 0 0 1 154.746 -154.113)">111</text><text x="300" y="300" fill="#fff" font-family="Arial" font-size="7.66" font-weight="bold" transform="matrix(.9988 0 0 1 194.113 -154.113)">112</text><text x="300" y="300" font-family="Arial" font-size="7.66" transform="matrix(.9988 0 0 1 -107.736 -132.526)">Открыт</text><text x="300" y="300" font-family="Arial" font-size="7.66" transform="matrix(.9988 0 0 1 -69.34 -132.526)">Открыт</text><text x="300" y="300" font-family="Arial" font-size="7.66" transform="matrix(.9988 0 0 1 14.605 -132.526)">Открыт</text><text x="300" y="300" font-family="Arial" font-size="7.66" transform="matrix(.9988 0 0 1 58.21 -131.435)">Открыт</text><text x="300" y="300" font-family="Arial" font-size="7.66" transform="matrix(.9988 0 0 1 103.269 -131.435)">Открыт</text><text x="300" y="300" font-family="Arial" font-size="7.66" transform="matrix(.9988 0 0 1 148.327 -131.435)">Открыт</text><text x="300" y="300" font-family="Arial" font-size="7.66" transform="matrix(.9988 0 0 1 186.845 -131.435)">Открыт</text><text x="300" y="300" font-family="Arial" font-size="7.66" transform="matrix(.9988 0 0 1 -27.55 -132.768)">Закрыт</text><text x="282" y="300" font-family="Arial" font-size="8.39" transform="matrix(.9988 0 0 1 -108.611 286.176)">Пуск</text><text x="280.98" y="300" font-family="Arial" font-size="8.39" transform="matrix(.9988 0 0 1 -67.428 286.176)">Стоп</text><text x="275.6" y="300" font-family="Arial" font-size="8.39" transform="matrix(.9988 0 0 1 -25.518 286.176)">Сброс</text><text x="210.51" y="300" font-family="Arial" font-size="9.02" transform="matrix(.9988 0 0 1 -189.659 285.809)">Время до конца шага</text><text x="263.05" y="300" font-family="Arial" font-size="8.84" transform="matrix(.9988 0 0 1 223.525 285.374)">123 на угле зажиг.</text><text x="269.83" y="300" font-family="Arial" font-size="7.66" transform="matrix(.9988 0 0 1 179.199 -202.321)">Регулятор соотн.</text><text x="279.66" y="307.79" font-family="Arial" font-size="7.66" transform="matrix(.9988 0 0 1 179.199 -202.321)">воздуха-газ</text><text x="263.29" y="315.58" font-family="Arial" font-size="7.66" transform="matrix(.9988 0 0 1 179.199 -202.321)"> в режиме АВТОМАТ</text><text x="269.69" y="300" font-family="Arial" font-size="8.5" transform="matrix(.9988 0 0 1 -201.656 -30.968)">Контроль давл.</text><text x="262.22" y="308.64" font-family="Arial" font-size="8.5" transform="matrix(.9988 0 0 1 -201.656 -30.968)">азота в коллекторе</text><text x="268.36" y="300" font-family="Arial" font-size="8.5" transform="matrix(.9988 0 0 1 -201.681 -4.59)">Открыть клапан </text><text x="261.2" y="308.64" font-family="Arial" font-size="8.5" transform="matrix(.9988 0 0 1 -201.681 -4.59)">продувки азотом 24</text><text x="268.68" y="300" font-family="Arial" font-size="8.5" transform="matrix(.9988 0 0 1 -201.638 48.352)">Закрыть клапан </text><text x="261.2" y="308.64" font-family="Arial" font-size="8.5" transform="matrix(.9988 0 0 1 -201.638 48.352)">продувки азотом 24</text><text x="261.37" y="300" font-family="Arial" font-size="8.5" transform="matrix(.9988 0 0 1 -201.606 21.88)">Ожидание времени</text><text x="267.11" y="308.64" font-family="Arial" font-size="8.5" transform="matrix(.9988 0 0 1 -201.606 21.88)">продувки азотом</text><text x="252.37" y="300" font-family="Arial" font-size="8.5" transform="matrix(.9988 0 0 1 -201.783 74.73)">Контроль расхода азота</text><text x="273.74" y="308.64" font-family="Arial" font-size="8.5" transform="matrix(.9988 0 0 1 -201.783 74.73)">при продувки</text><text x="252.22" y="300" font-family="Arial" font-size="8.5" transform="matrix(.9988 0 0 1 -201.565 101.201)">Закрыть отделительный</text><text x="271.06" y="308.64" font-family="Arial" font-size="8.5" transform="matrix(.9988 0 0 1 -201.565 101.201)">клапан газа 13</text><text x="261.37" y="300" font-family="Arial" font-size="8.5" transform="matrix(.9988 0 0 1 -201.594 125.988)">Ожидание времени</text><text x="257.25" y="308.64" font-family="Arial" font-size="8.5" transform="matrix(.9988 0 0 1 -201.594 125.988)">вентиляции воздухом</text><text x="263.63" y="300" font-family="Arial" font-size="8.5" transform="matrix(.9988 0 0 1 -201.606 254.815)">Открыть сбросной</text><text x="280.33" y="308.64" font-family="Arial" font-size="8.5" transform="matrix(.9988 0 0 1 -201.606 254.815)">клапан 13</text><text x="264.58" y="300" font-family="Arial" font-size="8.5" transform="matrix(.9988 0 0 1 -200.384 229.994)">Зкарыть дымовой </text><text x="280.33" y="308.64" font-family="Arial" font-size="8.5" transform="matrix(.9988 0 0 1 -200.384 229.994)">клапан 12</text><text x="264.58" y="300" font-family="Arial" font-size="8.5" transform="matrix(.9988 0 0 1 -200.384 205.215)">Зкарыть дымовой </text><text x="280.64" y="308.64" font-family="Arial" font-size="8.5" transform="matrix(.9988 0 0 1 -200.384 205.215)">клапан 11</text><text x="264.63" y="300" font-family="Arial" font-size="8.5" transform="matrix(.9988 0 0 1 -201.638 152.46)">Закрыть отсечной</text><text x="255.84" y="308.64" font-family="Arial" font-size="8.5" transform="matrix(.9988 0 0 1 -201.638 152.46)">клапан на возд.гор. 24</text><text x="264.63" y="300" font-family="Arial" font-size="8.5" transform="matrix(.9988 0 0 1 -201.638 178.837)">Закрыть отсечной</text><text x="255.84" y="308.64" font-family="Arial" font-size="8.5" transform="matrix(.9988 0 0 1 -201.638 178.837)">клапан на возд.гор. 17</text><text x="264.63" y="300" font-family="Arial" font-size="8.5" transform="matrix(.9988 0 0 1 -201.672 -55.662)">Закрыть отсечной</text><text x="252.42" y="308.64" font-family="Arial" font-size="8.5" transform="matrix(.9988 0 0 1 -201.672 -55.662)">клапан из смеш. газе 16</text><path fill="none" stroke="#000" stroke-miterlimit="22.926" d="M16.94 51.02h499.53v516.91H16.94z"/></svg>