<svg xmlns="http://www.w3.org/2000/svg" xml:space="preserve" width="350" height="500" fill-rule="evenodd" clip-rule="evenodd" image-rendering="optimizeQuality" shape-rendering="geometricPrecision" text-rendering="geometricPrecision"><rect width="350" height="500" fill="#859EC3" stroke="#333" stroke-miterlimit="22.926" rx="2" ry="2.76"/><path fill="#BEBEBE" d="M2.57 23.19h344.62v473.83H2.57z"/><path fill="none" stroke="#000" stroke-miterlimit="22.926" d="M6.91 103.31h150.82v114.23H6.91z"/><rect width="28.21" height="25.8" x="11.93" y="23.69" fill="#B3B3B3" stroke="#E6E6E6" stroke-miterlimit="22.926" rx="3.31" ry="3.29"/><rect width="21.58" height="19.73" x="15.25" y="27.1" fill="#859EC3" stroke="#000" stroke-miterlimit="22.926" rx="2.53" ry="2.51"/><rect width="18.76" height="17.32" x="16.65" y="28.31" fill="#fff" rx="2.2" ry="2.21"/><path stroke="#000" stroke-miterlimit="22.926" d="M20.1 31.63h12.55v12.02H20.1z"/><path fill="#999" stroke="#000" stroke-miterlimit="22.926" d="M19.03 30.34h12.55v12.02H19.03z"/><path fill="none" stroke="#000" stroke-miterlimit="22.926" d="M2.75 23.72h338.82v28.16H2.75z"/><path fill="#FF381B" stroke="#000" stroke-miterlimit="22.926" d="m58.35 75.43 14.08-7.8 14.07-7.8v31.2l-14.07-7.8z"/><path fill="#FF381B" stroke="#000" stroke-miterlimit="22.926" d="m58.69 75.43-14.08-7.8-14.08-7.8v31.2l14.08-7.8z"/><rect width="53.79" height="27.9" x="97.3" y="64.95" fill="#fff" rx="2.09" ry="1.98"/><path fill="#fff" stroke="#000" stroke-miterlimit="22.926" d="M9.78 108.74h141.98v21.19H9.78z"/><path fill="#E6E6E6" stroke="#000" stroke-miterlimit="22.926" d="M9.78 149.93h141.98v21.19H9.78z"/><path fill="#6DE90B" stroke="#000" stroke-miterlimit="22.926" d="M9.78 191.13h141.98v21.19H9.78z"/><path fill="none" stroke="#000" stroke-miterlimit="22.926" d="M6.91 221.68h150.82v59.96H6.91z"/><rect width="64.75" height="21.19" x="14.72" y="256.05" fill="#FF381B" stroke="#000" stroke-miterlimit="22.926" rx=".91" ry="1.98"/><rect width="64.75" height="21.19" x="87.79" y="256.05" fill="#FF381B" stroke="#000" stroke-miterlimit="22.926" rx=".91" ry="1.98"/><path fill="none" stroke="#000" stroke-miterlimit="22.926" d="M163.95 56.53h177.62v225.11H163.95z"/><path fill="#fff" stroke="#000" stroke-miterlimit="22.926" d="M268.25 290.28h41.35v22.48h-41.35z"/><rect width="81.39" height="24.02" x="167.75" y="81.6" fill="#E6E6E6" rx="3.67" ry="1.98"/><rect width="81.39" height="24.02" x="255.38" y="81.6" fill="#fff" rx="3.67" ry="1.98"/><rect width="81.39" height="24.02" x="167.75" y="120.11" fill="#E6E6E6" rx="3.67" ry="1.98"/><rect width="81.39" height="24.02" x="255.38" y="120.11" fill="#E6E6E6" rx="3.67" ry="1.98"/><rect width="169.54" height="25.94" x="167.75" y="148.87" fill="#E6E6E6" rx="7.08" ry="1.99"/><rect width="169.54" height="21.29" x="167.75" y="202.13" fill="#E6E6E6" rx="8.63" ry="1.98"/><rect width="24.31" height="12.92" x="322.01" y="5.87" fill="#900" stroke="#000" stroke-miterlimit="22.926" rx=".47" ry=".46"/><g fill="none" stroke="#fff" stroke-miterlimit="22.926" stroke-width="2"><path d="m330.73 8.75 6.82 6.49"/><path d="m337.55 8.75-6.82 6.49"/></g><rect width="77.47" height="20.29" x="257.34" y="83.47" fill="#fff" stroke="#000" stroke-miterlimit="22.926" rx="4.14" ry="1.98"/><path fill="none" stroke="#000" stroke-miterlimit="22.926" d="M21.24 34.8h1.74"/><path fill="none" stroke="#000" stroke-miterlimit="22.926" d="M23.76 34.8h1.74"/><path fill="none" stroke="#000" stroke-miterlimit="22.926" d="M27.03 34.8h1.74"/><path fill="none" stroke="#000" stroke-miterlimit="22.926" d="M21.24 37.51h3.03"/><path fill="none" stroke="#000" stroke-miterlimit="22.926" d="M24.75 36.61h2.3"/><path fill="none" stroke="#000" stroke-miterlimit="22.926" d="M21.06 39.08h3.92"/><path fill="none" stroke="#000" stroke-miterlimit="22.926" d="M25.88 38.17h3.91"/><path fill="none" stroke="#000" stroke-miterlimit="22.926" d="M25.88 40.4h4.55"/><path d="m26.22 31.71-.81 1.83 1.69-1.35z"/><ellipse cx="27.23" cy="31.27" fill="#900" rx="1.15" ry="1.14"/><ellipse fill="#fff" rx=".35" ry=".19" transform="matrix(.79203 .60432 -.60804 .78717 27.66 30.757)"/><rect width="48.82" height="24.39" x="99.78" y="66.76" fill="#fff" stroke="#000" stroke-miterlimit="22.926" rx="3.25" ry="2.98"/><ellipse cx="58.51" cy="75.28" fill="none" stroke="#FF381B" stroke-miterlimit="22.926" rx="7.8" ry="7.75"/><ellipse cx="58.51" cy="75.28" fill="none" stroke="#FF381B" stroke-miterlimit="22.926" rx="16.12" ry="16.02"/><rect width="77.47" height="20.29" x="169.84" y="83.47" fill="#E6E6E6" stroke="#B3B3B3" stroke-miterlimit="22.926" rx="4.14" ry="1.98"/><rect width="77.47" height="20.29" x="257.34" y="121.85" fill="#E6E6E6" stroke="#BEBEBE" stroke-miterlimit="22.926" rx="4.14" ry="1.98"/><rect width="77.47" height="20.29" x="169.84" y="121.85" fill="#E6E6E6" stroke="#B3B3B3" stroke-miterlimit="22.926" rx="4.14" ry="1.98"/><rect width="164.69" height="21.03" x="170.17" y="151.33" fill="#E6E6E6" stroke="#B3B3B3" stroke-miterlimit="22.926" rx="8.48" ry="1.98"/><rect width="165.19" height="17.15" x="169.92" y="204.19" fill="#E6E6E6" stroke="#B3B3B3" stroke-miterlimit="22.926" rx="10.43" ry="1.98"/><rect width="169.54" height="21.29" x="167.75" y="255.22" fill="#fff" rx="8.63" ry="1.98"/><rect width="165.19" height="17.15" x="169.92" y="257.28" fill="#fff" stroke="#000" stroke-miterlimit="22.926" rx="10.43" ry="1.98"/><path fill="none" stroke="#000" stroke-miterlimit="22.926" d="M341.48 180.78h-177.4"/><path fill="none" stroke="#000" stroke-miterlimit="22.926" d="M341.48 243.55H164.37"/><path fill="none" stroke="#000" stroke-miterlimit="22.926" d="M341.48 113.33H163.56"/><text x="175" y="250" font-family="Arial" font-size="11.66" font-weight="bold" transform="matrix(1.00617 0 0 1 -172.481 -232.825)">Управление клапаном 116</text><text x="175" y="250" font-family="Arial" font-size="11.63" font-weight="bold" transform="matrix(1.00617 0 0 1 -68.6 -166.932)">TeSys</text><text x="175" y="250" font-family="Arial" font-size="15.76" font-weight="bold" transform="matrix(1.00617 0 0 1 37.496 -176.79)">Управление</text><text x="175" y="250" fill="#666" font-family="Arial" font-size="11.63" font-weight="bold" transform="matrix(1.00617 0 0 1 18.462 -152.297)">Авто</text><text x="175" y="250" font-family="Arial" font-size="11.63" font-weight="bold" transform="matrix(1.00617 0 0 1 98.702 -153.373)">Ручной</text><text x="175" y="250" fill="#666" font-family="Arial" font-size="11.63" font-weight="bold" transform="matrix(1.00617 0 0 1 6.957 -114.082)">Открыть</text><text x="175" y="250" fill="#666" font-family="Arial" font-size="11.63" font-weight="bold" transform="matrix(1.00617 0 0 1 95.213 -114.082)">Закрыть</text><text x="175" y="250" fill="#666" font-family="Arial" font-size="11.63" font-weight="bold" transform="matrix(1.00617 0 0 1 60.33 -83.457)">СТОП</text><text x="175" y="250" fill="#666" font-family="Arial" font-size="11.63" font-weight="bold" transform="matrix(1.00617 0 0 1 34.648 -33.474)">Сброс ошибки</text><text x="175" y="250" font-family="Arial" font-size="11.63" font-weight="bold" transform="matrix(1.00617 0 0 1 4.096 20.186)">Байпас всех блокировок</text><text x="175" y="250" font-family="Arial" font-size="12.4" font-weight="bold" transform="matrix(1.00617 0 0 1 -161.524 -126.269)">Автоматический</text><text x="175" y="250" font-family="Arial" font-size="12.4" font-weight="bold" transform="matrix(1.00617 0 0 1 -161.356 -85.38)">Закрыт</text><text x="175" y="250" font-family="Arial" font-size="12.4" font-weight="bold" transform="matrix(1.00617 0 0 1 -161.17 -43.745)">Схема собрана</text><text x="175" y="250" font-family="Arial" font-size="15.48" font-weight="bold" transform="matrix(1.00617 0 0 1 -142.299 -6.693)">Блокировки</text><text x="175" y="250" font-family="Arial" font-size="10.96" font-weight="bold" transform="matrix(1.00617 0 0 1 -155.99 20.64)">Открытие</text><text x="175" y="250" font-family="Arial" font-size="10.96" font-weight="bold" transform="matrix(1.00617 0 0 1 -82.331 20.64)">Закрытие</text><path fill="none" stroke="#000" stroke-miterlimit="22.926" d="M7.05 357.97h335.96v28.55H7.05z"/><path fill="#fff" stroke="#000" stroke-miterlimit="22.926" d="M268.25 359.64h41.35v22.48h-41.35z"/><text x="175" y="250" font-family="Arial" font-size="13.69" font-weight="bold" transform="matrix(1.00617 0 0 1 -163.707 127.453)">Положение промеж. открытие</text><text x="175" y="250" font-family="Arial" font-size="13.69" font-weight="bold" transform="matrix(1.00617 0 0 1 101.899 125.818)">100</text><text x="175" y="250" font-family="Arial" font-size="13.69" font-weight="bold" transform="matrix(1.00617 0 0 1 143.005 124.139)">%</text><path fill="none" stroke="#000" stroke-miterlimit="22.926" d="M7.05 392.91h335.96v28.55H7.05z"/><path fill="#fff" stroke="#000" stroke-miterlimit="22.926" d="M268.25 394.58h41.35v22.48h-41.35z"/><text x="175" y="250" font-family="Arial" font-size="13.69" font-weight="bold" transform="matrix(1.00617 0 0 1 -163.712 162.306)">Положение клапана</text><text x="175" y="250" font-family="Arial" font-size="13.69" font-weight="bold" transform="matrix(1.00617 0 0 1 108.774 160.756)">3</text><text x="175" y="250" font-family="Arial" font-size="13.69" font-weight="bold" transform="matrix(1.00617 0 0 1 143.005 159.076)">%</text><path fill="none" stroke="#000" stroke-miterlimit="22.926" d="M7.05 288.09h335.96v28.55H7.05z"/><text x="175" y="250" font-family="Arial" font-size="13.69" font-weight="bold" transform="matrix(1.00617 0 0 1 137.146 55.556)">cек</text><text x="175" y="250" font-family="Arial" font-size="13.69" font-weight="bold" transform="matrix(1.00617 0 0 1 106.201 55.943)">22</text><text x="175" y="250" font-family="Arial" font-size="13.69" font-weight="bold" transform="matrix(1.00617 0 0 1 -163.712 55.943)">Время полного движения клапана</text><path fill="#fff" stroke="#000" stroke-miterlimit="22.926" d="M268.25 324.7h41.35v22.48h-41.35z"/><path fill="none" stroke="#000" stroke-miterlimit="22.926" d="M7.05 323.03h335.96v28.55H7.05z"/><text x="175" y="250" font-family="Arial" font-size="13.69" font-weight="bold" transform="matrix(1.00617 0 0 1 -163.712 92.432)">Время паузы в промеж. положении</text><text x="175" y="250" font-family="Arial" font-size="13.69" font-weight="bold" transform="matrix(1.00617 0 0 1 101.899 90.881)">100</text><text x="175" y="250" font-family="Arial" font-size="13.69" font-weight="bold" transform="matrix(1.00617 0 0 1 137.146 91.123)">cек</text><path fill="none" stroke="#000" stroke-miterlimit="22.926" d="M7.05 427.84h335.96v28.55H7.05z"/><path fill="#fff" stroke="#000" stroke-miterlimit="22.926" d="M268.25 429.51h41.35v22.48h-41.35z"/><text x="175" y="250" font-family="Arial" font-size="13.69" font-weight="bold" transform="matrix(1.00617 0 0 1 -163.712 197.243)">Время паузы перед открытием</text><text x="175" y="250" font-family="Arial" font-size="13.69" font-weight="bold" transform="matrix(1.00617 0 0 1 105.024 195.693)">20</text><text x="175" y="250" font-family="Arial" font-size="13.69" font-weight="bold" transform="matrix(1.00617 0 0 1 137.146 194.997)">cек</text><path fill="none" stroke="#000" stroke-miterlimit="22.926" d="M7.05 462.78h335.96v28.55H7.05z"/><path fill="#fff" stroke="#000" stroke-miterlimit="22.926" d="M268.25 464.45h41.35v22.48h-41.35z"/><text x="175" y="250" font-family="Arial" font-size="13.69" font-weight="bold" transform="matrix(1.00617 0 0 1 -163.712 232.181)">Текущее время паузы открытия</text><text x="175" y="250" font-family="Arial" font-size="13.69" font-weight="bold" transform="matrix(1.00617 0 0 1 108.774 230.63)">5</text><text x="175" y="250" font-family="Arial" font-size="13.69" font-weight="bold" transform="matrix(1.00617 0 0 1 137.146 231.808)">cек</text></svg>