<svg xmlns="http://www.w3.org/2000/svg" viewBox="0 0 2000 243"><g fill="none" stroke-width="2"><path stroke="#510402" d="M2000 39.6q-.43.54-1.46.4" vector-effect="non-scaling-stroke"/><path stroke="gray" d="M1998.54 40c.22-.32.43-.64.43-1.04q.07-18.46.02-36.99a.97.97 0 0 0-.97-.97H1.51a.49.49 0 0 0-.49.49L1.04 40" vector-effect="non-scaling-stroke"/><path stroke="#510402" d="M1.04 40q-.61-.05-1.04-.37" vector-effect="non-scaling-stroke"/><path stroke="#d18382" d="M1998.54 40H1.04" vector-effect="non-scaling-stroke"/><path stroke="#d18382" d="M1999 42.27a.28.28 0 0 0-.28-.28H1.28a.28.28 0 0 0-.28.28v199.46a.28.28 0 0 0 .28.28h1997.44a.28.28 0 0 0 .28-.28V42.27" vector-effect="non-scaling-stroke"/><path stroke="gray" d="M579.71 82.87c9.74-3.55 6.33-16.14-3.22-16.17q-9.46-.03-12.39 9.37-.08.26.19.32l3.72.81a.33.32 13.3 0 0 .38-.23q1.1-4.2 4.54-5.92c9.47-4.72 13.05 11.57-1.59 10.16q-.32-.03-.4.27l-.95 3.19a.17.17 0 0 0 .19.22q3.82-.59 6.1.31c3.24 1.29 3.65 5.24 1.97 7.95q-1.86 2.98-5.99 3.34-6.69.58-8.4-6.93-.07-.31-.36-.21l-2.97.93q-.22.06-.19.29c2.02 14.26 24.31 11.5 23.2-1.58q-.29-3.43-3.89-5.52-.61-.36.06-.6" vector-effect="non-scaling-stroke"/><path stroke="gray" d="m540.1 80.58 1.91-9.39q.09-.44.54-.44h15.43q.75 0 .92-.74l.52-2.25q.11-.51-.41-.51h-20.02q-.5 0-.6.48l-6.52 31.2q-.11.51.41.52c5.58.11 14.93.94 19.73-1.19 6.71-2.99 9.36-14.87-.31-16.68-3.52-.66-8.05-.31-11.06-.33q-.67-.01-.54-.67" vector-effect="non-scaling-stroke"/><path stroke="gray" d="m600.38 86.94-7.07-19.47q-.08-.21-.31-.21l-3.94-.01a.22.21-10 0 0-.21.29l8.66 23.78q.18.49-.04.97-1.14 2.4-3.36 3.83a1.3 1.26 33.2 0 1-.92.18l-2.78-.5q-.63-.11-.75.52l-.48 2.67q-.13.7.58.74c3.72.23 6.86.88 9.18-2.81q9.16-14.52 18.18-29.07.36-.59-.33-.6l-3.01-.01q-.63 0-.97.53L600.96 87a.32.32 0 0 1-.58-.06" vector-effect="non-scaling-stroke"/><path stroke="gray" d="M662.35 71a.3.3 0 0 1 .29.36l-5.8 27.77a.3.3 0 0 0 .29.36l3.72.01a.3.3 0 0 0 .29-.24l6.63-31.65a.3.3 0 0 0-.29-.36h-24.51a.3.3 0 0 0-.29.24l-6.6 31.66a.3.3 0 0 0 .29.36l3.72-.02a.3.3 0 0 0 .29-.24l5.86-28.01a.3.3 0 0 1 .29-.24h15.82" vector-effect="non-scaling-stroke"/><path stroke="gray" d="M982.9 67.75c-1.62 3.5-6.34 3.98-7.94.14a.72.72 0 0 0-.72-.44l-1.23.07q-.42.03-.38.44c.64 7.93 10.73 6.34 13.07-.22a.19.19 0 0 0-.18-.25l-2.23.02q-.28 0-.39.24" vector-effect="non-scaling-stroke"/><path stroke="gray" d="m782.28 97.53.28 1.32q.13.64.79.64h2.71q.69 0 .51-.66c-1.85-6.83 7.05-20.21-3.09-22.8q-9.42-2.41-13.71 5.75-.43.82.48.94l2.25.31q.87.12 1.25-.67c2.89-6.08 13.37-4.72 10.33 2.18q-.19.43-.66.52c-4.06.76-9.74.07-13.1 2.26-4.82 3.16-3.78 11.71 2.18 12.56q4.22.6 9.25-2.57.42-.27.53.22" vector-effect="non-scaling-stroke"/><path stroke="gray" d="M819.45 87.13c5.3-2.33 4.67-9.82-1.22-11.27q-7.74-1.91-11.22 5.18-.41.83.52.91l2.54.21q.79.07.99-.69c1.1-4.06 8.14-4.23 7.96.65-.11 3.11-3.41 4.17-6.2 3.86a.7.7 0 0 0-.75.56l-.35 1.93q-.11.61.51.54c1.63-.17 3.62.15 4.68 1.6 3.88 5.27-7.47 9.89-9.27 2.75a.83.83 0 0 0-.92-.62l-2.53.33q-.73.1-.54.8c3.4 12.6 25.09 3.85 15.66-6.07q-.41-.43.14-.67" vector-effect="non-scaling-stroke"/><path stroke="gray" d="M896.956 99.21a12.85 10.66 116.8 0 0 15.309-6.664 12.85 10.66 116.8 0 0-3.721-16.276 12.85 10.66 116.8 0 0-15.309 6.664 12.85 10.66 116.8 0 0 3.721 16.276" vector-effect="non-scaling-stroke"/><path stroke="gray" d="M944.476 99.23a12.85 10.65 116.7 0 0 15.288-6.695 12.85 10.65 116.7 0 0-3.74-16.265 12.85 10.65 116.7 0 0-15.288 6.695 12.85 10.65 116.7 0 0 3.74 16.265" vector-effect="non-scaling-stroke"/><path stroke="gray" d="M1008.15 82.17c2.56-4.85 10.44-5.4 10.62 1.39a.25.24 85.7 0 0 .27.24l3.47-.36q.29-.03.28-.32c-.17-4.42-2.85-7.06-7.25-7.51-14.48-1.46-18.73 23.11-6.28 24.43q7.99.84 11.56-8.11.22-.55-.37-.63l-2.73-.35a.87.87 0 0 0-.95.6c-1.08 3.48-5.86 8-9.36 4.02-2.73-3.1-1.1-9.91.74-13.4" vector-effect="non-scaling-stroke"/><path stroke="gray" d="M1111.8 97.48q.21.62.2 1.28-.01.73.72.73l3.01.01q.48 0 .37-.48c-1.05-4.52.93-10.94 1.84-15.51 1.19-6.03-4.66-8.51-9.71-8.09q-6.38.53-9.06 6.78a.36.35 14.9 0 0 .29.49l3.02.37a.61.61 0 0 0 .63-.38c2.27-6.04 13.12-5.85 10.48 1.82q-.14.42-.58.51-3.83.77-7.76.85c-14.45.29-9.14 21.53 5.89 11.4q.47-.32.66.22" vector-effect="non-scaling-stroke"/><path stroke="gray" d="M1185.94 87.32c3.83-1.79 5.74-8 1.47-10.49-4.87-2.86-11.96-1.41-13.68 4.76q-.09.3.23.33l3.33.31q.27.02.35-.24 1.29-4.18 5.65-3.29 2.03.41 2.37 1.94c.91 4.14-2.59 5.69-6.2 5.34q-.47-.05-.57.42l-.44 2.12q-.11.52.42.48 1.16-.09 2.46.16c2.71.52 3.9 3.61 2.34 5.77-2.52 3.53-8.21 2.6-9.42-2q-.06-.24-.3-.21l-3.43.37q-.3.03-.23.32c1.96 8.32 13.62 8.9 17.2 2.05 1.41-2.7.99-5.85-1.6-7.56a.34.33-40.3 0 1 .05-.58" vector-effect="non-scaling-stroke"/><path stroke="gray" d="m1207.27 97.52.29 1.33q.13.64.79.64l2.71.01q.69 0 .51-.67c-1.75-6.5 6.6-19.88-2.49-22.66q-9.71-2.97-14.32 5.6-.45.83.49.95l2.26.31q.88.12 1.25-.69c2.81-6.16 13.52-4.62 10.25 2.31q-.21.45-.7.51-2.72.31-8.4.71c-13.01.92-8.63 21.1 6.85 11.43q.41-.25.51.22" vector-effect="non-scaling-stroke"/><path stroke="gray" d="M841.4 87.8a.42.42 0 0 1 .05-.8c7.23-1.65 5.99-10.71-1.45-11.21q-6.59-.44-10.69 4.28c-3.52 4.06-4.92 11.53-1.94 16.09 3.46 5.32 13.44 5.45 16.59-.58 1.57-3 .85-6.58-2.56-7.78" vector-effect="non-scaling-stroke"/><path stroke="gray" d="M932.41 87.81a.41.41 0 0 1 .04-.79c3.99-.97 6.45-5.28 3.69-8.81-2.88-3.68-9.56-2.81-12.89-.67-8.76 5.62-9.99 23.54 4.25 22.43q5.13-.4 7.31-4.12c1.76-3 1.13-6.79-2.4-8.04" vector-effect="non-scaling-stroke"/><path stroke="gray" d="M1064.94 92.45c-3.37 9.35-16.22 2.35-10.21-1.53 2.99-1.92 7.96-2.25 11.33-4.09 3-1.64 3.88-5.23 1.86-8.03-3.99-5.52-12.92-3.42-15.83 2.08q-.39.73.43.85l2.24.3a1.37 1.35 17.6 0 0 1.39-.71c3.62-7.01 14.06 1.26 5.88 3.81q-3.62 1.13-7.26 2.2c-5.69 1.66-8.2 9.21-1.67 11.81 5.84 2.32 13.17.6 15.08-6.31q.07-.24-.18-.27l-2.71-.33q-.26-.03-.35.22" vector-effect="non-scaling-stroke"/><path stroke="gray" d="m683.9 96.5-.55 2.78q-.04.22.18.22l3.25-.01a.37.36 5.8 0 0 .36-.29l5.06-22.94a.2.19 6.9 0 0-.19-.24l-3.5-.03q-.38 0-.45.37c-1.16 6.1-2.11 19.16-9.95 20.57-2.84.52-4.98-.71-4.31-3.95q1.74-8.42 3.66-16.64.07-.32-.26-.33l-3.43-.01q-.34 0-.42.33-1.86 7.84-3.56 16c-.93 4.45 1.12 8 6.06 7.59q3.82-.32 7.52-3.72.71-.64.53.3" vector-effect="non-scaling-stroke"/><path stroke="gray" d="m707.73 91.24-1.66 8.01q-.05.26.21.26l3.48-.02a.39.38 5.4 0 0 .38-.31l4.79-22.94q.05-.23-.18-.23l-3.68-.01q-.19 0-.23.19L709 85.23q-.66 3.26-3.98 3.26l-2.76.01a3.18 3.18 0 0 1-3.13-3.77l1.6-8.33q.07-.39-.32-.39l-3.16-.01q-.47 0-.57.45c-.7 3.03-2.24 8.48-1.4 11.24 1.39 4.58 8.12 4.12 11.97 3.1a.39.38-1.5 0 1 .48.45" vector-effect="non-scaling-stroke"/><path stroke="gray" d="m732.4 96.48-.55 2.53a.41.4-84.1 0 0 .39.49h2.79q.55 0 .67-.54l4.9-22.26q.15-.7-.57-.7h-2.8q-.61 0-.73.6c-1.02 5.45-2.74 22.5-12.13 20.31-1.99-.46-2.46-2.11-2.08-3.92q1.75-8.38 3.67-16.69a.23.23 0 0 0-.22-.28l-3.52-.03q-.28 0-.35.28-3.15 13.41-3.82 16.98c-.77 4.12 2.2 6.93 6.18 6.68q4-.25 7.61-3.75.79-.78.56.3" vector-effect="non-scaling-stroke"/><path stroke="gray" d="M747.99 89.27a.34.34 0 0 1 .34-.27h9.41a.34.34 0 0 1 .34.41l-1.97 9.69a.34.34 0 0 0 .34.41l3.36-.02a.34.34 0 0 0 .33-.27l4.75-22.8a.34.34 0 0 0-.33-.41l-3.42-.01a.34.34 0 0 0-.33.27l-1.89 9.46a.34.34 0 0 1-.33.27h-9.52a.34.34 0 0 1-.34-.41l1.89-9.16a.34.34 0 0 0-.33-.41l-3.39-.03a.34.34 0 0 0-.34.27l-4.72 22.83a.34.34 0 0 0 .34.41h3.35a.34.34 0 0 0 .34-.27l2.12-9.96" vector-effect="non-scaling-stroke"/><path stroke="gray" d="m856.37 93.71-2.55-17.44q-.04-.25-.29-.25l-3.52-.02a.25.24 85 0 0-.24.29q1.86 10.52 3.57 21.11.34 2.09-.44 3.54c-1.27 2.4-3.06 4.66-6.19 3.6q-.6-.2-.68.43l-.33 2.73a.67.66-77.7 0 0 .45.71c5.02 1.7 7.75-2.09 9.76-5.74q7.21-13.07 14.36-25.84.47-.83-.49-.83h-1.99q-1.06 0-1.58.93l-9.37 16.86q-.36.65-.47-.08" vector-effect="non-scaling-stroke"/><path stroke="gray" d="m876.75 85.51 1.89-9.22a.23.22-84.7 0 0-.22-.27l-3.47-.03q-.33 0-.39.31l-4.75 22.96q-.05.24.2.24l3.49-.01q.31 0 .37-.3l2.19-10.23q.13-.59.72-.51c3.85.53 5.05 6.56 6.21 10.47q.17.57.76.57h3.23a.33.33 0 0 0 .32-.43c-1.31-4.21-2.42-9.55-5.48-11.23q-.41-.23-.05-.53 2.88-2.36 5.18-6.86.9-1.75 3.52-1.49a.33.33 0 0 0 .34-.24l.59-2.29q.07-.25-.18-.3c-9.06-1.86-7.85 10.35-14.11 9.86q-.44-.04-.36-.47" vector-effect="non-scaling-stroke"/><path stroke="gray" d="m979.4 96.49-.55 2.52a.4.4 0 0 0 .39.48l2.79.01q.55 0 .67-.54l4.94-22.47a.4.39 6.4 0 0-.39-.48l-3.02-.01q-.62 0-.73.6-1.64 8.82-2.75 12.9c-.93 3.43-4.82 8.44-9.04 7.53q-3.12-.68-2.42-4.04 1.74-8.39 3.68-16.67.07-.3-.23-.3l-3.52-.03a.35.34 6.2 0 0-.34.26q-1.86 7.83-3.56 15.82c-.55 2.61-.57 4.79 1.4 6.51 3.73 3.26 9.01.69 12.09-2.41q.85-.87.59.32" vector-effect="non-scaling-stroke"/><path stroke="gray" d="m1039.46 96.26-.61 2.75a.4.4 0 0 0 .39.48l2.79.01q.55 0 .67-.54l4.9-22.26q.15-.7-.57-.7h-2.8q-.61 0-.72.6-1.14 6.04-2.66 12.48c-.86 3.65-4.7 8.82-9.13 7.94q-3.07-.61-2.48-3.79.92-4.99 3.73-16.92.07-.29-.23-.29l-3.49-.03q-.31 0-.39.3-1.96 8.38-3.81 16.96c-.88 4.09 2.28 6.9 6.19 6.69q4.19-.23 7.7-3.95.75-.79.52.27" vector-effect="non-scaling-stroke"/><path stroke="gray" d="M1087.26 89.01a.34.34 0 0 1 .34.41l-2.01 9.67a.34.34 0 0 0 .34.41h3.36a.34.34 0 0 0 .34-.27l4.76-22.82a.34.34 0 0 0-.33-.41h-3.45a.34.34 0 0 0-.33.28l-1.82 9.44a.34.34 0 0 1-.33.28h-9.57a.34.34 0 0 1-.33-.41l1.9-9.18a.34.34 0 0 0-.33-.41h-3.4a.34.34 0 0 0-.34.27l-4.72 22.82a.34.34 0 0 0 .34.41h3.36a.34.34 0 0 0 .34-.27l2.08-9.96a.34.34 0 0 1 .34-.27l9.46.01" vector-effect="non-scaling-stroke"/><path stroke="gray" d="m1139.6 79.41-4.04 19.85q-.05.24.2.24h3.54a.34.33 5.1 0 0 .33-.27l4.64-22.66q.12-.57-.46-.57h-16.52q-.44 0-.52.43-1.55 8.01-3.3 15.99c-.53 2.4-.7 4.72-3.81 4.05a.65.65 0 0 0-.77.48l-.52 2.09a.53.53 0 0 0 .38.64q7.01 1.83 8.42-5.08 1.56-7.65 3.07-15.2.08-.4.49-.4h8.54q.42 0 .33.41" vector-effect="non-scaling-stroke"/><path stroke="gray" d="m1161.72 96.25-.61 2.77a.41.41 0 0 0 .41.5l2.77-.04a.69.68 5.9 0 0 .66-.53l5-22.69a.21.2-82.8 0 0-.19-.25l-3.55-.02q-.32 0-.38.31c-1.09 5.62-2.54 22.04-11.87 20.7q-3.04-.44-2.39-3.75 1.67-8.54 3.65-16.9.08-.33-.26-.33l-3.44-.03q-.34 0-.42.33-1.95 8.34-3.58 16.96-.94 4.95 3.3 6.39c4.39 1.5 7.24-1.14 10.49-3.67q.56-.43.41.25" vector-effect="non-scaling-stroke"/><path stroke="gray" d="m1235.86 100.6-1.24 5.2a.37.37 0 0 0 .36.45l2.07-.01q.55 0 .67-.53l1.9-7.98q.17-.72-.57-.73h-1.84a1.28 1.28 0 0 1-1.24-1.55l4.15-18.98a.39.38-83.9 0 0-.37-.47h-3.22q-.45 0-.53.44-1.17 6.24-2.57 12.84c-.87 4.11-6.22 10.22-10.86 6.92q-.42-.3-.49-.81-.24-1.66 0-2.87 1.66-8.21 3.35-16.23a.23.22-84.7 0 0-.22-.27l-3.49-.03a.43.43 0 0 0-.42.34q-1.7 8.21-3.44 16.65-.81 3.93 1.84 5.86c3.55 2.6 8.61.53 11.56-2.33q.51-.49.65.2l.3 1.39a.36.35 17.4 0 0 .06.11q1.18 1.62 3.21 1.85.49.06.38.54" vector-effect="non-scaling-stroke"/><path stroke="gray" d="m1258.14 96.42-.51 2.64a.37.37 0 0 0 .37.44l3.01-.01a.39.38 5.4 0 0 .38-.31l5.01-22.69a.41.4 6.2 0 0-.4-.49h-3.21q-.42 0-.5.42-1.15 6.1-2.6 12.5c-.98 4.34-5.86 10.13-10.79 7.5a1.37 1.36-86.3 0 1-.62-.71q-.52-1.41-.19-2.97 1.73-8.21 3.57-16.24a.4.4 0 0 0-.39-.49l-3.08-.01a.64.63 6.2 0 0-.62.49q-2.61 11.05-3.7 16.5c-1.2 5.99 4.97 8.64 9.59 6.2q1.71-.9 4.16-3.06.7-.62.52.29" vector-effect="non-scaling-stroke"/><path stroke="gray" d="m1283.18 96.25-.56 2.79a.39.39 0 0 0 .38.46l2.78-.01q.54 0 .66-.53l4.96-22.47a.41.4 6.2 0 0-.4-.49h-3.21q-.43 0-.51.42-1.15 6.18-2.66 12.66c-1 4.29-5.86 9.96-10.72 7.34a1.38 1.37-86.2 0 1-.61-.7q-.56-1.52-.21-3.17 1.77-8.12 3.58-16.02.12-.52-.42-.52l-3.02-.01q-.56 0-.68.54-1.54 6.76-3.14 13.91c-.62 2.78-1.39 5.5.73 7.73 3.8 3.98 9.15 1.07 12.65-2.15q.55-.52.4.22" vector-effect="non-scaling-stroke"/><path stroke="gray" d="M616.94 95.38a.31.31 0 0 0-.31-.38h-3.91a.31.31 0 0 0-.31.25l-.73 3.87a.31.31 0 0 0 .3.37l3.8.01a.31.31 0 0 0 .3-.24l.86-3.88" vector-effect="non-scaling-stroke"/><path stroke="gray" d="M493.5 140.19c3.68-2.53 4.56-6.8 2.37-10.6-2.65-4.6-9.37-5.59-13.9-3.85-4.07 1.57-6.21 5.03-6.64 9.26q-.03.3.26.36l3.66.8q.22.05.25-.17c.56-5.15 4.45-8.54 9.37-6.91 5.02 1.67 5.15 8.59.13 9.84q-1.11.28-4.33.35-.41.01-.41.42l-.02 3.03q0 .34.33.31c4.42-.41 11.79 1.48 9.28 7.8q-.63 1.6-1.82 2.24-8.77 4.75-13.14-5.27-.12-.27-.4-.2l-3.54.81a.26.25-14.8 0 0-.19.32q3.75 11.86 15.99 9.04c8.45-1.95 10.95-12.34 2.79-16.83q-.62-.35-.04-.75" vector-effect="non-scaling-stroke"/><path stroke="gray" d="M452 129.25h16q.25 0 .25-.25v-3.25a.25.25 0 0 0-.25-.25h-20q-.5 0-.5.5v31.23q0 .47.47.48 6.41.1 12.76.13 9.57.04 10.65-8.36c1.54-11.98-12.35-10.24-19.35-10.22q-.28 0-.28-.28v-9.48a.25.25 0 0 1 .25-.25" vector-effect="non-scaling-stroke"/><path stroke="gray" d="m514.2 144.37-9.74-18.31a1.06 1.05 75.8 0 0-.93-.56h-3.28q-.62 0-.32.55l12.39 22.65a1.15 1.13-52 0 1 .1.89c-1.16 4.11-3.95 6.69-8.43 4.26a.16.16 0 0 0-.23.14l-.02 3.06q0 .32.29.44c6.26 2.72 8.83-1.01 11.28-5.96q6.35-12.8 12.51-25.49a.4.4 0 0 0-.37-.57l-3.13.05q-.64.01-.9.58l-8.52 18.25q-.33.71-.7.02" vector-effect="non-scaling-stroke"/><path stroke="gray" d="M1330.25 144.5c6.94-.02 17.02 1.63 18.95-7.11 3.22-14.63-14.6-12.04-23.24-11.83q-.46.01-.46.47v31.47q0 .25.25.25h3.75a.25.25 0 0 0 .25-.25v-12.49q0-.5.5-.51" vector-effect="non-scaling-stroke"/><path stroke="gray" d="M1358.57 153.3c4.85-5.19 16.31-11.75 15.41-19.79-1.23-11.02-19.55-10.89-20.42.76a.24.24 0 0 0 .21.26l3.28.44q.35.04.38-.31c1.24-11.1 18.59-4.97 10.52 4.32-4.72 5.43-14.14 10.62-14.97 18.2q-.06.57.51.57H1374a.25.24 90 0 0 .24-.25l.01-3.5a.25.25 0 0 0-.25-.25h-15.23q-.61 0-.2-.45" vector-effect="non-scaling-stroke"/><path stroke="gray" d="M571.78 147h16.7q.44 0 .47-.44c.61-7.6-4.49-13.98-12.57-12.69-7.98 1.26-10.46 9.68-8.6 16.5 2.79 10.23 17.14 10.74 20.9 1.17a.71.71 0 0 0-.6-.96l-2.43-.21q-.78-.06-1.05.68c-2.65 7.32-13.11 3.98-13.23-3.63q-.01-.42.41-.42" vector-effect="non-scaling-stroke"/><path stroke="gray" d="M641.84 143.62a9.72 9.72 0 0 0-9.72-9.72h-1.74a9.72 9.72 0 0 0-9.72 9.72v4.76a9.72 9.72 0 0 0 9.72 9.72h1.74a9.72 9.72 0 0 0 9.72-9.72v-4.76" vector-effect="non-scaling-stroke"/><path stroke="gray" d="M686.073 143.546a9.72 9.72 0 0 0-9.788-9.652l-1.74.012a9.72 9.72 0 0 0-9.651 9.788l.033 4.76a9.72 9.72 0 0 0 9.788 9.652l1.74-.012a9.72 9.72 0 0 0 9.651-9.788l-.033-4.76" vector-effect="non-scaling-stroke"/><path stroke="gray" d="M734.59 143.62a9.72 9.72 0 0 0-9.72-9.72h-1.74a9.72 9.72 0 0 0-9.72 9.72v4.76a9.72 9.72 0 0 0 9.72 9.72h1.74a9.72 9.72 0 0 0 9.72-9.72v-4.76" vector-effect="non-scaling-stroke"/><path stroke="gray" d="M780.79 156c5.59 4.75 12.85 1.54 14.89-5.01 2.48-7.95-1.14-20.27-12.12-16.62-1.13.37-1.9 1.43-2.84 2.18a.33.32-17.6 0 1-.53-.27l.09-1.5q.04-.53-.5-.53h-3.03q-.5 0-.5.5v31.75q0 .25.25.25h3.25q.5 0 .5-.5v-10q0-.71.54-.25" vector-effect="non-scaling-stroke"/><path stroke="gray" d="m923.15 155.46.59 1.66a.93.92-9 0 0 .86.62l2.9.04q.67 0 .41-.61c-1.65-3.94-.91-10.57-.92-14.88q-.01-3.54-.73-4.96c-2.54-5.02-11.39-3.9-15.46-2.03q-2.43 1.12-3.41 4.96-.19.75.57.84l2.6.32q.69.08.88-.59c1.84-6.38 13.06-4.31 11.11 1.26q-.36 1.02-1.42 1.19c-5.7.95-15.72.85-14.32 9.79q.54 3.45 4.01 4.65 6.01 2.09 11.59-2.46.52-.42.74.2" vector-effect="non-scaling-stroke"/><path stroke="gray" d="M1033.056 143.472a9.72 9.72 0 0 0-9.855-9.583l-1.74.024a9.72 9.72 0 0 0-9.583 9.855l.066 4.76a9.72 9.72 0 0 0 9.855 9.583l1.74-.024a9.72 9.72 0 0 0 9.583-9.855l-.066-4.76" vector-effect="non-scaling-stroke"/><path stroke="gray" d="M1042.45 156.05q4.76 3.5 9.26 1.52c5.97-2.62 6.93-8.75 6.23-14.81-.88-7.57-9.52-12.59-15.26-6.28q-.59.64-.63-.23l-.06-1.28q-.03-.73-.77-.73l-2.47.01q-.75 0-.75.75v31q0 .74.75.75h2.75q.5 0 .5-.5l.01-9.98q0-.54.44-.22" vector-effect="non-scaling-stroke"/><path stroke="gray" d="M1122.53 147.24q.44 0 .47.44c.42 6.56 4.86 11.62 11.91 10.46 11.73-1.92 11.16-23.37-.66-24.39-7.12-.62-9.7 3.54-11.29 9.69q-.14.57-.72.56h-3.5q-.5 0-.5-.51l.01-8.74q0-.5-.5-.5h-3q-.5 0-.5.5v22.75a.25.25 0 0 0 .25.25h3.5a.25.25 0 0 0 .25-.25v-9.75q0-.49.5-.49l3.78-.02" vector-effect="non-scaling-stroke"/><path stroke="gray" d="M1205.086 143.601a9.72 9.72 0 0 0-9.737-9.702l-1.74.002a9.72 9.72 0 0 0-9.703 9.737l.008 4.76a9.72 9.72 0 0 0 9.737 9.703l1.74-.002a9.72 9.72 0 0 0 9.703-9.737l-.008-4.76" vector-effect="non-scaling-stroke"/><path stroke="gray" d="M1222.2 137.57q1.97.63 2.55 3.38a.87.87 0 0 0 .94.69l2.54-.26q.93-.09.64-.98c-2.2-6.73-9.61-8.55-15.1-5-6.03 3.9-6.21 14.59-1.86 19.67 5.29 6.17 15.85 3.44 17.56-5.03a.25.25 0 0 0-.21-.3l-3.47-.46a.28.27-81.7 0 0-.31.24c-.65 4.37-4.58 6.73-8.38 5.02-6.83-3.07-5.75-20.4 5.1-16.97" vector-effect="non-scaling-stroke"/><path stroke="gray" d="M1262.03 147h16.7q.44 0 .47-.44c.61-7.61-4.48-13.96-12.57-12.69-12.76 2.01-12.54 23.95 1.62 24.37q7.97.24 10.74-6.82.27-.69-.46-.78l-2.79-.32q-.52-.06-.74.42c-3.44 7.57-13.15 4.45-13.43-3.26q-.02-.48.46-.48" vector-effect="non-scaling-stroke"/><path stroke="gray" d="M547.75 147.59a.34.34 0 0 1 .34-.34h10.07a.34.34 0 0 1 .34.34v9.82a.34.34 0 0 0 .34.34h3.32a.34.34 0 0 0 .34-.34v-22.82a.34.34 0 0 0-.34-.34h-3.32a.34.34 0 0 0-.34.34v9.07a.34.34 0 0 1-.34.34h-10.07a.34.34 0 0 1-.34-.34v-9.08a.34.34 0 0 0-.34-.34l-3.32.02a.34.34 0 0 0-.34.34v22.8a.34.34 0 0 0 .34.34l3.32.02a.34.34 0 0 0 .34-.34v-9.83" vector-effect="non-scaling-stroke"/><path stroke="gray" d="M610.25 137.86a.36.36 0 0 1 .36-.36h8.78a.36.36 0 0 0 .36-.36v-2.53a.36.36 0 0 0-.36-.36h-12.78a.36.36 0 0 0-.36.36v22.78a.36.36 0 0 0 .36.36h3.28a.36.36 0 0 0 .36-.36v-19.53" vector-effect="non-scaling-stroke"/><path stroke="gray" d="M655 137.81a.31.31 0 0 1 .31-.31h6.87a.31.31 0 0 0 .31-.31v-2.63a.31.31 0 0 0-.31-.31h-18.37a.31.31 0 0 0-.31.31l.01 2.62a.31.31 0 0 0 .31.31l6.87.01a.31.31 0 0 1 .31.31v19.64a.31.31 0 0 0 .31.31l3.38-.01a.31.31 0 0 0 .31-.31v-19.63" vector-effect="non-scaling-stroke"/><path stroke="gray" d="M707.12 145.37q4.26-4.64.44-8.97c-2.85-3.23-12.04-2.19-16.07-2.13q-.49.01-.49.5v22.45q0 .44.44.45c7.29.24 18.95 1.96 18.84-6.89q-.04-3.18-3.07-4.83-.42-.23-.09-.58" vector-effect="non-scaling-stroke"/><path stroke="gray" d="M756.25 137.84a.34.34 0 0 1 .34-.34h9.57a.34.34 0 0 1 .34.34v19.57a.34.34 0 0 0 .34.34h3.32a.34.34 0 0 0 .34-.34v-22.82a.34.34 0 0 0-.34-.34h-17.57a.34.34 0 0 0-.34.34v22.82a.34.34 0 0 0 .34.34h3.32a.34.34 0 0 0 .34-.34v-19.57" vector-effect="non-scaling-stroke"/><path stroke="gray" d="M805.75 151.29V134.5a.25.25 0 0 0-.25-.25H802q-.25 0-.25.25v22.75q0 .5.5.5l3.29.01q.54 0 .82-.46l10.07-16.44q.57-.93.57.16v16.49q0 .25.26.25h3.48a.26.26 0 0 0 .26-.26v-22.76q0-.51-.51-.51l-3.24.03a.96.93-73.7 0 0-.8.45l-10.24 16.71q-.46.75-.46-.13" vector-effect="non-scaling-stroke"/><path stroke="gray" d="M830.75 147.59a.34.34 0 0 1 .34-.34h10.07a.34.34 0 0 1 .34.34v9.82a.34.34 0 0 0 .34.34h3.32a.34.34 0 0 0 .34-.34v-22.82a.34.34 0 0 0-.34-.34h-3.32a.34.34 0 0 0-.34.34v9.07a.34.34 0 0 1-.34.34h-10.07a.34.34 0 0 1-.34-.34v-9.08a.34.34 0 0 0-.34-.34l-3.32.02a.34.34 0 0 0-.34.34v22.8a.34.34 0 0 0 .34.34l3.32.01a.34.34 0 0 0 .34-.34v-9.82" vector-effect="non-scaling-stroke"/><path stroke="gray" d="M855.75 151.29V134.5a.25.24 88.9 0 0-.25-.25H852q-.25 0-.25.25v22.75q0 .5.5.5l3.29.01q.54 0 .82-.46l10.06-16.44a.31.31 0 0 1 .58.16v16.49a.26.25 0 0 0 .26.25h3.49a.26.25 90 0 0 .25-.26v-22.76q0-.51-.51-.51l-3.16.03q-.6 0-.92.51l-10.2 16.65q-.46.75-.46-.13" vector-effect="non-scaling-stroke"/><path stroke="gray" d="m897.99 140.29.02 16.96q0 .5.49.5h3q.5.01.5-.5v-22.5q0-.51-.5-.5h-4.73a.65.64 9.5 0 0-.61.43l-6.46 17.6q-.26.73-.51-.01l-5.88-17.79a.34.33-7.2 0 0-.31-.23l-5.5-.01q-.5 0-.5.51v22.76a.26.25 0 0 0 .26.25h3.48a.26.25 0 0 0 .26-.25l.01-17.03q0-2.7.84-.13l5.45 16.79q.2.61.84.61h2.16q.8.01 1.08-.75l6.09-16.8a.27.27 0 0 1 .52.09" vector-effect="non-scaling-stroke"/><path stroke="gray" d="M941.25 137.81a.31.31 0 0 1 .31-.31h6.88a.31.31 0 0 0 .31-.31v-2.63a.31.31 0 0 0-.31-.31h-18.37a.31.31 0 0 0-.31.31l-.01 2.62a.31.31 0 0 0 .31.31l6.88.01a.31.31 0 0 1 .31.31v19.63a.31.31 0 0 0 .31.31h3.38a.31.31 0 0 0 .31-.31v-19.63" vector-effect="non-scaling-stroke"/><path stroke="gray" d="M956.75 143v-8.26q0-.5-.51-.5l-3.24.01q-.25.01-.25.25v22.73q0 .48.48.49c5.58.12 20.98 1.94 18.32-8.98-1.34-5.51-9.2-5.46-14.22-5.19q-.58.03-.58-.55" vector-effect="non-scaling-stroke"/><path stroke="gray" d="M992.75 137.84a.34.34 0 0 1 .34-.34h9.57a.34.34 0 0 1 .34.34v19.58a.34.34 0 0 0 .34.34l3.32-.01a.34.34 0 0 0 .34-.34v-22.82a.34.34 0 0 0-.34-.34h-17.57a.34.34 0 0 0-.34.34v22.81a.34.34 0 0 0 .34.34l3.32.01a.34.34 0 0 0 .34-.34v-19.57" vector-effect="non-scaling-stroke"/><path stroke="gray" d="M1067.67 154.5a.42.42 0 0 1-.42-.42v-19.42a.42.42 0 0 0-.42-.42l-3.16.02a.42.42 0 0 0-.42.42v22.65a.42.42 0 0 0 .42.42h17.16a.42.42 0 0 1 .42.42l-.01 5.65a.42.42 0 0 0 .42.42l2.42.01a.42.42 0 0 0 .42-.42v-8.94a.42.42 0 0 0-.44-.42l-1.62.08a.42.42 0 0 1-.44-.42v-19.46a.42.42 0 0 0-.42-.42h-3.16a.42.42 0 0 0-.42.42v19.41a.42.42 0 0 1-.42.42h-9.91" vector-effect="non-scaling-stroke"/><path stroke="gray" d="M1104.25 141.25v16.25a.25.25 0 0 0 .25.25h3.5a.25.25 0 0 0 .25-.25v-22.75q0-.49-.5-.5l-3.22-.01q-.54 0-.82.46l-10.2 16.65q-.5.82-.5-.14l-.01-16.47q0-.5-.51-.5l-2.99.01q-.5 0-.5.5v22.51q0 .51.51.5l3.31-.01a.96.94 15.1 0 0 .79-.44l9.95-16.26q.69-1.12.69.2" vector-effect="non-scaling-stroke"/><path stroke="gray" d="M1164.75 137.84a.34.34 0 0 1 .34-.34h9.57a.34.34 0 0 1 .34.34v19.58a.34.34 0 0 0 .34.34h3.32a.34.34 0 0 0 .34-.34v-22.83a.34.34 0 0 0-.34-.34h-17.57a.34.34 0 0 0-.34.34v22.81a.34.34 0 0 0 .34.34l3.32.01a.34.34 0 0 0 .34-.34v-19.57" vector-effect="non-scaling-stroke"/><path stroke="gray" d="M1239.03 137.5h9.47q.5 0 .5.5v19.5a.26.26 0 0 0 .26.26h3.48a.26.26 0 0 0 .26-.26v-23q0-.25-.25-.25H1235q-.5 0-.5.5v17.72q0 .56-.45.9-1.33 1.01-3.08.58a.59.59 0 0 0-.73.58l.02 2.22q0 .9.89.98c3.31.33 7.03-.04 7.13-4.24q.19-7.75.27-15.51 0-.48.48-.48" vector-effect="non-scaling-stroke"/><path stroke="gray" d="M1301.39 137.5a.36.36 0 0 1 .36.36v19.52a.36.36 0 0 0 .36.36l3.28.01a.36.36 0 0 0 .36-.36v-19.53a.36.36 0 0 1 .36-.36l6.78-.01a.36.36 0 0 0 .36-.36v-2.52a.36.36 0 0 0-.36-.36h-18.26a.36.36 0 0 0-.36.36l-.03 2.52a.36.36 0 0 0 .36.36l6.79.01" vector-effect="non-scaling-stroke"/><path stroke="gray" d="M1317.49 153.95a.45.45 0 0 0-.45-.45h-3.34a.45.45 0 0 0-.45.45v3.34a.45.45 0 0 0 .45.45h3.34a.45.45 0 0 0 .45-.45v-3.34" vector-effect="non-scaling-stroke"/><path stroke="gray" d="M1969.78 184.54a13.28 13.28 0 0 0-13.28-13.28h-203.48a13.28 13.28 0 0 0-13.28 13.28v27.68a13.28 13.28 0 0 0 13.28 13.28h203.48a13.28 13.28 0 0 0 13.28-13.28v-27.68" vector-effect="non-scaling-stroke"/><path stroke="gray" d="M549.53 95.08c4.76-1.58 6.51-9.91-.29-10.22q-4.74-.22-9.57-.07-.49.01-.59.49l-2.12 10q-.1.48.39.53 7.54.81 12.18-.73" vector-effect="non-scaling-stroke"/><path stroke="gray" d="M776.5 96.97c4.5-.9 6.41-4.58 6.92-8.84q.05-.47-.42-.39-3.35.61-6.75.88c-7.24.57-6.06 9.61.25 8.35" vector-effect="non-scaling-stroke"/><path stroke="gray" d="M899.665 96.828a9.61 6.7 108.6 0 0 9.415-6.971 9.61 6.7 108.6 0 0-3.285-11.245 9.61 6.7 108.6 0 0-9.415 6.971 9.61 6.7 108.6 0 0 3.285 11.245" vector-effect="non-scaling-stroke"/><path stroke="gray" d="M947.168 96.829a9.6 6.69 108.6 0 0 9.403-6.965 9.6 6.69 108.6 0 0-3.279-11.233 9.6 6.69 108.6 0 0-9.403 6.965 9.6 6.69 108.6 0 0 3.279 11.233" vector-effect="non-scaling-stroke"/><path stroke="gray" d="M1112.4 87.74q-3.53.66-7.15.99c-7.49.68-4.87 11.05 2.43 7.68q5.15-2.38 5.06-8.39-.01-.34-.34-.28" vector-effect="non-scaling-stroke"/><path stroke="gray" d="M1201.5 96.97c4.49-.84 6.37-4.59 6.92-8.82q.05-.46-.4-.39-3.88.59-7.76 1c-5.85.62-5.08 9.38 1.24 8.21" vector-effect="non-scaling-stroke"/><path stroke="gray" d="M836.22 79.2q-4.14 1.75-5.55 5.96-.16.48.35.53 3.57.29 7.09-.29c6.92-1.13 4.23-8.77-1.89-6.2" vector-effect="non-scaling-stroke"/><path stroke="gray" d="M838.05 96.53c3.28-1.28 3.86-5.48.53-7.16q-2.31-1.16-8.28-.42-.42.06-.48.47c-.75 5.04 3.14 9.11 8.23 7.11" vector-effect="non-scaling-stroke"/><path stroke="gray" d="M926.68 79.41q-3.7 1.85-5 5.73-.16.49.35.53c2.55.24 12.27.47 11.1-4.55-.67-2.82-4.34-2.78-6.45-1.71" vector-effect="non-scaling-stroke"/><path stroke="gray" d="M929.08 96.59c2.75-1.13 4.11-6.08.68-7.16q-3.52-1.1-8.42-.55-.45.05-.52.5c-.75 4.95 3.2 9.3 8.26 7.21" vector-effect="non-scaling-stroke"/><path stroke="gray" d="m451.74 143.45-.02 10.08a.46.46 0 0 0 .46.46l9.36.01a5.7 5.05.1 0 0 5.71-5.04v-.9a5.7 5.05.1 0 0-5.69-5.06l-9.36-.01a.46.46 0 0 0-.46.46" vector-effect="non-scaling-stroke"/><path stroke="gray" d="m1329.75 129.57-.02 10.84a.34.34 0 0 0 .34.34l9.64.01a5.54 5.39.1 0 0 5.55-5.38v-.74a5.54 5.39.1 0 0-5.53-5.4l-9.64-.01a.34.34 0 0 0-.34.34" vector-effect="non-scaling-stroke"/><path stroke="gray" d="m571.55 143.76 13.24-.02a.18.18 0 0 0 .18-.18v-.1a6.72 6.46-.1 0 0-6.74-6.45h-.16a6.72 6.46-.1 0 0-6.7 6.47v.1a.18.18 0 0 0 .18.18" vector-effect="non-scaling-stroke"/><path stroke="gray" d="M631.25 155.14a9.15 6.92 90 0 0 6.92-9.15 9.15 6.92 90 0 0-6.92-9.15 9.15 6.92 90 0 0-6.92 9.15 9.15 6.92 90 0 0 6.92 9.15" vector-effect="non-scaling-stroke"/><path stroke="gray" d="M675.5 155.15a9.16 6.91 90 0 0 6.91-9.16 9.16 6.91 90 0 0-6.91-9.16 9.16 6.91 90 0 0-6.91 9.16 9.16 6.91 90 0 0 6.91 9.16" vector-effect="non-scaling-stroke"/><path stroke="gray" d="M723.99 155.14a9.14 6.91 90 0 0 6.91-9.14 9.14 6.91 90 0 0-6.91-9.14 9.14 6.91 90 0 0-6.91 9.14 9.14 6.91 90 0 0 6.91 9.14" vector-effect="non-scaling-stroke"/><path stroke="gray" d="M786.148 155.147a9.24 6.26 91.5 0 0 6.5-9.073 9.24 6.26 91.5 0 0-6.016-9.4 9.24 6.26 91.5 0 0-6.5 9.072 9.24 6.26 91.5 0 0 6.016 9.4" vector-effect="non-scaling-stroke"/><path stroke="gray" d="M922.84 148.19q.56-2.64-2.02-1.86-2.71.82-7.25 1.48c-2.66.39-3.68 4.04-1.9 6.01q2.3 2.56 7.54.63a4.84 4.83 86 0 0 3.05-3.52l.58-2.74" vector-effect="non-scaling-stroke"/><path stroke="gray" d="M1022.516 155.14a9.15 6.92 89.9 0 0 6.904-9.162 9.15 6.92 89.9 0 0-6.936-9.138 9.15 6.92 89.9 0 0-6.904 9.162 9.15 6.92 89.9 0 0 6.936 9.138" vector-effect="non-scaling-stroke"/><path stroke="gray" d="M1047.914 155.147a9.24 6.26 91.4 0 0 6.484-9.084 9.24 6.26 91.4 0 0-6.032-9.39 9.24 6.26 91.4 0 0-6.484 9.084 9.24 6.26 91.4 0 0 6.032 9.39" vector-effect="non-scaling-stroke"/><path stroke="gray" d="M1133.124 155.2a9.22 6.31 90.1 0 0 6.326-9.209 9.22 6.31 90.1 0 0-6.294-9.231 9.22 6.31 90.1 0 0-6.326 9.209 9.22 6.31 90.1 0 0 6.294 9.231" vector-effect="non-scaling-stroke"/><path stroke="gray" d="M1194.516 155.16a9.16 6.92 89.9 0 0 6.904-9.172 9.16 6.92 89.9 0 0-6.936-9.148 9.16 6.92 89.9 0 0-6.904 9.172 9.16 6.92 89.9 0 0 6.936 9.148" vector-effect="non-scaling-stroke"/><path stroke="gray" d="m1261.74 143.83 13.34-.02a.19.19 0 0 0 .19-.19v-.12a6.69 6.51-.1 0 0-6.71-6.5h-.34a6.69 6.51-.1 0 0-6.67 6.52v.12a.19.19 0 0 0 .19.19" vector-effect="non-scaling-stroke"/><path stroke="gray" d="m694.97 137.97.02 5.88a.46.46 0 0 0 .46.46l5.52-.02a4.3 3.17-.2 0 0 4.29-3.19v-.46a4.3 3.17-.2 0 0-4.31-3.15l-5.52.02a.46.46 0 0 0-.46.46" vector-effect="non-scaling-stroke"/><path stroke="gray" d="m694.98 147.85.04 6.36a.33.33 0 0 0 .33.33l6.67-.04a4.26 3.34-.3 0 0 4.24-3.36v-.34a4.26 3.34-.3 0 0-4.28-3.32l-6.67.04a.33.33 0 0 0-.33.33" vector-effect="non-scaling-stroke"/><path stroke="gray" d="m956.75 147.23-.02 6.78a.5.5 0 0 0 .5.5l5.33.01a5.19 3.58.1 0 0 5.2-3.57v-.62a5.19 3.58.1 0 0-5.18-3.59l-5.33-.01a.5.5 0 0 0-.5.5" vector-effect="non-scaling-stroke"/><path stroke="#6d6d6d" d="M1816.25 223.47q68.67.07 137.33-.01c9.05-.01 14.2-3.46 14.18-13.08q-.02-11.84 0-23.69c.01-4.92-.46-7.9-4.29-10.68q-3.76-2.73-7.47-2.74-67.36-.06-134.82.01" vector-effect="non-scaling-stroke"/><path stroke="#606060" d="M1821.18 173.28q-32.28-.09-64.64.01c-6.77.02-14.69 2.37-14.72 10.72q-.03 13.17-.07 26.41c-.02 5.41 1.19 9.11 5.87 11.57q2.71 1.43 9.18 1.46 29.71.12 59.45.02" vector-effect="non-scaling-stroke"/><path stroke="#cdcdcd" d="m1821.18 173.28 4.45.43q.19.02.23.21.02.13-.05.25-.06.09-.17.11-.22.04-.26-.21a.13.13 0 0 0-.26.02v17.41q0 .26-.19.39-.36.25-.55-.15-.43-.89-.92-.53" vector-effect="non-scaling-stroke"/><path stroke="#606060" d="M1823.46 191.21c-4.32-2.77-13.48-3.34-14.81 3.28q-.12.58.47.65l2.17.23q.44.05.6-.37 1.6-4.22 7.37-1.94.98.39 1.34 1.39l.12.34a1.54 1.54 0 0 1-1.11 2.02c-3.7.83-10.54.46-11.54 5.44-1.06 5.3 3.78 6.82 8.01 6.5" vector-effect="non-scaling-stroke"/><path stroke="#cdcdcd" d="m1816.08 208.75 1.55.44q.49.14.49.64l.01 12.7q0 .46-.45.57l-1.43.37" vector-effect="non-scaling-stroke"/><path stroke="#6d6d6d" d="m1816.08 208.75 4.27-2q.5-.23.72.27.99 2.25 3.64 1.39.47-.15.31-.62-.88-2.47-.78-3.79.53-6.76-.78-12.79" vector-effect="non-scaling-stroke"/><path stroke="#606060" d="M1800.39 194.76q-.09-.04-.02-.11 3.12-3.29 2.75-6.63c-1.02-9.16-15.93-8.36-16.79 2.07q-.01.2.19.24l2.98.54a.3.29 8 0 0 .35-.26q.41-4.92 4.3-5.72c7.09-1.47 7.89 9.62-.34 8.55a.27.27 0 0 0-.31.27l.01 2.57q0 .32.31.27c6.51-1.01 10.66 6.45 3.85 9.04-3.56 1.36-7.27-.73-8.24-4.74q-.13-.56-.7-.46l-2.5.48q-.55.11-.39.65 2.55 8.22 10.89 7.37c7.44-.76 11.51-10.64 3.66-14.13" vector-effect="non-scaling-stroke"/><path stroke="#6d6d6d" d="M1848.7 206.81c4.47 3.84 10.39 1.53 12.12-3.78 1.62-4.96.61-11.55-4.83-13.46q-3.99-1.4-7.44 2.17-.41.43-.43-.17-.03-.82.14-1.38.22-.7-.52-.7h-1.99q-.76 0-.76.76v25.01a.51.51 0 0 0 .52.51l2.24-.01q.51-.01.51-.51v-8.24q-.01-.59.44-.2" vector-effect="non-scaling-stroke"/><path stroke="#6d6d6d" d="M1836.23 198.37c1.99-1.41 2.45-3.75 3.33-5.91a.97.94 3.5 0 1 .65-.56q.87-.23 1.77-.13a.25.25 0 0 0 .27-.25l.01-1.59q0-.32-.31-.38c-6.71-1.24-4.43 7.71-8.89 8.2q-.54.06-.55-.49l-.01-7.51a.26.25 90 0 0-.25-.26h-2.5q-.51 0-.51.51l-.02 18.23a.26.26 0 0 0 .26.26l2.76.03a.27.26 0 0 0 .27-.26v-7.98q0-.39.39-.37 1.37.07 1.93 1.05 2.2 3.84 4.31 7.31.14.24.43.24h3.13a.2.19 75 0 0 .16-.29c-2.32-3.96-3.78-7.46-6.61-9.19q-.51-.31-.02-.66" vector-effect="non-scaling-stroke"/><path stroke="#6d6d6d" d="M1868.76 195.98V190q0-.51-.51-.51H1866q-.51 0-.51.51v17.97q0 .47.47.48 6.83.19 9.04.02c7.36-.58 8.38-10.02.99-11.69q-1.59-.36-6.7-.28-.53 0-.53-.52" vector-effect="non-scaling-stroke"/><path stroke="#6d6d6d" d="M1886.76 189.78a.29.29 0 0 0-.29-.29h-2.68a.29.29 0 0 0-.29.29v18.42a.29.29 0 0 0 .29.29h2.68a.29.29 0 0 0 .29-.29v-18.42" vector-effect="non-scaling-stroke"/><path stroke="#6d6d6d" d="M1895.9 192.5a.35.35 0 0 1 .35.35l-.02 15.28a.35.35 0 0 0 .35.35l2.57.03a.35.35 0 0 0 .35-.35v-15.31a.35.35 0 0 1 .35-.35h5.56a.35.35 0 0 0 .35-.35v-2.3a.35.35 0 0 0-.35-.35l-15.06-.01a.35.35 0 0 0-.35.35l-.01 2.31a.35.35 0 0 0 .35.35h5.56" vector-effect="non-scaling-stroke"/><path stroke="#6d6d6d" d="M1912 195.99v-6.24a.25.25 0 0 0-.25-.25H1909q-.25 0-.25.25v18.23q0 .44.44.46 6.05.23 8.8-.02c7.06-.64 8.01-9.67 1.17-11.59q-1.46-.42-6.63-.32-.52.01-.53-.52" vector-effect="non-scaling-stroke"/><path stroke="#606060" d="M1811.27 202.93c-.75 4.47 10.53 3.76 9.42-2.87q-.06-.36-.42-.29l-7.03 1.18a2.41 2.41 0 0 0-1.97 1.98" vector-effect="non-scaling-stroke"/><path stroke="#6d6d6d" d="M1853.082 205.848a6.82 5.1 91.5 0 0 5.276-6.685 6.82 5.1 91.5 0 0-4.92-6.95 6.82 5.1 91.5 0 0-5.276 6.684 6.82 5.1 91.5 0 0 4.92 6.95" vector-effect="non-scaling-stroke"/><path stroke="#6d6d6d" d="M1868.75 199.92v5.16a.42.42 0 0 0 .42.42h4.31a4.29 2.83 0 0 0 4.29-2.83v-.34a4.29 2.83 0 0 0-4.29-2.83h-4.31a.42.42 0 0 0-.42.42" vector-effect="non-scaling-stroke"/><path stroke="#6d6d6d" d="m1911.99 199.89.02 5.22a.4.4 0 0 0 .4.4l4.07-.01a4.05 2.81-.2 0 0 4.04-2.82v-.4a4.05 2.81-.2 0 0-4.06-2.8l-4.07.01a.4.4 0 0 0-.4.4" vector-effect="non-scaling-stroke"/></g><path d="M0 0h2000v39.6q-.43.54-1.46.4c.22-.32.43-.64.43-1.04q.07-18.46.02-36.99a.97.97 0 0 0-.97-.97H1.51a.49.49 0 0 0-.49.49L1.04 40q-.61-.05-1.04-.37V0Z"/><path fill="#fff" d="M1998.54 40H1.04L1.02 1.49A.49.49 0 0 1 1.51 1h1996.51a.97.97 0 0 1 .97.97q.05 18.53-.02 36.99c0 .4-.21.72-.43 1.04Z"/><path fill="#a20704" d="M2000 39.6V243H0V39.63q.43.32 1.04.37h1997.5q1.03.14 1.46-.4Zm-1 2.67a.28.28 0 0 0-.28-.28H1.28a.28.28 0 0 0-.28.28v199.46a.28.28 0 0 0 .28.28h1997.44a.28.28 0 0 0 .28-.28V42.27Z"/><path fill="#fff" d="M1999 241.73a.28.28 0 0 1-.28.28H1.28a.28.28 0 0 1-.28-.28V42.27a.28.28 0 0 1 .28-.28h1997.44a.28.28 0 0 1 .28.28v199.46ZM579.71 82.87c9.74-3.55 6.33-16.14-3.22-16.17q-9.46-.03-12.39 9.37-.08.26.19.32l3.72.81a.33.32 13.3 0 0 .38-.23q1.1-4.2 4.54-5.92c9.47-4.72 13.05 11.57-1.59 10.16q-.32-.03-.4.27l-.95 3.19a.17.17 0 0 0 .19.22q3.82-.59 6.1.31c3.24 1.29 3.65 5.24 1.97 7.95q-1.86 2.98-5.99 3.34-6.69.58-8.4-6.93-.07-.31-.36-.21l-2.97.93q-.22.06-.19.29c2.02 14.26 24.31 11.5 23.2-1.58q-.29-3.43-3.89-5.52-.61-.36.06-.6Zm-39.61-2.29 1.91-9.39q.09-.44.54-.44h15.43q.75 0 .92-.74l.52-2.25q.11-.51-.41-.51h-20.02q-.5 0-.6.48l-6.52 31.2q-.11.51.41.52c5.58.11 14.93.94 19.73-1.19 6.71-2.99 9.36-14.87-.31-16.68-3.52-.66-8.05-.31-11.06-.33q-.67-.01-.54-.67Zm60.28 6.36-7.07-19.47q-.08-.21-.31-.21l-3.94-.01a.22.21-10 0 0-.21.29l8.66 23.78q.18.49-.04.97-1.14 2.4-3.36 3.83a1.3 1.26 33.2 0 1-.92.18l-2.78-.5q-.63-.11-.75.52l-.48 2.67q-.13.7.58.74c3.72.23 6.86.88 9.18-2.81q9.16-14.52 18.18-29.07.36-.59-.33-.6l-3.01-.01q-.63 0-.97.53L600.96 87a.32.32 0 0 1-.58-.06ZM662.35 71a.3.3 0 0 1 .29.36l-5.8 27.77a.3.3 0 0 0 .29.36l3.72.01a.3.3 0 0 0 .29-.24l6.63-31.65a.3.3 0 0 0-.29-.36h-24.51a.3.3 0 0 0-.29.24l-6.6 31.66a.3.3 0 0 0 .29.36l3.72-.02a.3.3 0 0 0 .29-.24l5.86-28.01a.3.3 0 0 1 .29-.24h15.82Zm320.55-3.25c-1.62 3.5-6.34 3.98-7.94.14a.72.72 0 0 0-.72-.44l-1.23.07q-.42.03-.38.44c.64 7.93 10.73 6.34 13.07-.22a.19.19 0 0 0-.18-.25l-2.23.02q-.28 0-.39.24ZM782.28 97.53l.28 1.32q.13.64.79.64h2.71q.69 0 .51-.66c-1.85-6.83 7.05-20.21-3.09-22.8q-9.42-2.41-13.71 5.75-.43.82.48.94l2.25.31q.87.12 1.25-.67c2.89-6.08 13.37-4.72 10.33 2.18q-.19.43-.66.52c-4.06.76-9.74.07-13.1 2.26-4.82 3.16-3.78 11.71 2.18 12.56q4.22.6 9.25-2.57.42-.27.53.22Zm37.17-10.4c5.3-2.33 4.67-9.82-1.22-11.27q-7.74-1.91-11.22 5.18-.41.83.52.91l2.54.21q.79.07.99-.69c1.1-4.06 8.14-4.23 7.96.65-.11 3.11-3.41 4.17-6.2 3.86a.7.7 0 0 0-.75.56l-.35 1.93q-.11.61.51.54c1.63-.17 3.62.15 4.68 1.6 3.88 5.27-7.47 9.89-9.27 2.75a.83.83 0 0 0-.92-.62l-2.53.33q-.73.1-.54.8c3.4 12.6 25.09 3.85 15.66-6.07q-.41-.43.14-.67Zm77.506 12.08a12.85 10.66 116.8 0 0 15.309-6.664 12.85 10.66 116.8 0 0-3.721-16.276 12.85 10.66 116.8 0 0-15.309 6.664 12.85 10.66 116.8 0 0 3.721 16.276Zm47.52.02a12.85 10.65 116.7 0 0 15.288-6.695 12.85 10.65 116.7 0 0-3.74-16.265 12.85 10.65 116.7 0 0-15.288 6.695 12.85 10.65 116.7 0 0 3.74 16.265Zm63.674-17.06c2.56-4.85 10.44-5.4 10.62 1.39a.25.24 85.7 0 0 .27.24l3.47-.36q.29-.03.28-.32c-.17-4.42-2.85-7.06-7.25-7.51-14.48-1.46-18.73 23.11-6.28 24.43q7.99.84 11.56-8.11.22-.55-.37-.63l-2.73-.35a.87.87 0 0 0-.95.6c-1.08 3.48-5.86 8-9.36 4.02-2.73-3.1-1.1-9.91.74-13.4Zm103.65 15.31q.21.62.2 1.28-.01.73.72.73l3.01.01q.48 0 .37-.48c-1.05-4.52.93-10.94 1.84-15.51 1.19-6.03-4.66-8.51-9.71-8.09q-6.38.53-9.06 6.78a.36.35 14.9 0 0 .29.49l3.02.37a.61.61 0 0 0 .63-.38c2.27-6.04 13.12-5.85 10.48 1.82q-.14.42-.58.51-3.83.77-7.76.85c-14.45.29-9.14 21.53 5.89 11.4q.47-.32.66.22Zm74.14-10.16c3.83-1.79 5.74-8 1.47-10.49-4.87-2.86-11.96-1.41-13.68 4.76q-.09.3.23.33l3.33.31q.27.02.35-.24 1.29-4.18 5.65-3.29 2.03.41 2.37 1.94c.91 4.14-2.59 5.69-6.2 5.34q-.47-.05-.57.42l-.44 2.12q-.11.52.42.48 1.16-.09 2.46.16c2.71.52 3.9 3.61 2.34 5.77-2.52 3.53-8.21 2.6-9.42-2q-.06-.24-.3-.21l-3.43.37q-.3.03-.23.32c1.96 8.32 13.62 8.9 17.2 2.05 1.41-2.7.99-5.85-1.6-7.56a.34.33-40.3 0 1 .05-.58Zm21.33 10.2.29 1.33q.13.64.79.64l2.71.01q.69 0 .51-.67c-1.75-6.5 6.6-19.88-2.49-22.66q-9.71-2.97-14.32 5.6-.45.83.49.95l2.26.31q.88.12 1.25-.69c2.81-6.16 13.52-4.62 10.25 2.31q-.21.45-.7.51-2.72.31-8.4.71c-13.01.92-8.63 21.1 6.85 11.43q.41-.25.51.22ZM841.4 87.8a.42.42 0 0 1 .05-.8c7.23-1.65 5.99-10.71-1.45-11.21q-6.59-.44-10.69 4.28c-3.52 4.06-4.92 11.53-1.94 16.09 3.46 5.32 13.44 5.45 16.59-.58 1.57-3 .85-6.58-2.56-7.78Zm91.01.01a.41.41 0 0 1 .04-.79c3.99-.97 6.45-5.28 3.69-8.81-2.88-3.68-9.56-2.81-12.89-.67-8.76 5.62-9.99 23.54 4.25 22.43q5.13-.4 7.31-4.12c1.76-3 1.13-6.79-2.4-8.04Zm132.53 4.64c-3.37 9.35-16.22 2.35-10.21-1.53 2.99-1.92 7.96-2.25 11.33-4.09 3-1.64 3.88-5.23 1.86-8.03-3.99-5.52-12.92-3.42-15.83 2.08q-.39.73.43.85l2.24.3a1.37 1.35 17.6 0 0 1.39-.71c3.62-7.01 14.06 1.26 5.88 3.81q-3.62 1.13-7.26 2.2c-5.69 1.66-8.2 9.21-1.67 11.81 5.84 2.32 13.17.6 15.08-6.31q.07-.24-.18-.27l-2.71-.33q-.26-.03-.35.22ZM683.9 96.5l-.55 2.78q-.04.22.18.22l3.25-.01a.37.36 5.8 0 0 .36-.29l5.06-22.94a.2.19 6.9 0 0-.19-.24l-3.5-.03q-.38 0-.45.37c-1.16 6.1-2.11 19.16-9.95 20.57-2.84.52-4.98-.71-4.31-3.95q1.74-8.42 3.66-16.64.07-.32-.26-.33l-3.43-.01q-.34 0-.42.33-1.86 7.84-3.56 16c-.93 4.45 1.12 8 6.06 7.59q3.82-.32 7.52-3.72.71-.64.53.3Zm23.83-5.26-1.66 8.01q-.05.26.21.26l3.48-.02a.39.38 5.4 0 0 .38-.31l4.79-22.94q.05-.23-.18-.23l-3.68-.01q-.19 0-.23.19L709 85.23q-.66 3.26-3.98 3.26l-2.76.01a3.18 3.18 0 0 1-3.13-3.77l1.6-8.33q.07-.39-.32-.39l-3.16-.01q-.47 0-.57.45c-.7 3.03-2.24 8.48-1.4 11.24 1.39 4.58 8.12 4.12 11.97 3.1a.39.38-1.5 0 1 .48.45Zm24.67 5.24-.55 2.53a.41.4-84.1 0 0 .39.49h2.79q.55 0 .67-.54l4.9-22.26q.15-.7-.57-.7h-2.8q-.61 0-.73.6c-1.02 5.45-2.74 22.5-12.13 20.31-1.99-.46-2.46-2.11-2.08-3.92q1.75-8.38 3.67-16.69a.23.23 0 0 0-.22-.28l-3.52-.03q-.28 0-.35.28-3.15 13.41-3.82 16.98c-.77 4.12 2.2 6.93 6.18 6.68q4-.25 7.61-3.75.79-.78.56.3Zm15.59-7.21a.34.34 0 0 1 .34-.27h9.41a.34.34 0 0 1 .34.41l-1.97 9.69a.34.34 0 0 0 .34.41l3.36-.02a.34.34 0 0 0 .33-.27l4.75-22.8a.34.34 0 0 0-.33-.41l-3.42-.01a.34.34 0 0 0-.33.27l-1.89 9.46a.34.34 0 0 1-.33.27h-9.52a.34.34 0 0 1-.34-.41l1.89-9.16a.34.34 0 0 0-.33-.41l-3.39-.03a.34.34 0 0 0-.34.27l-4.72 22.83a.34.34 0 0 0 .34.41h3.35a.34.34 0 0 0 .34-.27l2.12-9.96Zm108.38 4.44-2.55-17.44q-.04-.25-.29-.25l-3.52-.02a.25.24 85 0 0-.24.29q1.86 10.52 3.57 21.11.34 2.09-.44 3.54c-1.27 2.4-3.06 4.66-6.19 3.6q-.6-.2-.68.43l-.33 2.73a.67.66-77.7 0 0 .45.71c5.02 1.7 7.75-2.09 9.76-5.74q7.21-13.07 14.36-25.84.47-.83-.49-.83h-1.99q-1.06 0-1.58.93l-9.37 16.86q-.36.65-.47-.08Zm20.38-8.2 1.89-9.22a.23.22-84.7 0 0-.22-.27l-3.47-.03q-.33 0-.39.31l-4.75 22.96q-.05.24.2.24l3.49-.01q.31 0 .37-.3l2.19-10.23q.13-.59.72-.51c3.85.53 5.05 6.56 6.21 10.47q.17.57.76.57h3.23a.33.33 0 0 0 .32-.43c-1.31-4.21-2.42-9.55-5.48-11.23q-.41-.23-.05-.53 2.88-2.36 5.18-6.86.9-1.75 3.52-1.49a.33.33 0 0 0 .34-.24l.59-2.29q.07-.25-.18-.3c-9.06-1.86-7.85 10.35-14.11 9.86q-.44-.04-.36-.47ZM979.4 96.49l-.55 2.52a.4.4 0 0 0 .39.48l2.79.01q.55 0 .67-.54l4.94-22.47a.4.39 6.4 0 0-.39-.48l-3.02-.01q-.62 0-.73.6-1.64 8.82-2.75 12.9c-.93 3.43-4.82 8.44-9.04 7.53q-3.12-.68-2.42-4.04 1.74-8.39 3.68-16.67.07-.3-.23-.3l-3.52-.03a.35.34 6.2 0 0-.34.26q-1.86 7.83-3.56 15.82c-.55 2.61-.57 4.79 1.4 6.51 3.73 3.26 9.01.69 12.09-2.41q.85-.87.59.32Zm60.06-.23-.61 2.75a.4.4 0 0 0 .39.48l2.79.01q.55 0 .67-.54l4.9-22.26q.15-.7-.57-.7h-2.8q-.61 0-.72.6-1.14 6.04-2.66 12.48c-.86 3.65-4.7 8.82-9.13 7.94q-3.07-.61-2.48-3.79.92-4.99 3.73-16.92.07-.29-.23-.29l-3.49-.03q-.31 0-.39.3-1.96 8.38-3.81 16.96c-.88 4.09 2.28 6.9 6.19 6.69q4.19-.23 7.7-3.95.75-.79.52.27Zm47.8-7.25a.34.34 0 0 1 .34.41l-2.01 9.67a.34.34 0 0 0 .34.41h3.36a.34.34 0 0 0 .34-.27l4.76-22.82a.34.34 0 0 0-.33-.41h-3.45a.34.34 0 0 0-.33.28l-1.82 9.44a.34.34 0 0 1-.33.28h-9.57a.34.34 0 0 1-.33-.41l1.9-9.18a.34.34 0 0 0-.33-.41h-3.4a.34.34 0 0 0-.34.27l-4.72 22.82a.34.34 0 0 0 .34.41h3.36a.34.34 0 0 0 .34-.27l2.08-9.96a.34.34 0 0 1 .34-.27l9.46.01Zm52.34-9.6-4.04 19.85q-.05.24.2.24h3.54a.34.33 5.1 0 0 .33-.27l4.64-22.66q.12-.57-.46-.57h-16.52q-.44 0-.52.43-1.55 8.01-3.3 15.99c-.53 2.4-.7 4.72-3.81 4.05a.65.65 0 0 0-.77.48l-.52 2.09a.53.53 0 0 0 .38.64q7.01 1.83 8.42-5.08 1.56-7.65 3.07-15.2.08-.4.49-.4h8.54q.42 0 .33.41Zm22.12 16.84-.61 2.77a.41.41 0 0 0 .41.5l2.77-.04a.69.68 5.9 0 0 .66-.53l5-22.69a.21.2-82.8 0 0-.19-.25l-3.55-.02q-.32 0-.38.31c-1.09 5.62-2.54 22.04-11.87 20.7q-3.04-.44-2.39-3.75 1.67-8.54 3.65-16.9.08-.33-.26-.33l-3.44-.03q-.34 0-.42.33-1.95 8.34-3.58 16.96-.94 4.95 3.3 6.39c4.39 1.5 7.24-1.14 10.49-3.67q.56-.43.41.25Zm74.14 4.35-1.24 5.2a.37.37 0 0 0 .36.45l2.07-.01q.55 0 .67-.53l1.9-7.98q.17-.72-.57-.73h-1.84a1.28 1.28 0 0 1-1.24-1.55l4.15-18.98a.39.38-83.9 0 0-.37-.47h-3.22q-.45 0-.53.44-1.17 6.24-2.57 12.84c-.87 4.11-6.22 10.22-10.86 6.92q-.42-.3-.49-.81-.24-1.66 0-2.87 1.66-8.21 3.35-16.23a.23.22-84.7 0 0-.22-.27l-3.49-.03a.43.43 0 0 0-.42.34q-1.7 8.21-3.44 16.65-.81 3.93 1.84 5.86c3.55 2.6 8.61.53 11.56-2.33q.51-.49.65.2l.3 1.39a.36.35 17.4 0 0 .06.11q1.18 1.62 3.21 1.85.49.06.38.54Zm22.28-4.18-.51 2.64a.37.37 0 0 0 .37.44l3.01-.01a.39.38 5.4 0 0 .38-.31l5.01-22.69a.41.4 6.2 0 0-.4-.49h-3.21q-.42 0-.5.42-1.15 6.1-2.6 12.5c-.98 4.34-5.86 10.13-10.79 7.5a1.37 1.36-86.3 0 1-.62-.71q-.52-1.41-.19-2.97 1.73-8.21 3.57-16.24a.4.4 0 0 0-.39-.49l-3.08-.01a.64.63 6.2 0 0-.62.49q-2.61 11.05-3.7 16.5c-1.2 5.99 4.97 8.64 9.59 6.2q1.71-.9 4.16-3.06.7-.62.52.29Zm25.04-.17-.56 2.79a.39.39 0 0 0 .38.46l2.78-.01q.54 0 .66-.53l4.96-22.47a.41.4 6.2 0 0-.4-.49h-3.21q-.43 0-.51.42-1.15 6.18-2.66 12.66c-1 4.29-5.86 9.96-10.72 7.34a1.38 1.37-86.2 0 1-.61-.7q-.56-1.52-.21-3.17 1.77-8.12 3.58-16.02.12-.52-.42-.52l-3.02-.01q-.56 0-.68.54-1.54 6.76-3.14 13.91c-.62 2.78-1.39 5.5.73 7.73 3.8 3.98 9.15 1.07 12.65-2.15q.55-.52.4.22Zm-666.24-.87a.31.31 0 0 0-.31-.38h-3.91a.31.31 0 0 0-.31.25l-.73 3.87a.31.31 0 0 0 .3.37l3.8.01a.31.31 0 0 0 .3-.24l.86-3.88ZM493.5 140.19c3.68-2.53 4.56-6.8 2.37-10.6-2.65-4.6-9.37-5.59-13.9-3.85-4.07 1.57-6.21 5.03-6.64 9.26q-.03.3.26.36l3.66.8q.22.05.25-.17c.56-5.15 4.45-8.54 9.37-6.91 5.02 1.67 5.15 8.59.13 9.84q-1.11.28-4.33.35-.41.01-.41.42l-.02 3.03q0 .34.33.31c4.42-.41 11.79 1.48 9.28 7.8q-.63 1.6-1.82 2.24-8.77 4.75-13.14-5.27-.12-.27-.4-.2l-3.54.81a.26.25-14.8 0 0-.19.32q3.75 11.86 15.99 9.04c8.45-1.95 10.95-12.34 2.79-16.83q-.62-.35-.04-.75ZM452 129.25h16q.25 0 .25-.25v-3.25a.25.25 0 0 0-.25-.25h-20q-.5 0-.5.5v31.23q0 .47.47.48 6.41.1 12.76.13 9.57.04 10.65-8.36c1.54-11.98-12.35-10.24-19.35-10.22q-.28 0-.28-.28v-9.48a.25.25 0 0 1 .25-.25Zm62.2 15.12-9.74-18.31a1.06 1.05 75.8 0 0-.93-.56h-3.28q-.62 0-.32.55l12.39 22.65a1.15 1.13-52 0 1 .1.89c-1.16 4.11-3.95 6.69-8.43 4.26a.16.16 0 0 0-.23.14l-.02 3.06q0 .32.29.44c6.26 2.72 8.83-1.01 11.28-5.96q6.35-12.8 12.51-25.49a.4.4 0 0 0-.37-.57l-3.13.05q-.64.01-.9.58l-8.52 18.25q-.33.71-.7.02Zm816.05.13c6.94-.02 17.02 1.63 18.95-7.11 3.22-14.63-14.6-12.04-23.24-11.83q-.46.01-.46.47v31.47q0 .25.25.25h3.75a.25.25 0 0 0 .25-.25v-12.49q0-.5.5-.51Zm28.32 8.8c4.85-5.19 16.31-11.75 15.41-19.79-1.23-11.02-19.55-10.89-20.42.76a.24.24 0 0 0 .21.26l3.28.44q.35.04.38-.31c1.24-11.1 18.59-4.97 10.52 4.32-4.72 5.43-14.14 10.62-14.97 18.2q-.06.57.51.57H1374a.25.24 90 0 0 .24-.25l.01-3.5a.25.25 0 0 0-.25-.25h-15.23q-.61 0-.2-.45ZM571.78 147h16.7q.44 0 .47-.44c.61-7.6-4.49-13.98-12.57-12.69-7.98 1.26-10.46 9.68-8.6 16.5 2.79 10.23 17.14 10.74 20.9 1.17a.71.71 0 0 0-.6-.96l-2.43-.21q-.78-.06-1.05.68c-2.65 7.32-13.11 3.98-13.23-3.63q-.01-.42.41-.42Zm70.06-3.38a9.72 9.72 0 0 0-9.72-9.72h-1.74a9.72 9.72 0 0 0-9.72 9.72v4.76a9.72 9.72 0 0 0 9.72 9.72h1.74a9.72 9.72 0 0 0 9.72-9.72v-4.76Zm44.233-.074a9.72 9.72 0 0 0-9.788-9.652l-1.74.012a9.72 9.72 0 0 0-9.651 9.788l.033 4.76a9.72 9.72 0 0 0 9.788 9.652l1.74-.012a9.72 9.72 0 0 0 9.651-9.788l-.033-4.76Zm48.517.074a9.72 9.72 0 0 0-9.72-9.72h-1.74a9.72 9.72 0 0 0-9.72 9.72v4.76a9.72 9.72 0 0 0 9.72 9.72h1.74a9.72 9.72 0 0 0 9.72-9.72v-4.76Zm46.2 12.38c5.59 4.75 12.85 1.54 14.89-5.01 2.48-7.95-1.14-20.27-12.12-16.62-1.13.37-1.9 1.43-2.84 2.18a.33.32-17.6 0 1-.53-.27l.09-1.5q.04-.53-.5-.53h-3.03q-.5 0-.5.5v31.75q0 .25.25.25h3.25q.5 0 .5-.5v-10q0-.71.54-.25Zm142.36-.54.59 1.66a.93.92-9 0 0 .86.62l2.9.04q.67 0 .41-.61c-1.65-3.94-.91-10.57-.92-14.88q-.01-3.54-.73-4.96c-2.54-5.02-11.39-3.9-15.46-2.03q-2.43 1.12-3.41 4.96-.19.75.57.84l2.6.32q.69.08.88-.59c1.84-6.38 13.06-4.31 11.11 1.26q-.36 1.02-1.42 1.19c-5.7.95-15.72.85-14.32 9.79q.54 3.45 4.01 4.65 6.01 2.09 11.59-2.46.52-.42.74.2Zm109.906-11.988a9.72 9.72 0 0 0-9.855-9.583l-1.74.024a9.72 9.72 0 0 0-9.583 9.855l.066 4.76a9.72 9.72 0 0 0 9.855 9.583l1.74-.024a9.72 9.72 0 0 0 9.583-9.855l-.066-4.76Zm9.394 12.578q4.76 3.5 9.26 1.52c5.97-2.62 6.93-8.75 6.23-14.81-.88-7.57-9.52-12.59-15.26-6.28q-.59.64-.63-.23l-.06-1.28q-.03-.73-.77-.73l-2.47.01q-.75 0-.75.75v31q0 .74.75.75h2.75q.5 0 .5-.5l.01-9.98q0-.54.44-.22Zm80.08-8.81q.44 0 .47.44c.42 6.56 4.86 11.62 11.91 10.46 11.73-1.92 11.16-23.37-.66-24.39-7.12-.62-9.7 3.54-11.29 9.69q-.14.57-.72.56h-3.5q-.5 0-.5-.51l.01-8.74q0-.5-.5-.5h-3q-.5 0-.5.5v22.75a.25.25 0 0 0 .25.25h3.5a.25.25 0 0 0 .25-.25v-9.75q0-.49.5-.49l3.78-.02Zm82.556-3.639a9.72 9.72 0 0 0-9.737-9.702l-1.74.002a9.72 9.72 0 0 0-9.703 9.737l.008 4.76a9.72 9.72 0 0 0 9.737 9.703l1.74-.002a9.72 9.72 0 0 0 9.703-9.737l-.008-4.76Zm17.114-6.031q1.97.63 2.55 3.38a.87.87 0 0 0 .94.69l2.54-.26q.93-.09.64-.98c-2.2-6.73-9.61-8.55-15.1-5-6.03 3.9-6.21 14.59-1.86 19.67 5.29 6.17 15.85 3.44 17.56-5.03a.25.25 0 0 0-.21-.3l-3.47-.46a.28.27-81.7 0 0-.31.24c-.65 4.37-4.58 6.73-8.38 5.02-6.83-3.07-5.75-20.4 5.1-16.97Zm39.83 9.43h16.7q.44 0 .47-.44c.61-7.61-4.48-13.96-12.57-12.69-12.76 2.01-12.54 23.95 1.62 24.37q7.97.24 10.74-6.82.27-.69-.46-.78l-2.79-.32q-.52-.06-.74.42c-3.44 7.57-13.15 4.45-13.43-3.26q-.02-.48.46-.48Zm-714.28.59a.34.34 0 0 1 .34-.34h10.07a.34.34 0 0 1 .34.34v9.82a.34.34 0 0 0 .34.34h3.32a.34.34 0 0 0 .34-.34v-22.82a.34.34 0 0 0-.34-.34h-3.32a.34.34 0 0 0-.34.34v9.07a.34.34 0 0 1-.34.34h-10.07a.34.34 0 0 1-.34-.34v-9.08a.34.34 0 0 0-.34-.34l-3.32.02a.34.34 0 0 0-.34.34v22.8a.34.34 0 0 0 .34.34l3.32.02a.34.34 0 0 0 .34-.34v-9.83Zm62.5-9.73a.36.36 0 0 1 .36-.36h8.78a.36.36 0 0 0 .36-.36v-2.53a.36.36 0 0 0-.36-.36h-12.78a.36.36 0 0 0-.36.36v22.78a.36.36 0 0 0 .36.36h3.28a.36.36 0 0 0 .36-.36v-19.53Zm44.75-.05a.31.31 0 0 1 .31-.31h6.87a.31.31 0 0 0 .31-.31v-2.63a.31.31 0 0 0-.31-.31h-18.37a.31.31 0 0 0-.31.31l.01 2.62a.31.31 0 0 0 .31.31l6.87.01a.31.31 0 0 1 .31.31v19.64a.31.31 0 0 0 .31.31l3.38-.01a.31.31 0 0 0 .31-.31v-19.63Zm52.12 7.56q4.26-4.64.44-8.97c-2.85-3.23-12.04-2.19-16.07-2.13q-.49.01-.49.5v22.45q0 .44.44.45c7.29.24 18.95 1.96 18.84-6.89q-.04-3.18-3.07-4.83-.42-.23-.09-.58Zm49.13-7.53a.34.34 0 0 1 .34-.34h9.57a.34.34 0 0 1 .34.34v19.57a.34.34 0 0 0 .34.34h3.32a.34.34 0 0 0 .34-.34v-22.82a.34.34 0 0 0-.34-.34h-17.57a.34.34 0 0 0-.34.34v22.82a.34.34 0 0 0 .34.34h3.32a.34.34 0 0 0 .34-.34v-19.57Zm49.5 13.45V134.5a.25.25 0 0 0-.25-.25H802q-.25 0-.25.25v22.75q0 .5.5.5l3.29.01q.54 0 .82-.46l10.07-16.44q.57-.93.57.16v16.49q0 .25.26.25h3.48a.26.26 0 0 0 .26-.26v-22.76q0-.51-.51-.51l-3.24.03a.96.93-73.7 0 0-.8.45l-10.24 16.71q-.46.75-.46-.13Zm25-3.7a.34.34 0 0 1 .34-.34h10.07a.34.34 0 0 1 .34.34v9.82a.34.34 0 0 0 .34.34h3.32a.34.34 0 0 0 .34-.34v-22.82a.34.34 0 0 0-.34-.34h-3.32a.34.34 0 0 0-.34.34v9.07a.34.34 0 0 1-.34.34h-10.07a.34.34 0 0 1-.34-.34v-9.08a.34.34 0 0 0-.34-.34l-3.32.02a.34.34 0 0 0-.34.34v22.8a.34.34 0 0 0 .34.34l3.32.01a.34.34 0 0 0 .34-.34v-9.82Zm25 3.7V134.5a.25.24 88.9 0 0-.25-.25H852q-.25 0-.25.25v22.75q0 .5.5.5l3.29.01q.54 0 .82-.46l10.06-16.44a.31.31 0 0 1 .58.16v16.49a.26.25 0 0 0 .26.25h3.49a.26.25 90 0 0 .25-.26v-22.76q0-.51-.51-.51l-3.16.03q-.6 0-.92.51l-10.2 16.65q-.46.75-.46-.13Zm42.24-11 .02 16.96q0 .5.49.5h3q.5.01.5-.5v-22.5q0-.51-.5-.5h-4.73a.65.64 9.5 0 0-.61.43l-6.46 17.6q-.26.73-.51-.01l-5.88-17.79a.34.33-7.2 0 0-.31-.23l-5.5-.01q-.5 0-.5.51v22.76a.26.25 0 0 0 .26.25h3.48a.26.25 0 0 0 .26-.25l.01-17.03q0-2.7.84-.13l5.45 16.79q.2.61.84.61h2.16q.8.01 1.08-.75l6.09-16.8a.27.27 0 0 1 .52.09Zm43.26-2.48a.31.31 0 0 1 .31-.31h6.88a.31.31 0 0 0 .31-.31v-2.63a.31.31 0 0 0-.31-.31h-18.37a.31.31 0 0 0-.31.31l-.01 2.62a.31.31 0 0 0 .31.31l6.88.01a.31.31 0 0 1 .31.31v19.63a.31.31 0 0 0 .31.31h3.38a.31.31 0 0 0 .31-.31v-19.63Zm15.5 5.19v-8.26q0-.5-.51-.5l-3.24.01q-.25.01-.25.25v22.73q0 .48.48.49c5.58.12 20.98 1.94 18.32-8.98-1.34-5.51-9.2-5.46-14.22-5.19q-.58.03-.58-.55Zm36-5.16a.34.34 0 0 1 .34-.34h9.57a.34.34 0 0 1 .34.34v19.58a.34.34 0 0 0 .34.34l3.32-.01a.34.34 0 0 0 .34-.34v-22.82a.34.34 0 0 0-.34-.34h-17.57a.34.34 0 0 0-.34.34v22.81a.34.34 0 0 0 .34.34l3.32.01a.34.34 0 0 0 .34-.34v-19.57Zm74.92 16.66a.42.42 0 0 1-.42-.42v-19.42a.42.42 0 0 0-.42-.42l-3.16.02a.42.42 0 0 0-.42.42v22.65a.42.42 0 0 0 .42.42h17.16a.42.42 0 0 1 .42.42l-.01 5.65a.42.42 0 0 0 .42.42l2.42.01a.42.42 0 0 0 .42-.42v-8.94a.42.42 0 0 0-.44-.42l-1.62.08a.42.42 0 0 1-.44-.42v-19.46a.42.42 0 0 0-.42-.42h-3.16a.42.42 0 0 0-.42.42v19.41a.42.42 0 0 1-.42.42h-9.91Zm36.58-13.25v16.25a.25.25 0 0 0 .25.25h3.5a.25.25 0 0 0 .25-.25v-22.75q0-.49-.5-.5l-3.22-.01q-.54 0-.82.46l-10.2 16.65q-.5.82-.5-.14l-.01-16.47q0-.5-.51-.5l-2.99.01q-.5 0-.5.5v22.51q0 .51.51.5l3.31-.01a.96.94 15.1 0 0 .79-.44l9.95-16.26q.69-1.12.69.2Zm60.5-3.41a.34.34 0 0 1 .34-.34h9.57a.34.34 0 0 1 .34.34v19.58a.34.34 0 0 0 .34.34h3.32a.34.34 0 0 0 .34-.34v-22.83a.34.34 0 0 0-.34-.34h-17.57a.34.34 0 0 0-.34.34v22.81a.34.34 0 0 0 .34.34l3.32.01a.34.34 0 0 0 .34-.34v-19.57Zm74.28-.34h9.47q.5 0 .5.5v19.5a.26.26 0 0 0 .26.26h3.48a.26.26 0 0 0 .26-.26v-23q0-.25-.25-.25H1235q-.5 0-.5.5v17.72q0 .56-.45.9-1.33 1.01-3.08.58a.59.59 0 0 0-.73.58l.02 2.22q0 .9.89.98c3.31.33 7.03-.04 7.13-4.24q.19-7.75.27-15.51 0-.48.48-.48Zm62.36 0a.36.36 0 0 1 .36.36v19.52a.36.36 0 0 0 .36.36l3.28.01a.36.36 0 0 0 .36-.36v-19.53a.36.36 0 0 1 .36-.36l6.78-.01a.36.36 0 0 0 .36-.36v-2.52a.36.36 0 0 0-.36-.36h-18.26a.36.36 0 0 0-.36.36l-.03 2.52a.36.36 0 0 0 .36.36l6.79.01Zm16.1 16.45a.45.45 0 0 0-.45-.45h-3.34a.45.45 0 0 0-.45.45v3.34a.45.45 0 0 0 .45.45h3.34a.45.45 0 0 0 .45-.45v-3.34Zm652.29 30.59a13.28 13.28 0 0 0-13.28-13.28h-203.48a13.28 13.28 0 0 0-13.28 13.28v27.68a13.28 13.28 0 0 0 13.28 13.28h203.48a13.28 13.28 0 0 0 13.28-13.28v-27.68Z"/><path d="M579.65 83.47q3.6 2.09 3.89 5.52c1.11 13.08-21.18 15.84-23.2 1.58q-.03-.23.19-.29l2.97-.93q.29-.1.36.21 1.71 7.51 8.4 6.93 4.13-.36 5.99-3.34c1.68-2.71 1.27-6.66-1.97-7.95q-2.28-.9-6.1-.31a.17.17 0 0 1-.19-.22l.95-3.19q.08-.3.4-.27c14.64 1.41 11.06-14.88 1.59-10.16q-3.44 1.72-4.54 5.92a.33.32 13.3 0 1-.38.23l-3.72-.81q-.27-.06-.19-.32 2.93-9.4 12.39-9.37c9.55.03 12.96 12.62 3.22 16.17q-.67.24-.06.6Z"/><path d="M540.64 81.25c3.01.02 7.54-.33 11.06.33 9.67 1.81 7.02 13.69.31 16.68-4.8 2.13-14.15 1.3-19.73 1.19q-.52-.01-.41-.52l6.52-31.2q.1-.48.6-.48h20.02q.52 0 .41.51l-.52 2.25q-.17.74-.92.74h-15.43q-.45 0-.54.44l-1.91 9.39q-.13.66.54.67Zm8.89 13.83c4.76-1.58 6.51-9.91-.29-10.22q-4.74-.22-9.57-.07-.49.01-.59.49l-2.12 10q-.1.48.39.53 7.54.81 12.18-.73Z"/><path d="M600.38 86.94a.32.32 0 0 0 .58.06l11.85-19.23q.34-.53.97-.53l3.01.01q.69.01.33.6-9.02 14.55-18.18 29.07c-2.32 3.69-5.46 3.04-9.18 2.81q-.71-.04-.58-.74l.48-2.67q.12-.63.75-.52l2.78.5a1.3 1.26 33.2 0 0 .92-.18q2.22-1.43 3.36-3.83.22-.48.04-.97l-8.66-23.78a.22.21-10 0 1 .21-.29l3.94.01q.23 0 .31.21l7.07 19.47Z"/><path d="M662.35 71h-15.82a.3.3 0 0 0-.29.24l-5.86 28.01a.3.3 0 0 1-.29.24l-3.72.02a.3.3 0 0 1-.29-.36l6.6-31.66a.3.3 0 0 1 .29-.24h24.51a.3.3 0 0 1 .29.36l-6.63 31.65a.3.3 0 0 1-.29.24l-3.72-.01a.3.3 0 0 1-.29-.36l5.8-27.77a.3.3 0 0 0-.29-.36Z"/><path d="M974.96 67.89c1.6 3.84 6.32 3.36 7.94-.14q.11-.24.39-.24l2.23-.02a.19.19 0 0 1 .18.25c-2.34 6.56-12.43 8.15-13.07.22q-.04-.41.38-.44l1.23-.07a.72.72 0 0 1 .72.44Z"/><path d="M782.28 97.53q-.11-.49-.53-.22-5.03 3.17-9.25 2.57c-5.96-.85-7-9.4-2.18-12.56 3.36-2.19 9.04-1.5 13.1-2.26q.47-.09.66-.52c3.04-6.9-7.44-8.26-10.33-2.18q-.38.79-1.25.67l-2.25-.31q-.91-.12-.48-.94 4.29-8.16 13.71-5.75c10.14 2.59 1.24 15.97 3.09 22.8q.18.66-.51.66h-2.71q-.66 0-.79-.64l-.28-1.32Zm-5.78-.56c4.5-.9 6.41-4.58 6.92-8.84q.05-.47-.42-.39-3.35.61-6.75.88c-7.24.57-6.06 9.61.25 8.35Z"/><path d="M819.45 87.13q-.55.24-.14.67c9.43 9.92-12.26 18.67-15.66 6.07q-.19-.7.54-.8l2.53-.33a.83.83 0 0 1 .92.62c1.8 7.14 13.15 2.52 9.27-2.75-1.06-1.45-3.05-1.77-4.68-1.6q-.62.07-.51-.54l.35-1.93a.7.7 0 0 1 .75-.56c2.79.31 6.09-.75 6.2-3.86.18-4.88-6.86-4.71-7.96-.65q-.2.76-.99.69l-2.54-.21q-.93-.08-.52-.91 3.48-7.09 11.22-5.18c5.89 1.45 6.52 8.94 1.22 11.27Z"/><path d="M896.956 99.21a12.85 10.66 116.8 0 1-3.721-16.276 12.85 10.66 116.8 0 1 15.309-6.664 12.85 10.66 116.8 0 1 3.721 16.276 12.85 10.66 116.8 0 1-15.309 6.664Zm2.709-2.382a9.61 6.7 108.6 0 0 9.415-6.971 9.61 6.7 108.6 0 0-3.285-11.245 9.61 6.7 108.6 0 0-9.415 6.971 9.61 6.7 108.6 0 0 3.285 11.245Z"/><path d="M944.476 99.23a12.85 10.65 116.7 0 1-3.74-16.265 12.85 10.65 116.7 0 1 15.288-6.695 12.85 10.65 116.7 0 1 3.74 16.265 12.85 10.65 116.7 0 1-15.288 6.695Zm2.692-2.401a9.6 6.69 108.6 0 0 9.403-6.965 9.6 6.69 108.6 0 0-3.279-11.233 9.6 6.69 108.6 0 0-9.403 6.965 9.6 6.69 108.6 0 0 3.279 11.233Z"/><path d="M1018.77 83.56c-.18-6.79-8.06-6.24-10.62-1.39-1.84 3.49-3.47 10.3-.74 13.4 3.5 3.98 8.28-.54 9.36-4.02a.87.87 0 0 1 .95-.6l2.73.35q.59.08.37.63-3.57 8.95-11.56 8.11c-12.45-1.32-8.2-25.89 6.28-24.43 4.4.45 7.08 3.09 7.25 7.51q.01.29-.28.32l-3.47.36a.25.24 85.7 0 1-.27-.24Z"/><path d="M1111.14 97.26c-15.03 10.13-20.34-11.11-5.89-11.4q3.93-.08 7.76-.85.44-.09.58-.51c2.64-7.67-8.21-7.86-10.48-1.82a.61.61 0 0 1-.63.38l-3.02-.37a.36.35 14.9 0 1-.29-.49q2.68-6.25 9.06-6.78c5.05-.42 10.9 2.06 9.71 8.09-.91 4.57-2.89 10.99-1.84 15.51q.11.48-.37.48l-3.01-.01q-.73 0-.72-.73.01-.66-.2-1.28-.19-.54-.66-.22Zm1.26-9.52q-3.53.66-7.15.99c-7.49.68-4.87 11.05 2.43 7.68q5.15-2.38 5.06-8.39-.01-.34-.34-.28Z"/><path d="M1185.94 87.32a.34.33-40.3 0 0-.05.58c2.59 1.71 3.01 4.86 1.6 7.56-3.58 6.85-15.24 6.27-17.2-2.05q-.07-.29.23-.32l3.43-.37q.24-.03.3.21c1.21 4.6 6.9 5.53 9.42 2 1.56-2.16.37-5.25-2.34-5.77q-1.3-.25-2.46-.16-.53.04-.42-.48l.44-2.12q.1-.47.57-.42c3.61.35 7.11-1.2 6.2-5.34q-.34-1.53-2.37-1.94-4.36-.89-5.65 3.29-.08.26-.35.24l-3.33-.31q-.32-.03-.23-.33c1.72-6.17 8.81-7.62 13.68-4.76 4.27 2.49 2.36 8.7-1.47 10.49Z"/><path d="M1207.27 97.52q-.1-.47-.51-.22c-15.48 9.67-19.86-10.51-6.85-11.43q5.68-.4 8.4-.71.49-.06.7-.51c3.27-6.93-7.44-8.47-10.25-2.31q-.37.81-1.25.69l-2.26-.31q-.94-.12-.49-.95 4.61-8.57 14.32-5.6c9.09 2.78.74 16.16 2.49 22.66q.18.67-.51.67l-2.71-.01q-.66 0-.79-.64l-.29-1.33Zm-5.77-.55c4.49-.84 6.37-4.59 6.92-8.82q.05-.46-.4-.39-3.88.59-7.76 1c-5.85.62-5.08 9.38 1.24 8.21Z"/><path d="M841.4 87.8c3.41 1.2 4.13 4.78 2.56 7.78-3.15 6.03-13.13 5.9-16.59.58-2.98-4.56-1.58-12.03 1.94-16.09q4.1-4.72 10.69-4.28c7.44.5 8.68 9.56 1.45 11.21a.42.42 0 0 0-.05.8Zm-5.18-8.6q-4.14 1.75-5.55 5.96-.16.48.35.53 3.57.29 7.09-.29c6.92-1.13 4.23-8.77-1.89-6.2Zm1.83 17.33c3.28-1.28 3.86-5.48.53-7.16q-2.31-1.16-8.28-.42-.42.06-.48.47c-.75 5.04 3.14 9.11 8.23 7.11Z"/><path d="M932.41 87.81c3.53 1.25 4.16 5.04 2.4 8.04q-2.18 3.72-7.31 4.12c-14.24 1.11-13.01-16.81-4.25-22.43 3.33-2.14 10.01-3.01 12.89.67 2.76 3.53.3 7.84-3.69 8.81a.41.41 0 0 0-.04.79Zm-5.73-8.4q-3.7 1.85-5 5.73-.16.49.35.53c2.55.24 12.27.47 11.1-4.55-.67-2.82-4.34-2.78-6.45-1.71Zm2.4 17.18c2.75-1.13 4.11-6.08.68-7.16q-3.52-1.1-8.42-.55-.45.05-.52.5c-.75 4.95 3.2 9.3 8.26 7.21Z"/><path d="M1054.73 90.92c-6.01 3.88 6.84 10.88 10.21 1.53q.09-.25.35-.22l2.71.33q.25.03.18.27c-1.91 6.91-9.24 8.63-15.08 6.31-6.53-2.6-4.02-10.15 1.67-11.81q3.64-1.07 7.26-2.2c8.18-2.55-2.26-10.82-5.88-3.81a1.37 1.35 17.6 0 1-1.39.71l-2.24-.3q-.82-.12-.43-.85c2.91-5.5 11.84-7.6 15.83-2.08 2.02 2.8 1.14 6.39-1.86 8.03-3.37 1.84-8.34 2.17-11.33 4.09Z"/><path d="M683.9 96.5q.18-.94-.53-.3-3.7 3.4-7.52 3.72c-4.94.41-6.99-3.14-6.06-7.59q1.7-8.16 3.56-16 .08-.33.42-.33l3.43.01q.33.01.26.33-1.92 8.22-3.66 16.64c-.67 3.24 1.47 4.47 4.31 3.95 7.84-1.41 8.79-14.47 9.95-20.57q.07-.37.45-.37l3.5.03a.2.19 6.9 0 1 .19.24l-5.06 22.94a.37.36 5.8 0 1-.36.29l-3.25.01q-.22 0-.18-.22l.55-2.78Z"/><path d="M707.25 90.79c-3.85 1.02-10.58 1.48-11.97-3.1-.84-2.76.7-8.21 1.4-11.24q.1-.45.57-.45l3.16.01q.39 0 .32.39l-1.6 8.33a3.18 3.18 0 0 0 3.13 3.77l2.76-.01q3.32 0 3.98-3.26l1.84-9.04q.04-.19.23-.19l3.68.01q.23 0 .18.23l-4.79 22.94a.39.38 5.4 0 1-.38.31l-3.48.02q-.26 0-.21-.26l1.66-8.01a.39.38-1.5 0 0-.48-.45Z"/><path d="M732.4 96.48q.23-1.08-.56-.3-3.61 3.5-7.61 3.75c-3.98.25-6.95-2.56-6.18-6.68q.67-3.57 3.82-16.98.07-.28.35-.28l3.52.03a.23.23 0 0 1 .22.28q-1.92 8.31-3.67 16.69c-.38 1.81.09 3.46 2.08 3.92 9.39 2.19 11.11-14.86 12.13-20.31q.12-.6.73-.6h2.8q.72 0 .57.7l-4.9 22.26q-.12.54-.67.54h-2.79a.41.4-84.1 0 1-.39-.49l.55-2.53Z"/><path d="m747.99 89.27-2.12 9.96a.34.34 0 0 1-.34.27h-3.35a.34.34 0 0 1-.34-.41l4.72-22.83a.34.34 0 0 1 .34-.27l3.39.03a.34.34 0 0 1 .33.41l-1.89 9.16a.34.34 0 0 0 .34.41h9.52a.34.34 0 0 0 .33-.27l1.89-9.46a.34.34 0 0 1 .33-.27l3.42.01a.34.34 0 0 1 .33.41l-4.75 22.8a.34.34 0 0 1-.33.27l-3.36.02a.34.34 0 0 1-.34-.41l1.97-9.69a.34.34 0 0 0-.34-.41h-9.41a.34.34 0 0 0-.34.27Z"/><path d="M856.37 93.71q.11.73.47.08l9.37-16.86q.52-.93 1.58-.93h1.99q.96 0 .49.83-7.15 12.77-14.36 25.84c-2.01 3.65-4.74 7.44-9.76 5.74a.67.66-77.7 0 1-.45-.71l.33-2.73q.08-.63.68-.43c3.13 1.06 4.92-1.2 6.19-3.6q.78-1.45.44-3.54-1.71-10.59-3.57-21.11a.25.24 85 0 1 .24-.29l3.52.02q.25 0 .29.25l2.55 17.44Z"/><path d="M877.11 85.98c6.26.49 5.05-11.72 14.11-9.86q.25.05.18.3l-.59 2.29a.33.33 0 0 1-.34.24q-2.62-.26-3.52 1.49-2.3 4.5-5.18 6.86-.36.3.05.53c3.06 1.68 4.17 7.02 5.48 11.23a.33.33 0 0 1-.32.43h-3.23q-.59 0-.76-.57c-1.16-3.91-2.36-9.94-6.21-10.47q-.59-.08-.72.51l-2.19 10.23q-.06.3-.37.3l-3.49.01q-.25 0-.2-.24l4.75-22.96q.06-.31.39-.31l3.47.03a.23.22-84.7 0 1 .22.27l-1.89 9.22q-.08.43.36.47Z"/><path d="M979.4 96.49q.26-1.19-.59-.32c-3.08 3.1-8.36 5.67-12.09 2.41-1.97-1.72-1.95-3.9-1.4-6.51q1.7-7.99 3.56-15.82a.35.34 6.2 0 1 .34-.26l3.52.03q.3 0 .23.3-1.94 8.28-3.68 16.67-.7 3.36 2.42 4.04c4.22.91 8.11-4.1 9.04-7.53q1.11-4.08 2.75-12.9.11-.6.73-.6l3.02.01a.4.39 6.4 0 1 .39.48l-4.94 22.47q-.12.54-.67.54l-2.79-.01a.4.4 0 0 1-.39-.48l.55-2.52Z"/><path d="M1039.46 96.26q.23-1.06-.52-.27-3.51 3.72-7.7 3.95c-3.91.21-7.07-2.6-6.19-6.69q1.85-8.58 3.81-16.96.08-.3.39-.3l3.49.03q.3 0 .23.29-2.81 11.93-3.73 16.92-.59 3.18 2.48 3.79c4.43.88 8.27-4.29 9.13-7.94q1.52-6.44 2.66-12.48.11-.6.72-.6h2.8q.72 0 .57.7l-4.9 22.26q-.12.54-.67.54l-2.79-.01a.4.4 0 0 1-.39-.48l.61-2.75Z"/><path d="m1087.26 89.01-9.46-.01a.34.34 0 0 0-.34.27l-2.08 9.96a.34.34 0 0 1-.34.27h-3.36a.34.34 0 0 1-.34-.41l4.72-22.82a.34.34 0 0 1 .34-.27h3.4a.34.34 0 0 1 .33.41l-1.9 9.18a.34.34 0 0 0 .33.41h9.57a.34.34 0 0 0 .33-.28l1.82-9.44a.34.34 0 0 1 .33-.28h3.45a.34.34 0 0 1 .33.41l-4.76 22.82a.34.34 0 0 1-.34.27h-3.36a.34.34 0 0 1-.34-.41l2.01-9.67a.34.34 0 0 0-.34-.41Z"/><path d="M1139.6 79.41q.09-.41-.33-.41h-8.54q-.41 0-.49.4-1.51 7.55-3.07 15.2-1.41 6.91-8.42 5.08a.53.53 0 0 1-.38-.64l.52-2.09a.65.65 0 0 1 .77-.48c3.11.67 3.28-1.65 3.81-4.05q1.75-7.98 3.3-15.99.08-.43.52-.43h16.52q.58 0 .46.57l-4.64 22.66a.34.33 5.1 0 1-.33.27h-3.54q-.25 0-.2-.24l4.04-19.85Z"/><path d="M1161.31 96c-3.25 2.53-6.1 5.17-10.49 3.67q-4.24-1.44-3.3-6.39 1.63-8.62 3.58-16.96.08-.33.42-.33l3.44.03q.34 0 .26.33-1.98 8.36-3.65 16.9-.65 3.31 2.39 3.75c9.33 1.34 10.78-15.08 11.87-20.7q.06-.31.38-.31l3.55.02a.21.2-82.8 0 1 .19.25l-5 22.69a.69.68 5.9 0 1-.66.53l-2.77.04a.41.41 0 0 1-.41-.5l.61-2.77q.15-.68-.41-.25Z"/><path d="M1235.48 100.06q-2.03-.23-3.21-1.85a.36.35 17.4 0 1-.06-.11l-.3-1.39q-.14-.69-.65-.2c-2.95 2.86-8.01 4.93-11.56 2.33q-2.65-1.93-1.84-5.86 1.74-8.44 3.44-16.65a.43.43 0 0 1 .42-.34l3.49.03a.23.22-84.7 0 1 .22.27q-1.69 8.02-3.35 16.23-.24 1.21 0 2.87.07.51.49.81c4.64 3.3 9.99-2.81 10.86-6.92q1.4-6.6 2.57-12.84.08-.44.53-.44h3.22a.39.38-83.9 0 1 .37.47l-4.15 18.98a1.28 1.28 0 0 0 1.24 1.55h1.84q.74.01.57.73l-1.9 7.98q-.12.53-.67.53l-2.07.01a.37.37 0 0 1-.36-.45l1.24-5.2q.11-.48-.38-.54Z"/><path d="M1257.62 96.13q-2.45 2.16-4.16 3.06c-4.62 2.44-10.79-.21-9.59-6.2q1.09-5.45 3.7-16.5a.64.63 6.2 0 1 .62-.49l3.08.01a.4.4 0 0 1 .39.49q-1.84 8.03-3.57 16.24-.33 1.56.19 2.97a1.37 1.36-86.3 0 0 .62.71c4.93 2.63 9.81-3.16 10.79-7.5q1.45-6.4 2.6-12.5.08-.42.5-.42h3.21a.41.4 6.2 0 1 .4.49l-5.01 22.69a.39.38 5.4 0 1-.38.31l-3.01.01a.37.37 0 0 1-.37-.44l.51-2.64q.18-.91-.52-.29Z"/><path d="M1283.18 96.25q.15-.74-.4-.22c-3.5 3.22-8.85 6.13-12.65 2.15-2.12-2.23-1.35-4.95-.73-7.73q1.6-7.15 3.14-13.91.12-.54.68-.54l3.02.01q.54 0 .42.52-1.81 7.9-3.58 16.02-.35 1.65.21 3.17a1.38 1.37-86.2 0 0 .61.7c4.86 2.62 9.72-3.05 10.72-7.34q1.51-6.48 2.66-12.66.08-.42.51-.42h3.21a.41.4 6.2 0 1 .4.49l-4.96 22.47q-.12.53-.66.53l-2.78.01a.39.39 0 0 1-.38-.46l.56-2.79Z"/><ellipse fill="#fff" rx="9.61" ry="6.7" transform="rotate(108.6 419.848 368.199)"/><ellipse fill="#fff" rx="9.6" ry="6.69" transform="rotate(108.6 443.595 385.27)"/><path fill="#fff" d="M836.22 79.2c6.12-2.57 8.81 5.07 1.89 6.2q-3.52.58-7.09.29-.51-.05-.35-.53 1.41-4.21 5.55-5.96Z"/><path fill="#fff" d="M926.68 79.41c2.11-1.07 5.78-1.11 6.45 1.71 1.17 5.02-8.55 4.79-11.1 4.55q-.51-.04-.35-.53 1.3-3.88 5-5.73Z"/><path fill="#fff" d="M549.53 95.08q-4.64 1.54-12.18.73-.49-.05-.39-.53l2.12-10q.1-.48.59-.49 4.83-.15 9.57.07c6.8.31 5.05 8.64.29 10.22Z"/><path fill="#fff" d="M783.42 88.13c-.51 4.26-2.42 7.94-6.92 8.84-6.31 1.26-7.49-7.78-.25-8.35q3.4-.27 6.75-.88.47-.08.42.39Z"/><path fill="#fff" d="M1112.4 87.74q.33-.06.34.28.09 6.01-5.06 8.39c-7.3 3.37-9.92-7-2.43-7.68q3.62-.33 7.15-.99Z"/><path fill="#fff" d="M1208.42 88.15c-.55 4.23-2.43 7.98-6.92 8.82-6.32 1.17-7.09-7.59-1.24-8.21q3.88-.41 7.76-1 .45-.07.4.39Z"/><path fill="#fff" d="M838.05 96.53c-5.09 2-8.98-2.07-8.23-7.11q.06-.41.48-.47 5.97-.74 8.28.42c3.33 1.68 2.75 5.88-.53 7.16Z"/><path fill="#fff" d="M929.08 96.59c-5.06 2.09-9.01-2.26-8.26-7.21q.07-.45.52-.5 4.9-.55 8.42.55c3.43 1.08 2.07 6.03-.68 7.16Z"/><path d="m616.94 95.38-.86 3.88a.31.31 0 0 1-.3.24l-3.8-.01a.31.31 0 0 1-.3-.37l.73-3.87a.31.31 0 0 1 .31-.25h3.91a.31.31 0 0 1 .31.38Z"/><path d="M493.54 140.94c8.16 4.49 5.66 14.88-2.79 16.83q-12.24 2.82-15.99-9.04a.26.25-14.8 0 1 .19-.32l3.54-.81q.28-.07.4.2 4.37 10.02 13.14 5.27 1.19-.64 1.82-2.24c2.51-6.32-4.86-8.21-9.28-7.8q-.33.03-.33-.31l.02-3.03q0-.41.41-.42 3.22-.07 4.33-.35c5.02-1.25 4.89-8.17-.13-9.84-4.92-1.63-8.81 1.76-9.37 6.91q-.03.22-.25.17l-3.66-.8q-.29-.06-.26-.36c.43-4.23 2.57-7.69 6.64-9.26 4.53-1.74 11.25-.75 13.9 3.85 2.19 3.8 1.31 8.07-2.37 10.6q-.58.4.04.75Z"/><path d="M452 129.25a.25.25 0 0 0-.25.25v9.48q0 .28.28.28c7-.02 20.89-1.76 19.35 10.22q-1.08 8.4-10.65 8.36-6.35-.03-12.76-.13-.47-.01-.47-.48V126q0-.5.5-.5h20a.25.25 0 0 1 .25.25V129q0 .25-.25.25h-16Zm-.26 14.2-.02 10.08a.46.46 0 0 0 .46.46l9.36.01a5.7 5.05.1 0 0 5.71-5.04v-.9a5.7 5.05.1 0 0-5.69-5.06l-9.36-.01a.46.46 0 0 0-.46.46Z"/><path d="m514.9 144.35 8.52-18.25q.26-.57.9-.58l3.13-.05a.4.4 0 0 1 .37.57q-6.16 12.69-12.51 25.49c-2.45 4.95-5.02 8.68-11.28 5.96q-.29-.12-.29-.44l.02-3.06a.16.16 0 0 1 .23-.14c4.48 2.43 7.27-.15 8.43-4.26a1.15 1.13-52 0 0-.1-.89l-12.39-22.65q-.3-.55.32-.55h3.28a1.06 1.05 75.8 0 1 .93.56l9.74 18.31q.37.69.7-.02Z"/><path d="M1329.75 145.01v12.49a.25.25 0 0 1-.25.25h-3.75q-.25 0-.25-.25v-31.47q0-.46.46-.47c8.64-.21 26.46-2.8 23.24 11.83-1.93 8.74-12.01 7.09-18.95 7.11q-.5.01-.5.51Zm0-15.44-.02 10.84a.34.34 0 0 0 .34.34l9.64.01a5.54 5.39.1 0 0 5.55-5.38v-.74a5.54 5.39.1 0 0-5.53-5.4l-9.64-.01a.34.34 0 0 0-.34.34Z"/><path d="M1358.77 153.75H1374a.25.25 0 0 1 .25.25l-.01 3.5a.25.24 90 0 1-.24.25h-20.51q-.57 0-.51-.57c.83-7.58 10.25-12.77 14.97-18.2 8.07-9.29-9.28-15.42-10.52-4.32q-.03.35-.38.31l-3.28-.44a.24.24 0 0 1-.21-.26c.87-11.65 19.19-11.78 20.42-.76.9 8.04-10.56 14.6-15.41 19.79q-.41.45.2.45Z"/><path fill="#fff" d="M1329.75 129.57a.34.34 0 0 1 .34-.34l9.64.01a5.54 5.39.1 0 1 5.53 5.4v.74a5.54 5.39.1 0 1-5.55 5.38l-9.64-.01a.34.34 0 0 1-.34-.34l.02-10.84Z"/><path d="M571.37 147.42c.12 7.61 10.58 10.95 13.23 3.63q.27-.74 1.05-.68l2.43.21a.71.71 0 0 1 .6.96c-3.76 9.57-18.11 9.06-20.9-1.17-1.86-6.82.62-15.24 8.6-16.5 8.08-1.29 13.18 5.09 12.57 12.69q-.03.44-.47.44h-16.7q-.42 0-.41.42Zm.18-3.66 13.24-.02a.18.18 0 0 0 .18-.18v-.1a6.72 6.46-.1 0 0-6.74-6.45h-.16a6.72 6.46-.1 0 0-6.7 6.47v.1a.18.18 0 0 0 .18.18Z"/><path d="M641.84 148.38a9.72 9.72 0 0 1-9.72 9.72h-1.74a9.72 9.72 0 0 1-9.72-9.72v-4.76a9.72 9.72 0 0 1 9.72-9.72h1.74a9.72 9.72 0 0 1 9.72 9.72v4.76Zm-10.59 6.76a9.15 6.92 90 0 0 6.92-9.15 9.15 6.92 90 0 0-6.92-9.15 9.15 6.92 90 0 0-6.92 9.15 9.15 6.92 90 0 0 6.92 9.15Z"/><path d="M686.106 148.306a9.72 9.72 0 0 1-9.651 9.788l-1.74.012a9.72 9.72 0 0 1-9.788-9.652l-.033-4.76a9.72 9.72 0 0 1 9.651-9.788l1.74-.012a9.72 9.72 0 0 1 9.788 9.652l.033 4.76ZM675.5 155.15a9.16 6.91 90 0 0 6.91-9.16 9.16 6.91 90 0 0-6.91-9.16 9.16 6.91 90 0 0-6.91 9.16 9.16 6.91 90 0 0 6.91 9.16Z"/><path d="M734.59 148.38a9.72 9.72 0 0 1-9.72 9.72h-1.74a9.72 9.72 0 0 1-9.72-9.72v-4.76a9.72 9.72 0 0 1 9.72-9.72h1.74a9.72 9.72 0 0 1 9.72 9.72v4.76Zm-10.6 6.76a9.14 6.91 90 0 0 6.91-9.14 9.14 6.91 90 0 0-6.91-9.14 9.14 6.91 90 0 0-6.91 9.14 9.14 6.91 90 0 0 6.91 9.14Z"/><path d="M780.25 156.25v10q0 .5-.5.5h-3.25q-.25 0-.25-.25v-31.75q0-.5.5-.5h3.03q.54 0 .5.53l-.09 1.5a.33.32-17.6 0 0 .53.27c.94-.75 1.71-1.81 2.84-2.18 10.98-3.65 14.6 8.67 12.12 16.62-2.04 6.55-9.3 9.76-14.89 5.01q-.54-.46-.54.25Zm5.898-1.103a9.24 6.26 91.5 0 0 6.5-9.073 9.24 6.26 91.5 0 0-6.016-9.4 9.24 6.26 91.5 0 0-6.5 9.072 9.24 6.26 91.5 0 0 6.016 9.4Z"/><path d="M922.41 155.26q-5.58 4.55-11.59 2.46-3.47-1.2-4.01-4.65c-1.4-8.94 8.62-8.84 14.32-9.79q1.06-.17 1.42-1.19c1.95-5.57-9.27-7.64-11.11-1.26q-.19.67-.88.59l-2.6-.32q-.76-.09-.57-.84.98-3.84 3.41-4.96c4.07-1.87 12.92-2.99 15.46 2.03q.72 1.42.73 4.96c.01 4.31-.73 10.94.92 14.88q.26.61-.41.61l-2.9-.04a.93.92-9 0 1-.86-.62l-.59-1.66q-.22-.62-.74-.2Zm.43-7.07q.56-2.64-2.02-1.86-2.71.82-7.25 1.48c-2.66.39-3.68 4.04-1.9 6.01q2.3 2.56 7.54.63a4.84 4.83 86 0 0 3.05-3.52l.58-2.74Z"/><path d="M1033.122 148.232a9.72 9.72 0 0 1-9.583 9.855l-1.74.024a9.72 9.72 0 0 1-9.855-9.583l-.066-4.76a9.72 9.72 0 0 1 9.583-9.855l1.74-.024a9.72 9.72 0 0 1 9.855 9.583l.066 4.76Zm-10.606 6.908a9.15 6.92 89.9 0 0 6.904-9.162 9.15 6.92 89.9 0 0-6.936-9.138 9.15 6.92 89.9 0 0-6.904 9.162 9.15 6.92 89.9 0 0 6.936 9.138Z"/><path d="m1042.01 156.27-.01 9.98q0 .5-.5.5h-2.75q-.75-.01-.75-.75v-31q0-.75.75-.75l2.47-.01q.74 0 .77.73l.06 1.28q.04.87.63.23c5.74-6.31 14.38-1.29 15.26 6.28.7 6.06-.26 12.19-6.23 14.81q-4.5 1.98-9.26-1.52-.44-.32-.44.22Zm5.904-1.123a9.24 6.26 91.4 0 0 6.484-9.084 9.24 6.26 91.4 0 0-6.032-9.39 9.24 6.26 91.4 0 0-6.484 9.084 9.24 6.26 91.4 0 0 6.032 9.39Z"/><path d="M1118.25 147.75v9.75a.25.25 0 0 1-.25.25h-3.5a.25.25 0 0 1-.25-.25v-22.75q0-.5.5-.5h3q.5 0 .5.5l-.01 8.74q0 .51.5.51h3.5q.58.01.72-.56c1.59-6.15 4.17-10.31 11.29-9.69 11.82 1.02 12.39 22.47.66 24.39-7.05 1.16-11.49-3.9-11.91-10.46q-.03-.44-.47-.44l-3.78.02q-.5 0-.5.49Zm14.874 7.45a9.22 6.31 90.1 0 0 6.326-9.209 9.22 6.31 90.1 0 0-6.294-9.231 9.22 6.31 90.1 0 0-6.326 9.209 9.22 6.31 90.1 0 0 6.294 9.231Z"/><path d="M1205.094 148.362a9.72 9.72 0 0 1-9.703 9.737l-1.74.002a9.72 9.72 0 0 1-9.737-9.702l-.008-4.76a9.72 9.72 0 0 1 9.703-9.738l1.74-.002a9.72 9.72 0 0 1 9.737 9.702l.008 4.76Zm-10.578 6.798a9.16 6.92 89.9 0 0 6.904-9.172 9.16 6.92 89.9 0 0-6.936-9.148 9.16 6.92 89.9 0 0-6.904 9.172 9.16 6.92 89.9 0 0 6.936 9.148Z"/><path d="M1222.2 137.57c-10.85-3.43-11.93 13.9-5.1 16.97 3.8 1.71 7.73-.65 8.38-5.02a.28.27-81.7 0 1 .31-.24l3.47.46a.25.25 0 0 1 .21.3c-1.71 8.47-12.27 11.2-17.56 5.03-4.35-5.08-4.17-15.77 1.86-19.67 5.49-3.55 12.9-1.73 15.1 5q.29.89-.64.98l-2.54.26a.87.87 0 0 1-.94-.69q-.58-2.75-2.55-3.38Z"/><path d="M1261.57 147.48c.28 7.71 9.99 10.83 13.43 3.26q.22-.48.74-.42l2.79.32q.73.09.46.78-2.77 7.06-10.74 6.82c-14.16-.42-14.38-22.36-1.62-24.37 8.09-1.27 13.18 5.08 12.57 12.69q-.03.44-.47.44h-16.7q-.48 0-.46.48Zm.17-3.65 13.34-.02a.19.19 0 0 0 .19-.19v-.12a6.69 6.51-.1 0 0-6.71-6.5h-.34a6.69 6.51-.1 0 0-6.67 6.52v.12a.19.19 0 0 0 .19.19Z"/><path d="M547.75 147.59v9.83a.34.34 0 0 1-.34.34l-3.32-.02a.34.34 0 0 1-.34-.34v-22.8a.34.34 0 0 1 .34-.34l3.32-.02a.34.34 0 0 1 .34.34v9.08a.34.34 0 0 0 .34.34h10.07a.34.34 0 0 0 .34-.34v-9.07a.34.34 0 0 1 .34-.34h3.32a.34.34 0 0 1 .34.34v22.82a.34.34 0 0 1-.34.34h-3.32a.34.34 0 0 1-.34-.34v-9.82a.34.34 0 0 0-.34-.34h-10.07a.34.34 0 0 0-.34.34Z"/><path d="M610.25 137.86v19.53a.36.36 0 0 1-.36.36h-3.28a.36.36 0 0 1-.36-.36v-22.78a.36.36 0 0 1 .36-.36h12.78a.36.36 0 0 1 .36.36v2.53a.36.36 0 0 1-.36.36h-8.78a.36.36 0 0 0-.36.36Z"/><path d="M655 137.81v19.63a.31.31 0 0 1-.31.31l-3.38.01a.31.31 0 0 1-.31-.31v-19.64a.31.31 0 0 0-.31-.31l-6.87-.01a.31.31 0 0 1-.31-.31l-.01-2.62a.31.31 0 0 1 .31-.31h18.37a.31.31 0 0 1 .31.31v2.63a.31.31 0 0 1-.31.31h-6.87a.31.31 0 0 0-.31.31Z"/><path d="M707.21 145.95q3.03 1.65 3.07 4.83c.11 8.85-11.55 7.13-18.84 6.89q-.44-.01-.44-.45v-22.45q0-.49.49-.5c4.03-.06 13.22-1.1 16.07 2.13q3.82 4.33-.44 8.97-.33.35.09.58Zm-12.24-7.98.02 5.88a.46.46 0 0 0 .46.46l5.52-.02a4.3 3.17-.2 0 0 4.29-3.19v-.46a4.3 3.17-.2 0 0-4.31-3.15l-5.52.02a.46.46 0 0 0-.46.46Zm.01 9.88.04 6.36a.33.33 0 0 0 .33.33l6.67-.04a4.26 3.34-.3 0 0 4.24-3.36v-.34a4.26 3.34-.3 0 0-4.28-3.32l-6.67.04a.33.33 0 0 0-.33.33Z"/><path d="M756.25 137.84v19.57a.34.34 0 0 1-.34.34h-3.32a.34.34 0 0 1-.34-.34v-22.82a.34.34 0 0 1 .34-.34h17.57a.34.34 0 0 1 .34.34v22.82a.34.34 0 0 1-.34.34h-3.32a.34.34 0 0 1-.34-.34v-19.57a.34.34 0 0 0-.34-.34h-9.57a.34.34 0 0 0-.34.34Z"/><path d="M805.75 151.29q0 .88.46.13l10.24-16.71a.96.93-73.7 0 1 .8-.45l3.24-.03q.51 0 .51.51v22.76a.26.26 0 0 1-.26.26h-3.48q-.26 0-.26-.25v-16.49q0-1.09-.57-.16l-10.07 16.44q-.28.46-.82.46l-3.29-.01q-.5 0-.5-.5V134.5q0-.25.25-.25h3.5a.25.25 0 0 1 .25.25v16.79Z"/><path d="M830.75 147.59v9.82a.34.34 0 0 1-.34.34l-3.32-.01a.34.34 0 0 1-.34-.34v-22.8a.34.34 0 0 1 .34-.34l3.32-.02a.34.34 0 0 1 .34.34v9.08a.34.34 0 0 0 .34.34h10.07a.34.34 0 0 0 .34-.34v-9.07a.34.34 0 0 1 .34-.34h3.32a.34.34 0 0 1 .34.34v22.82a.34.34 0 0 1-.34.34h-3.32a.34.34 0 0 1-.34-.34v-9.82a.34.34 0 0 0-.34-.34h-10.07a.34.34 0 0 0-.34.34Z"/><path d="M855.75 151.29q0 .88.46.13l10.2-16.65q.32-.51.92-.51l3.16-.03q.51 0 .51.51v22.76a.26.25-90 0 1-.25.26h-3.49a.26.25 0 0 1-.26-.25v-16.49a.31.31 0 0 0-.58-.16l-10.06 16.44q-.28.46-.82.46l-3.29-.01q-.5 0-.5-.5V134.5q0-.25.25-.25h3.5a.25.24 88.9 0 1 .25.25v16.79Z"/><path d="m897.47 140.2-6.09 16.8q-.28.76-1.08.75h-2.16q-.64 0-.84-.61l-5.45-16.79q-.84-2.57-.84.13l-.01 17.03a.26.25 0 0 1-.26.25h-3.48a.26.25 0 0 1-.26-.25v-22.76q0-.51.5-.51l5.5.01a.34.33-7.2 0 1 .31.23l5.88 17.79q.25.74.51.01l6.46-17.6a.65.64 9.5 0 1 .61-.43h4.73q.5-.01.5.5v22.5q0 .51-.5.5h-3q-.49 0-.49-.5l-.02-16.96a.27.27 0 0 0-.52-.09Z"/><path d="M941.25 137.81v19.63a.31.31 0 0 1-.31.31h-3.38a.31.31 0 0 1-.31-.31v-19.63a.31.31 0 0 0-.31-.31l-6.88-.01a.31.31 0 0 1-.31-.31l.01-2.62a.31.31 0 0 1 .31-.31h18.37a.31.31 0 0 1 .31.31v2.63a.31.31 0 0 1-.31.31h-6.88a.31.31 0 0 0-.31.31Z"/><path d="M957.33 143.55c5.02-.27 12.88-.32 14.22 5.19 2.66 10.92-12.74 9.1-18.32 8.98q-.48-.01-.48-.49V134.5q0-.24.25-.25l3.24-.01q.51 0 .51.5V143q0 .58.58.55Zm-.58 3.68-.02 6.78a.5.5 0 0 0 .5.5l5.33.01a5.19 3.58.1 0 0 5.2-3.57v-.62a5.19 3.58.1 0 0-5.18-3.59l-5.33-.01a.5.5 0 0 0-.5.5Z"/><path d="M992.75 137.84v19.57a.34.34 0 0 1-.34.34l-3.32-.01a.34.34 0 0 1-.34-.34v-22.81a.34.34 0 0 1 .34-.34h17.57a.34.34 0 0 1 .34.34v22.82a.34.34 0 0 1-.34.34l-3.32.01a.34.34 0 0 1-.34-.34v-19.58a.34.34 0 0 0-.34-.34h-9.57a.34.34 0 0 0-.34.34Z"/><path d="M1067.67 154.5h9.91a.42.42 0 0 0 .42-.42v-19.41a.42.42 0 0 1 .42-.42h3.16a.42.42 0 0 1 .42.42v19.46a.42.42 0 0 0 .44.42l1.62-.08a.42.42 0 0 1 .44.42v8.94a.42.42 0 0 1-.42.42l-2.42-.01a.42.42 0 0 1-.42-.42l.01-5.65a.42.42 0 0 0-.42-.42h-17.16a.42.42 0 0 1-.42-.42v-22.65a.42.42 0 0 1 .42-.42l3.16-.02a.42.42 0 0 1 .42.42v19.42a.42.42 0 0 0 .42.42Z"/><path d="M1104.25 141.25q0-1.32-.69-.2l-9.95 16.26a.96.94 15.1 0 1-.79.44l-3.31.01q-.51.01-.51-.5v-22.51q0-.5.5-.5l2.99-.01q.51 0 .51.5l.01 16.47q0 .96.5.14l10.2-16.65q.28-.46.82-.46l3.22.01q.5.01.5.5v22.75a.25.25 0 0 1-.25.25h-3.5a.25.25 0 0 1-.25-.25v-16.25Z"/><path d="M1164.75 137.84v19.57a.34.34 0 0 1-.34.34l-3.32-.01a.34.34 0 0 1-.34-.34v-22.81a.34.34 0 0 1 .34-.34h17.57a.34.34 0 0 1 .34.34v22.83a.34.34 0 0 1-.34.34h-3.32a.34.34 0 0 1-.34-.34v-19.58a.34.34 0 0 0-.34-.34h-9.57a.34.34 0 0 0-.34.34Z"/><path d="M1238.55 137.98q-.08 7.76-.27 15.51c-.1 4.2-3.82 4.57-7.13 4.24q-.89-.08-.89-.98l-.02-2.22a.59.59 0 0 1 .73-.58q1.75.43 3.08-.58.45-.34.45-.9v-17.72q0-.5.5-.5h17.75q.25 0 .25.25v23a.26.26 0 0 1-.26.26h-3.48a.26.26 0 0 1-.26-.26V138q0-.5-.5-.5h-9.47q-.48 0-.48.48Z"/><path d="m1301.39 137.5-6.79-.01a.36.36 0 0 1-.36-.36l.03-2.52a.36.36 0 0 1 .36-.36h18.26a.36.36 0 0 1 .36.36v2.52a.36.36 0 0 1-.36.36l-6.78.01a.36.36 0 0 0-.36.36v19.53a.36.36 0 0 1-.36.36l-3.28-.01a.36.36 0 0 1-.36-.36v-19.52a.36.36 0 0 0-.36-.36Z"/><ellipse fill="#fff" rx="9.24" ry="6.26" transform="rotate(91.5 322.125 455.989)"/><ellipse fill="#fff" rx="9.24" ry="6.26" transform="rotate(91.4 452.876 584.373)"/><path fill="#fff" d="M571.55 143.76a.18.18 0 0 1-.18-.18v-.1a6.72 6.46-.1 0 1 6.7-6.47h.16a6.72 6.46-.1 0 1 6.74 6.45v.1a.18.18 0 0 1-.18.18l-13.24.02Z"/><ellipse fill="#fff" rx="9.15" ry="6.92" transform="rotate(90 242.63 388.62)"/><ellipse fill="#fff" rx="9.16" ry="6.91" transform="rotate(90 264.755 410.745)"/><ellipse fill="#fff" rx="9.14" ry="6.91" transform="rotate(90 288.995 434.995)"/><ellipse fill="#fff" rx="9.15" ry="6.92" transform="rotate(89.9 438.127 585.138)"/><ellipse fill="#fff" rx="9.22" ry="6.31" transform="rotate(90.1 493.707 638.572)"/><ellipse fill="#fff" rx="9.16" ry="6.92" transform="rotate(89.9 524.122 671.293)"/><path fill="#fff" d="M1261.74 143.83a.19.19 0 0 1-.19-.19v-.12a6.69 6.51-.1 0 1 6.67-6.52h.34a6.69 6.51-.1 0 1 6.71 6.5v.12a.19.19 0 0 1-.19.19l-13.34.02Z"/><path fill="#fff" d="M694.97 137.97a.46.46 0 0 1 .46-.46l5.52-.02a4.3 3.17-.2 0 1 4.31 3.15v.46a4.3 3.17-.2 0 1-4.29 3.19l-5.52.02a.46.46 0 0 1-.46-.46l-.02-5.88Z"/><path fill="#fff" d="M451.74 143.45a.46.46 0 0 1 .46-.46l9.36.01a5.7 5.05.1 0 1 5.69 5.06v.9a5.7 5.05.1 0 1-5.71 5.04l-9.36-.01a.46.46 0 0 1-.46-.46l.02-10.08Z"/><path fill="#fff" d="M919.21 154.45q-5.24 1.93-7.54-.63c-1.78-1.97-.76-5.62 1.9-6.01q4.54-.66 7.25-1.48 2.58-.78 2.02 1.86l-.58 2.74a4.84 4.83 86 0 1-3.05 3.52Z"/><path fill="#fff" d="M956.75 147.23a.5.5 0 0 1 .5-.5l5.33.01a5.19 3.58.1 0 1 5.18 3.59v.62a5.19 3.58.1 0 1-5.2 3.57l-5.33-.01a.5.5 0 0 1-.5-.5l.02-6.78Z"/><path fill="#fff" d="M694.98 147.85a.33.33 0 0 1 .33-.33l6.67-.04a4.26 3.34-.3 0 1 4.28 3.32v.34a4.26 3.34-.3 0 1-4.24 3.36l-6.67.04a.33.33 0 0 1-.33-.33l-.04-6.36Z"/><rect width="4.24" height="4.24" x="1313.25" y="153.5" rx=".45"/><path d="M1969.78 212.22a13.28 13.28 0 0 1-13.28 13.28h-203.48a13.28 13.28 0 0 1-13.28-13.28v-27.68a13.28 13.28 0 0 1 13.28-13.28h203.48a13.28 13.28 0 0 1 13.28 13.28v27.68Zm-153.53 11.25q68.67.07 137.33-.01c9.05-.01 14.2-3.46 14.18-13.08q-.02-11.84 0-23.69c.01-4.92-.46-7.9-4.29-10.68q-3.76-2.73-7.47-2.74-67.36-.06-134.82.01-32.28-.09-64.64.01c-6.77.02-14.69 2.37-14.72 10.72q-.03 13.17-.07 26.41c-.02 5.41 1.19 9.11 5.87 11.57q2.71 1.43 9.18 1.46 29.71.12 59.45.02Z"/><path fill="silver" d="m1821.18 173.28 4.45.43q.19.02.23.21.02.13-.05.25-.06.09-.17.11-.22.04-.26-.21a.13.13 0 0 0-.26.02v17.41q0 .26-.19.39-.36.25-.55-.15-.43-.89-.92-.53c-4.32-2.77-13.48-3.34-14.81 3.28q-.12.58.47.65l2.17.23q.44.05.6-.37 1.6-4.22 7.37-1.94.98.39 1.34 1.39l.12.34a1.54 1.54 0 0 1-1.11 2.02c-3.7.83-10.54.46-11.54 5.44-1.06 5.3 3.78 6.82 8.01 6.5l1.55.44q.49.14.49.64l.01 12.7q0 .46-.45.57l-1.43.37q-29.74.1-59.45-.02-6.47-.03-9.18-1.46c-4.68-2.46-5.89-6.16-5.87-11.57q.04-13.24.07-26.41c.03-8.35 7.95-10.7 14.72-10.72q32.36-.1 64.64-.01Zm-20.79 21.48q-.09-.04-.02-.11 3.12-3.29 2.75-6.63c-1.02-9.16-15.93-8.36-16.79 2.07q-.01.2.19.24l2.98.54a.3.29 8 0 0 .35-.26q.41-4.92 4.3-5.72c7.09-1.47 7.89 9.62-.34 8.55a.27.27 0 0 0-.31.27l.01 2.57q0 .32.31.27c6.51-1.01 10.66 6.45 3.85 9.04-3.56 1.36-7.27-.73-8.24-4.74q-.13-.56-.7-.46l-2.5.48q-.55.11-.39.65 2.55 8.22 10.89 7.37c7.44-.76 11.51-10.64 3.66-14.13Z"/><path fill="#d9d9d9" d="M1821.18 173.28q67.46-.07 134.82-.01 3.71.01 7.47 2.74c3.83 2.78 4.3 5.76 4.29 10.68q-.02 11.85 0 23.69c.02 9.62-5.13 13.07-14.18 13.08q-68.66.08-137.33.01l1.43-.37q.45-.11.45-.57l-.01-12.7q0-.5-.49-.64l-1.55-.44 4.27-2q.5-.23.72.27.99 2.25 3.64 1.39.47-.15.31-.62-.88-2.47-.78-3.79.53-6.76-.78-12.79.49-.36.92.53.19.4.55.15.19-.13.19-.39v-17.41a.13.13 0 0 1 .26-.02q.04.25.26.21.11-.02.17-.11.07-.12.05-.25-.04-.19-.23-.21l-4.45-.43Zm27.52 33.53c4.47 3.84 10.39 1.53 12.12-3.78 1.62-4.96.61-11.55-4.83-13.46q-3.99-1.4-7.44 2.17-.41.43-.43-.17-.03-.82.14-1.38.22-.7-.52-.7h-1.99q-.76 0-.76.76v25.01a.51.51 0 0 0 .52.51l2.24-.01q.51-.01.51-.51v-8.24q-.01-.59.44-.2Zm-12.47-8.44c1.99-1.41 2.45-3.75 3.33-5.91a.97.94 3.5 0 1 .65-.56q.87-.23 1.77-.13a.25.25 0 0 0 .27-.25l.01-1.59q0-.32-.31-.38c-6.71-1.24-4.43 7.71-8.89 8.2q-.54.06-.55-.49l-.01-7.51a.26.25 90 0 0-.25-.26h-2.5q-.51 0-.51.51l-.02 18.23a.26.26 0 0 0 .26.26l2.76.03a.27.26 0 0 0 .27-.26v-7.98q0-.39.39-.37 1.37.07 1.93 1.05 2.2 3.84 4.31 7.31.14.24.43.24h3.13a.2.19 75 0 0 .16-.29c-2.32-3.96-3.78-7.46-6.61-9.19q-.51-.31-.02-.66Zm32.53-2.39V190q0-.51-.51-.51H1866q-.51 0-.51.51v17.97q0 .47.47.48 6.83.19 9.04.02c7.36-.58 8.38-10.02.99-11.69q-1.59-.36-6.7-.28-.53 0-.53-.52Zm18-6.2a.29.29 0 0 0-.29-.29h-2.68a.29.29 0 0 0-.29.29v18.42a.29.29 0 0 0 .29.29h2.68a.29.29 0 0 0 .29-.29v-18.42Zm9.14 2.72a.35.35 0 0 1 .35.35l-.02 15.28a.35.35 0 0 0 .35.35l2.57.03a.35.35 0 0 0 .35-.35v-15.31a.35.35 0 0 1 .35-.35h5.56a.35.35 0 0 0 .35-.35v-2.3a.35.35 0 0 0-.35-.35l-15.06-.01a.35.35 0 0 0-.35.35l-.01 2.31a.35.35 0 0 0 .35.35h5.56Zm16.1 3.49v-6.24a.25.25 0 0 0-.25-.25H1909q-.25 0-.25.25v18.23q0 .44.44.46 6.05.23 8.8-.02c7.06-.64 8.01-9.67 1.17-11.59q-1.46-.42-6.63-.32-.52.01-.53-.52Z"/><path d="M1800.39 194.76c7.85 3.49 3.78 13.37-3.66 14.13q-8.34.85-10.89-7.37-.16-.54.39-.65l2.5-.48q.57-.1.7.46c.97 4.01 4.68 6.1 8.24 4.74 6.81-2.59 2.66-10.05-3.85-9.04q-.31.05-.31-.27l-.01-2.57a.27.27 0 0 1 .31-.27c8.23 1.07 7.43-10.02.34-8.55q-3.89.8-4.3 5.72a.3.29 8 0 1-.35.26l-2.98-.54q-.2-.04-.19-.24c.86-10.43 15.77-11.23 16.79-2.07q.37 3.34-2.75 6.63-.07.07.02.11Z"/><path d="M1823.46 191.21q1.31 6.03.78 12.79-.1 1.32.78 3.79.16.47-.31.62-2.65.86-3.64-1.39-.22-.5-.72-.27l-4.27 2c-4.23.32-9.07-1.2-8.01-6.5 1-4.98 7.84-4.61 11.54-5.44a1.54 1.54 0 0 0 1.11-2.02l-.12-.34q-.36-1-1.34-1.39-5.77-2.28-7.37 1.94-.16.42-.6.37l-2.17-.23q-.59-.07-.47-.65c1.33-6.62 10.49-6.05 14.81-3.28Zm-12.19 11.72c-.75 4.47 10.53 3.76 9.42-2.87q-.06-.36-.42-.29l-7.03 1.18a2.41 2.41 0 0 0-1.97 1.98Z"/><path d="M1848.26 207.01v8.24q0 .5-.51.51l-2.24.01a.51.51 0 0 1-.52-.51v-25.01q0-.76.76-.76h1.99q.74 0 .52.7-.17.56-.14 1.38.02.6.43.17 3.45-3.57 7.44-2.17c5.44 1.91 6.45 8.5 4.83 13.46-1.73 5.31-7.65 7.62-12.12 3.78q-.45-.39-.44.2Zm4.822-1.162a6.82 5.1 91.5 0 0 5.276-6.685 6.82 5.1 91.5 0 0-4.92-6.95 6.82 5.1 91.5 0 0-5.276 6.684 6.82 5.1 91.5 0 0 4.92 6.95Z"/><path d="M1836.25 199.03c2.83 1.73 4.29 5.23 6.61 9.19a.2.19 75 0 1-.16.29h-3.13q-.29 0-.43-.24-2.11-3.47-4.31-7.31-.56-.98-1.93-1.05-.39-.02-.39.37v7.98a.27.26 0 0 1-.27.26l-2.76-.03a.26.26 0 0 1-.26-.26l.02-18.23q0-.51.51-.51h2.5a.26.25-90 0 1 .25.26l.01 7.51q.01.55.55.49c4.46-.49 2.18-9.44 8.89-8.2q.31.06.31.38l-.01 1.59a.25.25 0 0 1-.27.25q-.9-.1-1.77.13a.97.94 3.5 0 0-.65.56c-.88 2.16-1.34 4.5-3.33 5.91q-.49.35.02.66Z"/><path d="M1869.29 196.5q5.11-.08 6.7.28c7.39 1.67 6.37 11.11-.99 11.69q-2.21.17-9.04-.02-.47-.01-.47-.48V190q0-.51.51-.51h2.25q.51 0 .51.51v5.98q0 .52.53.52Zm-.54 3.42v5.16a.42.42 0 0 0 .42.42h4.31a4.29 2.83 0 0 0 4.29-2.83v-.34a4.29 2.83 0 0 0-4.29-2.83h-4.31a.42.42 0 0 0-.42.42Z"/><rect width="3.26" height="19" x="1883.5" y="189.49" rx=".29"/><path d="M1895.9 192.5h-5.56a.35.35 0 0 1-.35-.35l.01-2.31a.35.35 0 0 1 .35-.35l15.06.01a.35.35 0 0 1 .35.35v2.3a.35.35 0 0 1-.35.35h-5.56a.35.35 0 0 0-.35.35v15.31a.35.35 0 0 1-.35.35l-2.57-.03a.35.35 0 0 1-.35-.35l.02-15.28a.35.35 0 0 0-.35-.35Z"/><path d="M1912.53 196.51q5.17-.1 6.63.32c6.84 1.92 5.89 10.95-1.17 11.59q-2.75.25-8.8.02-.44-.02-.44-.46v-18.23q0-.25.25-.25h2.75a.25.25 0 0 1 .25.25v6.24q.01.53.53.52Zm-.54 3.38.02 5.22a.4.4 0 0 0 .4.4l4.07-.01a4.05 2.81-.2 0 0 4.04-2.82v-.4a4.05 2.81-.2 0 0-4.06-2.8l-4.07.01a.4.4 0 0 0-.4.4Z"/><ellipse fill="#d9d9d9" rx="6.82" ry="5.1" transform="rotate(91.5 829.687 1002.198)"/><path fill="silver" d="M1820.69 200.06c1.11 6.63-10.17 7.34-9.42 2.87a2.41 2.41 0 0 1 1.97-1.98l7.03-1.18q.36-.07.42.29Z"/><path fill="#d9d9d9" d="M1868.75 199.92a.42.42 0 0 1 .42-.42h4.31a4.29 2.83 0 0 1 4.29 2.83v.34a4.29 2.83 0 0 1-4.29 2.83h-4.31a.42.42 0 0 1-.42-.42v-5.16Z"/><path fill="#d9d9d9" d="M1911.99 199.89a.4.4 0 0 1 .4-.4l4.07-.01a4.05 2.81-.2 0 1 4.06 2.8v.4a4.05 2.81-.2 0 1-4.04 2.82l-4.07.01a.4.4 0 0 1-.4-.4l-.02-5.22Z"/></svg>