<svg xmlns="http://www.w3.org/2000/svg" xml:space="preserve" width="300" height="555" fill-rule="evenodd" clip-rule="evenodd" image-rendering="optimizeQuality" shape-rendering="geometricPrecision" text-rendering="geometricPrecision"><defs><clipPath id="a"><path d="M.5.97h299v554.05H.5V.97z"/></clipPath></defs><path fill="#E6E6E6" d="M.5.97h299v554.05H.5z"/><g clip-path="url(#a)"><path fill="#fff" d="M-9.88-1.25H308v36.71H-9.88z"/></g><path fill="none" stroke="#333" stroke-miterlimit="22.926" d="M.5.97h299v554.05H.5z"/><path fill="#fff" stroke="#333" stroke-miterlimit="22.926" d="M55.12 102.75h189.75v37.85H55.12z"/><g fill="#CCC" stroke="#B3B3B3" stroke-miterlimit="22.926"><path d="M55.12 203.95h55.64v37.85H55.12zM189.23 203.95h55.64v37.85h-55.64zM122.18 203.95h55.64v37.85h-55.64zM55.12 251.94h55.64v37.85H55.12zM189.23 251.94h55.64v37.85h-55.64zM122.18 251.94h55.64v37.85h-55.64zM55.12 299.94h55.64v37.85H55.12zM189.23 299.94h55.64v37.85h-55.64zM122.18 299.94h55.64v37.85h-55.64zM55.12 344.93h55.64v37.85H55.12zM189.23 344.93h55.64v37.85h-55.64zM122.18 344.93h55.64v37.85h-55.64zM189.23 390.78h55.64v37.85h-55.64z"/></g><path fill="#CCC" stroke="#999" stroke-miterlimit="22.926" d="M55.12 483.61h72.33v29.61H55.12zM159.94 483.61h99.29v29.61h-99.29z"/><g fill="none" stroke="#333" stroke-miterlimit="22.926" stroke-width="2.36"><path d="m278.06 10.31 11.65 11.68M289.71 10.31l-11.65 11.68"/></g><text x="150" y="277.5" font-family="Arial" font-size="13.62" transform="matrix(.99838 0 0 1 -139.643 -252.292)">Ввод значений</text><text x="150" y="277.5" font-family="Arial" font-size="24.9" font-weight="bold" transform="matrix(.99838 0 0 1 -85.408 -146.314)">0</text><text x="150" y="277.5" font-family="Arial" font-size="24.9" font-weight="bold" transform="matrix(.99838 0 0 1 -73.855 -45.61)">1</text><text x="150" y="277.5" font-family="Arial" font-size="24.9" font-weight="bold" transform="matrix(.99838 0 0 1 -73.855 2.385)">4</text><text x="150" y="277.5" font-family="Arial" font-size="24.9" font-weight="bold" transform="matrix(.99838 0 0 1 -73.855 51.236)">7</text><text x="150" y="277.5" font-family="Arial" font-size="24.9" font-weight="bold" transform="matrix(.99838 0 0 1 -73.855 95.805)">0</text><text x="150" y="277.5" font-family="Arial" font-size="24.9" font-weight="bold" transform="matrix(.99838 0 0 1 -7.113 -45.61)">2</text><text x="150" y="277.5" font-family="Arial" font-size="24.9" font-weight="bold" transform="matrix(.99838 0 0 1 -7.113 2.385)">5</text><text x="150" y="277.5" font-family="Arial" font-size="24.9" font-weight="bold" transform="matrix(.99838 0 0 1 -7.113 51.236)">8</text><text x="150" y="277.5" font-family="Arial" font-size="24.9" font-weight="bold" transform="matrix(.99838 0 0 1 60.91 -45.61)">3</text><text x="150" y="277.5" font-family="Arial" font-size="24.9" font-weight="bold" transform="matrix(.99838 0 0 1 60.91 2.385)">6</text><text x="150" y="277.5" font-family="Arial" font-size="24.9" font-weight="bold" transform="matrix(.99838 0 0 1 60.91 51.236)">9</text><text x="150" y="277.5" font-family="Arial" font-size="24.9" font-weight="bold" transform="matrix(.99838 0 0 1 50.215 95.805)">Ca</text><text x="150" y="277.5" font-family="Arial" font-size="21" transform="matrix(.99838 0 0 1 -73.439 227.894)">ОК</text><text x="150" y="277.5" font-family="Arial" font-size="21" transform="matrix(.99838 0 0 1 21.968 227.466)">Отмена</text><text x="150" y="277.5" font-family="Arial" font-size="24.9" font-weight="bold" transform="matrix(.99838 0 0 1 -10.65 95.805)">C</text></svg>