<svg xmlns="http://www.w3.org/2000/svg" xml:space="preserve" width="900" height="885" fill-rule="evenodd" clip-rule="evenodd" image-rendering="optimizeQuality" shape-rendering="geometricPrecision" text-rendering="geometricPrecision"><defs><linearGradient id="b" x1="654.48" x2="654.48" y1="687.18" y2="731.99" gradientUnits="userSpaceOnUse"><stop offset="0" stop-color="#D4D4D4"/><stop offset="1" stop-color="#B0B0B0"/></linearGradient><linearGradient id="c" x1="719.04" x2="719.04" y1="687.18" y2="731.99" gradientUnits="userSpaceOnUse"><stop offset="0" stop-color="#D4D4D4"/><stop offset="1" stop-color="#B0B0B0"/></linearGradient><linearGradient id="d" x1="783.22" x2="783.22" y1="687.18" y2="731.99" gradientUnits="userSpaceOnUse"><stop offset="0" stop-color="#D4D4D4"/><stop offset="1" stop-color="#B0B0B0"/></linearGradient><linearGradient id="e" x1="848.54" x2="848.54" y1="687.18" y2="731.99" gradientUnits="userSpaceOnUse"><stop offset="0" stop-color="#D4D4D4"/><stop offset="1" stop-color="#B0B0B0"/></linearGradient><linearGradient id="f" x1="865.18" x2="889.41" y1="24.56" y2="24.56" gradientUnits="userSpaceOnUse"><stop offset="0" stop-color="#900"/><stop offset="1" stop-color="#FF8787"/></linearGradient><clipPath id="a"><path d="M0 .5h900v885H0V.5z"/></clipPath></defs><path fill="#BEBEBE" d="M0 .5h900v885H0z"/><g clip-path="url(#a)"><path fill="#0E0F96" d="M-23.69-20.11h948.9v70.19h-948.9z"/></g><path fill="none" stroke="#000" stroke-miterlimit="22.926" stroke-width="2.36" d="M0 .5h900v885H0z"/><path fill="#0E0F96" stroke="#000" stroke-miterlimit="22.926" stroke-width="2.36" d="M18.22 66.99h783.32v300.29H18.22z"/><path fill="#0E0F96" stroke="#000" stroke-miterlimit="22.926" stroke-width="2.36" d="M43.66 455.63h760.05v24.41H43.66z"/><path fill="#B2CCFF" stroke="#000" stroke-miterlimit="22.926" stroke-width="2.36" d="M16.92 455.63h26.74v24.41H16.92z"/><path fill="#0E0F96" stroke="#000" stroke-miterlimit="22.926" stroke-width="2.36" d="M43.66 480.04h760.05v24.41H43.66z"/><path fill="#9A2B85" stroke="#000" stroke-miterlimit="22.926" stroke-width="2.36" d="M16.92 480.04h26.74v24.41H16.92z"/><path fill="#0E0F96" stroke="#000" stroke-miterlimit="22.926" stroke-width="2.36" d="M43.66 504.45h760.05v24.41H43.66z"/><path fill="#E868BA" stroke="#000" stroke-miterlimit="22.926" stroke-width="2.36" d="M16.92 504.45h26.74v24.41H16.92z"/><path fill="#0E0F96" stroke="#000" stroke-miterlimit="22.926" stroke-width="2.36" d="M43.66 528.87h760.05v24.41H43.66z"/><path fill="#D7F3FF" stroke="#000" stroke-miterlimit="22.926" stroke-width="2.36" d="M16.92 528.87h26.74v24.41H16.92z"/><path fill="#0E0F96" stroke="#000" stroke-miterlimit="22.926" stroke-width="2.36" d="M43.66 553.28h760.05v24.41H43.66z"/><path fill="#0189A5" stroke="#000" stroke-miterlimit="22.926" stroke-width="2.36" d="M16.92 553.28h26.74v24.41H16.92z"/><path fill="#0E0F96" stroke="#000" stroke-miterlimit="22.926" stroke-width="2.36" d="M43.66 577.7h760.05v24.41H43.66z"/><path fill="#01DCFF" stroke="#000" stroke-miterlimit="22.926" stroke-width="2.36" d="M16.92 577.7h26.74v24.41H16.92z"/><path fill="#0E0F96" stroke="#000" stroke-miterlimit="22.926" stroke-width="2.36" d="M43.66 601.73h760.05v24.41H43.66z"/><path fill="#0186F0" stroke="#000" stroke-miterlimit="22.926" stroke-width="2.36" d="M16.92 601.73h26.74v24.41H16.92z"/><path fill="#fff" stroke="#000" stroke-miterlimit="22.926" stroke-width="2.36" d="M426.05 455.63H547.9v24.41H426.05z"/><path fill="#fff" stroke="#000" stroke-miterlimit="22.926" stroke-width="2.36" d="M426.05 480.04H547.9v24.41H426.05z"/><path fill="#fff" stroke="#000" stroke-miterlimit="22.926" stroke-width="2.36" d="M426.05 504.45H547.9v24.41H426.05z"/><path fill="#fff" stroke="#000" stroke-miterlimit="22.926" stroke-width="2.36" d="M426.05 528.87H547.9v24.41H426.05z"/><path fill="#fff" stroke="#000" stroke-miterlimit="22.926" stroke-width="2.36" d="M426.05 553.28H547.9v24.41H426.05z"/><path fill="#fff" stroke="#000" stroke-miterlimit="22.926" stroke-width="2.36" d="M426.05 577.7H547.9v24.41H426.05z"/><path fill="#fff" stroke="#000" stroke-miterlimit="22.926" stroke-width="2.36" d="M426.05 601.73H547.9v24.41H426.05z"/><path fill="#fff" stroke="#1A1A1A" stroke-miterlimit="22.926" stroke-width="2.36" d="M318.89 703.2H469.4v44.81H318.89z"/><path fill="#fff" stroke="#1A1A1A" stroke-miterlimit="22.926" stroke-width="2.36" d="M540.45 687.18h81.37v44.81h-81.37z"/><path fill="url(#b)" stroke="#1A1A1A" stroke-miterlimit="22.926" stroke-width="2.36" d="M622.2 687.18h64.56v44.81H622.2z"/><path fill="url(#c)" stroke="#1A1A1A" stroke-miterlimit="22.926" stroke-width="2.36" d="M686.76 687.18h64.56v44.81h-64.56z"/><path fill="url(#d)" stroke="#1A1A1A" stroke-miterlimit="22.926" stroke-width="2.36" d="M750.94 687.18h64.56v44.81h-64.56z"/><path fill="url(#e)" stroke="#1A1A1A" stroke-miterlimit="22.926" stroke-width="2.36" d="M816.26 687.18h64.56v44.81h-64.56z"/><path fill="#fff" stroke="#1A1A1A" stroke-miterlimit="22.926" stroke-width="2.36" d="M651.23 808.28h116.13v26.91H651.23z"/><path fill="#fff" stroke="#1A1A1A" stroke-miterlimit="22.926" stroke-width="2.36" d="M334.17 829.64h148.22v37.38H334.17z"/><path fill="#fff" stroke="#1A1A1A" stroke-miterlimit="22.926" stroke-width="2.36" d="M72.12 811.33h142.1v49.59H72.12z"/><path fill="#fff" stroke="#1A1A1A" stroke-miterlimit="22.926" stroke-width="2.36" d="M182.13 674.77h86.34v37.39h-86.34z"/><path fill="#fff" stroke="#1A1A1A" stroke-miterlimit="22.926" stroke-width="2.36" d="M167.62 718.26h100.85v37.39H167.62z"/><path fill="none" stroke="#D7F3FF" stroke-miterlimit="22.926" stroke-width="4" d="M18.26 146.43h741.09"/><path fill="none" stroke="#D7F3FF" stroke-miterlimit="22.926" stroke-width="4" d="M802.51 131.93h-27.12l-28.65-28.61s-10.31 2.67-10.7 9.16c-.38 6.48 0 34.33 0 34.33"/><path fill="none" stroke="#0189A5" stroke-miterlimit="22.926" stroke-width="4" d="M792.97 150.44h-22.73v11.82h-24.83v39.29h-39.16"/><path fill="none" stroke="#01DCFF" stroke-miterlimit="22.926" stroke-width="4" d="M802.13 244.85h-32.47l-24.18 13.94H17.88"/><path fill="none" stroke="#0186F0" stroke-miterlimit="22.926" stroke-width="4" d="M802.33 297.12H18.07"/><text x="450" y="442.5" font-family="Arial" font-size="21.65" transform="matrix(1.00141 0 0 1 105.165 274.153)">Стоп</text><path stroke="#000" stroke-miterlimit="22.926" stroke-width="2.36" d="m642.07 710.33 6.52-5.19 6.53-5.2v20.79l-6.53-5.2z"/><path stroke="#000" stroke-miterlimit="22.926" stroke-width="2.36" d="m653.56 710.33 6.52-5.19 6.53-5.2v20.79l-6.53-5.2z"/><path stroke="#000" stroke-miterlimit="22.926" stroke-width="2.36" d="m864.49 710.33-6.53-5.19-6.53-5.2v20.79l6.53-5.2z"/><path stroke="#000" stroke-miterlimit="22.926" stroke-width="2.36" d="m853 710.33-6.53-5.19-6.52-5.2v20.79l6.52-5.2z"/><path stroke="#000" stroke-miterlimit="22.926" stroke-width="2.36" d="m710.09 710.33 6.53-5.19 6.53-5.2v20.79l-6.53-5.2z"/><path stroke="#000" stroke-miterlimit="22.926" stroke-width="2.36" d="m794.93 710.33-6.52-5.19-6.53-5.2v20.79l6.53-5.2z"/><text x="450" y="442.5" font-family="Arial" font-size="21.65" transform="matrix(1.00141 0 0 1 274.012 387.068)">1</text><text x="450" y="442.5" font-family="Arial" font-size="21.65" transform="matrix(1.00141 0 0 1 -75.14 289.413)">ТТГ</text><path fill="none" stroke="#0189A5" stroke-miterlimit="22.926" stroke-width="4" d="M467.01 198.86h63.03"/><path fill="none" stroke="#0189A5" stroke-miterlimit="22.926" stroke-width="4" d="M391.37 198.86h27.12"/><path fill="none" stroke="#0189A5" stroke-miterlimit="22.926" stroke-width="4" d="M350.88 198.86h18.34"/><path fill="none" stroke="#0189A5" stroke-miterlimit="22.926" stroke-width="4" d="M53.3 198.86h258.99"/><g stroke-miterlimit="22.926"><rect width="24.23" height="23.97" x="865.18" y="12.58" fill="url(#f)" stroke="#900" rx=".47" ry=".86"/><g fill="none" stroke="#fff" stroke-width="4"><path d="m871.92 18.74 10.7 10.2"/><path d="m882.62 18.74-10.7 10.2"/></g></g><text x="450" y="442.5" fill="#fff" font-family="Arial" font-size="21.65" font-weight="bold" transform="matrix(1.00141 0 0 1 -406.72 -406.384)">Регулирование расхода природного газа на печь </text><text x="450" y="442.5" font-family="Arial" font-size="21.65" font-weight="bold" transform="matrix(1.00141 0 0 1 -318.86 402.327)">...</text><text x="450" y="442.5" font-family="Arial" font-size="21.65" transform="matrix(1.00141 0 0 1 -421.236 257.369)">ТТГ</text><text x="450" y="442.5" font-family="Arial" font-size="21.65" transform="matrix(1.00141 0 0 1 -82.78 414.533)">Отмена</text></svg>