<svg xmlns="http://www.w3.org/2000/svg" xml:space="preserve" width="550" height="475" fill-rule="evenodd" clip-rule="evenodd" image-rendering="optimizeQuality" shape-rendering="geometricPrecision" text-rendering="geometricPrecision"><defs><clipPath id="a"><path d="M17.16.5h515.69C542.28.5 550 8.22 550 17.66v440.69c0 9.43-7.72 17.15-17.15 17.15H17.16C7.72 475.5 0 467.78 0 458.35V17.66C0 8.22 7.72.5 17.16.5z"/></clipPath><clipPath id="b"><path d="M274.94 364.07h46.47v30.46h-46.47v-30.46z"/></clipPath><linearGradient id="c" x1="501.67" x2="534.71" y1="22.7" y2="22.7" gradientUnits="userSpaceOnUse"><stop offset="0" stop-color="#900"/><stop offset="1" stop-color="#FF8787"/></linearGradient></defs><path fill="#BEBEBE" d="M17.16.5h515.69C542.28.5 550 8.22 550 17.66v440.69c0 9.43-7.72 17.15-17.15 17.15H17.16C7.72 475.5 0 467.78 0 458.35V17.66C0 8.22 7.72.5 17.16.5z"/><g clip-path="url(#a)"><path fill="#859EC3" d="M-32.09-24.3h669.46v66.13H-32.09z"/></g><path fill="none" stroke="#000" stroke-miterlimit="22.926" stroke-width="2.36" d="M17.16.5h515.69C542.28.5 550 8.22 550 17.66v440.69c0 9.43-7.72 17.15-17.15 17.15H17.16C7.72 475.5 0 467.78 0 458.35V17.66C0 8.22 7.72.5 17.16.5z"/><path fill="#01F322" d="M328.57 159.43h136.5v64.6h-136.5z"/><path fill="#01F322" d="M328.57 93.99h200.44v64.6H328.57z"/><path fill="#01F322" d="M395.95 291.87h68.79v60.96h-68.79z"/><path fill="#FF381B" d="M327.2 291.87h67.75v60.96H327.2z"/><path fill="#FF381B" d="M466.76 291.87h62.94v60.96h-62.94z"/><path fill="gray" d="M328.57 225.9h199.76v64.6H328.57z"/><path fill="none" stroke="#000" stroke-miterlimit="22.926" stroke-width="2.36" d="M15.13 93.63h514.25v319.6H15.13z"/><path fill="none" stroke="#000" stroke-miterlimit="22.926" stroke-width="2.36" d="M68.75 411.86V93.63"/><path fill="none" stroke="#000" stroke-miterlimit="22.926" stroke-width="2.36" d="M270.19 95.01v317.88"/><path fill="none" stroke="#000" stroke-miterlimit="22.926" stroke-width="2.36" d="M327.94 95.01v317.88"/><path fill="none" stroke="#000" stroke-miterlimit="22.926" stroke-width="2.36" d="M528.69 159.07H326.56"/><path fill="none" stroke="#000" stroke-miterlimit="22.926" stroke-width="2.36" d="M528.69 225.19H69.44"/><path fill="none" stroke="#000" stroke-miterlimit="22.926" stroke-width="2.36" d="M528.69 290.63H14.79"/><path fill="none" stroke="#000" stroke-miterlimit="22.926" stroke-width="2.36" d="M528.69 351.93H15.48"/><path fill="none" stroke="#000" stroke-miterlimit="22.926" stroke-width="2.36" d="M395.31 93.63v318.23"/><path fill="none" stroke="#000" stroke-miterlimit="22.926" stroke-width="2.36" d="M465.44 93.63v318.23"/><path fill="#fff" d="M274.94 364.07h46.47v30.46h-46.47z"/><g clip-path="url(#b)"><path fill="none" stroke="#999" stroke-miterlimit="22.926" stroke-width="2" d="M276.16 394.31v-29.28h45.01"/></g><path fill="none" stroke="#000" stroke-miterlimit="22.926" d="M274.94 364.07h46.47v30.46h-46.47z"/><text x="254.55" y="237.5" font-family="Arial" font-size="18.39" transform="matrix(.99692 0 0 1 39.804 150.047)">27</text><text x="275" y="237.5" font-family="Arial" font-size="18.24" transform="matrix(.99692 0 0 1 -140.445 -99.328)">Условия </text><text x="275" y="257.88" font-family="Arial" font-size="18.24" transform="matrix(.99692 0 0 1 -140.445 -99.328)">пересадки</text><text x="275" y="237.5" font-family="Arial" font-size="19.15" transform="matrix(.99692 0 0 1 -148.057 74.142)">Исходное </text><text x="275" y="256.97" font-family="Arial" font-size="19.15" transform="matrix(.99692 0 0 1 -148.057 74.142)">состояние</text><text x="275" y="237.5" font-family="Arial" font-size="19.63" transform="matrix(0 -1 .99692 0 61.97 486.13)">Время</text><text x="275" y="254.82" font-family="Arial" font-size="19.63" transform="matrix(0 -1 .99692 0 61.97 486.13)">шага</text><text x="275" y="237.5" font-family="Arial" font-size="21.76" transform="matrix(0 -1 .99692 0 -190.698 517.905)">№ шага</text><text x="275" y="237.5" font-family="Arial" font-size="21.76" transform="matrix(.99811 0 0 .9988 -238.334 155.683)">1</text><text x="275" y="237.5" font-family="Arial" font-size="19.15" transform="matrix(.99692 0 0 1 -194.464 138.2)">Открыть и сбросить</text><g font-family="Arial" font-size="19.15"><text x="275" y="256.97" transform="matrix(.99692 0 0 1 -194.464 138.2)">клапаны 1</text><text x="377.4" y="256.97" transform="matrix(.99692 0 0 1 -194.464 138.2)">, 1</text><text x="409.35" y="256.97" transform="matrix(.99692 0 0 1 -194.464 138.2)">, 1</text><text x="366.75" y="256.97" transform="matrix(.99692 0 0 1 -194.464 138.2)">0</text><text x="398.7" y="256.97" transform="matrix(.99692 0 0 1 -194.464 138.2)">1</text><text x="430.64" y="256.97" transform="matrix(.99692 0 0 1 -194.464 138.2)">2</text></g><text x="275" y="237.5" font-family="Arial" font-size="15.41" transform="matrix(.99692 0 0 1 62.29 90.383)">Закрыт</text><text x="275" y="237.5" font-family="Arial" font-size="15.41" transform="matrix(.99692 0 0 1 130.01 90.383)">Открыт</text><text x="275" y="237.5" font-family="Arial" font-size="15.41" transform="matrix(.99692 0 0 1 198.933 90.383)">Закрыт</text><text x="275" y="237.5" font-family="Arial" font-size="15.41" transform="matrix(.99692 0 0 1 71.913 -101.793)">110</text><text x="275" y="237.5" font-family="Arial" font-size="15.41" transform="matrix(.99692 0 0 1 144.102 -101.793)">111</text><text x="275" y="237.5" font-family="Arial" font-size="15.41" transform="matrix(.99692 0 0 1 210.789 -101.793)">112</text><text x="275" y="237.5" font-family="Arial" font-size="15" transform="matrix(.99692 0 0 1 69.082 -38.124)">Цикл</text><text x="275" y="237.5" font-family="Arial" font-size="15" transform="matrix(.99692 0 0 1 130.674 -38.034)">Нагрев</text><text x="275" y="237.5" fill="#fff" font-family="Arial" font-size="15.41" font-weight="bold" transform="matrix(.99692 0 0 1 71.913 26.325)">110</text><text x="275" y="237.5" fill="#fff" font-family="Arial" font-size="15.41" font-weight="bold" transform="matrix(.99692 0 0 1 144.102 26.325)">111</text><text x="275" y="237.5" fill="#fff" font-family="Arial" font-size="15.41" font-weight="bold" transform="matrix(.99692 0 0 1 210.789 26.325)">112</text><path fill="gray" stroke="#000" stroke-miterlimit="22.926" d="M14.69 425.77h188.48v32.25H14.69z"/><path fill="gray" stroke="#000" stroke-miterlimit="22.926" d="M258.46 425.77h18.98v32.25h-18.98z"/><path fill="#fff" stroke="#000" stroke-miterlimit="22.926" d="M204.12 425.77h54.11v32.25h-54.11z"/><path fill="#fff" stroke="#000" stroke-miterlimit="22.926" d="M287.41 425.77h74.98v32.25h-74.98z"/><path fill="#fff" stroke="#000" stroke-miterlimit="22.926" d="M363.05 425.77h74.98v32.25h-74.98z"/><path fill="#fff" stroke="#000" stroke-miterlimit="22.926" d="M438.22 425.77h74.98v32.25h-74.98z"/><text x="264.02" y="237.5" font-family="Arial" font-size="19.74" transform="matrix(.99692 0 0 1 -45.31 211.267)">0</text><text x="265.13" y="237.5" font-family="Arial" font-size="19.74" transform="matrix(.99692 0 0 1 -1.384 211.267)">с</text><text x="241.29" y="237.5" font-family="Arial" font-size="15.71" transform="matrix(.99692 0 0 1 66.94 210.248)">Пуск</text><text x="239.38" y="237.5" font-family="Arial" font-size="15.71" transform="matrix(.99692 0 0 1 143.925 210.248)">Стоп</text><text x="229.32" y="237.5" font-family="Arial" font-size="15.71" transform="matrix(.99692 0 0 1 222.267 210.248)">Сброс</text><text x="107.41" y="237.5" font-family="Arial" font-size="16.89" transform="matrix(.99692 0 0 1 -84.564 209.562)">Время до конца шага</text><g stroke-miterlimit="22.926"><rect width="33.04" height="17.61" x="501.67" y="13.89" fill="url(#c)" stroke="#900" rx=".64" ry=".63"/><g fill="none" stroke="#fff" stroke-width="2"><path d="m513.51 17.82 9.28 8.85"/><path d="m522.79 17.82-9.28 8.85"/></g></g><text x="275" y="237.5" font-family="Arial" font-size="20.06" font-weight="bold" transform="matrix(.99692 0 0 1 -228.366 -160.385)">ВН1 Перекидка из Отделения2 в Отделение</text></svg>