<?xml version="1.0" encoding="UTF-8" standalone="no"?>
<!DOCTYPE svg PUBLIC "-//W3C//DTD SVG 1.1//EN" "http://www.w3.org/Graphics/SVG/1.1/DTD/svg11.dtd">
<svg xmlns="http://www.w3.org/2000/svg" version="1.1" viewBox="0.00 0.00 1000.00 250.00">
<path fill="#fcfdff" d="
  M 56.32 104.97
  Q 58.30 98.30 54.56 104.16
  Q 38.85 128.80 31.50 158.25
  C 29.97 164.36 30.39 170.34 29.17 176.31
  C 26.69 188.37 26.52 204.33 33.88 214.91
  A 0.39 0.39 0.0 0 1 33.39 215.48
  C 15.86 206.81 6.23 189.72 10.65 170.44
  Q 13.13 159.61 18.30 150.33
  C 39.79 111.72 67.22 71.79 92.08 36.93
  Q 92.33 36.57 92.36 36.14
  Q 92.46 34.35 94.02 33.28
  A 1.51 1.44 -8.1 0 0 94.55 32.61
  Q 95.81 29.49 97.91 26.89
  A 0.38 0.38 0.0 0 1 98.55 27.30
  L 95.43 33.59
  Q 95.16 34.13 95.17 34.75
  Q 95.19 36.32 93.80 36.90
  Q 93.27 37.12 93.03 37.64
  Q 79.35 67.54 70.68 99.24
  C 68.49 107.24 64.74 121.59 67.80 130.51
  A 1.06 1.05 -1.6 0 0 68.51 131.18
  C 78.64 134.12 89.57 139.51 97.45 145.51
  Q 108.90 154.22 113.94 168.63
  Q 114.24 169.48 113.78 168.71
  Q 99.03 144.00 69.36 143.83
  Q 62.59 143.79 55.44 147.24
  Q 54.96 147.47 54.52 147.18
  C 48.34 143.08 54.43 111.31 56.32 104.97
  Z"
/>
<path fill="#fcfdff" d="
  M 183.39 125.97
  A 0.27 0.27 0.0 0 0 182.95 125.70
  Q 178.51 129.65 172.49 128.52
  C 165.46 127.20 162.62 117.91 169.85 114.69
  C 173.01 113.29 178.38 113.71 182.36 113.64
  Q 182.95 113.63 182.89 113.04
  C 182.11 105.78 173.37 107.22 169.17 109.92
  Q 168.73 110.21 168.48 109.75
  L 166.64 106.34
  Q 166.42 105.93 166.82 105.70
  C 172.44 102.37 183.85 100.80 187.45 107.88
  Q 188.46 109.87 188.49 114.29
  Q 188.54 120.98 188.57 127.70
  Q 188.58 128.30 187.98 128.30
  L 183.43 128.28
  Q 182.80 128.28 182.95 127.67
  L 183.39 125.97
  Z
  M 182.16 117.56
  C 179.66 117.43 172.37 116.79 171.56 119.79
  C 169.76 126.48 184.34 125.84 182.70 118.02
  Q 182.61 117.58 182.16 117.56
  Z"
/>
<path fill="#fcfdff" d="
  M 309.5898 115.8509
  A 13.54 13.00 0.3 0 1 295.9819 128.7798
  A 13.54 13.00 0.3 0 1 282.5102 115.7091
  A 13.54 13.00 0.3 0 1 296.1181 102.7802
  A 13.54 13.00 0.3 0 1 309.5898 115.8509
  Z
  M 295.9564 123.7296
  A 7.98 7.61 90.6 0 0 303.6496 115.8297
  A 7.98 7.61 90.6 0 0 296.1236 107.7704
  A 7.98 7.61 90.6 0 0 288.4304 115.6703
  A 7.98 7.61 90.6 0 0 295.9564 123.7296
  Z"
/>
<path fill="#fcfdff" d="
  M 398.09 118.19
  C 400.04 124.54 408.19 125.08 412.68 121.33
  Q 413.14 120.94 413.54 121.40
  L 416.08 124.40
  Q 416.47 124.85 415.99 125.21
  Q 409.20 130.21 401.83 128.14
  C 395.26 126.30 391.58 121.10 392.27 114.25
  C 393.92 97.81 419.63 99.86 417.83 116.66
  Q 417.72 117.63 416.75 117.63
  L 398.52 117.61
  Q 397.92 117.61 398.09 118.19
  Z
  M 398.23 113.81
  L 412.17 113.83
  A 0.19 0.19 0.0 0 0 412.36 113.64
  L 412.36 113.58
  A 6.98 6.01 0.1 0 0 405.40 107.56
  L 405.04 107.56
  A 6.98 6.01 0.1 0 0 398.04 113.56
  L 398.04 113.62
  A 0.19 0.19 0.0 0 0 398.23 113.81
  Z"
/>
<path fill="#fcfdff" d="
  M 462.02 126.05
  L 462.17 136.77
  Q 462.18 137.48 461.48 137.47
  L 456.90 137.43
  Q 456.25 137.42 456.25 136.76
  L 456.24 103.82
  Q 456.24 103.24 456.81 103.24
  L 461.30 103.24
  A 0.68 0.68 0.0 0 1 461.97 104.06
  L 461.63 105.64
  Q 461.45 106.50 462.13 105.95
  Q 467.96 101.18 474.88 103.64
  C 486.46 107.77 485.59 125.83 472.98 128.41
  Q 467.44 129.54 462.41 125.86
  Q 462.02 125.57 462.02 126.05
  Z
  M 469.5378 123.7000
  A 7.97 7.60 89.8 0 0 477.1100 115.7035
  A 7.97 7.60 89.8 0 0 469.4822 107.7600
  A 7.97 7.60 89.8 0 0 461.9100 115.7565
  A 7.97 7.60 89.8 0 0 469.5378 123.7000
  Z"
/>
<path fill="#fcfdff" d="
  M 492.42 118.13
  C 494.30 124.55 502.28 125.03 506.89 121.35
  Q 507.30 121.02 507.67 121.41
  L 510.24 124.22
  Q 510.78 124.80 510.15 125.28
  C 504.10 129.81 495.45 130.05 490.03 124.76
  C 485.67 120.50 485.31 112.52 489.18 107.69
  C 492.27 103.82 497.44 102.14 502.28 103.17
  C 509.15 104.63 512.52 110.17 512.25 117.04
  A 0.61 0.60 1.0 0 1 511.64 117.62
  L 492.80 117.63
  Q 492.28 117.63 492.42 118.13
  Z
  M 492.51 113.77
  L 506.53 113.75
  A 0.18 0.18 0.0 0 0 506.71 113.57
  L 506.70 113.50
  A 7.10 5.93 -0.1 0 0 499.59 107.58
  L 499.41 107.58
  A 7.10 5.93 -0.1 0 0 492.32 113.52
  L 492.33 113.59
  A 0.18 0.18 0.0 0 0 492.51 113.77
  Z"
/>
<path fill="#fcfdff" d="
  M 583.75 118.08
  C 585.31 124.74 593.73 124.86 598.27 121.32
  Q 598.70 120.98 599.06 121.39
  L 601.64 124.38
  A 0.56 0.56 0.0 0 1 601.54 125.21
  Q 593.69 130.87 585.78 127.55
  C 574.85 122.97 575.00 107.85 585.99 103.70
  C 595.18 100.22 604.36 107.15 603.43 117.02
  A 0.67 0.66 2.3 0 1 602.76 117.63
  L 584.12 117.61
  Q 583.64 117.61 583.75 118.08
  Z
  M 583.79 113.84
  L 597.75 113.80
  A 0.19 0.19 0.0 0 0 597.94 113.60
  L 597.94 113.52
  A 6.99 5.99 -0.2 0 0 590.93 107.56
  L 590.57 107.56
  A 6.99 5.99 -0.2 0 0 583.60 113.58
  L 583.60 113.66
  A 0.19 0.19 0.0 0 0 583.79 113.84
  Z"
/>
<path fill="#fcfdff" d="
  M 623.01 108.03
  C 612.60 105.88 609.76 121.23 619.33 123.40
  Q 624.03 124.46 627.33 120.54
  Q 627.63 120.19 628.03 120.43
  L 631.70 122.60
  A 0.53 0.53 0.0 0 1 631.85 123.39
  Q 625.75 131.04 616.04 127.61
  C 601.02 122.31 607.21 100.51 623.87 103.14
  Q 629.08 103.97 631.72 108.18
  Q 632.03 108.68 631.52 108.98
  L 627.97 111.08
  Q 627.47 111.37 627.12 110.90
  Q 625.41 108.52 623.01 108.03
  Z"
/>
<path fill="#fcfdff" d="
  M 680.98 125.91
  Q 674.05 131.13 667.17 127.12
  Q 663.95 125.23 663.91 121.54
  C 663.80 112.26 674.73 113.86 680.47 113.63
  Q 680.94 113.61 680.94 113.14
  C 680.88 105.81 671.53 107.22 667.49 109.96
  Q 667.03 110.27 666.77 109.78
  L 664.93 106.40
  Q 664.67 105.93 665.13 105.65
  C 670.87 102.28 682.46 100.81 685.82 108.27
  Q 686.73 110.29 686.73 115.39
  Q 686.73 121.55 686.79 127.71
  Q 686.80 128.30 686.22 128.29
  L 681.50 128.28
  Q 680.96 128.28 681.09 127.75
  L 681.48 126.24
  Q 681.71 125.36 680.98 125.91
  Z
  M 670.57 122.94
  C 674.12 126.22 681.79 123.90 680.97 118.02
  Q 680.91 117.53 680.41 117.52
  C 677.75 117.47 672.12 116.82 670.29 119.08
  A 2.83 2.83 0.0 0 0 670.57 122.94
  Z"
/>
<path fill="#fcfdff" d="
  M 789.6195 115.8978
  A 13.50 12.99 0.5 0 1 776.0066 128.7695
  A 13.50 12.99 0.5 0 1 762.6205 115.6622
  A 13.50 12.99 0.5 0 1 776.2334 102.7905
  A 13.50 12.99 0.5 0 1 789.6195 115.8978
  Z
  M 776.0683 123.7099
  A 7.97 7.58 90.3 0 0 783.6899 115.7797
  A 7.97 7.58 90.3 0 0 776.1517 107.7701
  A 7.97 7.58 90.3 0 0 768.5301 115.7003
  A 7.97 7.58 90.3 0 0 776.0683 123.7099
  Z"
/>
<path fill="#fcfdff" d="
  M 879.93 125.90
  C 874.82 130.15 864.48 129.93 862.93 122.14
  Q 862.20 118.44 865.29 115.81
  C 868.54 113.03 875.31 113.74 879.39 113.64
  A 0.84 0.84 0.0 0 0 880.18 112.57
  C 878.26 105.87 870.84 107.13 866.47 109.86
  Q 865.98 110.17 865.70 109.66
  L 863.88 106.37
  Q 863.63 105.92 864.07 105.66
  C 869.59 102.41 880.23 100.92 884.25 107.27
  Q 885.69 109.55 885.73 114.77
  Q 885.77 121.23 885.81 127.71
  Q 885.81 128.30 885.22 128.29
  L 880.67 128.28
  Q 880.04 128.28 880.18 127.67
  L 880.51 126.26
  Q 880.76 125.21 879.93 125.90
  Z
  M 872.38 117.63
  C 865.57 118.08 869.02 126.58 876.27 123.98
  Q 880.50 122.47 880.00 118.05
  Q 879.95 117.56 879.46 117.54
  Q 875.90 117.40 872.38 117.63
  Z"
/>
<path fill="#fcfdff" d="
  M 206.28 121.04
  L 213.58 103.76
  A 0.82 0.80 10.3 0 1 214.32 103.26
  L 218.87 103.20
  Q 219.51 103.19 219.25 103.77
  Q 214.16 115.31 209.35 126.61
  Q 206.29 133.79 203.98 135.76
  Q 199.10 139.93 191.68 135.90
  A 0.61 0.61 0.0 0 1 191.45 135.06
  L 193.43 131.63
  Q 193.71 131.13 194.17 131.48
  C 197.66 134.14 201.62 133.00 202.67 128.64
  A 1.28 1.21 -51.7 0 0 202.60 127.84
  L 192.11 103.76
  Q 191.88 103.24 192.45 103.24
  L 197.36 103.24
  Q 198.01 103.24 198.26 103.83
  L 205.50 121.04
  A 0.42 0.42 0.0 0 0 206.28 121.04
  Z"
/>
<path fill="#fcfdff" d="
  M 642.89 118.60
  L 642.99 127.95
  A 0.34 0.34 0.0 0 1 642.65 128.29
  L 637.37 128.28
  A 0.34 0.34 0.0 0 1 637.03 127.94
  L 637.02 103.58
  A 0.34 0.34 0.0 0 1 637.36 103.24
  L 642.65 103.24
  A 0.34 0.34 0.0 0 1 642.99 103.58
  L 642.91 113.05
  A 0.34 0.34 0.0 0 0 643.24 113.39
  L 647.42 113.49
  A 0.34 0.34 0.0 0 0 647.70 113.35
  L 654.96 103.39
  A 0.34 0.34 0.0 0 1 655.23 103.25
  L 660.72 103.21
  A 0.34 0.34 0.0 0 1 660.99 103.76
  L 652.39 115.08
  A 0.34 0.34 0.0 0 0 652.38 115.49
  L 661.64 127.79
  A 0.34 0.34 0.0 0 1 661.37 128.34
  L 655.26 128.32
  A 0.34 0.34 0.0 0 1 654.99 128.18
  L 647.66 118.39
  A 0.34 0.34 0.0 0 0 647.39 118.25
  L 643.23 118.26
  A 0.34 0.34 0.0 0 0 642.89 118.60
  Z"
/>
<path fill="#fcfdff" d="
  M 741.68 118.79
  L 741.75 127.76
  Q 741.76 128.29 741.24 128.29
  L 736.32 128.30
  Q 735.84 128.30 735.84 127.82
  L 735.84 103.70
  Q 735.84 103.24 736.30 103.24
  L 741.25 103.24
  Q 741.75 103.25 741.75 103.75
  L 741.69 112.81
  Q 741.69 113.43 742.31 113.43
  L 745.86 113.42
  Q 746.42 113.42 746.75 112.97
  L 753.56 103.66
  A 0.99 0.97 17.3 0 1 754.36 103.25
  L 759.70 103.22
  Q 760.24 103.21 759.91 103.64
  L 751.36 114.89
  Q 751.05 115.30 751.36 115.72
  L 760.49 127.81
  Q 760.89 128.35 760.22 128.34
  L 754.46 128.31
  A 1.13 1.12 70.9 0 1 753.57 127.87
  L 746.64 118.67
  Q 746.32 118.25 745.79 118.25
  L 742.21 118.25
  A 0.54 0.54 0.0 0 0 741.68 118.79
  Z"
/>
<path fill="#fcfdff" d="
  M 154.17 113.17
  L 154.04 103.56
  A 0.31 0.31 0.0 0 1 154.35 103.25
  L 159.59 103.24
  A 0.31 0.31 0.0 0 1 159.90 103.55
  L 159.89 127.98
  A 0.31 0.31 0.0 0 1 159.58 128.29
  L 154.38 128.28
  A 0.31 0.31 0.0 0 1 154.07 127.97
  L 154.16 118.69
  A 0.31 0.31 0.0 0 0 153.85 118.38
  L 141.62 118.38
  A 0.31 0.31 0.0 0 0 141.31 118.69
  L 141.43 127.99
  A 0.31 0.31 0.0 0 1 141.12 128.30
  L 135.81 128.29
  A 0.31 0.31 0.0 0 1 135.50 127.98
  L 135.50 103.55
  A 0.31 0.31 0.0 0 1 135.81 103.24
  L 141.10 103.24
  A 0.31 0.31 0.0 0 1 141.41 103.55
  L 141.32 113.17
  A 0.31 0.31 0.0 0 0 141.63 113.48
  L 153.86 113.48
  A 0.31 0.31 0.0 0 0 154.17 113.17
  Z"
/>
<path fill="#fcfdff" d="
  M 238.57 118.73
  C 233.47 120.96 224.84 121.59 222.11 115.61
  C 220.74 112.62 221.24 107.43 221.26 103.76
  Q 221.26 103.24 221.77 103.24
  L 226.71 103.24
  Q 227.19 103.24 227.18 103.72
  C 227.10 106.59 226.32 112.38 228.54 114.34
  C 231.09 116.59 235.80 115.51 238.52 114.43
  Q 238.98 114.25 238.98 113.75
  L 238.92 103.79
  Q 238.92 103.24 239.47 103.24
  L 244.20 103.25
  Q 244.77 103.25 244.77 103.82
  L 244.75 127.70
  Q 244.75 128.29 244.17 128.29
  L 239.35 128.30
  Q 238.90 128.30 238.91 127.85
  L 239.00 119.02
  Q 239.00 118.54 238.57 118.73
  Z"
/>
<path fill="#fcfdff" d="
  M 271.26 113.10
  L 271.13 103.62
  A 0.37 0.37 0.0 0 1 271.49 103.25
  L 276.63 103.24
  A 0.37 0.37 0.0 0 1 277.00 103.61
  L 277.00 127.93
  A 0.37 0.37 0.0 0 1 276.63 128.30
  L 271.50 128.28
  A 0.37 0.37 0.0 0 1 271.14 127.91
  L 271.26 118.75
  A 0.37 0.37 0.0 0 0 270.89 118.37
  L 258.73 118.39
  A 0.37 0.37 0.0 0 0 258.36 118.76
  L 258.49 127.92
  A 0.37 0.37 0.0 0 1 258.12 128.29
  L 252.94 128.29
  A 0.37 0.37 0.0 0 1 252.57 127.92
  L 252.56 103.61
  A 0.37 0.37 0.0 0 1 252.93 103.24
  L 258.12 103.24
  A 0.37 0.37 0.0 0 1 258.49 103.61
  L 258.38 113.11
  A 0.37 0.37 0.0 0 0 258.75 113.48
  L 270.89 113.48
  A 0.37 0.37 0.0 0 0 271.26 113.10
  Z"
/>
<path fill="#fcfdff" d="
  M 351.84 115.37
  C 359.37 118.89 356.12 127.81 348.75 128.19
  Q 342.96 128.49 333.60 128.22
  Q 333.19 128.21 333.19 127.79
  L 333.19 103.93
  Q 333.19 103.34 333.77 103.32
  Q 341.50 103.04 347.48 103.31
  C 353.03 103.56 358.14 108.32 353.63 113.76
  A 0.69 0.66 -84.7 0 1 353.41 113.95
  L 351.83 114.81
  Q 351.29 115.11 351.84 115.37
  Z
  M 338.64 107.84
  L 338.64 113.30
  A 0.41 0.41 0.0 0 0 339.04 113.71
  L 345.65 113.72
  A 3.86 3.00 0.1 0 0 349.52 110.73
  L 349.52 110.45
  A 3.86 3.00 0.1 0 0 345.67 107.44
  L 339.06 107.43
  A 0.41 0.41 0.0 0 0 338.64 107.84
  Z
  M 338.62 117.96
  L 338.65 123.66
  A 0.42 0.42 0.0 0 0 339.07 124.08
  L 346.06 124.04
  A 4.33 3.07 -0.3 0 0 350.37 120.95
  L 350.37 120.55
  A 4.33 3.07 -0.3 0 0 346.02 117.50
  L 339.03 117.54
  A 0.42 0.42 0.0 0 0 338.62 117.96
  Z"
/>
<path fill="#fcfdff" d="
  M 368.31 113.48
  L 380.42 113.48
  A 0.34 0.34 0.0 0 0 380.76 113.14
  L 380.70 103.58
  A 0.34 0.34 0.0 0 1 381.04 103.24
  L 386.19 103.24
  A 0.34 0.34 0.0 0 1 386.53 103.58
  L 386.52 127.95
  A 0.34 0.34 0.0 0 1 386.18 128.29
  L 381.02 128.30
  A 0.34 0.34 0.0 0 1 380.68 127.96
  L 380.78 118.72
  A 0.34 0.34 0.0 0 0 380.44 118.38
  L 368.31 118.38
  A 0.34 0.34 0.0 0 0 367.97 118.72
  L 368.03 127.96
  A 0.34 0.34 0.0 0 1 367.69 128.30
  L 362.55 128.28
  A 0.34 0.34 0.0 0 1 362.21 127.94
  L 362.20 103.58
  A 0.34 0.34 0.0 0 1 362.54 103.24
  L 367.69 103.24
  A 0.34 0.34 0.0 0 1 368.03 103.58
  L 367.97 113.14
  A 0.34 0.34 0.0 0 0 368.31 113.48
  Z"
/>
<path fill="#fcfdff" d="
  M 447.81 123.33
  L 450.50 123.37
  Q 451.13 123.38 451.13 124.01
  L 451.13 133.26
  Q 451.13 133.90 450.49 133.90
  L 446.20 133.89
  Q 445.51 133.89 445.54 133.20
  L 445.71 129.05
  A 0.66 0.65 1.2 0 0 445.05 128.37
  L 426.71 128.37
  A 0.63 0.63 0.0 0 0 426.08 129.03
  L 426.26 133.44
  Q 426.28 133.91 425.81 133.91
  L 421.32 133.89
  Q 420.75 133.89 420.75 133.32
  L 420.74 124.05
  Q 420.74 123.63 421.14 123.56
  Q 425.24 122.84 425.74 118.48
  Q 426.57 111.24 426.59 103.88
  A 0.64 0.64 0.0 0 1 427.23 103.24
  L 446.78 103.24
  Q 447.33 103.24 447.33 103.78
  L 447.30 122.81
  Q 447.30 123.32 447.81 123.33
  Z
  M 431.79 108.64
  C 431.70 113.36 431.91 118.45 429.61 122.73
  Q 429.27 123.38 429.99 123.38
  L 440.95 123.36
  Q 441.50 123.36 441.50 122.80
  L 441.51 108.70
  Q 441.51 108.14 440.95 108.14
  L 432.28 108.16
  A 0.49 0.49 0.0 0 0 431.79 108.64
  Z"
/>
<path fill="#fcfdff" d="
  M 537.27 113.10
  L 537.14 103.62
  A 0.38 0.38 0.0 0 1 537.52 103.24
  L 542.63 103.24
  A 0.38 0.38 0.0 0 1 543.01 103.62
  L 543.01 127.92
  A 0.38 0.38 0.0 0 1 542.63 128.30
  L 537.53 128.28
  A 0.38 0.38 0.0 0 1 537.15 127.90
  L 537.27 118.76
  A 0.38 0.38 0.0 0 0 536.88 118.37
  L 524.76 118.39
  A 0.38 0.38 0.0 0 0 524.39 118.77
  L 524.51 127.91
  A 0.38 0.38 0.0 0 1 524.13 128.30
  L 518.89 128.29
  A 0.38 0.38 0.0 0 1 518.51 127.91
  L 518.51 103.62
  A 0.38 0.38 0.0 0 1 518.89 103.24
  L 524.13 103.24
  A 0.38 0.38 0.0 0 1 524.51 103.62
  L 524.41 113.10
  A 0.38 0.38 0.0 0 0 524.79 113.48
  L 536.89 113.48
  A 0.38 0.38 0.0 0 0 537.27 113.10
  Z"
/>
<path fill="#fcfdff" d="
  M 565.85 118.73
  C 561.32 120.77 553.75 121.49 550.33 117.00
  C 547.97 113.89 548.62 107.90 548.66 103.82
  Q 548.67 103.24 549.24 103.24
  L 553.98 103.24
  Q 554.50 103.24 554.50 103.75
  C 554.53 106.47 553.89 111.64 555.30 113.71
  C 557.37 116.75 562.95 115.64 565.84 114.41
  Q 566.29 114.22 566.28 113.74
  L 566.24 103.75
  Q 566.24 103.24 566.75 103.24
  L 571.68 103.24
  A 0.45 0.44 -0.0 0 1 572.13 103.68
  L 572.13 127.83
  Q 572.13 128.30 571.67 128.30
  L 566.88 128.29
  Q 566.22 128.28 566.23 127.63
  L 566.31 119.03
  Q 566.32 118.52 565.85 118.73
  Z"
/>
<path fill="#fcfdff" d="
  M 709.50 120.72
  L 703.76 120.71
  Q 703.32 120.71 703.08 121.07
  L 698.49 127.93
  A 0.81 0.81 0.0 0 1 697.81 128.30
  L 692.53 128.35
  Q 691.80 128.36 692.23 127.76
  L 697.60 120.38
  Q 697.89 119.99 697.45 119.80
  C 687.82 115.54 692.11 103.63 701.76 103.34
  Q 708.25 103.14 714.77 103.27
  Q 715.25 103.28 715.25 103.76
  L 715.25 127.77
  Q 715.25 128.30 714.73 128.30
  L 710.51 128.29
  Q 709.98 128.28 709.98 127.76
  L 710.01 121.25
  Q 710.02 120.73 709.50 120.72
  Z
  M 710.02 116.23
  L 710.02 108.59
  A 0.46 0.46 0.0 0 0 709.56 108.13
  L 702.76 108.13
  A 4.62 4.09 0.0 0 0 698.14 112.22
  L 698.14 112.60
  A 4.62 4.09 -0.0 0 0 702.76 116.69
  L 709.56 116.69
  A 0.46 0.46 0.0 0 0 710.02 116.23
  Z"
/>
<path fill="#fcfdff" d="
  M 820.02 113.20
  Q 820.03 111.42 819.11 112.95
  L 811.93 124.91
  A 2.06 2.06 0.0 0 1 808.38 124.89
  L 801.16 112.54
  A 0.40 0.40 0.0 0 0 800.41 112.75
  L 800.55 127.75
  Q 800.55 128.30 800.00 128.30
  L 795.75 128.28
  Q 795.22 128.28 795.22 127.75
  L 795.22 103.89
  Q 795.22 103.25 795.86 103.25
  L 800.80 103.24
  Q 801.35 103.23 801.62 103.71
  L 809.94 118.37
  Q 810.30 119.01 810.68 118.38
  L 819.40 103.70
  A 0.98 0.96 15.3 0 1 820.23 103.24
  L 824.74 103.24
  Q 825.24 103.24 825.24 103.74
  L 825.26 127.77
  Q 825.26 128.30 824.73 128.30
  L 820.49 128.29
  Q 819.93 128.29 819.94 127.74
  L 820.02 113.20
  Z"
/>
<path fill="#fcfdff" d="
  M 838.86 108.48
  L 838.91 127.97
  A 0.32 0.32 0.0 0 1 838.59 128.29
  L 833.44 128.28
  A 0.32 0.32 0.0 0 1 833.12 127.96
  L 833.10 103.56
  A 0.32 0.32 0.0 0 1 833.42 103.24
  L 856.86 103.24
  A 0.32 0.32 0.0 0 1 857.18 103.56
  L 857.18 127.98
  A 0.32 0.32 0.0 0 1 856.86 128.30
  L 851.66 128.28
  A 0.32 0.32 0.0 0 1 851.34 127.96
  L 851.40 108.47
  A 0.32 0.32 0.0 0 0 851.08 108.15
  L 839.18 108.16
  A 0.32 0.32 0.0 0 0 838.86 108.48
  Z"
/>
<path fill="#fcfdff" d="
  M 899.12 113.49
  L 911.23 113.48
  A 0.38 0.38 0.0 0 0 911.61 113.10
  L 911.49 103.62
  A 0.38 0.38 0.0 0 1 911.87 103.24
  L 917.04 103.24
  A 0.38 0.38 0.0 0 1 917.42 103.62
  L 917.41 127.91
  A 0.38 0.38 0.0 0 1 917.03 128.29
  L 911.88 128.29
  A 0.38 0.38 0.0 0 1 911.50 127.90
  L 911.62 118.77
  A 0.38 0.38 0.0 0 0 911.25 118.39
  L 899.13 118.37
  A 0.38 0.38 0.0 0 0 898.74 118.76
  L 898.86 127.91
  A 0.38 0.38 0.0 0 1 898.48 128.29
  L 893.38 128.29
  A 0.38 0.38 0.0 0 1 893.00 127.91
  L 892.99 103.62
  A 0.38 0.38 0.0 0 1 893.37 103.24
  L 898.48 103.24
  A 0.38 0.38 0.0 0 1 898.86 103.63
  L 898.74 113.10
  A 0.38 0.38 0.0 0 0 899.12 113.49
  Z"
/>
<path fill="#fcfdff" d="
  M 931.06 118.54
  Q 931.06 119.88 931.91 118.85
  L 944.52 103.71
  Q 944.92 103.23 945.54 103.24
  L 949.64 103.24
  Q 950.30 103.24 950.30 103.89
  L 950.29 127.75
  Q 950.29 128.30 949.75 128.30
  L 944.99 128.29
  Q 944.45 128.29 944.45 127.74
  L 944.57 112.60
  A 0.38 0.38 0.0 0 0 943.89 112.35
  L 931.00 127.89
  Q 930.64 128.32 930.08 128.31
  L 925.82 128.28
  Q 925.25 128.27 925.24 127.69
  L 925.23 103.88
  A 0.65 0.64 -0.5 0 1 925.87 103.24
  L 930.57 103.24
  A 0.57 0.57 0.0 0 1 931.14 103.82
  L 931.06 118.54
  Z"
/>
<path fill="#fcfdff" d="
  M 973.75 120.72
  L 968.02 120.72
  A 1.02 1.01 16.9 0 0 967.18 121.16
  L 962.69 127.85
  A 0.94 0.93 -73.0 0 1 961.91 128.27
  L 956.77 128.34
  Q 956.03 128.35 956.46 127.74
  L 961.68 120.45
  Q 961.98 120.02 961.51 119.80
  Q 956.19 117.25 956.36 112.10
  C 956.56 106.03 961.12 103.48 966.76 103.30
  Q 972.83 103.12 978.94 103.28
  Q 979.38 103.30 979.38 103.74
  L 979.38 127.83
  Q 979.38 128.30 978.92 128.30
  L 974.57 128.28
  Q 974.13 128.28 974.14 127.83
  L 974.27 121.25
  Q 974.28 120.72 973.75 120.72
  Z
  M 974.24 116.19
  L 974.26 108.67
  A 0.54 0.54 0.0 0 0 973.72 108.13
  L 967.02 108.12
  A 4.74 4.07 0.1 0 0 962.27 112.18
  L 962.27 112.64
  A 4.74 4.07 0.1 0 0 967.00 116.72
  L 973.70 116.73
  A 0.54 0.54 0.0 0 0 974.24 116.19
  Z"
/>
<rect fill="#fcfdff" x="313.75" y="112.81" width="12.98" height="4.86" rx="0.39"/>
<path fill="#fcfdff" d="
  M 844.82 147.02
  L 844.71 141.79
  Q 844.70 141.29 845.21 141.29
  L 858.79 141.28
  Q 859.31 141.28 859.29 141.80
  L 859.10 147.25
  A 0.45 0.44 3.3 0 0 859.52 147.71
  Q 878.30 149.10 890.99 160.98
  C 904.98 174.08 906.17 197.40 895.00 212.42
  C 886.77 223.48 873.28 229.46 859.52 230.55
  A 0.42 0.42 0.0 0 0 859.13 230.98
  L 859.29 236.99
  Q 859.30 237.52 858.76 237.52
  L 845.25 237.53
  Q 844.71 237.53 844.72 236.99
  L 844.79 231.21
  Q 844.79 230.65 844.24 230.60
  C 831.00 229.31 818.10 223.96 809.77 213.46
  C 800.54 201.83 798.77 185.73 805.07 172.29
  C 812.13 157.26 827.96 148.97 844.26 147.64
  Q 844.83 147.59 844.82 147.02
  Z
  M 844.38 160.69
  C 807.07 163.91 806.63 213.10 844.20 217.52
  Q 844.75 217.59 844.75 217.04
  L 844.75 161.02
  Q 844.75 160.66 844.38 160.69
  Z
  M 859.18 160.95
  L 859.28 217.07
  A 0.12 0.12 0.0 0 0 859.40 217.19
  L 859.44 217.19
  A 28.30 28.16 -0.1 0 0 887.69 188.99
  L 887.69 188.95
  A 28.30 28.16 -0.1 0 0 859.34 160.83
  L 859.30 160.83
  A 0.12 0.12 0.0 0 0 859.18 160.95
  Z"
/>
<path fill="#fcfdff" d="
  M 116.36 189.00
  A 42.68 42.68 0.0 0 1 73.68 231.68
  A 42.68 42.68 0.0 0 1 31.00 189.00
  A 42.68 42.68 0.0 0 1 73.68 146.32
  A 42.68 42.68 0.0 0 1 116.36 189.00
  Z
  M 72.7265 151.6730
  A 1.44 0.61 -26.7 0 0 71.1659 151.7750
  A 1.44 0.61 -26.7 0 0 70.1535 152.9670
  A 1.44 0.61 -26.7 0 0 71.7141 152.8650
  A 1.44 0.61 -26.7 0 0 72.7265 151.6730
  Z
  M 77.87 159.51
  Q 79.84 155.63 82.47 152.16
  A 0.30 0.30 0.0 0 0 82.16 151.69
  Q 77.37 152.97 73.39 155.93
  Q 72.85 156.33 73.41 156.72
  L 77.58 159.59
  A 0.21 0.20 -58.9 0 0 77.87 159.51
  Z
  M 60.16 152.19
  C 57.22 153.38 52.14 155.28 51.86 158.86
  Q 51.81 159.48 52.29 159.10
  L 60.42 152.64
  A 0.26 0.26 0.0 0 0 60.16 152.19
  Z
  M 65.82 153.91
  Q 58.59 157.58 53.35 163.63
  Q 52.98 164.06 53.31 164.53
  L 56.93 169.69
  A 0.46 0.46 0.0 0 0 57.71 169.64
  Q 61.53 162.18 67.55 156.33
  A 1.50 1.50 0.0 0 0 65.82 153.91
  Z
  M 84.66 162.42
  A 0.45 0.45 0.0 0 0 85.24 162.04
  L 86.20 154.56
  A 0.45 0.45 0.0 0 0 85.37 154.26
  L 81.21 160.73
  A 0.45 0.45 0.0 0 0 81.45 161.40
  L 84.66 162.42
  Z
  M 89.70 154.98
  L 88.88 162.83
  Q 88.83 163.31 89.31 163.31
  L 93.89 163.31
  Q 94.45 163.32 94.31 162.77
  Q 93.13 158.36 90.31 154.80
  A 0.34 0.34 0.0 0 0 89.70 154.98
  Z
  M 69.51 178.19
  L 75.70 163.61
  Q 75.84 163.28 75.56 163.06
  L 70.57 159.07
  Q 70.14 158.72 69.76 159.12
  Q 64.23 165.02 60.47 172.18
  Q 60.15 172.79 60.72 173.16
  L 68.76 178.42
  Q 69.27 178.75 69.51 178.19
  Z
  M 42.37 173.99
  L 48.65 163.22
  Q 48.84 162.91 48.78 162.55
  L 48.40 159.95
  A 0.36 0.36 0.0 0 0 47.81 159.73
  C 43.07 163.82 40.36 167.18 41.80 173.90
  A 0.31 0.31 0.0 0 0 42.37 173.99
  Z
  M 98.5489 162.2235
  A 0.98 0.61 59.4 0 0 98.5751 161.0695
  A 0.98 0.61 59.4 0 0 97.5511 160.5365
  A 0.98 0.61 59.4 0 0 97.5249 161.6905
  A 0.98 0.61 59.4 0 0 98.5489 162.2235
  Z
  M 72.86 179.68
  A 0.53 0.53 0.0 0 0 73.15 180.38
  L 79.32 182.89
  A 0.53 0.53 0.0 0 0 80.03 182.54
  L 84.23 167.32
  A 0.53 0.53 0.0 0 0 83.90 166.68
  L 79.60 165.08
  A 0.53 0.53 0.0 0 0 78.92 165.37
  L 72.86 179.68
  Z
  M 98.48 182.50
  C 98.36 183.22 97.98 184.15 97.91 185.01
  Q 97.85 185.76 98.59 185.65
  L 104.77 184.73
  Q 105.42 184.64 105.42 183.99
  Q 105.41 174.84 101.69 166.35
  A 1.49 1.49 0.0 0 0 98.84 167.12
  Q 99.70 174.64 98.48 182.50
  Z
  M 44.59 179.01
  Q 44.36 179.66 44.82 180.18
  L 50.22 186.41
  Q 50.80 187.07 51.02 186.22
  Q 52.62 179.95 55.47 174.16
  Q 55.68 173.71 55.38 173.33
  L 51.10 168.03
  Q 50.54 167.32 50.04 168.08
  Q 46.67 173.20 44.59 179.01
  Z
  M 94.17 185.28
  C 95.43 179.78 95.85 173.67 95.21 168.04
  Q 95.17 167.68 94.82 167.68
  L 88.40 167.67
  Q 87.93 167.67 87.80 168.12
  L 83.60 183.40
  Q 83.40 184.10 84.12 184.21
  L 93.62 185.65
  A 0.49 0.48 10.8 0 0 94.17 185.28
  Z
  M 106.38 168.82
  C 107.99 173.00 109.11 177.84 108.94 182.35
  Q 108.92 183.16 109.59 182.70
  L 111.42 181.47
  Q 111.91 181.13 111.78 180.56
  Q 110.40 174.12 106.98 168.53
  A 0.34 0.33 19.0 0 0 106.38 168.82
  Z
  M 37.57 173.92
  C 34.15 182.95 32.64 196.25 38.80 203.97
  A 0.32 0.32 0.0 0 0 39.36 203.70
  Q 36.80 191.86 40.44 180.30
  Q 40.59 179.83 40.33 179.42
  Q 38.81 176.95 38.46 174.03
  A 0.46 0.46 0.0 0 0 37.57 173.92
  Z
  M 58.13 176.68
  L 53.91 188.67
  Q 53.67 189.33 54.27 189.70
  L 62.82 194.93
  A 0.62 0.62 0.0 0 0 63.72 194.60
  L 67.91 182.62
  Q 68.02 182.29 67.73 182.10
  L 58.94 176.40
  Q 58.36 176.02 58.13 176.68
  Z
  M 67.07 196.45
  A 0.36 0.36 0.0 0 0 67.29 196.91
  L 73.82 199.23
  A 0.36 0.36 0.0 0 0 74.28 199.01
  L 78.59 186.86
  A 0.36 0.36 0.0 0 0 78.38 186.40
  L 71.75 183.84
  A 0.36 0.36 0.0 0 0 71.28 184.07
  L 67.07 196.45
  Z
  M 42.93 184.70
  C 41.51 192.89 41.61 200.72 44.49 208.53
  C 45.06 210.09 46.68 211.07 47.99 212.03
  Q 48.76 212.59 48.64 211.64
  Q 47.40 201.49 49.70 191.54
  Q 49.84 190.95 49.41 190.52
  L 43.48 184.53
  Q 43.04 184.08 42.93 184.70
  Z
  M 112.62 190.87
  Q 112.80 187.71 112.69 185.77
  A 0.47 0.47 0.0 0 0 111.97 185.40
  L 109.25 187.09
  Q 108.80 187.37 108.78 187.89
  Q 108.52 193.10 106.76 197.99
  Q 106.55 198.58 107.14 198.37
  Q 112.30 196.57 112.62 190.87
  Z
  M 77.83 200.06
  A 0.31 0.31 0.0 0 0 78.08 200.46
  L 88.70 202.02
  A 0.31 0.31 0.0 0 0 89.04 201.82
  L 93.35 189.75
  A 0.31 0.31 0.0 0 0 93.11 189.34
  L 82.48 187.64
  A 0.31 0.31 0.0 0 0 82.13 187.84
  L 77.83 200.06
  Z
  M 93.18 201.50
  A 0.40 0.40 0.0 0 0 93.62 202.02
  L 102.17 200.71
  A 0.40 0.40 0.0 0 0 102.49 200.41
  L 105.31 188.90
  A 0.40 0.40 0.0 0 0 104.86 188.41
  L 97.42 189.56
  A 0.40 0.40 0.0 0 0 97.10 189.83
  L 93.18 201.50
  Z
  M 52.85 193.82
  C 51.44 200.30 51.54 207.96 52.85 214.44
  Q 52.95 214.93 53.40 215.15
  L 57.44 217.09
  Q 57.82 217.27 57.92 216.86
  L 62.21 199.36
  Q 62.33 198.86 61.89 198.60
  L 53.40 193.59
  Q 52.96 193.33 52.85 193.82
  Z
  M 61.41 218.06
  A 0.63 0.63 0.0 0 0 61.81 218.80
  L 64.49 219.77
  A 0.63 0.63 0.0 0 0 65.27 219.44
  L 72.64 203.49
  A 0.63 0.63 0.0 0 0 72.29 202.63
  L 66.39 200.46
  A 0.63 0.63 0.0 0 0 65.56 200.90
  L 61.41 218.06
  Z
  M 104.05 205.44
  Q 100.08 214.13 93.02 220.53
  Q 91.50 221.91 93.48 221.39
  C 101.81 219.24 108.20 208.75 110.79 201.17
  Q 111.03 200.48 110.39 200.83
  L 106.22 203.10
  Q 104.75 203.91 104.05 205.44
  Z
  M 69.19 221.09
  L 73.71 221.90
  Q 74.17 221.99 74.52 221.68
  Q 82.10 215.02 86.76 206.05
  Q 87.01 205.58 86.48 205.49
  L 76.94 203.88
  A 0.63 0.63 0.0 0 0 76.28 204.23
  L 68.86 220.46
  A 0.45 0.45 0.0 0 0 69.19 221.09
  Z
  M 83.87 222.62
  Q 94.63 216.42 100.03 205.19
  Q 100.18 204.88 99.83 204.91
  L 91.39 205.71
  A 0.69 0.68 -79.6 0 0 90.82 206.11
  Q 86.60 214.98 79.64 221.89
  Q 79.26 222.27 79.77 222.45
  Q 82.50 223.41 83.87 222.62
  Z
  M 56.52 222.71
  A 0.61 0.61 0.0 0 0 57.64 222.42
  Q 57.79 220.59 55.83 220.36
  Q 54.85 220.25 55.41 221.06
  L 56.52 222.71
  Z
  M 60.76 224.78
  A 0.20 0.20 0.0 0 0 61.09 224.97
  L 62.73 223.49
  Q 63.47 222.83 62.49 222.69
  L 61.58 222.56
  Q 61.11 222.49 61.04 222.95
  L 60.76 224.78
  Z
  M 66.63 226.03
  L 68.70 225.40
  Q 69.35 225.20 68.82 224.78
  Q 67.35 223.64 65.95 224.64
  A 0.78 0.78 0.0 0 0 66.63 226.03
  Z"
/>
<path fill="#fcfdff" d="
  M 295.64 215.59
  C 275.74 241.35 229.67 236.20 217.88 204.81
  C 207.13 176.20 226.63 148.32 256.49 146.55
  C 275.45 145.42 293.17 154.22 300.92 171.68
  C 307.34 186.12 305.26 203.14 295.64 215.59
  Z
  M 289.21 189.22
  A 29.45 29.45 0.0 0 0 259.76 159.77
  A 29.45 29.45 0.0 0 0 230.31 189.22
  A 29.45 29.45 0.0 0 0 259.76 218.67
  A 29.45 29.45 0.0 0 0 289.21 189.22
  Z"
/>
<path fill="#fcfdff" d="
  M 348.66 162.14
  C 328.48 169.58 324.73 199.20 341.49 212.21
  Q 346.26 215.92 353.08 217.57
  Q 369.70 221.59 382.61 209.07
  Q 382.96 208.73 383.32 209.07
  L 392.52 217.73
  Q 392.84 218.04 392.55 218.37
  C 378.55 234.06 353.14 235.90 335.55 225.55
  C 316.26 214.19 310.39 189.46 319.89 169.85
  Q 328.10 152.87 347.74 147.95
  Q 373.54 141.50 392.67 159.79
  Q 393.01 160.12 392.67 160.44
  L 383.34 169.38
  Q 382.97 169.72 382.61 169.37
  Q 367.93 155.03 348.66 162.14
  Z"
/>
<path fill="#fcfdff" d="
  M 518.92 171.70
  Q 527.00 153.13 547.98 147.93
  C 576.42 140.87 605.45 159.07 604.87 189.97
  C 604.26 222.63 572.25 238.75 543.32 229.18
  C 519.65 221.34 509.20 194.04 518.92 171.70
  Z
  M 589.56 189.22
  A 29.45 29.45 0.0 0 0 560.11 159.77
  A 29.45 29.45 0.0 0 0 530.66 189.22
  A 29.45 29.45 0.0 0 0 560.11 218.67
  A 29.45 29.45 0.0 0 0 589.56 189.22
  Z"
/>
<path fill="#fcfdff" d="
  M 646.97 163.03
  C 630.22 170.50 626.51 194.35 637.80 207.98
  C 649.00 221.50 670.80 222.23 683.04 208.84
  Q 683.24 208.61 683.46 208.82
  L 692.83 217.73
  Q 693.20 218.08 692.86 218.46
  Q 684.23 228.02 671.50 230.73
  C 642.39 236.92 613.09 217.83 615.87 185.65
  C 618.47 155.46 648.07 140.34 675.26 148.67
  Q 685.40 151.77 692.84 159.92
  Q 693.19 160.32 692.81 160.68
  L 683.59 169.37
  Q 683.28 169.66 682.96 169.36
  Q 667.02 154.09 646.97 163.03
  Z"
/>
<path fill="#fcfdff" d="
  M 703.01 201.33
  C 696.04 177.12 710.25 153.30 734.78 147.79
  C 763.86 141.26 792.14 159.88 790.78 191.45
  C 788.66 240.63 715.96 246.33 703.01 201.33
  Z
  M 775.55 189.22
  A 29.45 29.45 0.0 0 0 746.10 159.77
  A 29.45 29.45 0.0 0 0 716.65 189.22
  A 29.45 29.45 0.0 0 0 746.10 218.67
  A 29.45 29.45 0.0 0 0 775.55 189.22
  Z"
/>
<path fill="#fcfdff" d="
  M 150.73 196.08
  L 150.74 230.42
  A 0.33 0.33 0.0 0 1 150.41 230.75
  L 135.91 230.75
  A 0.33 0.33 0.0 0 1 135.58 230.42
  L 135.58 148.04
  A 0.33 0.33 0.0 0 1 135.91 147.71
  L 150.41 147.71
  A 0.33 0.33 0.0 0 1 150.74 148.04
  L 150.73 182.17
  A 0.33 0.33 0.0 0 0 151.06 182.50
  L 166.45 182.50
  A 0.33 0.33 0.0 0 0 166.72 182.36
  L 190.44 147.86
  A 0.33 0.33 0.0 0 1 190.71 147.72
  L 206.26 147.69
  A 0.33 0.33 0.0 0 1 206.53 148.21
  L 178.66 187.73
  A 0.33 0.33 0.0 0 0 178.66 188.11
  L 207.61 230.23
  A 0.33 0.33 0.0 0 1 207.34 230.75
  L 190.73 230.75
  A 0.33 0.33 0.0 0 1 190.46 230.61
  L 166.28 195.89
  A 0.33 0.33 0.0 0 0 166.01 195.75
  L 151.06 195.75
  A 0.33 0.33 0.0 0 0 150.73 196.08
  Z"
/>
<path fill="#fcfdff" d="
  M 421.94 177.75
  L 421.98 230.13
  Q 421.98 230.75 421.37 230.75
  L 407.93 230.75
  Q 407.35 230.75 407.35 230.17
  L 407.35 148.19
  Q 407.35 147.72 407.82 147.72
  L 419.37 147.68
  A 1.24 1.24 0.0 0 1 420.44 148.29
  L 452.63 202.19
  A 0.35 0.35 0.0 0 0 453.23 202.19
  L 485.24 148.17
  Q 485.51 147.71 486.05 147.71
  L 497.54 147.71
  Q 498.11 147.71 498.12 148.29
  L 498.30 230.22
  Q 498.30 230.75 497.78 230.75
  L 484.30 230.75
  Q 483.60 230.75 483.60 230.05
  L 483.51 176.71
  A 0.31 0.30 -29.9 0 0 482.94 176.56
  L 456.48 220.71
  Q 456.15 221.26 455.51 221.26
  L 449.91 221.25
  Q 449.26 221.25 448.92 220.69
  L 422.70 177.54
  Q 421.94 176.28 421.94 177.75
  Z"
/>
<path fill="#fcfdff" d="
  M 952.12 161.05
  L 952.13 230.42
  A 0.33 0.33 0.0 0 1 951.80 230.75
  L 937.14 230.75
  A 0.33 0.33 0.0 0 1 936.81 230.42
  L 936.82 161.05
  A 0.33 0.33 0.0 0 0 936.49 160.72
  L 909.68 160.71
  A 0.33 0.33 0.0 0 1 909.35 160.38
  L 909.37 148.04
  A 0.33 0.33 0.0 0 1 909.70 147.71
  L 979.31 147.71
  A 0.33 0.33 0.0 0 1 979.64 148.04
  L 979.65 160.38
  A 0.33 0.33 0.0 0 1 979.32 160.71
  L 952.45 160.72
  A 0.33 0.33 0.0 0 0 952.12 161.05
  Z"
/>
</svg>
