<?xml version="1.0" encoding="UTF-8" standalone="no"?>
<!DOCTYPE svg PUBLIC "-//W3C//DTD SVG 1.1//EN" "http://www.w3.org/Graphics/SVG/1.1/DTD/svg11.dtd">
<svg xmlns="http://www.w3.org/2000/svg" version="1.1" viewBox="0.00 0.00 1000.00 543.00">
<path fill="#ffffff" d="
  M 0.97 275.61
  Q 0.88 275.71 0.77 275.79
  Q 0.61 275.90 0.62 275.70
  Q 1.40 256.78 3.47 243.99
  C 17.03 159.85 81.28 103.25 154.16 68.20
  C 237.57 28.08 331.28 10.31 423.01 4.17
  Q 447.82 2.51 483.50 0.98
  Q 499.87 0.28 515.27 0.99
  Q 533.84 1.86 535.24 1.91
  Q 630.88 5.14 724.37 25.42
  C 768.47 34.99 810.91 50.14 851.29 70.27
  C 888.57 88.86 923.12 112.94 950.67 144.33
  C 975.28 172.37 995.46 211.21 996.20 249.24
  Q 996.83 280.97 995.94 299.63
  C 994.54 329.17 980.25 359.21 962.52 383.16
  C 942.55 410.15 917.94 432.73 889.48 450.57
  C 837.84 482.93 780.20 504.85 720.99 518.47
  C 658.12 532.93 593.58 539.63 529.15 541.22
  C 525.96 541.30 522.41 541.99 519.63 542.10
  Q 499.97 542.90 480.36 541.94
  Q 463.89 541.14 460.38 541.00
  Q 382.38 538.01 305.63 523.61
  C 248.90 512.96 192.73 495.07 141.77 468.29
  C 101.55 447.16 62.48 417.59 36.32 379.70
  Q 4.21 333.18 1.21 275.69
  Q 1.19 275.35 0.97 275.61
  Z
  M 346.15 505.43
  Q 511.10 528.71 675.49 502.03
  Q 747.96 490.28 818.17 459.42
  C 846.35 447.03 873.83 431.13 896.91 412.92
  Q 919.68 394.96 936.62 373.15
  Q 978.47 319.24 969.25 250.28
  C 959.67 178.59 908.54 129.98 847.92 97.32
  Q 805.30 74.36 754.03 59.34
  C 702.79 44.33 651.60 35.83 598.25 31.09
  Q 492.47 21.69 386.86 32.76
  C 304.93 41.36 224.07 58.84 151.96 98.19
  C 86.44 133.93 29.82 191.41 29.95 270.99
  C 30.07 336.24 68.10 388.60 119.85 424.64
  C 162.70 454.48 211.14 474.17 261.76 487.93
  Q 304.57 499.56 346.15 505.43
  Z"
/>
<path fill="#ffffff" d="
  M 223.47 451.75
  Q 177.10 434.83 136.62 406.63
  C 101.95 382.48 73.44 348.36 62.67 306.93
  C 52.36 267.27 58.91 227.74 81.06 193.33
  C 109.60 149.01 156.89 118.35 205.85 98.37
  C 257.75 77.19 313.00 64.81 368.48 57.65
  Q 437.49 48.74 507.01 49.52
  Q 515.71 49.61 527.00 50.16
  Q 553.82 51.45 580.64 52.80
  Q 591.78 53.36 600.58 54.28
  C 676.58 62.22 753.45 78.61 822.67 111.54
  Q 847.38 123.30 872.19 142.60
  C 916.88 177.38 946.82 225.81 942.69 283.93
  C 939.28 332.07 909.31 372.35 872.05 400.59
  C 816.82 442.45 751.09 463.12 683.02 476.64
  C 583.60 496.39 481.86 498.83 381.27 487.29
  C 328.83 481.27 273.43 469.99 223.47 451.75
  Z
  M 660.88 474.92
  Q 722.60 464.19 781.39 442.82
  C 802.85 435.01 823.36 425.21 842.90 413.39
  C 877.44 392.49 911.25 361.84 926.72 323.65
  C 948.60 269.62 934.84 211.99 894.53 170.72
  C 868.62 144.20 837.83 124.90 803.87 109.79
  Q 746.63 84.31 685.10 73.03
  C 585.60 54.79 484.06 51.41 383.57 62.82
  C 345.74 67.11 308.83 73.18 271.99 82.97
  C 223.21 95.92 175.12 116.36 134.27 146.45
  C 77.68 188.14 46.99 253.27 73.68 322.44
  C 94.07 375.26 143.97 410.14 193.55 432.44
  Q 232.08 449.78 277.78 461.32
  Q 370.05 484.62 465.26 486.74
  Q 506.29 487.66 558.75 485.46
  Q 613.41 483.17 660.88 474.92
  Z"
/>
<path fill="#ffffff" d="
  M 771.38 248.45
  L 816.39 183.76
  Q 816.68 183.34 817.20 183.34
  L 869.95 183.01
  A 1.40 1.40 0.0 0 1 871.07 185.25
  L 809.59 265.78
  A 1.25 1.25 0.0 0 0 809.59 267.30
  Q 841.15 308.63 872.84 350.36
  Q 873.35 351.04 873.27 351.37
  A 1.44 1.42 -83.0 0 1 871.89 352.46
  L 814.71 352.45
  A 1.56 1.56 0.0 0 1 813.40 351.74
  L 771.13 286.27
  A 0.26 0.24 77.1 0 0 770.97 286.16
  L 770.52 286.04
  Q 768.65 285.55 768.68 287.48
  L 769.55 350.96
  A 1.28 1.27 89.3 0 1 768.29 352.26
  L 720.30 352.57
  A 1.28 1.28 0.0 0 1 719.01 351.30
  L 718.87 184.43
  A 1.19 1.19 0.0 0 1 720.06 183.24
  L 768.26 183.27
  A 1.23 1.23 0.0 0 1 769.49 184.51
  L 768.95 247.68
  A 1.34 1.33 -27.4 0 0 771.38 248.45
  Z"
/>
<path fill="#ffffff" d="
  M 196.68 244.43
  L 245.68 244.29
  A 2.19 2.18 89.6 0 0 247.86 242.07
  L 247.33 185.60
  A 2.33 2.33 0.0 0 1 249.66 183.25
  L 295.12 183.27
  Q 298.22 183.27 298.21 186.37
  L 297.75 350.27
  A 2.27 2.27 0.0 0 1 295.48 352.53
  L 250.32 352.42
  Q 247.47 352.41 247.48 349.57
  L 247.60 287.47
  A 2.40 2.40 0.0 0 0 245.22 285.06
  L 197.30 284.72
  Q 194.55 284.70 194.55 287.45
  L 194.63 349.98
  A 2.26 2.25 89.6 0 1 192.41 352.24
  Q 171.19 352.53 149.68 352.48
  C 146.80 352.47 144.30 353.03 144.30 349.00
  Q 144.33 266.96 144.43 185.33
  A 2.09 2.09 0.0 0 1 146.52 183.24
  L 192.35 183.28
  A 2.32 2.32 0.0 0 1 194.67 185.60
  L 194.68 242.43
  A 2.00 2.00 0.0 0 0 196.68 244.43
  Z"
/>
<path fill="#ffffff" d="
  M 397.18 223.79
  A 2.45 2.44 65.0 0 0 396.55 225.53
  Q 397.48 248.37 397.40 271.25
  C 397.29 305.96 391.17 346.59 349.01 353.35
  Q 333.16 355.89 317.51 353.51
  A 2.02 2.02 0.0 0 1 315.79 351.51
  L 315.61 311.00
  A 1.43 1.43 0.0 0 1 317.45 309.62
  C 323.17 311.32 329.29 312.18 334.99 309.87
  C 342.32 306.91 346.10 299.13 346.65 291.49
  C 349.20 256.31 348.12 220.93 348.28 185.73
  Q 348.29 183.27 350.75 183.27
  L 475.34 183.25
  A 2.09 2.09 0.0 0 1 477.43 185.34
  L 477.42 350.32
  A 2.23 2.22 0.1 0 1 475.18 352.54
  L 432.02 352.32
  A 3.55 3.54 0.2 0 1 428.49 348.77
  L 428.89 225.50
  A 2.24 2.24 0.0 0 0 426.65 223.25
  Q 412.82 223.27 398.67 223.12
  Q 398.23 223.12 397.88 223.31
  Q 397.36 223.60 397.18 223.79
  Z"
/>
<path fill="#ffffff" d="
  M 598.45 281.10
  Q 598.81 280.89 599.07 279.96
  Q 612.48 231.85 625.79 184.03
  A 1.04 1.04 0.0 0 1 626.79 183.27
  L 675.71 183.27
  Q 676.91 183.27 677.08 184.47
  L 699.89 350.92
  A 1.34 1.34 0.0 0 1 698.56 352.44
  L 654.29 352.45
  A 1.32 1.31 86.3 0 1 652.99 351.30
  L 642.43 266.15
  A 0.97 0.93 -75.9 0 0 642.06 265.50
  C 641.24 264.88 640.15 265.20 639.87 266.18
  Q 627.39 308.94 615.01 351.59
  A 1.30 1.29 -81.9 0 1 613.77 352.53
  L 582.20 352.52
  A 1.47 1.47 0.0 0 1 580.79 351.46
  L 555.97 266.28
  Q 555.87 265.94 555.55 265.79
  Q 554.43 265.27 553.85 265.89
  Q 553.53 266.24 553.41 267.20
  Q 548.16 309.14 542.84 351.25
  A 1.37 1.37 0.0 0 1 541.48 352.45
  L 497.34 352.45
  Q 496.32 352.45 495.94 351.50
  Q 495.74 351.00 495.88 349.98
  Q 507.40 267.32 518.97 184.35
  A 1.28 1.28 0.0 0 1 520.24 183.24
  L 568.74 183.27
  A 1.47 1.47 0.0 0 1 570.16 184.35
  L 596.67 280.25
  A 1.30 1.18 67.8 0 0 598.45 281.10
  Z"
/>
</svg>
