<svg xmlns="http://www.w3.org/2000/svg" xml:space="preserve" width="950" height="950" fill-rule="evenodd" clip-rule="evenodd" image-rendering="optimizeQuality" shape-rendering="geometricPrecision" text-rendering="geometricPrecision"><defs><clipPath id="a"><path d="M12.67 0h924.66C944.29 0 950 5.7 950 12.67v924.66c0 6.97-5.71 12.67-12.67 12.67H12.67C5.71 950 0 944.3 0 937.33V12.67C0 5.7 5.71 0 12.67 0z"/></clipPath><clipPath id="c"><path d="M250.34 418.54h42.27v27.65h-42.27v-27.65z"/></clipPath><clipPath id="d"><path d="M250.34 501.11h42.27v27.65h-42.27v-27.65z"/></clipPath><clipPath id="e"><path d="M250.34 582.52h42.27v27.65h-42.27v-27.65z"/></clipPath><clipPath id="f"><path d="M250.34 663.55h42.27v27.65h-42.27v-27.65z"/></clipPath><linearGradient id="b" x1="901.23" x2="940.86" y1="18.76" y2="18.76" gradientUnits="userSpaceOnUse"><stop offset="0" stop-color="#900"/><stop offset="1" stop-color="#FF8787"/></linearGradient></defs><path fill="#859EC3" d="M12.67 0h924.66C944.29 0 950 5.7 950 12.67v924.66c0 6.97-5.71 12.67-12.67 12.67H12.67C5.71 950 0 944.3 0 937.33V12.67C0 5.7 5.71 0 12.67 0z"/><g clip-path="url(#a)"><path fill="#BEBEBE" d="M-21.98 35.51h987.93v978.81H-21.98z"/></g><path fill="none" stroke="#1A1A1A" stroke-miterlimit="22.926" stroke-width="2" d="M12.67 0h924.66C944.29 0 950 5.7 950 12.67v924.66c0 6.97-5.71 12.67-12.67 12.67H12.67C5.71 950 0 944.3 0 937.33V12.67C0 5.7 5.71 0 12.67 0z"/><path fill="#01F322" d="M418.55 165.14h131.74v38.13H418.55z"/><path fill="#01F322" d="M296.09 81.03h57.31v41.43h-57.31z"/><path fill="#01F322" d="M296.09 122.88h57.31v41.43h-57.31z"/><path fill="#01F322" d="M296.09 165.14h57.31v38.13h-57.31z"/><path fill="#01F322" d="M354.22 81.03h64.31v41.43h-64.31z"/><path fill="#01F322" d="M354.22 122.88h64.31v41.43h-64.31z"/><path fill="#01F322" d="M354.22 165.14h64.31v38.13h-64.31z"/><path fill="#01F322" d="M418.55 81.03h66.79v41.43h-66.79z"/><path fill="#01F322" d="M418.55 122.88h66.79v41.43h-66.79z"/><path fill="#01F322" d="M485.34 81.03h64.33v41.43h-64.33z"/><path fill="#01F322" d="M485.34 122.88h64.33v41.43h-64.33z"/><path fill="#01F322" d="M550.69 81.03h75.66v41.43h-75.66z"/><path fill="#01F322" d="M626.56 81.03h65.35v41.43h-65.35z"/><path fill="#01F322" d="M692.12 81.03h70.09v41.43h-70.09z"/><path fill="#01F322" d="M762.21 81.03h56.29v41.43h-56.29z"/><path fill="#01F322" d="M551.1 122.67h139.77v81.22H551.1z"/><path fill="#01F322" d="M691.71 122.67h126.58v80.81H691.71z"/><path fill="#01F322" d="M353.54 249.63h64.67v42.23h-64.67z"/><path fill="#01F322" d="M486.31 249.63h64.06v42.23h-64.06z"/><path fill="#01F322" d="M549.53 249.63h77.11v42.23h-77.11z"/><path fill="#01F322" d="M627.05 249.63h64.32v42.23h-64.32z"/><path fill="#01F322" d="M690.96 249.63h70.92v42.23h-70.92z"/><path fill="#01F322" d="M761.88 249.63h56.08v42.23h-56.08z"/><g stroke-miterlimit="22.926"><rect width="39.63" height="21.09" x="901.23" y="8.22" fill="url(#b)" stroke="#900" rx=".77" ry=".75"/><g fill="none" stroke="#fff" stroke-width="2"><path d="m915.43 12.91 11.13 10.6"/><path d="m926.56 12.91-11.13 10.6"/></g></g><path fill="none" stroke="#999" stroke-miterlimit="22.926" stroke-width="2.36" d="M252.2 364.81v-25.77h40.31"/><path fill="none" stroke="#999" stroke-miterlimit="22.926" stroke-width="2.36" d="M252.2 405.43v-25.77h40.31"/><path fill="none" stroke="#999" stroke-miterlimit="22.926" stroke-width="2.36" d="M252.2 488.31v-25.78h40.31"/><path fill="none" stroke="#999" stroke-miterlimit="22.926" stroke-width="2.36" d="M252.2 569.12v-25.77h40.31"/><path fill="none" stroke="#999" stroke-miterlimit="22.926" stroke-width="2.36" d="M252.2 650.87v-25.78h40.31"/><path fill="none" stroke="#999" stroke-miterlimit="22.926" stroke-width="2.36" d="M252.2 733.33v-25.77h40.31"/><path fill="none" stroke="#999" stroke-miterlimit="22.926" stroke-width="2.36" d="M252.2 773.54v-25.78h40.31"/><path fill="none" stroke="#999" stroke-miterlimit="22.926" stroke-width="2.36" d="M252.41 814.05v-25.78h40.3"/><path fill="none" stroke="#999" stroke-miterlimit="22.926" stroke-width="2.36" d="M252.2 854.15v-25.77h40.31"/><path fill="none" stroke="#999" stroke-miterlimit="22.926" stroke-width="2.36" d="M252.2 893.94v-25.77h40.31"/><text x="475" y="475" font-family="Arial" font-size="21.23" font-weight="bold" transform="matrix(.9988 0 0 1 -83.55 -408.69)">ВН1 Перекидка из Нагрева в Отделение</text><path fill="gray" d="M295.48 203.33h522.37v46.13H295.48z"/><path fill="#FF381B" d="M418.41 248.8h67.12v42.23h-67.12z"/><path fill="#01F322" d="M296.01 249.63h57.56v42.23h-57.56z"/><path fill="none" stroke="#000" stroke-miterlimit="22.926" d="M72.91 80.67v818.75"/><path fill="none" stroke="#000" stroke-miterlimit="22.926" d="M817.95 203.17H73.09"/><path fill="none" stroke="#000" stroke-miterlimit="22.926" d="M817.95 249.25H27.05"/><path fill="none" stroke="#000" stroke-miterlimit="22.926" d="M817.21 291.11H27.05"/><path fill="none" stroke="#000" stroke-miterlimit="22.926" d="M817.21 330.67H27.05"/><path fill="none" stroke="#000" stroke-miterlimit="22.926" d="M817.21 372.53H27.05"/><path fill="none" stroke="#000" stroke-miterlimit="22.926" d="M817.21 412.85H27.05"/><path fill="none" stroke="#000" stroke-miterlimit="22.926" d="M817.21 454.71H27.05"/><path fill="none" stroke="#000" stroke-miterlimit="22.926" d="M817.21 494.27H27.05"/><path fill="none" stroke="#000" stroke-miterlimit="22.926" d="M817.21 536.12H27.05"/><path fill="none" stroke="#000" stroke-miterlimit="22.926" d="M817.21 576.45H27.05"/><path fill="none" stroke="#000" stroke-miterlimit="22.926" d="M817.21 618.31H27.05"/><path fill="none" stroke="#000" stroke-miterlimit="22.926" d="M817.21 657.86H27.05"/><path fill="none" stroke="#000" stroke-miterlimit="22.926" d="M817.21 699.72H27.05"/><path fill="none" stroke="#000" stroke-miterlimit="22.926" d="M817.21 740.04H27.05"/><path fill="none" stroke="#000" stroke-miterlimit="22.926" d="M817.21 781.9H27.05"/><path fill="none" stroke="#000" stroke-miterlimit="22.926" d="M817.21 821.46H27.05"/><path fill="none" stroke="#000" stroke-miterlimit="22.926" d="M817.21 863.32H27.05"/><path fill="none" stroke="#000" stroke-miterlimit="22.926" d="M247.05 79.84v820.17"/><path fill="none" stroke="#000" stroke-miterlimit="22.926" d="M353.68 80.3v818.67"/><path fill="none" stroke="#000" stroke-miterlimit="22.926" d="M418.5 80.6v818.37"/><path fill="none" stroke="#000" stroke-miterlimit="22.926" d="M485.63 202.46v696.51"/><path fill="none" stroke="#000" stroke-miterlimit="22.926" d="M550.45 80.86v818.11"/><path fill="none" stroke="#000" stroke-miterlimit="22.926" d="M626.79 203.29v695.68"/><path fill="none" stroke="#000" stroke-miterlimit="22.926" d="M691.6 80.81v818.16"/><path fill="none" stroke="#999" stroke-miterlimit="22.926" stroke-width="2.36" d="M252.2 323.99v-25.77h40.31"/><path fill="none" stroke="#000" stroke-miterlimit="22.926" d="M762.18 203.3v695.67"/><path fill="none" stroke="#000" stroke-miterlimit="22.926" d="M250.33 297h42.27v27.65h-42.27z"/><path fill="gray" stroke="#000" stroke-miterlimit="22.926" d="M26 909.53h159.65v27.27H26z"/><path fill="none" stroke="#000" stroke-miterlimit="22.926" d="M232.47 909.53h16.08v27.27h-16.08z"/><path fill="#fff" stroke="#000" stroke-miterlimit="22.926" d="M186.44 909.53h45.84v27.27h-45.84z"/><path fill="gray" stroke="#000" stroke-miterlimit="22.926" d="M447.62 909.53h159.95v27.27H447.62z"/><path fill="#fff" stroke="#000" stroke-miterlimit="22.926" d="M256.99 909.53h63.51v27.27h-63.51z"/><path fill="#fff" stroke="#000" stroke-miterlimit="22.926" d="M321.06 909.53h63.51v27.27h-63.51z"/><path fill="#fff" stroke="#000" stroke-miterlimit="22.926" d="M384.73 909.53h63.51v27.27h-63.51z"/><path fill="gray" stroke="#000" stroke-miterlimit="22.926" d="M617.62 909.53h131.41v27.27H617.62z"/><path fill="gray" stroke="#000" stroke-miterlimit="22.926" d="M759.08 909.53h131.41v27.27H759.08z"/><text x="475" y="475" font-family="Arial" font-size="16.52" transform="matrix(.9988 0 0 1 -354.308 -357.993)">Условия </text><text x="475" y="493.45" font-family="Arial" font-size="16.52" transform="matrix(.9988 0 0 1 -354.308 -357.993)">пересадки</text><text x="475" y="475" font-family="Arial" font-size="16.52" transform="matrix(.9988 0 0 1 -356.609 -207.262)">Исходное </text><text x="475" y="491.79" font-family="Arial" font-size="16.52" transform="matrix(.9988 0 0 1 -356.609 -207.262)">состояние</text><text x="411.2" y="475" font-family="Arial" font-size="13.45" transform="matrix(.9988 0 0 1 -318.776 -166.63)">Установить клапаны</text><text x="407.7" y="488.68" font-family="Arial" font-size="13.45" transform="matrix(.9988 0 0 1 -318.776 -166.63)">15 и 23 на угол зажиг.</text><text x="475" y="475" font-family="Arial" font-size="16.52" transform="matrix(.9988 0 0 1 -434.856 -156.377)">1</text><text x="475" y="515.59" font-family="Arial" font-size="16.52" transform="matrix(.9988 0 0 1 -434.856 -156.377)">2</text><text x="475" y="556.18" font-family="Arial" font-size="16.52" transform="matrix(.9988 0 0 1 -434.856 -156.377)">3</text><text x="475" y="596.77" font-family="Arial" font-size="16.52" transform="matrix(.9988 0 0 1 -434.856 -156.377)">4</text><text x="475" y="637.36" font-family="Arial" font-size="16.52" transform="matrix(.9988 0 0 1 -434.856 -156.377)">5</text><text x="475" y="677.95" font-family="Arial" font-size="16.52" transform="matrix(.9988 0 0 1 -434.856 -156.377)">6</text><text x="475" y="718.54" font-family="Arial" font-size="16.52" transform="matrix(.9988 0 0 1 -434.856 -156.377)">7</text><text x="475" y="759.13" font-family="Arial" font-size="16.52" transform="matrix(.9988 0 0 1 -434.856 -156.377)">8</text><text x="475" y="799.72" font-family="Arial" font-size="16.52" transform="matrix(.9988 0 0 1 -434.856 -156.377)">9</text><text x="475" y="840.31" font-family="Arial" font-size="16.52" transform="matrix(.9988 0 0 1 -434.856 -156.377)">10</text><text x="475" y="880.9" font-family="Arial" font-size="16.52" transform="matrix(.9988 0 0 1 -434.856 -156.377)">11</text><text x="475" y="921.49" font-family="Arial" font-size="16.52" transform="matrix(.9988 0 0 1 -434.856 -156.377)">12</text><text x="475" y="962.08" font-family="Arial" font-size="16.52" transform="matrix(.9988 0 0 1 -434.856 -156.377)">13</text><text x="475" y="1002.67" font-family="Arial" font-size="16.52" transform="matrix(.9988 0 0 1 -434.856 -156.377)">14</text><text x="475" y="1043.26" font-family="Arial" font-size="16.52" transform="matrix(.9988 0 0 1 -434.856 -156.377)">15</text><text x="475" y="475" font-family="Arial" font-size="17.17" transform="matrix(0 -1 .9988 0 -205.429 653.768)">Время</text><text x="475" y="490.16" font-family="Arial" font-size="17.17" transform="matrix(0 -1 .9988 0 -205.429 653.768)">шага</text><path fill="none" stroke="#000" stroke-miterlimit="22.926" d="M295.77 79.84v819.62"/><path fill="none" stroke="#000" stroke-miterlimit="22.926" d="M626.78 80.04v43.02"/><path fill="none" stroke="#000" stroke-miterlimit="22.926" d="M295.06 122.58h523.38"/><path fill="none" stroke="#000" stroke-miterlimit="22.926" d="M295.06 164.82h255.65"/><path fill="none" stroke="#000" stroke-miterlimit="22.926" d="M485.63 80.04v84.78"/><path fill="none" stroke="#000" stroke-miterlimit="22.926" d="M762.18 80.04v43.02"/><text x="419.02" y="475" font-family="Arial" font-size="13.45" transform="matrix(.9988 0 0 1 -317.36 -127.363)">Закрыть отсечной</text><text x="399.7" y="488.68" font-family="Arial" font-size="13.45" transform="matrix(.9988 0 0 1 -317.36 -127.363)">клапан из смеш. газе 22 </text><text x="475" y="475" font-family="Arial" font-size="12.13" transform="matrix(.9988 0 0 1 -160.064 -367.476)">111</text><text x="475" y="475" font-family="Arial" font-size="12.13" transform="matrix(.9988 0 0 1 -160.064 -326.962)">124</text><text x="475" y="475" font-family="Arial" font-size="12.13" transform="matrix(.9988 0 0 1 -98.694 -368.244)">112</text><text x="475" y="475" font-family="Arial" font-size="12.13" transform="matrix(.9988 0 0 1 -98.694 -327.73)">123</text><text x="475" y="475" font-family="Arial" font-size="12.13" transform="matrix(.9988 0 0 1 -31.57 -368.244)">113</text><text x="475" y="475" font-family="Arial" font-size="12.13" transform="matrix(.9988 0 0 1 -31.57 -327.73)">114</text><text x="475" y="475" font-family="Arial" font-size="12.13" transform="matrix(.9988 0 0 1 34.404 -368.244)">121</text><text x="475" y="475" font-family="Arial" font-size="12.13" transform="matrix(.9988 0 0 1 34.404 -327.73)">127</text><text x="475" y="475" font-family="Arial" font-size="12.13" transform="matrix(.9988 0 0 1 102.295 -368.244)">124</text><text x="475" y="475" font-family="Arial" font-size="12.13" transform="matrix(.9988 0 0 1 175.174 -368.244)">117</text><text x="475" y="475" font-family="Arial" font-size="12.13" transform="matrix(.9988 0 0 1 243.448 -368.244)">143</text><text x="475" y="475" font-family="Arial" font-size="12.13" transform="matrix(.9988 0 0 1 307.12 -368.244)">110</text><text x="475" y="475" font-family="Arial" font-size="12.13" transform="matrix(.9988 0 0 1 -164.394 -286.903)">Цикл</text><text x="475" y="475" font-family="Arial" font-size="12.13" transform="matrix(.9988 0 0 1 -108.369 -286.831)">Нагрев</text><text x="442.19" y="475" font-family="Arial" font-size="12.13" transform="matrix(.9988 0 0 1 10.447 -293.742)">Давл. азота</text><text x="452.45" y="487.33" font-family="Arial" font-size="12.13" transform="matrix(.9988 0 0 1 10.447 -293.742)">в норме</text><text x="421.88" y="475" font-family="Arial" font-size="12.13" transform="matrix(.9988 0 0 1 145.362 -318.691)">Регулятор расхода</text><text x="418.08" y="487.33" font-family="Arial" font-size="12.13" transform="matrix(.9988 0 0 1 145.362 -318.691)">смеш.газа в режиме</text><text x="446.84" y="499.66" font-family="Arial" font-size="12.13" transform="matrix(.9988 0 0 1 145.362 -318.691)">АВТОМАТ</text><text x="404.31" y="475" font-family="Arial" font-size="14" transform="matrix(.9988 0 0 1 53.195 451.844)">Расход азота в норме</text><text x="417.04" y="475" font-family="Arial" font-size="14" transform="matrix(.9988 0 0 1 209.093 451.874)">115 на угле зажиг.</text><text x="475" y="475" font-family="Arial" font-size="16.52" transform="matrix(0 -1 .9988 0 -425.041 656.042)">№ шага</text><text x="475" y="475" font-family="Arial" font-size="16.69" transform="matrix(.9988 0 0 1 -212.53 -159.505)">180</text><path fill="none" stroke="#000" stroke-miterlimit="22.926" d="M250.33 337.13h42.27v27.65h-42.27z"/><text x="456.44" y="475" font-family="Arial" font-size="16.69" transform="matrix(.9988 0 0 1 -188.604 -119.374)">65</text><path fill="none" stroke="#000" stroke-miterlimit="22.926" d="M250.33 378.41h42.27v27.65h-42.27z"/><text x="475" y="475" font-family="Arial" font-size="16.69" transform="matrix(.9988 0 0 1 -212.53 -78.092)">180</text><path fill="#fff" d="M250.34 418.54h42.27v27.65h-42.27z"/><g clip-path="url(#c)"><path fill="none" stroke="#999" stroke-miterlimit="22.926" stroke-width="2" d="M252.3 445.32v-24.77h40.95"/></g><path fill="none" stroke="#000" stroke-miterlimit="22.926" d="M250.34 418.54h42.27v27.65h-42.27z"/><text x="465.72" y="475" font-family="Arial" font-size="16.69" transform="matrix(.9988 0 0 1 -188.604 -37.96)">5</text><path fill="none" stroke="#000" stroke-miterlimit="22.926" d="M250.33 460.98h42.27v27.65h-42.27z"/><text x="456.44" y="475" font-family="Arial" font-size="16.69" transform="matrix(.9988 0 0 1 -188.505 4.473)">27</text><path fill="#fff" d="M250.34 501.11h42.27v27.65h-42.27z"/><g clip-path="url(#d)"><path fill="none" stroke="#999" stroke-miterlimit="22.926" stroke-width="2.36" d="M252.2 528.51v-25.78h40.31"/></g><path fill="none" stroke="#000" stroke-miterlimit="22.926" d="M250.34 501.11h42.27v27.65h-42.27z"/><text x="456.44" y="475" font-family="Arial" font-size="16.69" transform="matrix(.9988 0 0 1 -188.604 44.605)">15</text><path fill="none" stroke="#000" stroke-miterlimit="22.926" d="M250.33 542.39h42.27v27.65h-42.27z"/><text x="456.44" y="475" font-family="Arial" font-size="16.69" transform="matrix(.9988 0 0 1 -188.472 85.889)">27</text><path fill="#fff" d="M250.34 582.52h42.27v27.65h-42.27z"/><g clip-path="url(#e)"><path fill="none" stroke="#999" stroke-miterlimit="22.926" stroke-width="2.36" d="M252.2 609.94v-25.77h40.31"/></g><path fill="none" stroke="#000" stroke-miterlimit="22.926" d="M250.34 582.52h42.27v27.65h-42.27z"/><text x="465.72" y="475" font-family="Arial" font-size="16.69" transform="matrix(.9988 0 0 1 -188.604 126.02)">5</text><path fill="none" stroke="#000" stroke-miterlimit="22.926" d="M250.33 623.42h42.27v27.65h-42.27z"/><text x="456.44" y="475" font-family="Arial" font-size="16.69" transform="matrix(.9988 0 0 1 -188.472 166.917)">27</text><path fill="#fff" d="M250.34 663.55h42.27v27.65h-42.27z"/><g clip-path="url(#f)"><path fill="none" stroke="#999" stroke-miterlimit="22.926" stroke-width="2.36" d="M252.2 691.07v-25.78h40.31"/></g><path fill="none" stroke="#000" stroke-miterlimit="22.926" d="M250.34 663.55h42.27v27.65h-42.27z"/><text x="456.44" y="475" font-family="Arial" font-size="16.69" transform="matrix(.9988 0 0 1 -188.604 207.049)">20</text><path fill="none" stroke="#000" stroke-miterlimit="22.926" d="M250.33 706.37h42.27v27.65h-42.27z"/><text x="456.44" y="475" font-family="Arial" font-size="16.69" transform="matrix(.9988 0 0 1 -188.472 249.867)">35</text><path fill="none" stroke="#000" stroke-miterlimit="22.926" d="M250.33 746.5h42.27v27.65h-42.27z"/><text x="456.44" y="475" font-family="Arial" font-size="16.69" transform="matrix(.9988 0 0 1 -188.604 289.999)">27</text><path fill="none" stroke="#000" stroke-miterlimit="22.926" d="M250.33 787.01h42.27v27.65h-42.27z"/><text x="456.44" y="475" font-family="Arial" font-size="16.69" transform="matrix(.9988 0 0 1 -188.472 330.513)">27</text><path fill="none" stroke="#000" stroke-miterlimit="22.926" d="M250.33 827.15h42.27v27.65h-42.27z"/><text x="456.44" y="475" font-family="Arial" font-size="16.69" transform="matrix(.9988 0 0 1 -188.604 370.644)">27</text><path fill="none" stroke="#000" stroke-miterlimit="22.926" d="M250.33 868.43h42.27v25.16h-42.27z"/><text x="456.44" y="475" font-family="Arial" font-size="16.69" transform="matrix(.9988 0 0 1 -188.604 411.925)">27</text><text x="465.72" y="475" font-family="Arial" font-size="16.69" transform="matrix(.9988 0 0 1 -267.045 453.975)">0</text><text x="466.66" y="475" font-family="Arial" font-size="16.69" transform="matrix(.9988 0 0 1 -229.839 453.975)">с</text><text x="475" y="475" fill="#fff" font-family="Arial" font-size="12.13" font-weight="bold" transform="matrix(.9988 0 0 1 -160.035 -244.012)">132</text><text x="475" y="475" fill="#fff" font-family="Arial" font-size="12.13" font-weight="bold" transform="matrix(.9988 0 0 1 -99.816 -244.012)">116</text><text x="475" y="475" fill="#fff" font-family="Arial" font-size="12.13" font-weight="bold" transform="matrix(.9988 0 0 1 -32.69 -244.012)">124</text><text x="475" y="475" fill="#fff" font-family="Arial" font-size="12.13" font-weight="bold" transform="matrix(.9988 0 0 1 34.051 -244.012)">113</text><text x="475" y="475" fill="#fff" font-family="Arial" font-size="12.13" font-weight="bold" transform="matrix(.9988 0 0 1 104.246 -244.012)">134</text><text x="475" y="475" fill="#fff" font-family="Arial" font-size="12.13" font-weight="bold" transform="matrix(.9988 0 0 1 175.397 -244.012)">117</text><text x="475" y="475" fill="#fff" font-family="Arial" font-size="12.13" font-weight="bold" transform="matrix(.9988 0 0 1 245.015 -244.012)">111</text><text x="475" y="475" fill="#fff" font-family="Arial" font-size="12.13" font-weight="bold" transform="matrix(.9988 0 0 1 307.346 -244.012)">112</text><text x="475" y="475" font-family="Arial" font-size="12.13" transform="matrix(.9988 0 0 1 -170.582 -209.832)">Открыт</text><text x="475" y="475" font-family="Arial" font-size="12.13" transform="matrix(.9988 0 0 1 -109.787 -209.832)">Открыт</text><text x="475" y="475" font-family="Arial" font-size="12.13" transform="matrix(.9988 0 0 1 23.125 -209.832)">Открыт</text><text x="475" y="475" font-family="Arial" font-size="12.13" transform="matrix(.9988 0 0 1 92.167 -208.104)">Открыт</text><text x="475" y="475" font-family="Arial" font-size="12.13" transform="matrix(.9988 0 0 1 163.51 -208.104)">Открыт</text><text x="475" y="475" font-family="Arial" font-size="12.13" transform="matrix(.9988 0 0 1 234.852 -208.104)">Открыт</text><text x="475" y="475" font-family="Arial" font-size="12.13" transform="matrix(.9988 0 0 1 295.839 -208.104)">Открыт</text><text x="475" y="475" font-family="Arial" font-size="12.13" transform="matrix(.9988 0 0 1 -43.62 -210.215)">Закрыт</text><text x="446.5" y="475" font-family="Arial" font-size="13.28" transform="matrix(.9988 0 0 1 -171.967 453.114)">Пуск</text><text x="444.89" y="475" font-family="Arial" font-size="13.28" transform="matrix(.9988 0 0 1 -106.76 453.114)">Стоп</text><text x="436.38" y="475" font-family="Arial" font-size="13.28" transform="matrix(.9988 0 0 1 -40.404 453.114)">Сброс</text><text x="333.34" y="475" font-family="Arial" font-size="14.27" transform="matrix(.9988 0 0 1 -300.293 452.534)">Время до конца шага</text><text x="416.52" y="475" font-family="Arial" font-size="14" transform="matrix(.9988 0 0 1 353.916 451.844)">123 на угле зажиг.</text><text x="427.25" y="475" font-family="Arial" font-size="12.13" transform="matrix(.9988 0 0 1 283.732 -320.341)">Регулятор соотн.</text><text x="442.8" y="487.33" font-family="Arial" font-size="12.13" transform="matrix(.9988 0 0 1 283.732 -320.341)">воздуха-газ</text><text x="416.89" y="499.66" font-family="Arial" font-size="12.13" transform="matrix(.9988 0 0 1 283.732 -320.341)"> в режиме АВТОМАТ</text><text x="427.03" y="475" font-family="Arial" font-size="13.45" transform="matrix(.9988 0 0 1 -319.289 -49.032)">Контроль давл.</text><text x="415.22" y="488.68" font-family="Arial" font-size="13.45" transform="matrix(.9988 0 0 1 -319.289 -49.032)">азота в коллекторе</text><text x="424.93" y="475" font-family="Arial" font-size="13.45" transform="matrix(.9988 0 0 1 -319.329 -7.267)">Открыть клапан </text><text x="413.6" y="488.68" font-family="Arial" font-size="13.45" transform="matrix(.9988 0 0 1 -319.329 -7.267)">продувки азотом 24</text><text x="425.44" y="475" font-family="Arial" font-size="13.45" transform="matrix(.9988 0 0 1 -319.261 76.559)">Закрыть клапан </text><text x="413.6" y="488.68" font-family="Arial" font-size="13.45" transform="matrix(.9988 0 0 1 -319.261 76.559)">продувки азотом 24</text><text x="413.86" y="475" font-family="Arial" font-size="13.45" transform="matrix(.9988 0 0 1 -319.211 34.646)">Ожидание времени</text><text x="422.95" y="488.68" font-family="Arial" font-size="13.45" transform="matrix(.9988 0 0 1 -319.211 34.646)">продувки азотом</text><text x="399.63" y="475" font-family="Arial" font-size="13.45" transform="matrix(.9988 0 0 1 -319.491 118.324)">Контроль расхода азота</text><text x="433.45" y="488.68" font-family="Arial" font-size="13.45" transform="matrix(.9988 0 0 1 -319.491 118.324)">при продувки</text><text x="399.38" y="475" font-family="Arial" font-size="13.45" transform="matrix(.9988 0 0 1 -319.144 160.237)">Закрыть отделительный</text><text x="429.2" y="488.68" font-family="Arial" font-size="13.45" transform="matrix(.9988 0 0 1 -319.144 160.237)">клапан газа 13</text><text x="413.86" y="475" font-family="Arial" font-size="13.45" transform="matrix(.9988 0 0 1 -319.191 199.483)">Ожидание времени</text><text x="407.35" y="488.68" font-family="Arial" font-size="13.45" transform="matrix(.9988 0 0 1 -319.191 199.483)">вентиляции воздухом</text><text x="417.43" y="475" font-family="Arial" font-size="13.45" transform="matrix(.9988 0 0 1 -319.211 403.459)">Открыть сбросной</text><text x="443.86" y="488.68" font-family="Arial" font-size="13.45" transform="matrix(.9988 0 0 1 -319.211 403.459)">клапан 13</text><text x="418.95" y="475" font-family="Arial" font-size="13.45" transform="matrix(.9988 0 0 1 -317.274 364.158)">Зкарыть дымовой </text><text x="443.86" y="488.68" font-family="Arial" font-size="13.45" transform="matrix(.9988 0 0 1 -317.274 364.158)">клапан 12</text><text x="418.95" y="475" font-family="Arial" font-size="13.45" transform="matrix(.9988 0 0 1 -317.274 324.926)">Зкарыть дымовой </text><text x="444.36" y="488.68" font-family="Arial" font-size="13.45" transform="matrix(.9988 0 0 1 -317.274 324.926)">клапан 11</text><text x="419.02" y="475" font-family="Arial" font-size="13.45" transform="matrix(.9988 0 0 1 -319.261 241.396)">Закрыть отсечной</text><text x="405.12" y="488.68" font-family="Arial" font-size="13.45" transform="matrix(.9988 0 0 1 -319.261 241.396)">клапан на возд.гор. 24</text><text x="419.02" y="475" font-family="Arial" font-size="13.45" transform="matrix(.9988 0 0 1 -319.261 283.161)">Закрыть отсечной</text><text x="405.12" y="488.68" font-family="Arial" font-size="13.45" transform="matrix(.9988 0 0 1 -319.261 283.161)">клапан на возд.гор. 17</text><text x="419.02" y="475" font-family="Arial" font-size="13.45" transform="matrix(.9988 0 0 1 -319.315 -88.13)">Закрыть отсечной</text><text x="399.7" y="488.68" font-family="Arial" font-size="13.45" transform="matrix(.9988 0 0 1 -319.315 -88.13)">клапан из смеш. газе 16</text><path fill="none" stroke="#000" stroke-miterlimit="22.926" d="M26.82 80.78h790.92v818.44H26.82z"/></svg>