<svg xmlns="http://www.w3.org/2000/svg" xml:space="preserve" width="255" height="700" fill-rule="evenodd" clip-rule="evenodd" image-rendering="optimizeQuality" shape-rendering="geometricPrecision" text-rendering="geometricPrecision" viewBox="0 0 255 700.01"><defs><linearGradient id="a" x1="208.94" x2="208.94" y1="77.77" y2="92.85" gradientUnits="userSpaceOnUse"><stop offset="0" stop-color="#D4D4D4"/><stop offset="1" stop-color="#B0B0B0"/></linearGradient><linearGradient id="b" x1="208.94" x2="208.94" y1="272.29" y2="287.38" gradientUnits="userSpaceOnUse"><stop offset="0" stop-color="#D4D4D4"/><stop offset="1" stop-color="#B0B0B0"/></linearGradient><linearGradient id="c" x1="208.94" x2="208.94" y1="299.85" y2="314.94" gradientUnits="userSpaceOnUse"><stop offset="0" stop-color="#D4D4D4"/><stop offset="1" stop-color="#B0B0B0"/></linearGradient><linearGradient id="d" x1="208.94" x2="208.94" y1="550.9" y2="565.98" gradientUnits="userSpaceOnUse"><stop offset="0" stop-color="#D4D4D4"/><stop offset="1" stop-color="#B0B0B0"/></linearGradient></defs><path fill="#fff" stroke="#333" stroke-miterlimit="22.926" d="M0 0h255v700.01H0z"/><path fill="#E6E6E6" stroke="#333" stroke-miterlimit="22.926" d="M12.83 49.43h233.88v633.1H12.83z"/><path fill="#3C3" d="M26.93 432.89h205.48v28H26.93z"/><path fill="none" stroke="#333" stroke-miterlimit="22.926" d="M26.82 69.07h205.9v561.45H26.82z"/><g fill="none" stroke="#333" stroke-miterlimit="22.926"><path d="M27.04 600.51h205.68"/><path d="M27.04 572.54h205.68"/><path d="M27.04 544.58h205.68"/><path d="M27.04 516.61h205.68"/><path d="M27.04 488.65h205.68"/><path d="M27.04 460.68h205.68"/><path d="M27.04 432.72h205.68"/><path d="M27.04 404.76h205.68"/><path d="M27.04 376.79h205.68"/><path d="M27.04 348.83h205.68"/><path d="M27.04 320.86h205.68"/><path d="M27.04 292.9h205.68"/><path d="M27.04 264.94h205.68"/><path d="M27.04 236.97h205.68"/><path d="M27.04 209.01h205.68"/><path d="M27.04 181.04h205.68"/><path d="M27.04 153.08h205.68"/><path d="M27.04 125.11h205.68"/><path d="M27.04 97.15h205.68"/><path d="M27.04 69.19h205.68"/></g><text x="127.5" y="350" font-family="Arial" font-size="12.48" transform="matrix(1.00143 0 0 1 -96.422 -259.223)">0.</text><text x="127.5" y="377.75" font-family="Arial" font-size="12.48" transform="matrix(1.00143 0 0 1 -96.422 -259.223)">1.</text><text x="127.5" y="405.5" font-family="Arial" font-size="12.48" transform="matrix(1.00143 0 0 1 -96.422 -259.223)">2.</text><text x="127.5" y="433.24" font-family="Arial" font-size="12.48" transform="matrix(1.00143 0 0 1 -96.422 -259.223)">3.</text><text x="127.5" y="460.99" font-family="Arial" font-size="12.48" transform="matrix(1.00143 0 0 1 -96.422 -259.223)">4.</text><text x="127.5" y="488.74" font-family="Arial" font-size="12.48" transform="matrix(1.00143 0 0 1 -96.422 -259.223)">5.</text><text x="127.5" y="516.48" font-family="Arial" font-size="12.48" transform="matrix(1.00143 0 0 1 -96.422 -259.223)">6.</text><text x="127.5" y="544.23" font-family="Arial" font-size="12.48" transform="matrix(1.00143 0 0 1 -96.422 -259.223)">7.</text><text x="127.5" y="571.98" font-family="Arial" font-size="12.48" transform="matrix(1.00143 0 0 1 -96.422 -259.223)">8.</text><text x="127.5" y="599.72" font-family="Arial" font-size="12.48" transform="matrix(1.00143 0 0 1 -96.422 -259.223)">9.</text><text x="127.5" y="627.47" font-family="Arial" font-size="12.48" transform="matrix(1.00143 0 0 1 -96.422 -259.223)">10.</text><text x="127.5" y="655.22" font-family="Arial" font-size="12.48" transform="matrix(1.00143 0 0 1 -96.422 -259.223)">11.</text><text x="127.5" y="682.96" font-family="Arial" font-size="12.48" transform="matrix(1.00143 0 0 1 -96.422 -259.223)">12.</text><text x="127.5" y="710.71" font-family="Arial" font-size="12.48" transform="matrix(1.00143 0 0 1 -96.422 -259.223)">13.</text><text x="127.5" y="738.46" font-family="Arial" font-size="12.48" transform="matrix(1.00143 0 0 1 -96.422 -259.223)">14.</text><text x="127.5" y="766.2" font-family="Arial" font-size="12.48" transform="matrix(1.00143 0 0 1 -96.422 -259.223)">15.</text><text x="127.5" y="793.95" font-family="Arial" font-size="12.48" transform="matrix(1.00143 0 0 1 -96.422 -259.223)">16.</text><text x="127.5" y="821.7" font-family="Arial" font-size="12.48" transform="matrix(1.00143 0 0 1 -96.422 -259.223)">17.</text><text x="127.5" y="849.44" font-family="Arial" font-size="12.48" transform="matrix(1.00143 0 0 1 -96.422 -259.223)">18</text><text x="127.5" y="877.19" font-family="Arial" font-size="12.48" transform="matrix(1.00143 0 0 1 -96.422 -259.223)">19.</text><text x="127.5" y="350" font-family="Arial" font-size="12.48" transform="matrix(1.00143 0 0 1 -77.673 -259.223)">ОЖИДАНИЕ</text><g font-family="Arial" font-size="12.48"><text x="127.5" y="377.75" transform="matrix(1.00143 0 0 1 -77.673 -259.223)">ОТКРЫТИЕ</text><text x="199.86" y="377.75" transform="matrix(1.00143 0 0 1 -77.673 -259.223)">ВК</text><text x="196.4" y="377.75" transform="matrix(1.00143 0 0 1 -77.673 -259.223)"> </text></g><text x="127.5" y="405.5" font-family="Arial" font-size="12.48" transform="matrix(1.00143 0 0 1 -77.673 -259.223)">ОТКР. ВГУК, ЗАКР. ВК</text><text x="127.5" y="433.24" font-family="Arial" font-size="12.48" transform="matrix(1.00143 0 0 1 -77.673 -259.223)">ОЖИДАНИЕ ТАРИРОВКИ</text><text x="127.5" y="460.99" font-family="Arial" font-size="12.48" transform="matrix(1.00143 0 0 1 -77.673 -259.223)">ЖЕЛОБ на БУНКЕР</text><text x="127.5" y="488.74" font-family="Arial" font-size="12.48" transform="matrix(1.00143 0 0 1 -77.673 -259.223)">ОЖИДАНИЕ МАТ-ЛА</text><text x="127.5" y="516.48" font-family="Arial" font-size="12.48" transform="matrix(1.00143 0 0 1 -77.673 -259.223)">ЗАГРУЗКА</text><text x="127.5" y="544.23" font-family="Arial" font-size="12.48" transform="matrix(1.00143 0 0 1 -77.673 -259.223)">СРАВНЕН. ВЕСА с ШП</text><text x="127.5" y="571.98" font-family="Arial" font-size="12.48" transform="matrix(1.00143 0 0 1 -77.673 -259.223)">ЖЕЛОБ в СРЕДНЕЕ</text><text x="127.5" y="599.72" font-family="Arial" font-size="12.48" transform="matrix(1.00143 0 0 1 -77.673 -259.223)">ЗАКРЫТИЕ ВГУК</text><text x="127.5" y="627.47" font-family="Arial" font-size="12.48" transform="matrix(1.00143 0 0 1 -77.673 -259.223)">ОТКРЫТИЕ НКП</text><text x="127.5" y="655.22" font-family="Arial" font-size="12.48" transform="matrix(1.00143 0 0 1 -77.673 -259.223)">ЗАКРЫТИЕ НКП</text><text x="127.5" y="682.96" font-family="Arial" font-size="12.48" transform="matrix(1.00143 0 0 1 -77.673 -259.223)">ОТКР, НВК, ПЫЛЕПОД.</text><text x="127.5" y="710.71" font-family="Arial" font-size="12.48" transform="matrix(1.00143 0 0 1 -77.673 -259.223)">ОЖИДАНИЕ ВЫГРУЗКИ</text><text x="127.5" y="738.46" font-family="Arial" font-size="12.48" transform="matrix(1.00143 0 0 1 -77.673 -259.223)">ОТКРЫТИЕ НГУК</text><text x="127.5" y="766.2" font-family="Arial" font-size="12.48" transform="matrix(1.00143 0 0 1 -77.673 -259.223)">РАЗРЕШЕНИЕ от ЛОТКА</text><text x="127.5" y="793.95" font-family="Arial" font-size="12.48" transform="matrix(1.00143 0 0 1 -77.673 -259.223)">ВЫГРУЗКА</text><text x="127.5" y="821.7" font-family="Arial" font-size="12.48" transform="matrix(1.00143 0 0 1 -77.673 -259.223)">ПОЛНОЕ ОТКР. ШЗ</text><text x="127.5" y="849.44" font-family="Arial" font-size="12.48" transform="matrix(1.00143 0 0 1 -77.673 -259.223)">ЗАКРЫТИЕ ШЗ</text><text x="127.5" y="877.19" font-family="Arial" font-size="12.48" transform="matrix(1.00143 0 0 1 -77.673 -259.223)">ЗАКРЫТИЕ НГУК, НКВ</text><text x="127.5" y="904.94" font-family="Arial" font-size="12.48" transform="matrix(1.00143 0 0 1 -77.673 -259.223)"> </text><rect width="35.83" height="15.08" x="191.03" y="77.77" fill="url(#a)" stroke="#333" stroke-miterlimit="22.926" rx="2.76" ry="2.08"/><g fill="none" stroke="#333" stroke-miterlimit="22.926"><path d="m240.71 5.35 9.38 9.36"/><path d="m250.09 5.35-9.38 9.36"/></g><rect width="35.83" height="15.08" x="191.03" y="272.29" fill="url(#b)" stroke="#333" stroke-miterlimit="22.926" rx="2.76" ry="2.08"/><rect width="35.83" height="15.08" x="191.03" y="299.85" fill="url(#c)" stroke="#333" stroke-miterlimit="22.926" rx="2.76" ry="2.08"/><rect width="95.96" height="22.85" x="26.82" y="643.91" fill="none" stroke="#333" stroke-miterlimit="22.926" rx="7.38" ry="3.15"/><rect width="99.53" height="22.85" x="133.19" y="643.91" fill="none" stroke="#333" stroke-miterlimit="22.926" rx="7.66" ry="3.15"/><text x="127.5" y="350" font-family="Arial" font-size="12.48" font-weight="bold" transform="matrix(1.00143 0 0 1 -81.835 309.247)">Бункер 2</text><text x="127.5" y="350" font-family="Arial" font-size="12.48" font-weight="bold" transform="matrix(1.00143 0 0 1 29.105 309.767)">Закрыть</text><rect width="35.83" height="15.08" x="191.03" y="550.9" fill="url(#d)" stroke="#333" stroke-miterlimit="22.926" rx="2.76" ry="2.08"/></svg>