<svg xmlns="http://www.w3.org/2000/svg" xml:space="preserve" width="900" height="880" fill-rule="evenodd" clip-rule="evenodd" image-rendering="optimizeQuality" shape-rendering="geometricPrecision" text-rendering="geometricPrecision"><defs><linearGradient id="b" x1="473.33" x2="473.33" y1="39.56" y2="-6" gradientUnits="userSpaceOnUse"><stop offset="0" stop-color="#115DFF"/><stop offset=".329" stop-color="#0D65FF"/><stop offset=".471" stop-color="#2830FF"/><stop offset="1" stop-color="#086EFF"/></linearGradient><linearGradient id="c" x1="840.55" x2="837.62" y1="478.69" y2="490.84" gradientUnits="userSpaceOnUse"><stop offset="0" stop-color="#696969"/><stop offset="1" stop-color="#fff"/></linearGradient><clipPath id="a"><path d="M0 .5h900v880H0V.5z"/></clipPath></defs><path fill="#CCC" d="M0 .5h900v880H0z"/><g clip-path="url(#a)"><path fill="url(#b)" d="M-8.81-6h964.29v45.55H-8.81z"/></g><path fill="none" stroke="#0000D5" stroke-miterlimit="22.926" d="M0 .5h900v880H0z"/><path fill="#EAD5BF" d="M8.67 40.58h889.69v316.25H8.67z"/><path fill="none" stroke="#80BFFF" stroke-miterlimit="22.926" d="M8 40.77h796.67v315.36H8z"/><path fill="none" stroke="#666" stroke-miterlimit="22.926" d="M11.69 612.95h254.88v129.52H11.69z"/><path fill="none" stroke="#666" stroke-miterlimit="22.926" d="M11.69 750.29h254.88v93.99H11.69z"/><path fill="#fff" stroke="#B3B3B3" stroke-miterlimit="22.926" d="M13.98 358.56v8.13h-3.3v34.73h95.11v-33.79H24.81z"/><path fill="#002B55" stroke="#00f" stroke-miterlimit="22.926" d="M10.81 42.81h789.31v309.86H10.81z"/><path fill="none" stroke="gray" stroke-dasharray="2.000000 1.000000" stroke-miterlimit="22.926" d="M798.58 198.76H10.57"/><path fill="none" stroke="gray" stroke-dasharray="2.000000 1.000000" stroke-miterlimit="22.926" d="M798.58 276.04H8.76"/><path fill="#002B55" stroke="#0000D5" stroke-miterlimit="22.926" d="M13.29 434.79h785.37v24.88H13.29z"/><path fill="#002B55" stroke="#0000D5" stroke-miterlimit="22.926" d="M13.29 464.2h785.37v24.88H13.29z"/><path fill="#002B55" stroke="#0000D5" stroke-miterlimit="22.926" d="M13.29 493.61h785.37v24.88H13.29z"/><path fill="#002B55" stroke="#0000D5" stroke-miterlimit="22.926" d="M13.29 520.52h785.37v24.88H13.29z"/><path fill="#002B55" stroke="#0000D5" stroke-miterlimit="22.926" d="M13.29 549.93h785.37v24.88H13.29z"/><path fill="#002B55" stroke="#0000D5" stroke-miterlimit="22.926" d="M13.29 579.96h785.37v24.88H13.29z"/><path fill="#fff" d="M17.37 436.84h20.36v20.3H17.37z"/><path fill="none" stroke="#fff" stroke-miterlimit="22.926" d="M13.86 616.08h254.88v129.2H13.86z"/><path fill="#fff" d="M423.54 437.92h112.37v17.83H423.54z"/><path fill="none" stroke="#000" stroke-miterlimit="22.926" d="M182.44 655.49h76.6v27.53h-76.6z"/><path fill="none" stroke="#000" stroke-miterlimit="22.926" d="M169.89 703.05h89.16v27.53h-89.16z"/><path fill="none" stroke="#fff" stroke-miterlimit="22.926" d="M13.86 752.56h254.88v93.77H13.86z"/><path fill="#EAD5BF" stroke="#000" stroke-miterlimit="22.926" d="M519.56 664.5h345.29v49.12H519.56z"/><path fill="none" stroke="#fff" stroke-miterlimit="22.926" d="M278.54 616.08h225.31v129.2H278.54z"/><path fill="none" stroke="#666" stroke-miterlimit="22.926" d="M276.62 612.95h225.31v129.52H276.62z"/><path fill="none" stroke="#fff" stroke-miterlimit="22.926" d="M515.84 615.65h371.6v111.47h-371.6z"/><path fill="none" stroke="#666" stroke-miterlimit="22.926" d="M512.67 612.95h371.6V724.7h-371.6z"/><path fill="none" stroke="#fff" stroke-miterlimit="22.926" d="M515.84 735.16h371.6v111.47h-371.6z"/><path fill="none" stroke="#666" stroke-miterlimit="22.926" d="M512.67 732.46h371.6v111.75h-371.6z"/><rect width="162.28" height="45.05" x="316.44" y="801.89" fill="#fff" stroke="#000" stroke-miterlimit="22.926" rx="2.2" ry="2.19"/><rect width="149.1" height="35.67" x="323.03" y="806.58" fill="#fff" stroke="#003C74" stroke-miterlimit="22.926" rx="2.02" ry="1.73"/><rect width="160.55" height="52.87" x="310.16" y="678.31" fill="#fff" stroke="#000" stroke-miterlimit="22.926" rx="2.17" ry="2.57"/><rect width="147.51" height="41.85" x="316.68" y="683.82" fill="#fff" stroke="#003C74" stroke-miterlimit="22.926" rx="2" ry="2.03"/><rect width="80.82" height="42.23" x="529.89" y="668.3" fill="#fff" stroke="#000" stroke-miterlimit="22.926" rx="1.09" ry="2.05"/><rect width="74.25" height="33.43" x="533.17" y="672.7" fill="#fff" stroke="#003C74" stroke-miterlimit="22.926" rx="1" ry="1.62"/><path fill="#E6E6E6" stroke="#000" stroke-miterlimit="22.926" d="M648.26 779.39h107.77v37.82H648.26z"/><path fill="#fff" stroke="#B3B3B3" stroke-miterlimit="22.926" d="M801.23 358.56v8.13h23.07v34.73h-93.85l.15-34.57h59.96z"/><path fill="#fff" stroke="#B3B3B3" stroke-miterlimit="22.926" d="m807.33 352.92 9.49-9.47v-5.7h77.15v18.92h-77.22l.89-3.32z"/><path fill="#fff" stroke="#B3B3B3" stroke-miterlimit="22.926" d="m807.33 203.22 9.49 9.46v5.71h77.15v-18.93h-77.22l.89 3.33z"/><path fill="#fff" stroke="#B3B3B3" stroke-miterlimit="22.926" d="m807.33 47.42 9.49 9.46v5.71h77.15V43.66h-77.22l.89 3.33z"/><path fill="none" stroke="#E6E6E6" stroke-miterlimit="22.926" d="M502.35 367.63h33.12v33.01h-33.12z"/><path fill="none" stroke="#E6E6E6" stroke-miterlimit="22.926" d="M539.7 367.63h33.12v33.01H539.7z"/><path fill="none" stroke="#E6E6E6" stroke-miterlimit="22.926" d="M577.06 367.63h33.12v33.01h-33.12z"/><path fill="none" stroke="#E6E6E6" stroke-miterlimit="22.926" d="M614.88 367.63H648v33.01h-33.12z"/><path fill="none" stroke="#0E0F96" stroke-dasharray="1.000000 1.000000" stroke-miterlimit="22.926" d="m525.97 392.19-.01-16.11"/><path fill="none" stroke="red" stroke-miterlimit="22.926" d="M511.93 382.88h4.93l2.16-2.77h3.57l3.1-4.27"/><path fill="none" stroke="#0E0F96" stroke-dasharray="1.000000 1.000000" stroke-miterlimit="22.926" d="m512.74 392.19-.01-10.11"/><path fill="none" stroke="#000" stroke-miterlimit="22.926" d="M509.8 375.69h19.3v12.36h-19.3z"/><path fill="none" stroke="#000" stroke-miterlimit="22.926" d="M511.94 392.18h14.81"/><path fill="none" stroke="#000" stroke-miterlimit="22.926" d="M515.59 390.26v3.72"/><path fill="none" stroke="#000" stroke-miterlimit="22.926" d="M523.36 390.26v3.72"/><ellipse cx="556.26" cy="384.13" fill="#4080BF" stroke="#05A" stroke-miterlimit="22.926" rx="9.34" ry="9.31"/><g fill="none" stroke="#fff" stroke-miterlimit="22.926" stroke-width="2"><path d="M556.26 377.64v12.99"/><path d="M562.78 384.13h-13.03"/></g><ellipse cx="593.22" cy="384.13" fill="#4080BF" stroke="#05A" stroke-miterlimit="22.926" rx="9.34" ry="9.31"/><path fill="none" stroke="#fff" stroke-miterlimit="22.926" stroke-width="2" d="M599.74 384.13h-13.03"/><path fill="none" stroke="#000" stroke-miterlimit="22.926" d="M628.02 382.59s.68-3.75 4.78-2.95c4.11.8 3.85 4.01 3.65 5.32-.19 1.31-.9 2.58-2.21 3.3"/><path d="m625.53 380.17 5.33 3.32-5.24 4.27z"/><g fill="#fff" font-family="Arial" font-size="22" font-weight="bold"><text x="450" y="440" transform="matrix(1.00333 0 0 1 -408.809 14.22)">F</text><text x="463.44" y="440" transform="matrix(1.00333 0 0 1 -408.809 14.22)"> заданный природного газа, м3/ч</text></g><path fill="red" d="M17.37 466.25h20.36v20.3H17.37z"/><path fill="#fff" d="M423.54 467.33h112.37v17.83H423.54z"/><g fill="red" font-family="Arial" font-size="22" font-weight="bold"><text x="450" y="440" transform="matrix(1.00333 0 0 1 -408.809 43.628)">F</text><text x="463.44" y="440" transform="matrix(1.00333 0 0 1 -408.809 43.628)"> природного газа, м3/ч</text></g><path fill="#FF8000" d="M17.37 495.66h20.36v20.3H17.37z"/><path fill="#fff" d="M423.54 496.74h112.37v17.83H423.54z"/><text x="450" y="440" fill="#FF8000" font-family="Arial" font-size="22" font-weight="bold" transform="matrix(1.00333 0 0 1 -408.809 73.037)">Заданная теоретич. Т горений</text><path fill="#ff0" d="M17.37 522.57h20.36v20.3H17.37z"/><path fill="#fff" d="M423.54 523.64h112.37v17.83H423.54z"/><text x="450" y="440" fill="#ff0" font-family="Arial" font-size="22" font-weight="bold" transform="matrix(1.00333 0 0 1 -408.809 99.944)">Теоретическая Т горения</text><path fill="#0ff" d="M17.37 551.98h20.36v20.3H17.37z"/><path fill="#fff" d="M423.54 553.05h112.37v17.83H423.54z"/><text x="450" y="440" fill="#0ff" font-family="Arial" font-size="22" font-weight="bold" transform="matrix(1.00333 0 0 1 -408.809 129.352)">Положение дросселя 302, %</text><path fill="#0080FF" d="M17.37 582.01h20.36v20.3H17.37z"/><path fill="#fff" d="M423.54 583.09h112.37v17.83H423.54z"/><text x="450" y="440" fill="#00152B" font-family="Arial" font-size="16.74" transform="matrix(1.00333 0 0 1 -48.349 -12.958)">Current Value</text><text x="450" y="440" fill="#00152B" font-family="Arial" font-size="16.74" transform="matrix(1.00333 0 0 1 256.756 -12.958)">Шкала</text><text x="450" y="440" font-family="Arial" font-size="24.42" font-weight="bold" transform="matrix(1.00333 0 0 1 87.424 257.735)">Откл</text><text x="450" y="440" fill="#A00" font-family="Arial" font-size="25.43" font-weight="bold" transform="matrix(1.00333 0 0 1 -125.778 274.742)">расход ПГ</text><text x="450" y="440" fill="#A00" font-family="Arial" font-size="25.43" font-weight="bold" transform="matrix(1.00333 0 0 1 -84.97 392.689)">Откл</text><path fill="#BFBFBF" stroke="#000" stroke-miterlimit="22.926" d="M803.48 671.54h51.79v37.54h-51.79z"/><g stroke="#000" stroke-miterlimit="22.926" stroke-width="2.36"><path d="m843.03 689.81-5.69-4.91-5.7-4.91v19.64l5.7-4.91z"/><path d="m833.01 689.81-5.69-4.91-5.7-4.91v19.64l5.7-4.91z"/></g><path fill="#BFBFBF" stroke="#000" stroke-miterlimit="22.926" d="M745.57 671.54h51.79v37.54h-51.79z"/><path stroke="#000" stroke-miterlimit="22.926" stroke-width="2.36" d="m781.28 689.81-5.99-4.75-5.99-4.76V699.31l5.99-4.75z"/><path fill="#BFBFBF" stroke="#000" stroke-miterlimit="22.926" d="M628.48 671.54h51.79v37.54h-51.79z"/><g stroke="#000" stroke-miterlimit="22.926" stroke-width="2.36"><path d="m640.72 689.81 5.7-4.91 5.69-4.91v19.64l-5.69-4.91z"/><path d="m650.74 689.81 5.7-4.91 5.69-4.91v19.64l-5.69-4.91z"/></g><path fill="#BFBFBF" stroke="#000" stroke-miterlimit="22.926" d="M686.4 671.54h51.79v37.54H686.4z"/><path stroke="#000" stroke-miterlimit="22.926" stroke-width="2.36" d="m702.47 689.81 5.99-4.75 5.99-4.76V699.31l-5.99-4.75z"/><text x="450" y="440" font-family="Arial" font-size="20.6" font-style="italic" font-weight="bold" transform="matrix(1.00333 0 0 1 71.49 202.536)">Управление с клавиатуры п.302</text><path d="M522.99 644.41h336.54v.94H522.99z"/><text x="450" y="440" font-family="Arial" font-size="19.41" transform="matrix(1.00333 0 0 1 417.682 269.372)">0</text><g font-family="Arial" font-size="20.6" font-style="italic" font-weight="bold"><text x="450" y="440" transform="matrix(1.00333 0 0 1 78.396 328.304)">Расч. оптимальный </text><text x="678.31" y="440" transform="matrix(1.00333 0 0 1 78.396 328.304)"> ПГ на печь</text><text x="665.72" y="440" transform="matrix(1.00333 0 0 1 78.396 328.304)">F</text></g><path d="M529.89 770.18h216.44v.94H529.89z"/><path d="M746.33 770.18h12.63v.94h-12.63z"/><path d="M758.96 770.18h116.68v.94H758.96z"/><text x="450" y="440" font-family="Arial" font-size="30.87" font-weight="bold" transform="matrix(1.00333 0 0 1 207.21 369.027)">45711</text><text x="450" y="440" font-family="Arial" font-size="20.6" font-style="italic" font-weight="bold" transform="matrix(1.00333 0 0 1 312.248 365.223)">м3/ч</text><path d="M763.75 807.1h44.57v.93h-44.57z"/><text x="353.38" y="440" font-family="Arial" font-size="20.6" font-style="italic" font-weight="bold" transform="matrix(1.00333 0 0 1 -61.638 202.224)">Выбор параметра</text><text x="371.08" y="463.01" font-family="Arial" font-size="20.6" font-style="italic" font-weight="bold" transform="matrix(1.00333 0 0 1 -61.638 202.224)">регулирования</text><path d="M292.92 644.1H486.8v.93H292.92z"/><path d="M486.8 644.1v.93z"/><path d="M310.68 667.11h158.36v.94H310.68z"/><g font-family="Arial" font-size="20.6" font-style="italic" font-weight="bold"><text x="363.27" y="440" transform="matrix(1.00333 0 0 1 -56.302 327.054)">Регулир. по </text><text x="503.55" y="440" transform="matrix(1.00333 0 0 1 -56.302 327.054)"> ПГ</text><text x="490.96" y="440" transform="matrix(1.00333 0 0 1 -56.302 327.054)">F</text></g><text x="377.48" y="463.01" font-family="Arial" font-size="20.6" font-style="italic" font-weight="bold" transform="matrix(1.00333 0 0 1 -56.302 327.054)">с учетом ПУТ</text><path d="M308.18 768.93h128.11v.93H308.18z"/><path d="M436.29 768.93h12.63v.93h-12.63z"/><path d="M448.92 768.93h33.29v.93h-33.29z"/><path d="M482.21 768.93v.93z"/><path d="M322.43 791.94h145.53v.94H322.43z"/><text x="379.19" y="440" font-family="Arial" font-size="20.6" font-style="italic" font-weight="bold" transform="matrix(1.00333 0 0 1 -323.74 204.103)">Ввод заданий</text><path d="M56.71 645.98H198.8v.93H56.71z"/><text x="352.48" y="440" font-family="Arial" font-size="20.6" font-style="italic" font-weight="bold" transform="matrix(1.00333 0 0 1 -323.74 339.257)">Режим управления</text><path d="M29.91 781.13H225.6v.94H29.91z"/><text x="450" y="440" font-family="Arial" font-size="21.41" transform="matrix(1.00333 0 0 1 -427.653 237.286)">ТТГ</text><text x="450" y="440" font-family="Arial" font-size="21.41" transform="matrix(1.00333 0 0 1 -427.653 273.891)">F прир. газа</text><text x="450" y="458.42" font-family="Arial" font-size="21.41" transform="matrix(1.00333 0 0 1 -427.653 273.891)">м3/час</text><text x="450" y="440" font-family="Arial" font-size="26.62" transform="matrix(1.00333 0 0 1 -258.613 240.094)">2110</text><text x="450" y="440" font-family="Arial" font-size="26.62" transform="matrix(1.00333 0 0 1 -275.446 286.398)">45000</text><path fill="#EAD5BF" stroke="#000" stroke-miterlimit="22.926" d="M70.59 788.34h140.62v48.18H70.59z"/><text x="450" y="440" font-family="Arial" font-size="26.62" font-weight="bold" transform="matrix(1.00333 0 0 1 -319.076 379.943)">--</text><text x="450" y="440" font-family="GOST type A" font-size="17.62" transform="matrix(1.00333 0 0 1 372.246 -380.193)">50000,00</text><text x="450" y="440" font-family="GOST type A" font-size="17.62" transform="matrix(1.00333 0 0 1 371.618 -225.015)">25400,00</text><text x="450" y="440" font-family="GOST type A" font-size="17.62" transform="matrix(1.00333 0 0 1 370.363 -86.42)">800,00</text><text x="399.28" y="440" font-family="GOST Type BU" font-size="15.11" transform="matrix(1.00333 0 0 1 367.743 -57.318)">06:49:00</text><g font-family="GOST Type BU" font-size="15.11"><text x="396.17" y="455.76" transform="matrix(1.00333 0 0 1 367.743 -57.318)"> 17 2023</text><text x="373.4" y="455.76" transform="matrix(1.00333 0 0 1 367.743 -57.318)">Nov</text></g><text x="450" y="440" font-family="GOST Type BU" font-size="15.11" transform="matrix(1.00333 0 0 1 -437.038 -57.632)">05:59:00</text><g font-family="GOST Type BU" font-size="15.11"><text x="472.77" y="455.76" transform="matrix(1.00333 0 0 1 -437.038 -57.632)"> 17 2023</text><text x="450" y="455.76" transform="matrix(1.00333 0 0 1 -437.038 -57.632)">Nov</text></g><text x="450" y="440" font-family="Arial" font-size="15.47" font-weight="bold" transform="matrix(1.00333 0 0 1 -25.393 12.076)">45000,00</text><text x="450" y="440" font-family="Arial" font-size="15.47" font-weight="bold" transform="matrix(1.00333 0 0 1 -25.393 41.797)">45060,20</text><text x="450" y="440" font-family="Arial" font-size="15.47" font-weight="bold" transform="matrix(1.00333 0 0 1 -25.393 71.205)">2110,00</text><text x="450" y="440" font-family="Arial" font-size="15.47" font-weight="bold" transform="matrix(1.00333 0 0 1 -25.393 98.112)">2180,00</text><text x="450" y="440" font-family="Arial" font-size="15.47" font-weight="bold" transform="matrix(1.00333 0 0 1 -25.393 128.458)">45,00</text><path fill="none" stroke="#05A" stroke-miterlimit="22.926" d="M814.73 452.02h49.6v45.05h-49.6z"/><path fill="none" stroke="#05A" stroke-miterlimit="22.926" d="M814.73 507.87h49.6v45.05h-49.6z"/><path fill="#fff" d="M829.05 461.83h20.29v13.84h-20.29z"/><path fill="url(#c)" d="M833.67 478.68h10.83v12.17h-10.83z"/><path fill="#0080FF" stroke="#05A" stroke-miterlimit="22.926" d="M853.26 460.54h-3.84v15.09h-20.48v-15.09h-3.85v29.49h8.71v-11.27h10.75v11.27h8.71z"/><path fill="none" stroke="#B3B3B3" stroke-miterlimit="22.926" d="M832.63 465.04h12.9"/><path fill="none" stroke="#B3B3B3" stroke-miterlimit="22.926" d="M832.63 468.37h12.9"/><path fill="none" stroke="#B3B3B3" stroke-miterlimit="22.926" d="M832.63 471.69h12.9"/><path fill="#fff" stroke="#0080FF" stroke-miterlimit="22.926" stroke-width=".5" d="M825.38 515.32h17.96l5.27 5.27v23.67h-23.23z"/><path fill="none" stroke="#FF8000" stroke-miterlimit="22.926" stroke-width=".5" d="m827.26 532.76 5.18-7.66 4.08 4.42 3.81-5.48v-4.07h2.63"/><path fill="none" stroke="red" stroke-miterlimit="22.926" stroke-width=".5" d="M832.52 522.43v3.44"/><path fill="none" stroke="#FF8000" stroke-miterlimit="22.926" stroke-width=".5" d="M836.58 528.8v3.44"/><path fill="none" stroke="#0A0" stroke-miterlimit="22.926" stroke-width=".5" d="m826.73 535.84 5.79-5.8 4.37 4.42"/><path fill="#A00" d="M850.11 525.76s2.33-1.53 3.11-1.19c.79.34 2.15 3.61 2.07 4.56-.08.94-3.05 1.76-3.05 1.76l-2.13-5.13z"/><path fill="none" stroke="#0186F0" stroke-miterlimit="22.926" stroke-width=".5" d="m839.42 543.1-2.51-8.64"/><path fill="#0080FF" stroke="#05A" stroke-miterlimit="22.926" stroke-width=".5" d="m838.08 532.03 11.97-5.83 1.96 4.42-13.03 4.3z"/><path fill="#ff0" stroke="#FF8000" stroke-miterlimit="22.926" stroke-width=".5" d="m836.37 534.38 1.1-1.71.66 2.19z"/><path fill="none" stroke="#0186F0" stroke-miterlimit="22.926" stroke-width=".5" d="M843.03 515.3v5.08h5.61"/><text x="450" y="440" font-family="Arial" font-size="24.17" font-weight="bold" transform="matrix(1.00333 0 0 1 -413.633 -413.922)">Регулирование расхода природного газа на печь</text><text x="450" y="440" fill="#fff" font-family="Arial" font-size="24.17" font-weight="bold" transform="matrix(1.00333 0 0 1 -414.572 -414.405)">Регулирование расхода природного газа на печь</text><path fill="red" stroke="#A00" stroke-miterlimit="22.926" d="M862.2 5.79h25.11v28.78H862.2z"/><text x="450" y="440" fill="#fff" font-family="Arial" font-size="26.1" font-weight="bold" transform="matrix(1.09364 0 0 1 373.324 -409.572)">Х</text><path fill="none" stroke="gray" stroke-dasharray="2.000000 1.000000" stroke-miterlimit="22.926" d="M210.5 43.59v312.5"/><path fill="none" stroke="gray" stroke-dasharray="2.000000 1.000000" stroke-miterlimit="22.926" d="M407.32 42.73v313.36"/><path fill="none" stroke="gray" stroke-dasharray="2.000000 1.000000" stroke-miterlimit="22.926" d="M603.81 43.59v312.5"/><path fill="none" stroke="#fff" stroke-miterlimit="22.926" d="M23.46 73.17h776.16"/><path fill="none" stroke="red" stroke-miterlimit="22.926" d="M11.62 73.23h10.67l.6 2.2h236.23l1.26-2.17 1.34 2.32h127.03l1.28-2.2 1.37 2.36h1.75l1.36-2.35 1.57 2.71h1.7l.77-2.85h3.54l1.16 2 1.34-2.31h3.31l.76 2.81 1.59-2.75h3.38l.66 2.47h2.83l.66-2.42h.8l.74 2.77h.93l.53-1.98h14.43l1 1.72h4.1l1.44-2.47h3.04l.74 2.77h53.44l.69-2.58h.96l.79 2.96h9.25l.86-3.18h.91l.91 3.4h3.13l.81-3.01h7.51l1.18 2.03h3.11l.64-2.38h1.04l.76 2.85h1.69l.84-3.09h.94l.86 3.18h2.02l.74-2.74h2.61l1.71 2.96h1.64l.9-3.35h4.54l.76 2.84h8.76l.7-2.6 1.68 2.89.81-3.02h1.86l.8 3h30.74l1.52-2.62h76.12l.63 2.33h80.25l1.49-2.57h19.81l.7 2.63h2.12l1.4-2.42h23.66"/><path fill="none" stroke="gray" stroke-dasharray="2.000000 1.000000" stroke-miterlimit="22.926" d="M798.58 122.43H10.57"/><path fill="none" stroke="#FF8000" stroke-miterlimit="22.926" d="m11.54 123.49 792.32.01"/><path fill="none" stroke="#ff0" stroke-miterlimit="22.926" d="M11.57 120.67h8.83l1.2 2.06 1.48-2.56.73 2.73h2.36l.6-2.24h5.56l1.05 1.81 1.33-2.3.63 2.35h3.74l1.11-1.92h7.89l1.01 1.74h2.88l1.49-1.49.9 1.55 1.61-1.61h1.31l1.53 1.52h3.85l.96-1.66h3.26l.94 1.63h2.66l1.18-2.05h6.94l.57 2.12h.99l.56-2.08h7.11l.58 2.17h1.04l.63-2.36h4.68l1.25 2.14h2.53l1.16-2.01h3.04l1.2 2.08h3.27l1.91-1.9h5.51l1.13 1.96h10.45l1.07-1.86h1.75l1.07 1.85h1.1l.58-2.12h2.64l.59 2.19h2.11l1.07-1.85.53 1.98 2.04-2.03 1.29 2.22 1.35-2.33h4.06l.53 1.98h2.79l.62-2.31h6.46l1.16 2.01.86-1.5h3.24l1.2 2.06 1.15-1.98 1.63 1.62 1.05-1.8h14.79v2.4h10.63v-2.38h6.55l1.06 1.81 1.46-1.45 2.77 2.76 1.01-1.75h2.16l.7-1.21 1.6 1.59h7.75l1.03-1.78h5.45l1.11 1.91 1.56-1.55 1.26 1.26 1.26-1.25 1.43 1.43h1.25l1.32-1.32.85 1.47h5.69l1.56-1.56 1.02 1.76h1.73l1.07-1.85h15.92l1.04 1.8h6.99l1.15-1.99h1.48l.55 2.06h2.02l1.08-1.87h2.96l1.04 1.8h2.8l1.16-2.02h9.57l1.01 1.75h24.27l.91-1.56 1.05 1.81h7.1l1.08-1.85h13.11l1.39-1.38 1.03 1.78h3.29l.94-1.62 1.53 1.52h16.67l1.09-1.88h2.27l1.06 1.84h12.94l1.58-1.58 1.49 1.48h7.95l.46 1.69h2.72l1.11-1.91h7.45v2.17h6.78v-2.23h2.75v2.11h2.9v-2.42h2.26v2.74h2.22v-2.68h2.74v3.11h2.67v-3.36h2.61v3.56h4.39v-3.48h2.83v2.52h8.08v-2.35h2v2.27h1.85v-2.76h10.88v2.33h3.46l1.02 1.77 1.17-2.02h1.89l.54 2.03 1.32-2.27h5.49v-1.96h4.77v2.6h2.1v-2.16h2.01l.68 2.53h1.38v-2.61h2.31l1.56 2.68 1.25-2.17.89 1.54h11.03V120h9.42v3.01h1.72v-2.5h4.32v1.76h2.32v-1.88h2.08v1.76h1.88v-2.23h2.9v2.27h2.4v-1.76h6.43v-1.95h1.76v2.42h16.52v1.97h2.35v-2.13h1.9v1.89h8.55v-2.36h2.32v2.54h4.47v-2.38h2.46v2.36h69.95l.98.97h1.88l1.6-5.94 6.35 10.97h1.58l.97-1.67h5.47l.71-1.24h1.98l1.04 1.79 1.1-1.9h11.2v-1.78h4.12v-1.42h2.57l.68 2.53 1.36-2.35h3.2v-1.92h11.69v-1.88h2.04v3.54h3.02v-2.07h2.12l1.67 3.5 1.29-3.29h2.65l.93 1.6h2.03l1.03-1.77h2.78l1.08 1.86h2.76l1.53-1.52 1.74 1.73h4.62l1.17-2.01h1.76l.64 2.4 1.55-2.69 1.79 3.1.81-3.02 2.57 4.43 2.61-4.51 1.37 2.08 1.29-1.53h8.42l.97-1.67 1.22 2.1h2.95l1.16 1.17h4.13l.94 1.61 1.83-1.83h2.49l1.28 1.27 1.46-1.45h5.58v-1.59h8.99v1.88h2.62v-1.88h3.76l.46 1.73h1.23"/><path fill="none" stroke="#0ff" stroke-miterlimit="22.926" d="M11.54 212.75h2.24l1.2 4.49 1.2-4.47 1.21 4.5h3.37l1.2-4.46h5.16l1.33 4.94 1.28-4.8 1.16 4.32 1.25-4.62h4.08v2.25h1.85v2.46h5.76v-1.95h1.38v-3.13h1.45v4.83h2.08v-4.09h2.47v4.38h1.74v-4.91h2.24v4.87h2.06v-5.2h2.22v3.54h1.59v1.8h3v-2.33h1.2v-2.38h1.31v4.75h1.71v-4.7h4.75v2h1.92v2.03h3.3v-1.76h1.92v-2.73h2.27v2.23h1.22v2.58h1.1v-4.46h1.57v2.35h1.06v2.5h1.57v-5.16h5.57v2.15h1.22v2.46h1.69v-2.86H99l-.02-1.42h2.69l1.21 4.49 1.2-4.47 1.2 4.5h3.37l1.2-4.46h5.16l1.33 4.94 1.29-4.8 1.16 4.32 1.24-4.62h4.08v2.25h1.85v2.46h5.76v-1.95h1.38v-3.13h1.45v4.83h2.08v-4.09h2.47v4.38h1.75v-4.91h2.24v4.87h2.05v-5.2h2.22v3.54h1.59v1.8h3.01v-2.33h1.19v-2.38h1.32v4.75h1.7v-4.7h4.75v2h1.92v2.03h3.3v-1.76h1.92v-2.73h2.28v2.23h1.21v2.58h1.1v-4.46h1.57v2.35h1.06v2.5h1.57v-5.16h5.57v2.15h1.22v2.46h1.69v-2.86h1.57l-.01-1.39h2.51l1.21 4.5 1.2-4.47 1.21 4.5h3.36l1.2-4.47h5.16l1.33 4.95 1.29-4.8 1.16 4.31 1.24-4.61h4.08v2.25h1.85v2.46h5.77v-1.96h1.37v-3.12h1.45v4.83h2.08v-4.09h2.47v4.38h1.75v-4.91h2.24v4.87h2.06v-5.2h2.21v3.54h1.59v1.8h3.01v-2.33h1.19v-2.39h1.32v4.76h1.7v-4.7h4.75v2h1.92v2.03h3.3v-1.76h1.92v-2.74h2.28v2.23h1.22v2.59h1.09v-4.46h1.57v2.34h1.06v2.51h1.57v-5.17h5.57v2.15h1.22v2.47h1.69v-2.86h1.57l-.03-1.43h2.69l1.21 4.5 1.2-4.47 1.21 4.5h3.37l1.19-4.47h5.16l1.33 4.95 1.29-4.8 1.16 4.31 1.24-4.61h4.09v2.25h1.84v2.46h5.77v-1.96h1.37v-3.12h1.45v4.83h2.08v-4.09h2.47v4.38h1.75v-4.91h2.24v4.87h2.06v-5.2h2.22v3.54h1.58v1.8h3.01v-2.33h1.2v-2.39h1.31v4.76h1.7v-4.7h4.75v2h1.93v2.03h3.29v-1.76h1.93v-2.74h2.27v2.23h1.22v2.59h1.1v-4.46h1.56v2.34h1.07v2.51h1.56v-5.17h5.58v2.15h1.21v2.47h1.69v-2.86h1.57l.1-1.48.01 1.48h1.57v2.86h1.69v-2.47h1.21v-2.15h5.58v5.17h1.56v-2.51h1.06v-2.34h1.57v4.46h1.1v-2.59h1.22v-2.23h2.28v2.74h1.92v1.76h3.29v-2.03h1.93v-2h4.75v4.7h1.7v-4.76h1.31v2.39h1.2v2.33h3.01v-1.8h1.58v-3.54h2.22v5.2h2.06v-4.87h2.24v4.91h1.75v-4.38h2.47v4.09h2.08v-4.83h1.45v3.12h1.37v1.96h5.77v-2.46h1.84v-2.25h4.09l1.24 4.61 1.16-4.31 1.29 4.8 1.33-4.95h5.15l1.2 4.47h3.37l1.21-4.5 1.2 4.47 1.21-4.5h2.69l-.03 1.43h1.57v2.86h1.69v-2.47h1.21v-2.15h5.58v5.17h1.57v-2.51h1.06v-2.34h1.56v4.46h1.1v-2.59h1.22v-2.23h2.28v2.74h1.92v1.76h3.3v-2.03h1.92v-2h4.75v4.7h1.7v-4.76h1.32v2.39h1.19v2.33h3.01v-1.8h1.59v-3.54h2.21v5.2h2.06v-4.87h2.24v4.91h1.75v-4.38h2.47v4.09h2.08v-4.83h1.45v3.12h1.37v1.96h5.77v-2.46h1.85v-2.25h4.08l1.24 4.61 1.16-4.31 1.29 4.8 1.33-4.95h5.16l1.2 4.47h3.36l1.21-4.5 1.2 4.47 1.21-4.5h2.51l-.01 1.39h1.57v2.86h1.69v-2.46h1.22v-2.15h5.57v5.16h1.57v-2.5h1.06v-2.35h1.57v4.46h1.09v-2.58h1.22v-2.23h2.28v2.73h1.92v1.76h3.3v-2.03h1.92v-2h4.75v4.7h1.7v-4.75H572v2.38h1.19v2.33h3.01v-1.8h1.59v-3.54h2.22v5.2h2.05v-4.87h2.24v4.91h1.75v-4.38h2.47v4.09h2.08v-4.83h1.45v3.13h1.38v1.95h5.76v-2.46h1.85v-2.25h4.08l1.24 4.62 1.16-4.32 1.29 4.8 1.33-4.94h5.16l1.2 4.46h3.37l1.2-4.5 1.2 4.47 1.21-4.49h2.69l-.02 1.42h1.56v2.86h1.69v-2.46h1.22v-2.15h5.57v5.16h1.57v-2.5h1.06v-2.35h1.57v4.46h1.1v-2.58h1.21v-2.23h2.28v2.73h1.92v1.76h3.3v-2.03h1.92v-2h4.75v4.7h1.7v-4.75h1.32v2.38h1.2v2.33h3v-1.8h1.59v-3.54h2.22v5.2h2.06v-4.87h2.23v4.91h1.75v-4.38h2.47v4.09h2.08v-4.83h1.45v3.13h1.38v1.95h5.76v-2.46h1.85v-2.25h4.08l1.25 4.62 1.16-4.32 1.28 4.8 1.33-4.94h5.16l1.2 4.46h3.37l1.21-4.5 1.2 4.47 1.2-4.49h3.87v4.98h1.75v-4.38h2.47v4.09h2.08v-4.83h1.45v3.13h1.37v1.95h5.77v-2.46h1.84v-2.25h4.09l1.24 4.62 1.16-4.32 1.29 4.8 1.33-4.94h5.16l1.2 4.46h3.36l1.21-4.5 1.2 4.47 1.21-4.49h2.51l-.01 1.39h1.57v2.85h1.69v-2.46h1.21v-2.15h5.58v5.16h1.57v-2.5h1.06v-2.35h1.57v4.46h1.09v-2.58h1.22v-2.23h2.28v2.74h1.92v1.76h3.3v-2.04h1.92v-1.99h4.75v4.69h1.7v-4.75h1.32v2.38h1.19v2.33h3.01v-1.8h1.59v-3.54h2.21v5.2h2.06v-4.87h3.24"/><path fill="none" stroke="#fff" stroke-miterlimit="22.926" d="M8.05 357.76h890.01v56.88H8.05z"/></svg>